<svg version="1.1" preserveAspectRatio="none" xmlns="http://www.w3.org/2000/svg" width="500" height="500" viewBox="0 0 500 500"><rect width="100%" height="100%" fill="#87A3B5" fill-opacity="1"/><svg viewBox="477.807 345.8208 372.74 272.2222" width="333" height="243.19899286365828" x="83.5px" y="128.4005px" xmlns="http://www.w3.org/2000/svg" xmlns:xlink="http://www.w3.org/1999/xlink" preserveAspectRatio="none"><defs></defs><style>.companyName {fill:#FFE7D6;fill-opacity:1;}.icon1 {fill:#FFE7D6;fill-opacity:1;}.icon2 {fill:#364C63;fill-opacity:1;}.icon3 {fill:#F3B340;fill-opacity:1;}.icon3-str {stroke:#F3B340;stroke-opacity:1;}.text {fill:#FFE7D6;fill-opacity:1;}</style><g opacity="1" transform="rotate(0 608.266 345.8208)">
<svg width="111.822" height="111.8222" x="608.266" y="345.8208" version="1.1" preserveAspectRatio="none" viewBox="10.583000183105469 10.583000183105469 78.83399963378906 78.83399963378906">
  <g transform="matrix(1 0 0 1 0 0)" class="icon1"><g><path d="M75.18,19.7c-0.048-0.054-0.104-0.095-0.163-0.138c-2.487-2.048-5.231-3.794-8.173-5.19   c-0.049-0.026-0.096-0.05-0.149-0.068C61.621,11.922,55.965,10.583,50,10.583c-6.291,0-12.548,1.518-18.097,4.391   c-0.49,0.254-0.682,0.857-0.428,1.348s0.857,0.682,1.348,0.428c4.814-2.493,9.987-3.867,15.397-4.115v4.813   c-2.633,1.517-4.414,4.355-4.414,7.606c0,4.841,3.938,8.78,8.78,8.78c4.842,0,8.78-3.939,8.78-8.78c0-3.3-1.832-6.178-4.53-7.677   V13.22c2.985,0.553,5.846,1.462,8.539,2.681v10.932c0,0.363,0.196,0.697,0.513,0.874c0.152,0.084,0.319,0.126,0.487,0.126   c0.183,0,0.365-0.05,0.525-0.149l3.282-2.028l3.776,2.056c0.31,0.167,0.686,0.161,0.989-0.019c0.304-0.18,0.489-0.507,0.489-0.86   v-4.24c3.287,3.053,6.023,6.688,8.049,10.74H59.58c-0.553,0-1,0.448-1,1v22.833h-1.32c-0.553,0-1,0.447-1,1v4c0,0.553,0.447,1,1,1   h27.759c-2.72,7.209-7.603,13.363-13.856,17.669l0.463-5.336c0-1.146-0.653-2.133-1.601-2.638c0.603-0.697,0.973-1.479,1.088-2.347   c0.377-2.847-2.181-5.376-2.289-5.481c-0.31-0.302-0.778-0.372-1.161-0.17c-1.812,0.946-2.846,2.212-3.072,3.762   c-0.252,1.722,0.602,3.349,1.348,4.401c-0.791,0.548-1.311,1.477-1.309,2.56l0.743,8.513c-1.256,0.568-2.547,1.072-3.872,1.502   V66.167c0-0.553-0.447-1-1-1h-9.017c-0.552,0-1,0.447-1,1v21.237c-0.162,0.003-0.321,0.013-0.483,0.013   c-13.256,0-24.915-6.935-31.563-17.361c0.541,0.035,1.092,0.058,1.657,0.058c2.564-0.001,5.356-0.373,8.271-1.328v3.046   c-1.406,0.539-2.411,1.892-2.411,3.484v0.659c0,2.062,1.678,3.738,3.74,3.738c2.062,0,3.739-1.677,3.739-3.738v-0.659   c0-1.832-1.326-3.354-3.067-3.671v-3.597c1.209-0.503,2.436-1.111,3.672-1.842c0.304-0.181,0.491-0.508,0.491-0.861V54.832   l5.589-2.841c0.334-0.17,0.545-0.513,0.547-0.888c0.001-0.375-0.207-0.719-0.539-0.892l-2.134-1.108   c2.532-0.186,4.438,0.105,4.464,0.109c0.289,0.044,0.584-0.037,0.807-0.227c0.223-0.19,0.351-0.468,0.351-0.76V27.633   c0-0.487-0.352-0.904-0.832-0.986c-5.468-0.934-13.269,3.922-15.674,5.534c-2.039-2.184-4.668-3.522-7.26-4.331   c1.582-2.154,3.4-4.151,5.441-5.948c0.415-0.365,0.455-0.997,0.09-1.411c-0.365-0.414-0.996-0.456-1.411-0.09   C15.461,27.889,10.583,38.677,10.583,50c0,21.734,17.683,39.417,39.417,39.417S89.417,71.734,89.417,50   C89.417,37.832,83.872,26.937,75.18,19.7z M59.366,25.054c0,3.739-3.042,6.78-6.78,6.78s-6.78-3.042-6.78-6.78   c0-3.738,3.042-6.78,6.78-6.78S59.366,21.315,59.366,25.054z M54.836,16.577c-0.72-0.191-1.471-0.303-2.25-0.303   c-0.82,0-1.612,0.122-2.366,0.333v-4.018c1.564,0.009,3.102,0.121,4.616,0.317V16.577z M73.438,25.151l-2.809-1.529   c-0.316-0.171-0.699-0.161-1.004,0.028l-2.25,1.391v-8.163c2.153,1.134,4.182,2.471,6.063,3.986V25.151z M31.433,75.315v0.659   c0,0.958-0.78,1.738-1.739,1.738c-0.959,0-1.74-0.78-1.74-1.738v-0.659c0-0.959,0.78-1.739,1.74-1.739   C30.653,73.576,31.433,74.356,31.433,75.315z M17.216,68.012c-1.596-2.893-2.814-6.02-3.601-9.313l5.713,3.346   c0.156,0.091,0.331,0.137,0.505,0.137c0.155,0,0.311-0.036,0.453-0.108l8.079-4.106v8.717   C24.276,68.159,20.464,68.374,17.216,68.012z M32.529,64.768c-0.727,0.411-1.448,0.774-2.164,1.101v-8.919l2.164-1.101V64.768z    M29.613,55.087L20.37,50.11c-0.486-0.262-1.093-0.08-1.354,0.406s-0.08,1.093,0.406,1.354l8.021,4.319l-7.576,3.852l-6.784-3.973   c-0.324-1.977-0.5-4.003-0.5-6.069c0-1.704,0.129-3.392,0.357-5.06l6.858-3.031l17.678,9.181L29.613,55.087z M41.613,28.532V47.11   c-1.405-0.111-3.925-0.168-6.68,0.405l-6.979-3.625v-9.866C29.716,32.831,36.716,28.322,41.613,28.532z M25.954,33.862v8.99   l-5.66-2.939c-0.27-0.14-0.588-0.15-0.865-0.027l-6.091,2.692c0.939-4.632,2.741-9.04,5.312-12.989   C21.289,30.325,24.016,31.613,25.954,33.862z M66.569,68.911c0.104-0.7,0.558-1.329,1.352-1.876   c0.559,0.712,1.372,1.988,1.209,3.219c-0.096,0.719-0.539,1.371-1.321,1.945C67.177,71.394,66.395,70.082,66.569,68.911z    M66.625,75.5c0-0.552,0.448-1,1-1h1c0.552,0,1,0.448,1.004,0.913l-0.588,6.778c-0.572,0.34-1.155,0.663-1.746,0.973L66.625,75.5z    M59.5,67.167v19.024c-1.403,0.369-2.84,0.652-4.303,0.856c0.186-0.182,0.303-0.434,0.303-0.714c0-0.553-0.447-1-1-1h-2.017v-1.167   h3.509c0.553,0,1-0.447,1-1s-0.447-1-1-1h-3.509v-0.833H54.5c0.553,0,1-0.447,1-1s-0.447-1-1-1h-2.017v-1.167h3.509   c0.553,0,1-0.447,1-1s-0.447-1-1-1h-3.509v-1H54.5c0.553,0,1-0.447,1-1s-0.447-1-1-1h-2.017V72h3.509c0.553,0,1-0.447,1-1   s-0.447-1-1-1h-3.509v-2.833H59.5z M60.58,35.333h23.839c1.928,4.506,2.998,9.463,2.998,14.667c0,2.451-0.244,4.846-0.696,7.167   h-5.387v-2.5c0-0.553-0.447-1-1-1h-8c-0.553,0-1,0.447-1,1v2.5H60.58V35.333z M73.334,57.167v-1.5h6v1.5H73.334z M58.26,61.167v-2   h1.32h26.697c-0.171,0.674-0.356,1.341-0.563,2H58.26z"></path><path d="M27.263,20.031c0.206,0,0.413-0.063,0.591-0.194c0.597-0.439,1.216-0.867,1.841-1.271c0.463-0.3,0.596-0.919,0.296-1.383   c-0.299-0.463-0.917-0.596-1.383-0.296c-0.658,0.426-1.311,0.876-1.939,1.338c-0.445,0.327-0.541,0.953-0.213,1.398   C26.652,19.89,26.955,20.031,27.263,20.031z"></path><path d="M35.921,71.662c-0.041,0.102-0.076,0.206-0.081,0.32l-0.371,7.574c-0.019,0.396,0.196,0.765,0.55,0.942   c0.142,0.071,0.296,0.106,0.449,0.106c0.227,0,0.452-0.077,0.635-0.228l5.614-4.615c0.364-0.272,0.671-0.625,0.885-1.049   l13.193-26.162c0.361-0.715,0.422-1.529,0.172-2.29c-0.251-0.762-0.783-1.379-1.499-1.74l-2.084-1.051   c-0.417-0.21-0.884-0.322-1.35-0.322c-1.139,0-2.166,0.632-2.68,1.65l-1.501,2.976c0,0,0,0,0,0s0,0,0,0L36.16,70.962   C36.046,71.189,35.974,71.425,35.921,71.662z M37.69,75.094l1.667,0.842l-1.78,1.464L37.69,75.094z M52.034,45.149   c0.156,0,0.308,0.036,0.449,0.108l2.084,1.051c0.238,0.12,0.416,0.326,0.499,0.58c0.084,0.254,0.063,0.525-0.057,0.764   l-1.051,2.083l-3.869-1.951l1.051-2.083C51.312,45.36,51.654,45.149,52.034,45.149z M37.946,71.862l11.243-22.293l3.869,1.952   L41.815,73.813c-0.241,0.479-0.858,0.688-1.343,0.444l-2.083-1.051C37.896,72.958,37.698,72.354,37.946,71.862z"></path><path d="M49.376,23.5c0,0.552,0.448,1,1,1h4.403c0.553,0,1-0.448,1-1s-0.447-1-1-1h-4.403C49.824,22.5,49.376,22.948,49.376,23.5z"></path><path d="M54.779,25.833h-4.403c-0.552,0-1,0.448-1,1s0.448,1,1,1h4.403c0.553,0,1-0.448,1-1S55.332,25.833,54.779,25.833z"></path><path d="M30.501,37.066c0.185,0,0.373-0.051,0.54-0.159c0.037-0.023,3.731-2.377,7.822-3.02c0.545-0.085,0.918-0.597,0.833-1.143   c-0.085-0.546-0.595-0.919-1.143-0.833c-4.503,0.707-8.429,3.207-8.594,3.313c-0.464,0.298-0.599,0.917-0.3,1.382   C29.85,36.904,30.172,37.066,30.501,37.066z"></path><path d="M30.501,40.629c0.185,0,0.373-0.051,0.54-0.159c0.037-0.023,3.731-2.377,7.822-3.02c0.545-0.085,0.918-0.597,0.833-1.143   c-0.085-0.546-0.595-0.918-1.143-0.833c-4.503,0.707-8.429,3.207-8.594,3.313c-0.464,0.298-0.599,0.917-0.3,1.382   C29.85,40.467,30.172,40.629,30.501,40.629z"></path><path d="M38.553,39.813c-4.503,0.707-8.429,3.207-8.594,3.313c-0.464,0.298-0.599,0.917-0.3,1.382   c0.191,0.297,0.513,0.459,0.842,0.459c0.185,0,0.373-0.051,0.54-0.159c0.037-0.023,3.731-2.377,7.822-3.02   c0.545-0.085,0.918-0.597,0.833-1.143C39.61,40.099,39.101,39.727,38.553,39.813z"></path><path d="M65.625,42.25H83.25c0.553,0,1-0.448,1-1s-0.447-1-1-1H65.625c-0.553,0-1,0.448-1,1S65.072,42.25,65.625,42.25z"></path><path d="M65.625,46.375H83.25c0.553,0,1-0.448,1-1s-0.447-1-1-1H65.625c-0.553,0-1,0.448-1,1S65.072,46.375,65.625,46.375z"></path><path d="M74.438,50.605c0.553,0,1-0.448,1-1s-0.447-1-1-1h-8.813c-0.553,0-1,0.448-1,1s0.447,1,1,1H74.438z"></path></g></g>
</svg>
</g><g opacity="1" transform="rotate(0 488.9929 603.643)">
<svg width="350.3682" height="14.4" x="488.9929" y="603.643" version="1.1" preserveAspectRatio="none" viewBox="4 -36.96 1046.04 43">
  <g transform="matrix(1 0 0 1 0 0)" class="text"><path id="id-6izo4zJp35" d="M4-29.12L8.68-29.12L8.68-4.48L23.04-4.48L23.04 0L4 0L4-29.12Z M31.56-14.52Q31.56-18.52 33.56-21.94Q35.56-25.36 38.98-27.40Q42.40-29.44 46.44-29.44L46.44-29.44Q50.44-29.44 53.86-27.40Q57.28-25.36 59.32-21.92Q61.36-18.48 61.36-14.52L61.36-14.52Q61.36-10.48 59.34-7.08Q57.32-3.68 53.88-1.68Q50.44 0.32 46.44 0.32L46.44 0.32Q42.40 0.32 38.98-1.66Q35.56-3.64 33.56-7.04Q31.56-10.44 31.56-14.52L31.56-14.52ZM36.36-14.52Q36.36-11.68 37.72-9.32Q39.08-6.96 41.42-5.56Q43.76-4.16 46.56-4.16L46.56-4.16Q49.32-4.16 51.60-5.54Q53.88-6.92 55.22-9.30Q56.56-11.68 56.56-14.52L56.56-14.52Q56.56-17.36 55.20-19.76Q53.84-22.16 51.52-23.56Q49.20-24.96 46.44-24.96L46.44-24.96Q43.64-24.96 41.34-23.56Q39.04-22.16 37.70-19.76Q36.36-17.36 36.36-14.52L36.36-14.52Z M119.28-30.16L119.36-30.16L119.36 0L114.72 0L114.72-16.84L104.52-2.36L104.44-2.36L94.48-16.16L94.48 0L89.96 0L89.96-30.16L90-30.16L104.52-9.60L119.28-30.16Z M132.16-29.12L151.48-29.12L151.48-24.64L136.84-24.64L136.84-16.88L149.88-16.88L149.88-12.40L136.84-12.40L136.84-4.48L152.04-4.48L152.04 0L132.16 0L132.16-29.12Z M170.44-5.64Q170.44-2.08 169.04 0.52Q167.64 3.12 165.16 4.52Q162.68 5.92 159.44 6.04L159.44 6.04L159.44 1.52Q162.36 1.36 164.06-0.42Q165.76-2.20 165.76-5.76L165.76-5.76L165.76-29.12L170.44-29.12L170.44-5.64Z M181.44-14.52Q181.44-18.52 183.44-21.94Q185.44-25.36 188.86-27.40Q192.28-29.44 196.32-29.44L196.32-29.44Q200.32-29.44 203.74-27.40Q207.16-25.36 209.20-21.92Q211.24-18.48 211.24-14.52L211.24-14.52Q211.24-10.48 209.22-7.08Q207.20-3.68 203.76-1.68Q200.32 0.32 196.32 0.32L196.32 0.32Q192.28 0.32 188.86-1.66Q185.44-3.64 183.44-7.04Q181.44-10.44 181.44-14.52L181.44-14.52ZM186.24-14.52Q186.24-11.68 187.60-9.32Q188.96-6.96 191.30-5.56Q193.64-4.16 196.44-4.16L196.44-4.16Q199.20-4.16 201.48-5.54Q203.76-6.92 205.10-9.30Q206.44-11.68 206.44-14.52L206.44-14.52Q206.44-17.36 205.08-19.76Q203.72-22.16 201.40-23.56Q199.08-24.96 196.32-24.96L196.32-24.96Q193.52-24.96 191.22-23.56Q188.92-22.16 187.58-19.76Q186.24-17.36 186.24-14.52L186.24-14.52Z M243.56 0L238.16 0L231.60-10.12L231.12-10.12L226.92-10.12L226.92 0L222.24 0L222.24-29.12L230.44-29.12Q235.32-29.12 238.26-26.64Q241.20-24.16 241.20-19.76L241.20-19.76Q241.20-17.08 240.06-14.78Q238.92-12.48 236.48-11.24L236.48-11.24L243.56 0ZM226.92-24.64L226.92-14.60L231.08-14.60Q233.88-14.60 235.14-16.14Q236.40-17.68 236.40-19.60L236.40-19.60Q236.40-20.72 235.92-21.86Q235.44-23 234.28-23.82Q233.12-24.64 231.24-24.64L231.24-24.64L226.92-24.64Z M271.44-29.12L290.76-29.12L290.76-24.64L276.12-24.64L276.12-16.88L289.16-16.88L289.16-12.40L276.12-12.40L276.12-4.48L291.32-4.48L291.32 0L271.44 0L271.44-29.12Z M323.64-29.12L328.28-29.12L328.28 1.04L328.16 1.04L307.16-19.32L307.28 0L302.56 0L302.56-30.12L302.80-30.12L323.72-9.52L323.64-29.12Z M374.00-23.20Q370.24-25.16 367.32-25.16L367.32-25.16Q365.16-25.16 363.90-24.20Q362.64-23.24 362.64-21.56L362.64-21.56Q362.64-19.92 364.22-18.82Q365.80-17.72 368.64-16.64L368.64-16.64Q370.80-15.88 372.34-14.90Q373.88-13.92 374.88-12.24Q375.88-10.56 375.88-8L375.88-8Q375.88-5.68 374.72-3.80Q373.56-1.92 371.36-0.80Q369.16 0.32 366.16 0.32L366.16 0.32Q363.52 0.32 360.96-0.50Q358.40-1.32 356.40-2.76L356.40-2.76L358.48-6.40Q359.96-5.28 361.98-4.54Q364.00-3.80 365.72-3.80L365.72-3.80Q367.84-3.80 369.44-4.82Q371.04-5.84 371.04-7.96L371.04-7.96Q371.04-9.64 369.70-10.76Q368.36-11.88 365.96-12.80L365.96-12.80Q363.48-13.72 361.84-14.62Q360.20-15.52 359.02-17.14Q357.84-18.76 357.84-21.20L357.84-21.20Q357.84-24.76 360.26-26.94Q362.68-29.12 366.64-29.28L366.64-29.28Q369.52-29.28 371.70-28.62Q373.88-27.96 375.76-26.76L375.76-26.76L374.00-23.20Z M385.00-14.52Q385.00-18.52 387.00-21.94Q389.00-25.36 392.42-27.40Q395.84-29.44 399.88-29.44L399.88-29.44Q403.88-29.44 407.30-27.40Q410.72-25.36 412.76-21.92Q414.80-18.48 414.80-14.52L414.80-14.52Q414.80-10.48 412.78-7.08Q410.76-3.68 407.32-1.68Q403.88 0.32 399.88 0.32L399.88 0.32Q395.84 0.32 392.42-1.66Q389.00-3.64 387.00-7.04Q385.00-10.44 385.00-14.52L385.00-14.52ZM389.80-14.52Q389.80-11.68 391.16-9.32Q392.52-6.96 394.86-5.56Q397.20-4.16 400.00-4.16L400.00-4.16Q402.76-4.16 405.04-5.54Q407.32-6.92 408.66-9.30Q410.00-11.68 410.00-14.52L410.00-14.52Q410.00-17.36 408.64-19.76Q407.28-22.16 404.96-23.56Q402.64-24.96 399.88-24.96L399.88-24.96Q397.08-24.96 394.78-23.56Q392.48-22.16 391.14-19.76Q389.80-17.36 389.80-14.52L389.80-14.52Z M425.80-29.12L430.48-29.12L430.48-4.48L444.84-4.48L444.84 0L425.80 0L425.80-29.12Z M460.00-10.48Q460.00-8.80 460.88-7.36Q461.76-5.92 463.28-5.06Q464.80-4.20 466.60-4.20L466.60-4.20Q468.48-4.20 470.02-5.04Q471.56-5.88 472.44-7.32Q473.32-8.76 473.32-10.48L473.32-10.48L473.32-29.12L477.92-29.12L477.92-10.36Q477.92-7.24 476.42-4.82Q474.92-2.40 472.32-1.04Q469.72 0.32 466.60 0.32L466.60 0.32Q463.48 0.32 460.90-1.04Q458.32-2.40 456.84-4.82Q455.36-7.24 455.36-10.36L455.36-10.36L455.36-29.12L460.00-29.12L460.00-10.48Z M511.84-2.28Q510.56-1.36 508.30-0.52Q506.04 0.32 503.36 0.32L503.36 0.32Q498.84 0.32 495.46-1.66Q492.08-3.64 490.26-6.98Q488.44-10.32 488.44-14.32L488.44-14.32Q488.44-18.68 490.26-22.12Q492.08-25.56 495.34-27.50Q498.60-29.44 502.76-29.44L502.76-29.44Q505.32-29.44 507.50-28.76Q509.68-28.08 511.36-27.04L511.36-27.04L509.52-22.68Q506.28-24.96 502.92-24.96L502.92-24.96Q500.36-24.96 498.14-23.58Q495.92-22.20 494.60-19.82Q493.28-17.44 493.28-14.60L493.28-14.60Q493.28-11.60 494.50-9.22Q495.72-6.84 497.98-5.50Q500.24-4.16 503.20-4.16L503.20-4.16Q505.32-4.16 507.02-4.80Q508.72-5.44 509.88-6.44L509.88-6.44L511.84-2.28Z M522.84-29.12L527.52-29.12L527.52 0L522.84 0L522.84-29.12Z M538.52-14.52Q538.52-18.52 540.52-21.94Q542.52-25.36 545.94-27.40Q549.36-29.44 553.40-29.44L553.40-29.44Q557.40-29.44 560.82-27.40Q564.24-25.36 566.28-21.92Q568.32-18.48 568.32-14.52L568.32-14.52Q568.32-10.48 566.30-7.08Q564.28-3.68 560.84-1.68Q557.40 0.32 553.40 0.32L553.40 0.32Q549.36 0.32 545.94-1.66Q542.52-3.64 540.52-7.04Q538.52-10.44 538.52-14.52L538.52-14.52ZM543.32-14.52Q543.32-11.68 544.68-9.32Q546.04-6.96 548.38-5.56Q550.72-4.16 553.52-4.16L553.52-4.16Q556.28-4.16 558.56-5.54Q560.84-6.92 562.18-9.30Q563.52-11.68 563.52-14.52L563.52-14.52Q563.52-17.36 562.16-19.76Q560.80-22.16 558.48-23.56Q556.16-24.96 553.40-24.96L553.40-24.96Q550.60-24.96 548.30-23.56Q546.00-22.16 544.66-19.76Q543.32-17.36 543.32-14.52L543.32-14.52Z M600.40-29.12L605.04-29.12L605.04 1.04L604.92 1.04L583.92-19.32L584.04 0L579.32 0L579.32-30.12L579.56-30.12L600.48-9.52L600.40-29.12Z M617.88-29.12L637.20-29.12L637.20-24.64L622.56-24.64L622.56-16.88L635.60-16.88L635.60-12.40L622.56-12.40L622.56-4.48L637.76-4.48L637.76 0L617.88 0L617.88-29.12Z M664.28-23.20Q660.52-25.16 657.60-25.16L657.60-25.16Q655.44-25.16 654.18-24.20Q652.92-23.24 652.92-21.56L652.92-21.56Q652.92-19.92 654.50-18.82Q656.08-17.72 658.92-16.64L658.92-16.64Q661.08-15.88 662.62-14.90Q664.16-13.92 665.16-12.24Q666.16-10.56 666.16-8L666.16-8Q666.16-5.68 665.00-3.80Q663.84-1.92 661.64-0.80Q659.44 0.32 656.44 0.32L656.44 0.32Q653.80 0.32 651.24-0.50Q648.68-1.32 646.68-2.76L646.68-2.76L648.76-6.40Q650.24-5.28 652.26-4.54Q654.28-3.80 656.00-3.80L656.00-3.80Q658.12-3.80 659.72-4.82Q661.32-5.84 661.32-7.96L661.32-7.96Q661.32-9.64 659.98-10.76Q658.64-11.88 656.24-12.80L656.24-12.80Q653.76-13.72 652.12-14.62Q650.48-15.52 649.30-17.14Q648.12-18.76 648.12-21.20L648.12-21.20Q648.12-24.76 650.54-26.94Q652.96-29.12 656.92-29.28L656.92-29.28Q659.80-29.28 661.98-28.62Q664.16-27.96 666.04-26.76L666.04-26.76L664.28-23.20Z M694.68-29.12L699.36-29.12L699.36 0L694.68 0L694.68-29.12Z M733.24-29.12L737.88-29.12L737.88 1.04L737.76 1.04L716.76-19.32L716.88 0L712.16 0L712.16-30.12L712.40-30.12L733.32-9.52L733.24-29.12Z M750.72-29.12L768.40-29.12L768.40-24.64L755.40-24.64L755.40-16.44L766.72-16.44L766.72-12L755.40-12L755.40 0L750.72 0L750.72-29.12Z M777.08-14.52Q777.08-18.52 779.08-21.94Q781.08-25.36 784.50-27.40Q787.92-29.44 791.96-29.44L791.96-29.44Q795.96-29.44 799.38-27.40Q802.80-25.36 804.84-21.92Q806.88-18.48 806.88-14.52L806.88-14.52Q806.88-10.48 804.86-7.08Q802.84-3.68 799.40-1.68Q795.96 0.32 791.96 0.32L791.96 0.32Q787.92 0.32 784.50-1.66Q781.08-3.64 779.08-7.04Q777.08-10.44 777.08-14.52L777.08-14.52ZM781.88-14.52Q781.88-11.68 783.24-9.32Q784.60-6.96 786.94-5.56Q789.28-4.16 792.08-4.16L792.08-4.16Q794.84-4.16 797.12-5.54Q799.40-6.92 800.74-9.30Q802.08-11.68 802.08-14.52L802.08-14.52Q802.08-17.36 800.72-19.76Q799.36-22.16 797.04-23.56Q794.72-24.96 791.96-24.96L791.96-24.96Q789.16-24.96 786.86-23.56Q784.56-22.16 783.22-19.76Q781.88-17.36 781.88-14.52L781.88-14.52Z M839.20 0L833.80 0L827.24-10.12L826.76-10.12L822.56-10.12L822.56 0L817.88 0L817.88-29.12L826.08-29.12Q830.96-29.12 833.90-26.64Q836.84-24.16 836.84-19.76L836.84-19.76Q836.84-17.08 835.70-14.78Q834.56-12.48 832.12-11.24L832.12-11.24L839.20 0ZM822.56-24.64L822.56-14.60L826.72-14.60Q829.52-14.60 830.78-16.14Q832.04-17.68 832.04-19.60L832.04-19.60Q832.04-20.72 831.56-21.86Q831.08-23 829.92-23.82Q828.76-24.64 826.88-24.64L826.88-24.64L822.56-24.64Z M878.80-30.16L878.88-30.16L878.88 0L874.24 0L874.24-16.84L864.04-2.36L863.96-2.36L854.00-16.16L854.00 0L849.48 0L849.48-30.16L849.52-30.16L864.04-9.60L878.80-30.16Z M909.32 0L906.64-6.84L896.04-6.84L893.24 0L888.64 0L901.52-30.32L901.80-30.32L914.68 0L909.32 0ZM897.68-10.84L905.08-10.84L901.44-20.04L897.68-10.84ZM908.36-36.96L902.96-31.60L900.16-31.60L903.40-36.96L908.36-36.96Z M919.84-29.12L939.32-29.12L939.32-24.64L931.80-24.64L931.80 0L927.16 0L927.16-24.64L919.84-24.64L919.84-29.12Z M950.04-29.12L954.72-29.12L954.72 0L950.04 0L950.04-29.12Z M989.12-2.28Q987.84-1.36 985.58-0.52Q983.32 0.32 980.64 0.32L980.64 0.32Q976.12 0.32 972.74-1.66Q969.36-3.64 967.54-6.98Q965.72-10.32 965.72-14.32L965.72-14.32Q965.72-18.68 967.54-22.12Q969.36-25.56 972.62-27.50Q975.88-29.44 980.04-29.44L980.04-29.44Q982.60-29.44 984.78-28.76Q986.96-28.08 988.64-27.04L988.64-27.04L986.80-22.68Q983.56-24.96 980.20-24.96L980.20-24.96Q977.64-24.96 975.42-23.58Q973.20-22.20 971.88-19.82Q970.56-17.44 970.56-14.60L970.56-14.60Q970.56-11.60 971.78-9.22Q973.00-6.84 975.26-5.50Q977.52-4.16 980.48-4.16L980.48-4.16Q982.60-4.16 984.30-4.80Q986.00-5.44 987.16-6.44L987.16-6.44L989.12-2.28Z M1017.76 0L1015.08-6.84L1004.48-6.84L1001.68 0L997.08 0L1009.96-30.32L1010.24-30.32L1023.12 0L1017.76 0ZM1006.12-10.84L1013.52-10.84L1009.88-20.04L1006.12-10.84Z M1048.16-23.20Q1044.40-25.16 1041.48-25.16L1041.48-25.16Q1039.32-25.16 1038.06-24.20Q1036.80-23.24 1036.80-21.56L1036.80-21.56Q1036.80-19.92 1038.38-18.82Q1039.96-17.72 1042.80-16.64L1042.80-16.64Q1044.96-15.88 1046.50-14.90Q1048.04-13.92 1049.04-12.24Q1050.04-10.56 1050.04-8L1050.04-8Q1050.04-5.68 1048.88-3.80Q1047.72-1.92 1045.52-0.80Q1043.32 0.32 1040.32 0.32L1040.32 0.32Q1037.68 0.32 1035.12-0.50Q1032.56-1.32 1030.56-2.76L1030.56-2.76L1032.64-6.40Q1034.12-5.28 1036.14-4.54Q1038.16-3.80 1039.88-3.80L1039.88-3.80Q1042.00-3.80 1043.60-4.82Q1045.20-5.84 1045.20-7.96L1045.20-7.96Q1045.20-9.64 1043.86-10.76Q1042.52-11.88 1040.12-12.80L1040.12-12.80Q1037.64-13.72 1036.00-14.62Q1034.36-15.52 1033.18-17.14Q1032.00-18.76 1032.00-21.20L1032.00-21.20Q1032.00-24.76 1034.42-26.94Q1036.84-29.12 1040.80-29.28L1040.80-29.28Q1043.68-29.28 1045.86-28.62Q1048.04-27.96 1049.92-26.76L1049.92-26.76L1048.16-23.20Z"/></g>
</svg>
</g><g opacity="1" transform="rotate(0 477.807 507.643)">
<svg width="372.74" height="60" x="477.807" y="507.643" version="1.1" preserveAspectRatio="none" viewBox="1.8 -28.6 181.39999999999998 29.200000000000003">
  <g transform="matrix(1 0 0 1 0 0)" class="companyName"><path id="id-D6z1nYkh12" d="M1.80-28L8.80-28Q11.44-28 13.66-27.04Q15.88-26.08 17.52-24.28Q19.16-22.48 20.08-19.88Q21-17.28 21-14L21-14Q21-10.68 20.08-8.08Q19.16-5.48 17.52-3.68Q15.88-1.88 13.66-0.94Q11.44 0 8.80 0L8.80 0L1.80 0L1.80-0.40L4.20-1L4.20-27L1.80-27.60L1.80-28ZM8.80-27.20L7.60-27.20L7.60-0.80L8.80-0.80Q10.52-0.80 12.06-1.54Q13.60-2.28 14.74-3.88Q15.88-5.48 16.54-7.98Q17.20-10.48 17.20-14L17.20-14Q17.20-17.52 16.54-20.02Q15.88-22.52 14.74-24.12Q13.60-25.72 12.06-26.46Q10.52-27.20 8.80-27.20L8.80-27.20Z M29.40-12.60L29.40-1L31.80-0.40L31.80 0L23.80 0L23.80-0.40L26.20-1L26.20-17.40L23.80-18L23.80-18.40L29.40-18.40L29.40-13.60Q29.92-15.08 30.64-16.28L30.64-16.28Q31.28-17.32 32.20-18.16Q33.12-19 34.40-19L34.40-19Q34.84-19 35.24-18.94Q35.64-18.88 35.96-18.80L35.96-18.80Q36.32-18.68 36.60-18.60L36.60-18.60L35.40-15.60Q35.16-15.72 34.88-15.88L34.88-15.88Q34.64-16 34.30-16.10Q33.96-16.20 33.60-16.20L33.60-16.20Q32.56-16.20 31.76-15.64Q30.96-15.08 30.44-14.40L30.44-14.40Q29.80-13.60 29.40-12.60L29.40-12.60Z M36.80-1.80L36.80-1.80Q36.80-2.72 37.44-3.36Q38.08-4 39-4L39-4Q39.92-4 40.56-3.36Q41.20-2.72 41.20-1.80L41.20-1.80Q41.20-0.88 40.56-0.24Q39.92 0.40 39 0.40L39 0.40Q38.08 0.40 37.44-0.24Q36.80-0.88 36.80-1.80Z M56.80-22.80L56.80-22.80Q56.80-21.16 57.76-19.98Q58.72-18.80 60.16-17.80Q61.60-16.80 63.30-15.84Q65-14.88 66.44-13.66Q67.88-12.44 68.84-10.80Q69.80-9.16 69.80-6.80L69.80-6.80Q69.80-5.24 69.24-3.88Q68.68-2.52 67.66-1.52Q66.64-0.52 65.24 0.04Q63.84 0.60 62.20 0.60L62.20 0.60Q60.68 0.60 59.60 0.30Q58.52 0 57.80-0.40L57.80-0.40Q56.96-0.84 56.40-1.40L56.40-1.40Q56.08-0.80 55.54-0.28Q55.00 0.24 54.40 0.40L54.40 0.40L53.80 0.40Q53.84-0.16 53.88-0.80L53.88-0.80Q53.92-1.32 53.96-1.96Q54.00-2.60 54.00-3.20L54.00-3.20Q54.00-3.88 53.96-4.54Q53.92-5.20 53.88-5.76L53.88-5.76Q53.84-6.40 53.80-7L53.80-7L54.40-7Q55.32-3.68 57.06-1.94Q58.80-0.20 61.80-0.20L61.80-0.20Q64.20-0.20 65.70-1.74Q67.20-3.28 67.20-6L67.20-6Q67.20-7.64 66.24-8.82Q65.28-10 63.84-11Q62.40-12 60.70-12.96Q59.00-13.92 57.56-15.14Q56.12-16.36 55.16-18Q54.20-19.64 54.20-22L54.20-22Q54.20-23.36 54.72-24.56Q55.24-25.76 56.16-26.66Q57.08-27.56 58.32-28.08Q59.56-28.60 61.00-28.60L61.00-28.60Q62.20-28.60 63.12-28.28Q64.04-27.96 64.68-27.60L64.68-27.60Q65.40-27.16 66-26.60L66-26.60Q66.32-27.20 66.86-27.72Q67.40-28.24 68-28.40L68-28.40L68.60-28.40Q68.52-27.80 68.48-27.20L68.48-27.20Q68.44-26.64 68.42-26.02Q68.40-25.40 68.40-24.80L68.40-24.80Q68.40-24.12 68.42-23.46Q68.44-22.80 68.48-22.24L68.48-22.24Q68.52-21.60 68.60-21L68.60-21L68-21Q67.08-24.32 65.44-26.06Q63.80-27.80 61.40-27.80L61.40-27.80Q59.44-27.80 58.12-26.44Q56.80-25.08 56.80-22.80Z M80.40-18.40L80.40-18.40Q79.72-18.40 79.02-17.94Q78.32-17.48 77.74-16.42Q77.16-15.36 76.78-13.60Q76.40-11.84 76.40-9.20L76.40-9.20Q76.40-6.56 76.78-4.80Q77.16-3.04 77.74-1.98Q78.32-0.92 79.02-0.46Q79.72 0 80.40 0L80.40 0Q81.08 0 81.78-0.46Q82.48-0.92 83.06-1.98Q83.64-3.04 84.02-4.80Q84.40-6.56 84.40-9.20L84.40-9.20Q84.40-11.84 84.02-13.60Q83.64-15.36 83.06-16.42Q82.48-17.48 81.78-17.94Q81.08-18.40 80.40-18.40ZM80.40-19L80.40-19Q81.88-19 83.26-18.34Q84.64-17.68 85.70-16.42Q86.76-15.16 87.38-13.34Q88-11.52 88-9.20L88-9.20Q88-6.88 87.38-5.06Q86.76-3.24 85.70-1.98Q84.64-0.72 83.26-0.06Q81.88 0.60 80.40 0.60L80.40 0.60Q78.88 0.60 77.52-0.06Q76.16-0.72 75.10-1.98Q74.04-3.24 73.42-5.06Q72.80-6.88 72.80-9.20L72.80-9.20Q72.80-11.52 73.42-13.34Q74.04-15.16 75.10-16.42Q76.16-17.68 77.52-18.34Q78.88-19 80.40-19Z M91-0.40L93.40-1L93.40-27L91-27.60L91-28L96.60-28L96.60-1L99-0.40L99 0L91 0L91-0.40Z M118.80-18L116.40-17.40L116.40-1L118.80-0.40L118.80 0L113.20 0L113.20-2.40Q112.76-1.56 112.08-0.88L112.08-0.88Q111.52-0.32 110.66 0.14Q109.80 0.60 108.60 0.60L108.60 0.60Q107.40 0.60 106.38 0.16Q105.36-0.28 104.60-1.06Q103.84-1.84 103.42-2.94Q103-4.04 103-5.40L103-5.40L103-17.40L100.60-18L100.60-18.40L108.40-18.40L108.40-18L106.20-17.40L106.20-5.40Q106.20-2.56 107.10-1.38Q108-0.20 109.20-0.20L109.20-0.20Q110.16-0.20 110.90-0.76Q111.64-1.32 112.16-2L112.16-2Q112.76-2.76 113.20-3.80L113.20-3.80L113.20-17.40L111-18L111-18.40L118.80-18.40L118.80-18Z M127.20-18.40L131.80-18.40L131.80-17.60L127.20-17.60L127.20-4.84Q127.20-2.40 128.08-1.30Q128.96-0.20 130-0.20L130-0.20Q131.36-0.20 132.30-1.22Q133.24-2.24 133.40-4.20L133.40-4.20L134-4.20Q133.84-1.92 132.62-0.66Q131.40 0.60 129.60 0.60L129.60 0.60Q127.04 0.60 125.52-0.90Q124-2.40 124-4.80L124-4.80L124-17.60L120.60-17.60L120.60-18.40L124-18.40L124-23L127.20-25.20L127.20-18.40Z M135.80-0.40L138.20-1L138.20-17.40L135.80-18L135.80-18.40L141.40-18.40L141.40-1L143.80-0.40L143.80 0L135.80 0L135.80-0.40ZM141.60-23L141.60-23Q141.60-22.24 140.98-21.62Q140.36-21 139.60-21L139.60-21Q138.84-21 138.22-21.62Q137.60-22.24 137.60-23L137.60-23Q137.60-23.76 138.22-24.38Q138.84-25 139.60-25L139.60-25Q140.36-25 140.98-24.38Q141.60-23.76 141.60-23Z M154.20-18.40L154.20-18.40Q153.52-18.40 152.82-17.94Q152.12-17.48 151.54-16.42Q150.96-15.36 150.58-13.60Q150.20-11.84 150.20-9.20L150.20-9.20Q150.20-6.56 150.58-4.80Q150.96-3.04 151.54-1.98Q152.12-0.92 152.82-0.46Q153.52 0 154.20 0L154.20 0Q154.88 0 155.58-0.46Q156.28-0.92 156.86-1.98Q157.44-3.04 157.82-4.80Q158.20-6.56 158.20-9.20L158.20-9.20Q158.20-11.84 157.82-13.60Q157.44-15.36 156.86-16.42Q156.28-17.48 155.58-17.94Q154.88-18.40 154.20-18.40ZM154.20-19L154.20-19Q155.68-19 157.06-18.34Q158.44-17.68 159.50-16.42Q160.56-15.16 161.18-13.34Q161.80-11.52 161.80-9.20L161.80-9.20Q161.80-6.88 161.18-5.06Q160.56-3.24 159.50-1.98Q158.44-0.72 157.06-0.06Q155.68 0.60 154.20 0.60L154.20 0.60Q152.68 0.60 151.32-0.06Q149.96-0.72 148.90-1.98Q147.84-3.24 147.22-5.06Q146.60-6.88 146.60-9.20L146.60-9.20Q146.60-11.52 147.22-13.34Q147.84-15.16 148.90-16.42Q149.96-17.68 151.32-18.34Q152.68-19 154.20-19Z M165.00-0.40L167.40-1L167.40-17.40L165.00-18L165.00-18.40L170.60-18.40L170.60-16Q171.00-16.80 171.68-17.48L171.68-17.48Q172.24-18.04 173.12-18.52Q174.00-19 175.20-19L175.20-19Q176.40-19 177.42-18.56Q178.44-18.12 179.20-17.34Q179.96-16.56 180.38-15.46Q180.80-14.36 180.80-13L180.80-13L180.80-1L183.20-0.40L183.20 0L175.40 0L175.40-0.40L177.60-1L177.60-13Q177.60-15.84 176.70-17.02Q175.80-18.20 174.60-18.20L174.60-18.20Q173.60-18.20 172.88-17.64Q172.16-17.08 171.64-16.40L171.64-16.40Q171.04-15.60 170.60-14.60L170.60-14.60L170.60-1L172.80-0.40L172.80 0L165.00 0L165.00-0.40Z"/></g>
</svg>
</g></svg></svg>