<svg version="1.1" preserveAspectRatio="none" xmlns="http://www.w3.org/2000/svg" width="500" height="500" viewBox="0 0 500 500"><rect width="100%" height="100%" fill="#FFFFFF" fill-opacity="1"/><svg viewBox="38.7872 169.9999 581.4367 160" width="333" height="91.63508254638897" x="83.5px" y="204.1825px" xmlns="http://www.w3.org/2000/svg" xmlns:xlink="http://www.w3.org/1999/xlink" preserveAspectRatio="none"><defs></defs><style>.companyName {fill:#182145;fill-opacity:1;}.icon1 {fill:#182145;fill-opacity:1;}.icon2 {fill:#E35B34;fill-opacity:1;}.icon3 {fill:#E3D454;fill-opacity:1;}.icon3-str {stroke:#E3D454;stroke-opacity:1;}.text {fill:#182145;fill-opacity:1;}</style><g opacity="1" transform="rotate(0 38.7872 169.9999)">
<svg width="150.0001" height="160" x="38.7872" y="169.9999" version="1.1" preserveAspectRatio="none" viewBox="16.006999969482422 0.007999897003173828 479.9849853515625 511.9840087890625">
  <g transform="matrix(1 0 0 1 0 0)" class="icon1"><g><g><g><path d="M412.229,367.996c-2.203,0-4.031-1.789-4.031-4c0-2.21,1.75-3.999,3.953-3.999h0.078c2.219,0,4,1.789,4,3.999     C416.229,366.207,414.447,367.996,412.229,367.996z"></path></g></g><g><g><path d="M380.23,367.996c-2.203,0-4.031-1.789-4.031-4c0-2.21,1.75-3.999,3.953-3.999h0.078c2.219,0,4,1.789,4,3.999     C384.23,366.207,382.449,367.996,380.23,367.996z"></path></g></g><g><g><path d="M396.23,375.996c-2.203,0-4.031-1.789-4.031-4s1.75-4,3.953-4h0.078c2.219,0,4,1.789,4,4S398.449,375.996,396.23,375.996     z"></path></g></g><g><g><path d="M364.23,375.996c-2.203,0-4.031-1.789-4.031-4s1.75-4,3.953-4h0.078c2.219,0,4,1.789,4,4S366.449,375.996,364.23,375.996     z"></path></g></g><g><g><path d="M475.992,375.996c-2.211,0-4-1.789-4-4V100.005c0-2.211,1.789-4,4-4s4,1.789,4,4v271.991     C479.992,374.207,478.203,375.996,475.992,375.996z"></path></g></g><g><g><path d="M36.006,375.996c-2.211,0-4-1.789-4-4V100.005c0-2.211,1.789-4,4-4s4,1.789,4,4v271.991     C40.006,374.207,38.217,375.996,36.006,375.996z"></path></g></g><g><g><path d="M236,72.756c-2.211,0-4-1.789-4-4V4.008c0-2.211,1.789-4,4-4s4,1.789,4,4v64.748C240,70.967,238.211,72.756,236,72.756z"></path></g></g><g><g><path d="M276,72.756c-2.211,0-4-1.789-4-4V4.008c0-2.211,1.789-4,4-4c2.209,0,3.998,1.789,3.998,4v64.748     C279.998,70.967,278.209,72.756,276,72.756z"></path></g></g><g><g><path d="M276,8.008h-40c-2.211,0-4-1.789-4-4s1.789-4,4-4h40c2.209,0,3.998,1.789,3.998,4S278.209,8.008,276,8.008z"></path></g></g><g><g><path d="M140.003,511.992h-39.999c-2.211,0-4-1.789-4-4s1.789-4,4-4h39.999c2.211,0,4,1.789,4,4S142.214,511.992,140.003,511.992     z"></path></g></g><g><g><path d="M100,511.992c-0.648,0-1.305-0.156-1.91-0.492c-1.941-1.055-2.656-3.484-1.598-5.422l47.999-87.997     c1.059-1.945,3.5-2.664,5.425-1.594c1.941,1.055,2.656,3.484,1.598,5.422l-47.999,87.997     C102.79,511.242,101.418,511.992,100,511.992z"></path></g></g><g><g><path d="M124,511.992c-0.648,0-1.305-0.156-1.91-0.484c-1.941-1.062-2.656-3.492-1.598-5.43l26.175-47.998     c1.062-1.945,3.5-2.656,5.425-1.602c1.941,1.062,2.656,3.492,1.598,5.43l-26.175,47.998     C126.789,511.242,125.417,511.992,124,511.992z"></path></g></g><g><g><path d="M140,511.992c-0.648,0-1.305-0.156-1.91-0.492c-1.941-1.055-2.656-3.484-1.598-5.422l47.999-87.997     c1.059-1.945,3.496-2.664,5.425-1.594c1.941,1.055,2.656,3.484,1.598,5.422l-47.998,87.997     C142.789,511.242,141.417,511.992,140,511.992z"></path></g></g><g><g><path d="M411.994,511.992h-39.998c-2.211,0-4-1.789-4-4s1.789-4,4-4h39.998c2.211,0,4,1.789,4,4S414.205,511.992,411.994,511.992     z"></path></g></g><g><g><path d="M411.994,511.992c-1.414,0-2.781-0.75-3.516-2.086l-47.998-87.997c-1.055-1.938-0.344-4.367,1.602-5.422     c1.93-1.07,4.367-0.352,5.43,1.594l47.998,87.997c1.055,1.938,0.344,4.367-1.602,5.422     C413.307,511.836,412.65,511.992,411.994,511.992z"></path></g></g><g><g><path d="M371.996,511.992c-1.414,0-2.781-0.75-3.516-2.086l-47.998-87.997c-1.055-1.938-0.344-4.367,1.602-5.422     c1.93-1.07,4.367-0.352,5.43,1.594l47.998,87.997c1.055,1.938,0.344,4.367-1.602,5.422     C373.309,511.836,372.652,511.992,371.996,511.992z"></path></g></g><g><g><path d="M369.824,463.994c-1.422,0-2.797-0.75-3.516-2.086l-21.828-39.999c-1.055-1.938-0.344-4.367,1.602-5.422     c1.93-1.07,4.367-0.352,5.43,1.594l21.812,39.999c1.062,1.938,0.344,4.367-1.594,5.422     C371.121,463.838,370.465,463.994,369.824,463.994z"></path></g></g><g><g><path d="M331.998,479.993H180.002c-2.211,0-4-1.789-4-4s1.789-4,4-4h151.996c2.211,0,4,1.789,4,4     S334.209,479.993,331.998,479.993z"></path></g></g><g><g><path d="M491.992,407.995H20.007c-2.211,0-4-1.789-4-3.999v-16c0-2.211,1.789-4,4-4h471.985c2.211,0,4,1.789,4,4v16     C495.992,406.206,494.203,407.995,491.992,407.995z M24.007,399.996h463.985v-8H24.007V399.996z"></path></g></g><g><g><path d="M36.006,104.005c-2.211,0-4-1.789-4-4c0-11.031,8.973-20,20-20c2.21,0,4,1.789,4,4c0,2.21-1.789,4-4,4     c-6.617,0-12,5.383-12,12C40.006,102.216,38.217,104.005,36.006,104.005z"></path></g></g><g><g><path d="M475.992,104.005c-2.211,0-4-1.789-4-4c0-6.617-5.381-12-11.998-12c-2.211,0-4-1.789-4-4c0-2.211,1.789-4,4-4     c11.029,0,19.998,8.968,19.998,20C479.992,102.216,478.203,104.005,475.992,104.005z"></path></g></g><g><g><path d="M459.994,88.005H52.006c-2.211,0-4-1.789-4-4c0-2.211,1.789-4,4-4h407.988c2.211,0,4,1.789,4,4     C463.994,86.216,462.205,88.005,459.994,88.005z"></path></g></g><g><g><path d="M52.006,375.996c-2.211,0-4-1.789-4-4V108.004c0-2.21,1.789-4,4-4c2.21,0,4,1.789,4,4v263.992     C56.006,374.207,54.217,375.996,52.006,375.996z"></path></g></g><g><g><path d="M52.006,112.004c-2.211,0-4-1.789-4-4c0-6.617,5.382-12,11.999-12c2.211,0,4,1.789,4,4s-1.789,4-4,4     c-2.207,0-4,1.797-4,4C56.006,110.215,54.217,112.004,52.006,112.004z"></path></g></g><g><g><path d="M459.994,112.004c-2.211,0-4-1.789-4-4c0-2.203-1.797-4-4-4c-2.211,0-4-1.789-4-4s1.789-4,4-4c6.617,0,12,5.383,12,12     C463.994,110.215,462.205,112.004,459.994,112.004z"></path></g></g><g><g><path d="M451.994,104.005H60.005c-2.21,0-4-1.789-4-4s1.789-4,4-4h391.989c2.211,0,4,1.789,4,4S454.205,104.005,451.994,104.005z     "></path></g></g><g><g><path d="M459.994,373.496c-2.211,0-4-1.789-4-4V108.004c0-2.21,1.789-4,4-4s4,1.789,4,4v261.492     C463.994,371.707,462.205,373.496,459.994,373.496z"></path></g></g><g><g><path d="M427.994,375.996c-2.211,0-4-1.789-4-4v-19.999h-71.998v19.999c0,2.211-1.789,4-4,4s-4-1.789-4-4v-23.999     c0-2.211,1.789-4,4-4h79.998c2.211,0,4,1.789,4,4v23.999C431.994,374.207,430.205,375.996,427.994,375.996z"></path></g></g><g><g><path d="M172.002,375.996H92.004c-2.21,0-4-1.789-4-4s1.789-4,4-4h79.998c2.211,0,4,1.789,4,4S174.213,375.996,172.002,375.996z"></path></g></g><g><g><path d="M256,72.006c-2.211,0-4-1.789-4-4v-24c0-2.21,1.789-4,4-4c2.211,0,4,1.789,4,4v24C260,70.217,258.211,72.006,256,72.006z     "></path></g></g><g><g><path d="M150.187,463.994c-0.5,0-1.008-0.094-1.5-0.289c-2.046-0.828-3.035-3.164-2.207-5.211     c2.367-5.852,10.745-15.523,25.421-10.266c2.082,0.75,3.16,3.039,2.414,5.117c-0.754,2.078-3.043,3.133-5.117,2.414     c-11.008-3.961-14.902,4.727-15.304,5.734C153.265,463.049,151.769,463.994,150.187,463.994z"></path></g></g><g><g><g><path d="M176.002,248c-8.824,0-16-7.179-16-15.999c0-8.82,7.176-16,16-16c8.824,0,15.999,7.18,15.999,16      C192.001,240.821,184.826,248,176.002,248z M176.002,224.001c-4.41,0-8,3.586-8,8c0,4.414,3.59,8,8,8c4.41,0,8-3.586,8-8      C184.002,227.587,180.412,224.001,176.002,224.001z"></path></g></g><g><g><path d="M176.002,264l-3.824-0.031c-2.211-0.039-3.965-1.867-3.926-4.078c0.039-2.203,1.621-3.945,4.074-3.922l3.676,0.031      C218.431,256,248,243.352,248,232.001c0-11.352-29.569-24-71.998-24l-3.93,0.039c-2.246,0.227-4.031-1.719-4.07-3.93      c-0.039-2.21,1.719-4.031,3.93-4.07l4.07-0.039c38.78,0,79.997,11.218,79.997,31.999C256,252.781,214.782,264,176.002,264z"></path></g></g><g><g><path d="M123.91,256.383c-0.434,0-0.875-0.07-1.309-0.219c-17.152-5.945-26.597-14.523-26.597-24.163      c0-9.656,9.488-18.258,26.718-24.21c2.062-0.727,4.363,0.383,5.085,2.477c0.723,2.085-0.387,4.367-2.477,5.085      c-13.354,4.617-21.327,10.836-21.327,16.648c0,5.789,7.93,12,21.214,16.601c2.09,0.727,3.195,3,2.473,5.094      C127.117,255.344,125.566,256.383,123.91,256.383z"></path></g></g><g><g><path d="M201.357,248.031c-0.664,0-1.34-0.164-1.961-0.516c-1.922-1.086-2.605-3.523-1.52-5.445      c4.418-7.843,8.203-15.765,11.258-23.546c0.805-2.062,3.125-3.078,5.183-2.266c2.055,0.812,3.07,3.133,2.262,5.188      c-3.188,8.125-7.132,16.39-11.734,24.546C204.111,247.297,202.755,248.031,201.357,248.031z"></path></g></g><g><g><path d="M143.933,303.318c-3.316,0-5.93-0.883-7.934-2.039c-4.715-2.718-10.09-9.366-8.926-25.568      c1.195-16.672,8.93-38.437,21.21-59.71c6.309-10.929,13.273-20.819,20.703-29.405c18.433-21.304,36.011-30.249,47.01-23.874      c8.035,4.641,10.859,16.468,7.957,33.319c-0.375,2.18-2.434,3.648-4.621,3.266c-2.176-0.375-3.637-2.445-3.262-4.625      c2.227-12.914,0.703-22.281-4.074-25.038c-5.91-3.391-19.621,2.148-36.964,22.187c-6.996,8.086-13.848,17.828-19.82,28.171      c-11.527,19.968-19.066,41.007-20.164,56.287c-0.664,9.281,1.141,15.867,4.949,18.07c4.418,2.547,12.273-0.078,21.534-7.234      c1.746-1.352,4.254-1.039,5.609,0.719c1.352,1.742,1.031,4.258-0.719,5.609C156.756,300.928,149.394,303.318,143.933,303.318z"></path></g></g><g><g><path d="M139.136,224.001c-1.598,0-3.105-0.961-3.723-2.539c-11.511-29.366-11.289-51.873,0.578-58.74      c5.316-3.062,14.917-4.18,30.46,7.859c1.746,1.352,2.066,3.867,0.711,5.617c-1.344,1.75-3.859,2.062-5.609,0.711      c-9.253-7.171-17.108-9.828-21.558-7.265c-6.602,3.82-7.738,21.843,2.863,48.896c0.809,2.055-0.207,4.383-2.262,5.188      C140.117,223.915,139.625,224.001,139.136,224.001z"></path></g></g><g><g><path d="M207.966,303.373c-18.07,0-42.948-26.382-59.686-55.365l-1.167-2.055c-1.078-1.93-0.387-4.367,1.542-5.445      c1.934-1.07,4.363-0.383,5.441,1.539l1.113,1.968c21.214,36.733,46.956,56.045,56.784,50.343      c3.867-2.234,5.625-8.656,4.949-18.07c-0.16-2.202,1.5-4.116,3.703-4.28c2.18-0.156,4.117,1.508,4.273,3.703      c1.164,16.21-4.211,22.851-8.925,25.568C213.528,302.709,210.833,303.373,207.966,303.373z"></path></g></g></g><g><g><path d="M403.996,192.002H283.998c-2.211,0-4-1.789-4-4s1.789-4,4-4h119.998c2.209,0,3.998,1.789,3.998,4     S406.205,192.002,403.996,192.002z"></path></g></g><g><g><path d="M403.996,224.001H283.998c-2.211,0-4-1.789-4-4s1.789-4,4-4h119.998c2.209,0,3.998,1.789,3.998,4     S406.205,224.001,403.996,224.001z"></path></g></g><g><g><path d="M403.996,256H283.998c-2.211,0-4-1.789-4-4s1.789-4,4-4h119.998c2.209,0,3.998,1.789,3.998,4S406.205,256,403.996,256z"></path></g></g><g><g><path d="M339.998,287.999h-56c-2.211,0-4-1.789-4-4s1.789-4,4-4h56c2.209,0,3.998,1.789,3.998,4S342.207,287.999,339.998,287.999     z"></path></g></g></g></g>
</svg>
</g><g opacity="1" transform="rotate(0 218.7873 169.9999)">
<svg width="374.334" height="120" x="218.7873" y="169.9999" version="1.1" preserveAspectRatio="none" viewBox="1.12 -28 213.6 68.48">
  <g transform="matrix(1 0 0 1 0 0)" class="companyName"><path id="id-D6z1nYkh11" d="M1.12 0L1.12-28L13.84-28Q18.40-28 21.90-26.26Q25.40-24.52 27.34-21.36Q29.28-18.20 29.28-14L29.28-14Q29.28-9.80 27.34-6.64Q25.40-3.48 21.90-1.74Q18.40 0 13.84 0L13.84 0L1.12 0ZM7.60-5.32L13.52-5.32Q17.72-5.32 20.22-7.66Q22.72-10 22.72-14L22.72-14Q22.72-18 20.22-20.34Q17.72-22.68 13.52-22.68L13.52-22.68L7.60-22.68L7.60-5.32Z M58.96 0L52 0L46.60-7.80L46.28-7.80L40.64-7.80L40.64 0L34.16 0L34.16-28L46.28-28Q50-28 52.74-26.76Q55.48-25.52 56.96-23.24Q58.44-20.96 58.44-17.84L58.44-17.84Q58.44-14.72 56.94-12.46Q55.44-10.20 52.68-9L52.68-9L58.96 0ZM51.88-17.84Q51.88-20.20 50.36-21.46Q48.84-22.72 45.92-22.72L45.92-22.72L40.64-22.72L40.64-12.96L45.92-12.96Q48.84-12.96 50.36-14.24Q51.88-15.52 51.88-17.84L51.88-17.84Z M65.48 0.32Q63.84 0.32 62.72-0.80Q61.60-1.92 61.60-3.60L61.60-3.60Q61.60-5.32 62.72-6.38Q63.84-7.44 65.48-7.44L65.48-7.44Q67.12-7.44 68.24-6.38Q69.36-5.32 69.36-3.60L69.36-3.60Q69.36-1.92 68.24-0.80Q67.12 0.32 65.48 0.32L65.48 0.32Z M12.52 40.48Q9.20 40.48 6.10 39.58Q3 38.68 1.12 37.24L1.12 37.24L3.32 32.36Q5.12 33.68 7.60 34.48Q10.08 35.28 12.56 35.28L12.56 35.28Q15.32 35.28 16.64 34.46Q17.96 33.64 17.96 32.28L17.96 32.28Q17.96 31.28 17.18 30.62Q16.40 29.96 15.18 29.56Q13.96 29.16 11.88 28.68L11.88 28.68Q8.68 27.92 6.64 27.16Q4.60 26.40 3.14 24.72Q1.68 23.04 1.68 20.24L1.68 20.24Q1.68 17.80 3 15.82Q4.32 13.84 6.98 12.68Q9.64 11.52 13.48 11.52L13.48 11.52Q16.16 11.52 18.72 12.16Q21.28 12.80 23.20 14L23.20 14L21.20 18.92Q17.32 16.72 13.44 16.72L13.44 16.72Q10.72 16.72 9.42 17.60Q8.12 18.48 8.12 19.92L8.12 19.92Q8.12 21.36 9.62 22.06Q11.12 22.76 14.20 23.44L14.20 23.44Q17.40 24.20 19.44 24.96Q21.48 25.72 22.94 27.36Q24.40 29 24.40 31.80L24.40 31.80Q24.40 34.20 23.06 36.18Q21.72 38.16 19.04 39.32Q16.36 40.48 12.52 40.48L12.52 40.48Z M42.40 40.48Q38.04 40.48 34.54 38.60Q31.04 36.72 29.06 33.42Q27.08 30.12 27.08 26L27.08 26Q27.08 21.88 29.06 18.58Q31.04 15.28 34.54 13.40Q38.04 11.52 42.40 11.52L42.40 11.52Q46.76 11.52 50.24 13.40Q53.72 15.28 55.72 18.58Q57.72 21.88 57.72 26L57.72 26Q57.72 30.12 55.72 33.42Q53.72 36.72 50.24 38.60Q46.76 40.48 42.40 40.48L42.40 40.48ZM42.40 34.96Q44.88 34.96 46.88 33.82Q48.88 32.68 50.02 30.64Q51.16 28.60 51.16 26L51.16 26Q51.16 23.40 50.02 21.36Q48.88 19.32 46.88 18.18Q44.88 17.04 42.40 17.04L42.40 17.04Q39.92 17.04 37.92 18.18Q35.92 19.32 34.78 21.36Q33.64 23.40 33.64 26L33.64 26Q33.64 28.60 34.78 30.64Q35.92 32.68 37.92 33.82Q39.92 34.96 42.40 34.96L42.40 34.96Z M62.60 40L62.60 12L69.08 12L69.08 34.72L83.12 34.72L83.12 40L62.60 40Z M98.84 40.48Q92.84 40.48 89.50 37.16Q86.16 33.84 86.16 27.68L86.16 27.68L86.16 12L92.64 12L92.64 27.44Q92.64 34.96 98.88 34.96L98.88 34.96Q101.92 34.96 103.52 33.14Q105.12 31.32 105.12 27.44L105.12 27.44L105.12 12L111.52 12L111.52 27.68Q111.52 33.84 108.18 37.16Q104.84 40.48 98.84 40.48L98.84 40.48Z M123.24 40L123.24 17.28L114.28 17.28L114.28 12L138.68 12L138.68 17.28L129.72 17.28L129.72 40L123.24 40Z M142.16 40L142.16 12L148.64 12L148.64 40L142.16 40Z M168.84 40.48Q164.48 40.48 160.98 38.60Q157.48 36.72 155.50 33.42Q153.52 30.12 153.52 26L153.52 26Q153.52 21.88 155.50 18.58Q157.48 15.28 160.98 13.40Q164.48 11.52 168.84 11.52L168.84 11.52Q173.20 11.52 176.68 13.40Q180.16 15.28 182.16 18.58Q184.16 21.88 184.16 26L184.16 26Q184.16 30.12 182.16 33.42Q180.16 36.72 176.68 38.60Q173.20 40.48 168.84 40.48L168.84 40.48ZM168.84 34.96Q171.32 34.96 173.32 33.82Q175.32 32.68 176.46 30.64Q177.60 28.60 177.60 26L177.60 26Q177.60 23.40 176.46 21.36Q175.32 19.32 173.32 18.18Q171.32 17.04 168.84 17.04L168.84 17.04Q166.36 17.04 164.36 18.18Q162.36 19.32 161.22 21.36Q160.08 23.40 160.08 26L160.08 26Q160.08 28.60 161.22 30.64Q162.36 32.68 164.36 33.82Q166.36 34.96 168.84 34.96L168.84 34.96Z M208.32 12L214.72 12L214.72 40L209.40 40L195.44 23L195.44 40L189.04 40L189.04 12L194.40 12L208.32 29L208.32 12Z"/></g>
</svg>
</g><g opacity="1" transform="rotate(0 218.7873 309.9999)">
<svg width="401.4366" height="20" x="218.7873" y="309.9999" version="1.1" preserveAspectRatio="none" viewBox="4.2 -30.28 768.5199999999999 38.28">
  <g transform="matrix(1 0 0 1 0 0)" class="text"><path id="id-D-YM9nyY435" d="M4.20 0L4.20-28L8.20-28L8.20-3.48L23.36-3.48L23.36 0L4.20 0Z M37.40 0.24Q34.24 0.24 31.72-1.16Q29.20-2.56 27.78-5.02Q26.36-7.48 26.36-10.60L26.36-10.60Q26.36-13.72 27.78-16.18Q29.20-18.64 31.72-20.02Q34.24-21.40 37.40-21.40L37.40-21.40Q40.56-21.40 43.06-20.02Q45.56-18.64 46.98-16.18Q48.40-13.72 48.40-10.60L48.40-10.60Q48.40-7.48 46.98-5.02Q45.56-2.56 43.06-1.16Q40.56 0.24 37.40 0.24L37.40 0.24ZM37.40-3.12Q39.44-3.12 41.06-4.06Q42.68-5 43.60-6.70Q44.52-8.40 44.52-10.60L44.52-10.60Q44.52-12.80 43.60-14.50Q42.68-16.20 41.06-17.12Q39.44-18.04 37.40-18.04L37.40-18.04Q35.36-18.04 33.74-17.12Q32.12-16.20 31.18-14.50Q30.24-12.80 30.24-10.60L30.24-10.60Q30.24-8.40 31.18-6.70Q32.12-5 33.74-4.06Q35.36-3.12 37.40-3.12L37.40-3.12Z M93.40-21.40Q97.40-21.40 99.74-19.08Q102.08-16.76 102.08-12.20L102.08-12.20L102.08 0L98.24 0L98.24-11.76Q98.24-14.84 96.82-16.40Q95.40-17.96 92.76-17.96L92.76-17.96Q89.84-17.96 88.12-16.14Q86.40-14.32 86.40-10.92L86.40-10.92L86.40 0L82.56 0L82.56-11.76Q82.56-14.84 81.14-16.40Q79.72-17.96 77.08-17.96L77.08-17.96Q74.16-17.96 72.44-16.14Q70.72-14.32 70.72-10.92L70.72-10.92L70.72 0L66.88 0L66.88-21.20L70.56-21.20L70.56-18.04Q71.72-19.68 73.60-20.54Q75.48-21.40 77.88-21.40L77.88-21.40Q80.36-21.40 82.28-20.40Q84.20-19.40 85.24-17.48L85.24-17.48Q86.44-19.32 88.58-20.36Q90.72-21.40 93.40-21.40L93.40-21.40Z M129.64-10.48Q129.64-10.04 129.56-9.32L129.56-9.32L112.36-9.32Q112.72-6.52 114.82-4.82Q116.92-3.12 120.04-3.12L120.04-3.12Q123.84-3.12 126.16-5.68L126.16-5.68L128.28-3.20Q126.84-1.52 124.70-0.64Q122.56 0.24 119.92 0.24L119.92 0.24Q116.56 0.24 113.96-1.14Q111.36-2.52 109.94-5Q108.52-7.48 108.52-10.60L108.52-10.60Q108.52-13.68 109.90-16.16Q111.28-18.64 113.70-20.02Q116.12-21.40 119.16-21.40L119.16-21.40Q122.20-21.40 124.58-20.02Q126.96-18.64 128.30-16.16Q129.64-13.68 129.64-10.48L129.64-10.48ZM119.16-18.16Q116.40-18.16 114.54-16.48Q112.68-14.80 112.36-12.08L112.36-12.08L125.96-12.08Q125.64-14.76 123.78-16.46Q121.92-18.16 119.16-18.16L119.16-18.16Z M133.44 8Q132.04 8 130.84 7.68Q129.64 7.36 128.84 6.72L128.84 6.72L130.08 3.76Q131.28 4.76 133.20 4.76L133.20 4.76Q134.72 4.76 135.54 3.82Q136.36 2.88 136.36 1.04L136.36 1.04L136.36-21.20L140.20-21.20L140.20 0.96Q140.20 4.24 138.44 6.12Q136.68 8 133.44 8L133.44 8ZM138.28-25.28Q137.16-25.28 136.42-26Q135.68-26.72 135.68-27.76L135.68-27.76Q135.68-28.80 136.42-29.54Q137.16-30.28 138.28-30.28L138.28-30.28Q139.40-30.28 140.14-29.58Q140.88-28.88 140.88-27.84L140.88-27.84Q140.88-26.76 140.14-26.02Q139.40-25.28 138.28-25.28L138.28-25.28Z M157.80 0.24Q154.64 0.24 152.12-1.16Q149.60-2.56 148.18-5.02Q146.76-7.48 146.76-10.60L146.76-10.60Q146.76-13.72 148.18-16.18Q149.60-18.64 152.12-20.02Q154.64-21.40 157.80-21.40L157.80-21.40Q160.96-21.40 163.46-20.02Q165.96-18.64 167.38-16.18Q168.80-13.72 168.80-10.60L168.80-10.60Q168.80-7.48 167.38-5.02Q165.96-2.56 163.46-1.16Q160.96 0.24 157.80 0.24L157.80 0.24ZM157.80-3.12Q159.84-3.12 161.46-4.06Q163.08-5 164-6.70Q164.92-8.40 164.92-10.60L164.92-10.60Q164.92-12.80 164-14.50Q163.08-16.20 161.46-17.12Q159.84-18.04 157.80-18.04L157.80-18.04Q155.76-18.04 154.14-17.12Q152.52-16.20 151.58-14.50Q150.64-12.80 150.64-10.60L150.64-10.60Q150.64-8.40 151.58-6.70Q152.52-5 154.14-4.06Q155.76-3.12 157.80-3.12L157.80-3.12Z M179.00-17.64Q180.00-19.48 181.96-20.44Q183.92-21.40 186.72-21.40L186.72-21.40L186.72-17.68Q186.40-17.72 185.84-17.72L185.84-17.72Q182.72-17.72 180.94-15.86Q179.16-14 179.16-10.56L179.16-10.56L179.16 0L175.32 0L175.32-21.20L179.00-21.20L179.00-17.64Z M224.04-10.48Q224.04-10.04 223.96-9.32L223.96-9.32L206.76-9.32Q207.12-6.52 209.22-4.82Q211.32-3.12 214.44-3.12L214.44-3.12Q218.24-3.12 220.56-5.68L220.56-5.68L222.68-3.20Q221.24-1.52 219.10-0.64Q216.96 0.24 214.32 0.24L214.32 0.24Q210.96 0.24 208.36-1.14Q205.76-2.52 204.34-5Q202.92-7.48 202.92-10.60L202.92-10.60Q202.92-13.68 204.30-16.16Q205.68-18.64 208.10-20.02Q210.52-21.40 213.56-21.40L213.56-21.40Q216.60-21.40 218.98-20.02Q221.36-18.64 222.70-16.16Q224.04-13.68 224.04-10.48L224.04-10.48ZM213.56-18.16Q210.80-18.16 208.94-16.48Q207.08-14.80 206.76-12.08L206.76-12.08L220.36-12.08Q220.04-14.76 218.18-16.46Q216.32-18.16 213.56-18.16L213.56-18.16Z M241.88-21.40Q245.92-21.40 248.30-19.06Q250.68-16.72 250.68-12.20L250.68-12.20L250.68 0L246.84 0L246.84-11.76Q246.84-14.84 245.36-16.40Q243.88-17.96 241.12-17.96L241.12-17.96Q238.00-17.96 236.20-16.14Q234.40-14.32 234.40-10.92L234.40-10.92L234.40 0L230.56 0L230.56-21.20L234.24-21.20L234.24-18Q235.40-19.64 237.38-20.52Q239.36-21.40 241.88-21.40L241.88-21.40Z M277.04 0.24Q274.44 0.24 272.04-0.46Q269.64-1.16 268.28-2.24L268.28-2.24L269.88-5.28Q271.28-4.28 273.28-3.68Q275.28-3.08 277.32-3.08L277.32-3.08Q282.36-3.08 282.36-5.96L282.36-5.96Q282.36-6.92 281.68-7.48Q281.00-8.04 279.98-8.30Q278.96-8.56 277.08-8.88L277.08-8.88Q274.52-9.28 272.90-9.80Q271.28-10.32 270.12-11.56Q268.96-12.80 268.96-15.04L268.96-15.04Q268.96-17.92 271.36-19.66Q273.76-21.40 277.80-21.40L277.80-21.40Q279.92-21.40 282.04-20.88Q284.16-20.36 285.52-19.48L285.52-19.48L283.88-16.44Q281.28-18.12 277.76-18.12L277.76-18.12Q275.32-18.12 274.04-17.32Q272.76-16.52 272.76-15.20L272.76-15.20Q272.76-14.16 273.48-13.56Q274.20-12.96 275.26-12.68Q276.32-12.40 278.24-12.04L278.24-12.04Q280.80-11.60 282.38-11.10Q283.96-10.60 285.08-9.40Q286.20-8.20 286.20-6.04L286.20-6.04Q286.20-3.16 283.74-1.46Q281.28 0.24 277.04 0.24L277.04 0.24Z M301.28 0.24Q298.12 0.24 295.60-1.16Q293.08-2.56 291.66-5.02Q290.24-7.48 290.24-10.60L290.24-10.60Q290.24-13.72 291.66-16.18Q293.08-18.64 295.60-20.02Q298.12-21.40 301.28-21.40L301.28-21.40Q304.44-21.40 306.94-20.02Q309.44-18.64 310.86-16.18Q312.28-13.72 312.28-10.60L312.28-10.60Q312.28-7.48 310.86-5.02Q309.44-2.56 306.94-1.16Q304.44 0.24 301.28 0.24L301.28 0.24ZM301.28-3.12Q303.32-3.12 304.94-4.06Q306.56-5 307.48-6.70Q308.40-8.40 308.40-10.60L308.40-10.60Q308.40-12.80 307.48-14.50Q306.56-16.20 304.94-17.12Q303.32-18.04 301.28-18.04L301.28-18.04Q299.24-18.04 297.62-17.12Q296.00-16.20 295.06-14.50Q294.12-12.80 294.12-10.60L294.12-10.60Q294.12-8.40 295.06-6.70Q296.00-5 297.62-4.06Q299.24-3.12 301.28-3.12L301.28-3.12Z M318.80 0L318.80-29.68L322.64-29.68L322.64 0L318.80 0Z M347.08-21.20L350.92-21.20L350.92 0L347.28 0L347.28-3.20Q346.12-1.56 344.22-0.66Q342.32 0.24 340.08 0.24L340.08 0.24Q335.84 0.24 333.40-2.10Q330.96-4.44 330.96-9L330.96-9L330.96-21.20L334.80-21.20L334.80-9.44Q334.80-6.36 336.28-4.78Q337.76-3.20 340.52-3.20L340.52-3.20Q343.56-3.20 345.32-5.04Q347.08-6.88 347.08-10.24L347.08-10.24L347.08-21.20Z M368.68 0.24Q365.44 0.24 362.90-1.16Q360.36-2.56 358.92-5.02Q357.48-7.48 357.48-10.60L357.48-10.60Q357.48-13.72 358.92-16.18Q360.36-18.64 362.90-20.02Q365.44-21.40 368.68-21.40L368.68-21.40Q371.56-21.40 373.82-20.24Q376.08-19.08 377.32-16.88L377.32-16.88L374.40-15Q373.40-16.52 371.92-17.28Q370.44-18.04 368.64-18.04L368.64-18.04Q366.56-18.04 364.90-17.12Q363.24-16.20 362.30-14.50Q361.36-12.80 361.36-10.60L361.36-10.60Q361.36-8.36 362.30-6.66Q363.24-4.96 364.90-4.04Q366.56-3.12 368.64-3.12L368.64-3.12Q370.44-3.12 371.92-3.88Q373.40-4.64 374.40-6.16L374.40-6.16L377.32-4.32Q376.08-2.12 373.82-0.94Q371.56 0.24 368.68 0.24L368.68 0.24Z M383.48 0L383.48-21.20L387.32-21.20L387.32 0L383.48 0ZM385.40-25.28Q384.28-25.28 383.54-26Q382.80-26.72 382.80-27.76L382.80-27.76Q382.80-28.80 383.54-29.54Q384.28-30.28 385.40-30.28L385.40-30.28Q386.52-30.28 387.26-29.58Q388.00-28.88 388.00-27.84L388.00-27.84Q388.00-26.76 387.26-26.02Q386.52-25.28 385.40-25.28L385.40-25.28Z M404.92 0.24Q401.76 0.24 399.24-1.16Q396.72-2.56 395.30-5.02Q393.88-7.48 393.88-10.60L393.88-10.60Q393.88-13.72 395.30-16.18Q396.72-18.64 399.24-20.02Q401.76-21.40 404.92-21.40L404.92-21.40Q408.08-21.40 410.58-20.02Q413.08-18.64 414.50-16.18Q415.92-13.72 415.92-10.60L415.92-10.60Q415.92-7.48 414.50-5.02Q413.08-2.56 410.58-1.16Q408.08 0.24 404.92 0.24L404.92 0.24ZM404.92-3.12Q406.96-3.12 408.58-4.06Q410.20-5 411.12-6.70Q412.04-8.40 412.04-10.60L412.04-10.60Q412.04-12.80 411.12-14.50Q410.20-16.20 408.58-17.12Q406.96-18.04 404.92-18.04L404.92-18.04Q402.88-18.04 401.26-17.12Q399.64-16.20 398.70-14.50Q397.76-12.80 397.76-10.60L397.76-10.60Q397.76-8.40 398.70-6.70Q399.64-5 401.26-4.06Q402.88-3.12 404.92-3.12L404.92-3.12Z M433.76-21.40Q437.80-21.40 440.18-19.06Q442.56-16.72 442.56-12.20L442.56-12.20L442.56 0L438.72 0L438.72-11.76Q438.72-14.84 437.24-16.40Q435.76-17.96 433.00-17.96L433.00-17.96Q429.88-17.96 428.08-16.14Q426.28-14.32 426.28-10.92L426.28-10.92L426.28 0L422.44 0L422.44-21.20L426.12-21.20L426.12-18Q427.28-19.64 429.26-20.52Q431.24-21.40 433.76-21.40L433.76-21.40Z M470.16-10.48Q470.16-10.04 470.08-9.32L470.08-9.32L452.88-9.32Q453.24-6.52 455.34-4.82Q457.44-3.12 460.56-3.12L460.56-3.12Q464.36-3.12 466.68-5.68L466.68-5.68L468.80-3.20Q467.36-1.52 465.22-0.64Q463.08 0.24 460.44 0.24L460.44 0.24Q457.08 0.24 454.48-1.14Q451.88-2.52 450.46-5Q449.04-7.48 449.04-10.60L449.04-10.60Q449.04-13.68 450.42-16.16Q451.80-18.64 454.22-20.02Q456.64-21.40 459.68-21.40L459.68-21.40Q462.72-21.40 465.10-20.02Q467.48-18.64 468.82-16.16Q470.16-13.68 470.16-10.48L470.16-10.48ZM459.68-18.16Q456.92-18.16 455.06-16.48Q453.20-14.80 452.88-12.08L452.88-12.08L466.48-12.08Q466.16-14.76 464.30-16.46Q462.44-18.16 459.68-18.16L459.68-18.16Z M482.76 0.24Q480.16 0.24 477.76-0.46Q475.36-1.16 474.00-2.24L474.00-2.24L475.60-5.28Q477.00-4.28 479.00-3.68Q481.00-3.08 483.04-3.08L483.04-3.08Q488.08-3.08 488.08-5.96L488.08-5.96Q488.08-6.92 487.40-7.48Q486.72-8.04 485.70-8.30Q484.68-8.56 482.80-8.88L482.80-8.88Q480.24-9.28 478.62-9.80Q477.00-10.32 475.84-11.56Q474.68-12.80 474.68-15.04L474.68-15.04Q474.68-17.92 477.08-19.66Q479.48-21.40 483.52-21.40L483.52-21.40Q485.64-21.40 487.76-20.88Q489.88-20.36 491.24-19.48L491.24-19.48L489.60-16.44Q487.00-18.12 483.48-18.12L483.48-18.12Q481.04-18.12 479.76-17.32Q478.48-16.52 478.48-15.20L478.48-15.20Q478.48-14.16 479.20-13.56Q479.92-12.96 480.98-12.68Q482.04-12.40 483.96-12.04L483.96-12.04Q486.52-11.60 488.10-11.10Q489.68-10.60 490.80-9.40Q491.92-8.20 491.92-6.04L491.92-6.04Q491.92-3.16 489.46-1.46Q487.00 0.24 482.76 0.24L482.76 0.24Z M509.88 0L509.88-21.20L513.72-21.20L513.72 0L509.88 0ZM511.80-25.28Q510.68-25.28 509.94-26Q509.20-26.72 509.20-27.76L509.20-27.76Q509.20-28.80 509.94-29.54Q510.68-30.28 511.80-30.28L511.80-30.28Q512.92-30.28 513.66-29.58Q514.40-28.88 514.40-27.84L514.40-27.84Q514.40-26.76 513.66-26.02Q512.92-25.28 511.80-25.28L511.80-25.28Z M533.56-21.40Q537.60-21.40 539.98-19.06Q542.36-16.72 542.36-12.20L542.36-12.20L542.36 0L538.52 0L538.52-11.76Q538.52-14.84 537.04-16.40Q535.56-17.96 532.80-17.96L532.80-17.96Q529.68-17.96 527.88-16.14Q526.08-14.32 526.08-10.92L526.08-10.92L526.08 0L522.24 0L522.24-21.20L525.92-21.20L525.92-18Q527.08-19.64 529.06-20.52Q531.04-21.40 533.56-21.40L533.56-21.40Z M558.44-26.76Q555-26.76 555-23.04L555-23.04L555-21.20L561.16-21.20L561.16-18.04L555.08-18.04L555.08 0L551.24 0L551.24-18.04L547.64-18.04L547.64-21.20L551.24-21.20L551.24-23.08Q551.24-26.24 553.08-28.08Q554.92-29.92 558.24-29.92L558.24-29.92Q559.52-29.92 560.64-29.60Q561.76-29.28 562.56-28.68L562.56-28.68L561.40-25.76Q560.08-26.76 558.44-26.76L558.44-26.76Z M574.76 0.24Q571.60 0.24 569.08-1.16Q566.56-2.56 565.14-5.02Q563.72-7.48 563.72-10.60L563.72-10.60Q563.72-13.72 565.14-16.18Q566.56-18.64 569.08-20.02Q571.60-21.40 574.76-21.40L574.76-21.40Q577.92-21.40 580.42-20.02Q582.92-18.64 584.34-16.18Q585.76-13.72 585.76-10.60L585.76-10.60Q585.76-7.48 584.34-5.02Q582.92-2.56 580.42-1.16Q577.92 0.24 574.76 0.24L574.76 0.24ZM574.76-3.12Q576.80-3.12 578.42-4.06Q580.04-5 580.96-6.70Q581.88-8.40 581.88-10.60L581.88-10.60Q581.88-12.80 580.96-14.50Q580.04-16.20 578.42-17.12Q576.80-18.04 574.76-18.04L574.76-18.04Q572.72-18.04 571.10-17.12Q569.48-16.20 568.54-14.50Q567.60-12.80 567.60-10.60L567.60-10.60Q567.60-8.40 568.54-6.70Q569.48-5 571.10-4.06Q572.72-3.12 574.76-3.12L574.76-3.12Z M595.96-17.64Q596.96-19.48 598.92-20.44Q600.88-21.40 603.68-21.40L603.68-21.40L603.68-17.68Q603.36-17.72 602.80-17.72L602.80-17.72Q599.68-17.72 597.90-15.86Q596.12-14 596.12-10.56L596.12-10.56L596.12 0L592.28 0L592.28-21.20L595.96-21.20L595.96-17.64Z M636.12-21.40Q640.12-21.40 642.46-19.08Q644.80-16.76 644.80-12.20L644.80-12.20L644.80 0L640.96 0L640.96-11.76Q640.96-14.84 639.54-16.40Q638.12-17.96 635.48-17.96L635.48-17.96Q632.56-17.96 630.84-16.14Q629.12-14.32 629.12-10.92L629.12-10.92L629.12 0L625.28 0L625.28-11.76Q625.28-14.84 623.86-16.40Q622.44-17.96 619.80-17.96L619.80-17.96Q616.88-17.96 615.16-16.14Q613.44-14.32 613.44-10.92L613.44-10.92L613.44 0L609.60 0L609.60-21.20L613.28-21.20L613.28-18.04Q614.44-19.68 616.32-20.54Q618.20-21.40 620.60-21.40L620.60-21.40Q623.08-21.40 625-20.40Q626.92-19.40 627.96-17.48L627.96-17.48Q629.16-19.32 631.30-20.36Q633.44-21.40 636.12-21.40L636.12-21.40Z M660.80-21.40Q665.20-21.40 667.54-19.24Q669.88-17.08 669.88-12.80L669.88-12.80L669.88 0L666.24 0L666.24-2.80Q665.28-1.32 663.50-0.54Q661.72 0.24 659.28 0.24L659.28 0.24Q655.72 0.24 653.58-1.48Q651.44-3.20 651.44-6L651.44-6Q651.44-8.80 653.48-10.50Q655.52-12.20 659.96-12.20L659.96-12.20L666.04-12.20L666.04-12.96Q666.04-15.44 664.60-16.76Q663.16-18.08 660.36-18.08L660.36-18.08Q658.48-18.08 656.68-17.46Q654.88-16.84 653.64-15.80L653.64-15.80L652.04-18.68Q653.68-20 655.96-20.70Q658.24-21.40 660.80-21.40L660.80-21.40ZM659.92-2.72Q662.12-2.72 663.72-3.70Q665.32-4.68 666.04-6.48L666.04-6.48L666.04-9.44L660.12-9.44Q655.24-9.44 655.24-6.16L655.24-6.16Q655.24-4.56 656.48-3.64Q657.72-2.72 659.92-2.72L659.92-2.72ZM658.08-24.28L663.52-29.48L668.40-29.48L661.68-24.28L658.08-24.28Z M688.92-4L690.12-1.24Q689.28-0.52 688.04-0.14Q686.80 0.24 685.48 0.24L685.48 0.24Q682.28 0.24 680.52-1.48Q678.76-3.20 678.76-6.40L678.76-6.40L678.76-18.04L675.16-18.04L675.16-21.20L678.76-21.20L678.76-25.84L682.60-25.84L682.60-21.20L688.68-21.20L688.68-18.04L682.60-18.04L682.60-6.56Q682.60-4.84 683.46-3.92Q684.32-3 685.92-3L685.92-3Q687.68-3 688.92-4L688.92-4Z M695.96 0L695.96-21.20L699.80-21.20L699.80 0L695.96 0ZM697.88-25.28Q696.76-25.28 696.02-26Q695.28-26.72 695.28-27.76L695.28-27.76Q695.28-28.80 696.02-29.54Q696.76-30.28 697.88-30.28L697.88-30.28Q699-30.28 699.74-29.58Q700.48-28.88 700.48-27.84L700.48-27.84Q700.48-26.76 699.74-26.02Q699-25.28 697.88-25.28L697.88-25.28Z M717.56 0.24Q714.32 0.24 711.78-1.16Q709.24-2.56 707.80-5.02Q706.36-7.48 706.36-10.60L706.36-10.60Q706.36-13.72 707.80-16.18Q709.24-18.64 711.78-20.02Q714.32-21.40 717.56-21.40L717.56-21.40Q720.44-21.40 722.70-20.24Q724.96-19.08 726.20-16.88L726.20-16.88L723.28-15Q722.28-16.52 720.80-17.28Q719.32-18.04 717.52-18.04L717.52-18.04Q715.44-18.04 713.78-17.12Q712.12-16.20 711.18-14.50Q710.24-12.80 710.24-10.60L710.24-10.60Q710.24-8.36 711.18-6.66Q712.12-4.96 713.78-4.04Q715.44-3.12 717.52-3.12L717.52-3.12Q719.32-3.12 720.80-3.88Q722.28-4.64 723.28-6.16L723.28-6.16L726.20-4.32Q724.96-2.12 722.70-0.94Q720.44 0.24 717.56 0.24L717.56 0.24Z M740.08-21.40Q744.48-21.40 746.82-19.24Q749.16-17.08 749.16-12.80L749.16-12.80L749.16 0L745.52 0L745.52-2.80Q744.56-1.32 742.78-0.54Q741.00 0.24 738.56 0.24L738.56 0.24Q735.00 0.24 732.86-1.48Q730.72-3.20 730.72-6L730.72-6Q730.72-8.80 732.76-10.50Q734.80-12.20 739.24-12.20L739.24-12.20L745.32-12.20L745.32-12.96Q745.32-15.44 743.88-16.76Q742.44-18.08 739.64-18.08L739.64-18.08Q737.76-18.08 735.96-17.46Q734.16-16.84 732.92-15.80L732.92-15.80L731.32-18.68Q732.96-20 735.24-20.70Q737.52-21.40 740.08-21.40L740.08-21.40ZM739.20-2.72Q741.40-2.72 743.00-3.70Q744.60-4.68 745.32-6.48L745.32-6.48L745.32-9.44L739.40-9.44Q734.52-9.44 734.52-6.16L734.52-6.16Q734.52-4.56 735.76-3.64Q737.00-2.72 739.20-2.72L739.20-2.72Z M763.56 0.24Q760.96 0.24 758.56-0.46Q756.16-1.16 754.80-2.24L754.80-2.24L756.40-5.28Q757.80-4.28 759.80-3.68Q761.80-3.08 763.84-3.08L763.84-3.08Q768.88-3.08 768.88-5.96L768.88-5.96Q768.88-6.92 768.20-7.48Q767.52-8.04 766.50-8.30Q765.48-8.56 763.60-8.88L763.60-8.88Q761.04-9.28 759.42-9.80Q757.80-10.32 756.64-11.56Q755.48-12.80 755.48-15.04L755.48-15.04Q755.48-17.92 757.88-19.66Q760.28-21.40 764.32-21.40L764.32-21.40Q766.44-21.40 768.56-20.88Q770.68-20.36 772.04-19.48L772.04-19.48L770.40-16.44Q767.80-18.12 764.28-18.12L764.28-18.12Q761.84-18.12 760.56-17.32Q759.28-16.52 759.28-15.20L759.28-15.20Q759.28-14.16 760.00-13.56Q760.72-12.96 761.78-12.68Q762.84-12.40 764.76-12.04L764.76-12.04Q767.32-11.60 768.90-11.10Q770.48-10.60 771.60-9.40Q772.72-8.20 772.72-6.04L772.72-6.04Q772.72-3.16 770.26-1.46Q767.80 0.24 763.56 0.24L763.56 0.24Z"/></g>
</svg>
</g></svg></svg>