<svg version="1.1" preserveAspectRatio="none" xmlns="http://www.w3.org/2000/svg" width="500" height="500" viewBox="0 0 500 500"><rect width="100%" height="100%" fill="#BE8A62" fill-opacity="1"/><svg viewBox="70.1278 115.5532 373.255 277.3724" width="333" height="247.45819667519527" x="83.5px" y="126.2709px" xmlns="http://www.w3.org/2000/svg" xmlns:xlink="http://www.w3.org/1999/xlink" preserveAspectRatio="none"><defs></defs><style>.companyName {fill:#F3F0ED;fill-opacity:1;}.icon1 {fill:#F3F0ED;fill-opacity:1;}.icon2 {fill:#F3B340;fill-opacity:1;}.icon3 {fill:#FDCEAC;fill-opacity:1;}.icon3-str {stroke:#FDCEAC;stroke-opacity:1;}.text {fill:#F3F0ED;fill-opacity:1;}</style><g opacity="1" transform="rotate(0 184.0691 115.5532)">
<svg width="145.3724" height="145.3724" x="184.0691" y="115.5532" version="1.1" preserveAspectRatio="none" viewBox="-1.7053018881978826e-13 0 48 48">
  <g transform="matrix(1 0 0 1 0 0)" class="icon1"><g transform="translate(0,-1004.3622)"><path style="" d="M 24 0 A 23.999998 23.999998 0 0 0 0 24 A 23.999998 23.999998 0 0 0 24 48 A 23.999998 23.999998 0 0 0 48 24 A 23.999998 23.999998 0 0 0 24 0 z M 26.248047 8.7792969 L 27.175781 10.996094 L 26.666016 11.763672 C 26.827496 11.922672 26.861959 12.170187 26.75 12.367188 L 26.742188 12.380859 L 35.058594 17.332031 C 35.487059 16.988031 36.02249 16.773438 36.611328 16.773438 C 37.986118 16.773438 39.111328 17.898637 39.111328 19.273438 C 39.111328 20.574038 38.100751 21.6374 36.828125 21.75 L 30.226562 32.324219 C 30.444365 32.397519 30.658047 32.486116 30.861328 32.603516 C 31.758844 33.121716 32.363952 34.006459 32.546875 35.005859 L 35.5 35.005859 L 35.5 38.015625 L 22.5 38.015625 L 22.5 35.505859 L 22.5 35.005859 L 25.675781 35.005859 C 25.858704 34.006459 26.463819 33.121716 27.361328 32.603516 C 27.918775 32.281716 28.543386 32.128672 29.166016 32.138672 L 35.740234 21.607422 C 34.793106 21.250922 34.111328 20.341137 34.111328 19.273438 C 34.111328 18.852538 34.226272 18.460328 34.412109 18.111328 L 26.246094 13.248047 C 26.104517 13.478947 25.804955 13.555022 25.570312 13.419922 L 25.566406 13.419922 L 25.175781 14.009766 L 25.1875 20.203125 L 23.074219 18.798828 C 22.524486 19.550928 21.650782 20.024156 20.693359 20.035156 C 19.494987 20.049256 18.401297 19.3458 17.916016 18.25 C 17.515743 17.3461 17.600846 16.318688 18.097656 15.492188 L 16.910156 14.703125 L 16.132812 14.185547 L 21.84375 11.794922 L 22.085938 11.429688 C 21.855131 11.288088 21.778945 10.988606 21.914062 10.753906 L 22.410156 9.8867188 C 22.500798 9.7278187 22.670792 9.6347656 22.853516 9.6347656 C 22.937251 9.6357656 23.019187 9.6591719 23.091797 9.7011719 L 23.193359 9.7597656 L 23.84375 8.78125 L 26.248047 8.7792969 z M 24.380859 9.78125 L 24.064453 10.257812 L 25.806641 11.253906 L 26.046875 10.890625 L 25.582031 9.78125 L 24.380859 9.78125 z M 22.955078 11.925781 L 22.507812 12.599609 L 18.242188 14.386719 L 24.183594 18.335938 L 24.173828 13.708984 L 24.697266 12.921875 L 22.955078 11.925781 z M 18.935547 16.048828 C 18.623653 16.593128 18.568502 17.255103 18.830078 17.845703 C 19.154514 18.578303 19.882415 19.045156 20.683594 19.035156 C 21.308682 19.027756 21.874668 18.726994 22.242188 18.246094 L 18.935547 16.048828 z M 36.611328 17.775391 C 36.110917 17.775391 35.674174 18.016972 35.402344 18.388672 L 35.269531 18.611328 L 35.263672 18.621094 C 35.168588 18.818694 35.111328 19.039691 35.111328 19.275391 C 35.111328 20.109791 35.776979 20.775391 36.611328 20.775391 C 37.445678 20.775391 38.111328 20.109791 38.111328 19.275391 C 38.111328 18.441091 37.445678 17.775391 36.611328 17.775391 z M 8.8886719 26.789062 L 19.445312 26.789062 C 20.686335 26.789062 21.611328 27.942019 21.611328 29.261719 C 21.611328 30.581419 20.686371 31.736328 19.445312 31.736328 L 21.611328 31.736328 L 21.611328 32.736328 L 11.054688 32.736328 C 10.451029 32.736328 9.8886719 33.347656 9.8886719 34.222656 C 9.8886719 35.097156 10.451137 35.707031 11.054688 35.707031 L 21.611328 35.707031 L 21.611328 36.707031 L 11.054688 36.707031 C 9.8115705 36.707031 8.8886719 35.547756 8.8886719 34.222656 C 8.8886719 32.897256 9.8116788 31.736328 11.054688 31.736328 L 8.8886719 31.736328 L 8.8886719 30.736328 L 19.445312 30.736328 C 20.050921 30.736328 20.611328 30.128019 20.611328 29.261719 C 20.611328 28.395319 20.050957 27.789062 19.445312 27.789062 L 8.8886719 27.789062 L 8.8886719 26.789062 z M 29.111328 33.134766 C 28.679882 33.134766 28.248436 33.247203 27.861328 33.470703 C 27.273142 33.810303 26.859285 34.367413 26.693359 35.007812 L 31.529297 35.007812 C 31.363372 34.367413 30.949514 33.810303 30.361328 33.470703 C 29.974221 33.247203 29.542774 33.134766 29.111328 33.134766 z M 23.5 36.007812 L 23.5 37.017578 L 34.5 37.017578 L 34.5 36.007812 L 23.5 36.007812 z " transform="translate(0,1004.3622)" fill-rule="evenodd"></path></g></g>
</svg>
</g><g opacity="1" transform="rotate(0 70.1278 374.9256)">
<svg width="373.255" height="18" x="70.1278" y="374.9256" version="1.1" preserveAspectRatio="none" viewBox="4.56 -29.88 784.5200000000001 37.84">
  <g transform="matrix(1 0 0 1 0 0)" class="text"><path id="id-6izo4zJp35" d="M4.56 0L4.56-28L7.52-28L7.52-2.56L23.20-2.56L23.20 0L4.56 0Z M37.80 0.20Q34.76 0.20 32.32-1.18Q29.88-2.56 28.48-5Q27.08-7.44 27.08-10.52L27.08-10.52Q27.08-13.60 28.48-16.04Q29.88-18.48 32.32-19.84Q34.76-21.20 37.80-21.20L37.80-21.20Q40.84-21.20 43.28-19.84Q45.72-18.48 47.10-16.04Q48.48-13.60 48.48-10.52L48.48-10.52Q48.48-7.44 47.10-5Q45.72-2.56 43.28-1.18Q40.84 0.20 37.80 0.20L37.80 0.20ZM37.80-2.32Q40.04-2.32 41.82-3.34Q43.60-4.36 44.60-6.24Q45.60-8.12 45.60-10.52L45.60-10.52Q45.60-12.92 44.60-14.80Q43.60-16.68 41.82-17.70Q40.04-18.72 37.80-18.72L37.80-18.72Q35.56-18.72 33.78-17.70Q32-16.68 30.98-14.80Q29.96-12.92 29.96-10.52L29.96-10.52Q29.96-8.12 30.98-6.24Q32-4.36 33.78-3.34Q35.56-2.32 37.80-2.32L37.80-2.32Z M95-21.20Q98.96-21.20 101.22-18.92Q103.48-16.64 103.48-12.20L103.48-12.20L103.48 0L100.64 0L100.64-11.92Q100.64-15.20 99.06-16.92Q97.48-18.64 94.60-18.64L94.60-18.64Q91.32-18.64 89.44-16.62Q87.56-14.60 87.56-11.04L87.56-11.04L87.56 0L84.72 0L84.72-11.92Q84.72-15.20 83.14-16.92Q81.56-18.64 78.64-18.64L78.64-18.64Q75.40-18.64 73.50-16.62Q71.60-14.60 71.60-11.04L71.60-11.04L71.60 0L68.76 0L68.76-21.04L71.48-21.04L71.48-17.20Q72.60-19.12 74.60-20.16Q76.60-21.20 79.20-21.20L79.20-21.20Q81.84-21.20 83.78-20.08Q85.72-18.96 86.68-16.76L86.68-16.76Q87.84-18.84 90.02-20.02Q92.20-21.20 95-21.20L95-21.20Z M131.64-10.52L131.60-9.64L114-9.64Q114.24-6.36 116.52-4.34Q118.80-2.32 122.28-2.32L122.28-2.32Q124.24-2.32 125.88-3.02Q127.52-3.72 128.72-5.08L128.72-5.08L130.32-3.24Q128.92-1.56 126.82-0.68Q124.72 0.20 122.20 0.20L122.20 0.20Q118.96 0.20 116.46-1.18Q113.96-2.56 112.56-5Q111.16-7.44 111.16-10.52L111.16-10.52Q111.16-13.60 112.50-16.04Q113.84-18.48 116.18-19.84Q118.52-21.20 121.44-21.20L121.44-21.20Q124.36-21.20 126.68-19.84Q129-18.48 130.32-16.06Q131.64-13.64 131.64-10.52L131.64-10.52ZM121.44-18.76Q118.40-18.76 116.34-16.82Q114.28-14.88 114-11.76L114-11.76L128.92-11.76Q128.64-14.88 126.58-16.82Q124.52-18.76 121.44-18.76L121.44-18.76Z M136.32 7.96Q135 7.96 133.82 7.62Q132.64 7.28 131.88 6.60L131.88 6.60L132.88 4.44Q134.12 5.52 136.16 5.52L136.16 5.52Q137.84 5.52 138.74 4.52Q139.64 3.52 139.64 1.56L139.64 1.56L139.64-21.04L142.48-21.04L142.48 1.56Q142.48 4.52 140.88 6.24Q139.28 7.96 136.32 7.96L136.32 7.96ZM141.08-25.68Q140.20-25.68 139.60-26.28Q139-26.88 139-27.72L139-27.72Q139-28.52 139.60-29.12Q140.20-29.72 141.08-29.72L141.08-29.72Q141.96-29.72 142.56-29.14Q143.16-28.56 143.16-27.76L143.16-27.76Q143.16-26.88 142.56-26.28Q141.96-25.68 141.08-25.68L141.08-25.68Z M161 0.20Q157.96 0.20 155.52-1.18Q153.08-2.56 151.68-5Q150.28-7.44 150.28-10.52L150.28-10.52Q150.28-13.60 151.68-16.04Q153.08-18.48 155.52-19.84Q157.96-21.20 161-21.20L161-21.20Q164.04-21.20 166.48-19.84Q168.92-18.48 170.30-16.04Q171.68-13.60 171.68-10.52L171.68-10.52Q171.68-7.44 170.30-5Q168.92-2.56 166.48-1.18Q164.04 0.20 161 0.20L161 0.20ZM161-2.32Q163.24-2.32 165.02-3.34Q166.80-4.36 167.80-6.24Q168.80-8.12 168.80-10.52L168.80-10.52Q168.80-12.92 167.80-14.80Q166.80-16.68 165.02-17.70Q163.24-18.72 161-18.72L161-18.72Q158.76-18.72 156.98-17.70Q155.20-16.68 154.18-14.80Q153.16-12.92 153.16-10.52L153.16-10.52Q153.16-8.12 154.18-6.24Q155.20-4.36 156.98-3.34Q158.76-2.32 161-2.32L161-2.32Z M182.20-16.92Q183.20-19.04 185.18-20.12Q187.16-21.20 190.08-21.20L190.08-21.20L190.08-18.44L189.40-18.48Q186.08-18.48 184.20-16.44Q182.32-14.40 182.32-10.72L182.32-10.72L182.32 0L179.48 0L179.48-21.04L182.20-21.04L182.20-16.92Z M228.36-10.52L228.32-9.64L210.72-9.64Q210.96-6.36 213.24-4.34Q215.52-2.32 219-2.32L219-2.32Q220.96-2.32 222.60-3.02Q224.24-3.72 225.44-5.08L225.44-5.08L227.04-3.24Q225.64-1.56 223.54-0.68Q221.44 0.20 218.92 0.20L218.92 0.20Q215.68 0.20 213.18-1.18Q210.68-2.56 209.28-5Q207.88-7.44 207.88-10.52L207.88-10.52Q207.88-13.60 209.22-16.04Q210.56-18.48 212.90-19.84Q215.24-21.20 218.16-21.20L218.16-21.20Q221.08-21.20 223.40-19.84Q225.72-18.48 227.04-16.06Q228.36-13.64 228.36-10.52L228.36-10.52ZM218.16-18.76Q215.12-18.76 213.06-16.82Q211-14.88 210.72-11.76L210.72-11.76L225.64-11.76Q225.36-14.88 223.30-16.82Q221.24-18.76 218.16-18.76L218.16-18.76Z M246.88-21.20Q250.84-21.20 253.18-18.90Q255.52-16.60 255.52-12.20L255.52-12.20L255.52 0L252.68 0L252.68-11.92Q252.68-15.20 251.04-16.92Q249.40-18.64 246.36-18.64L246.36-18.64Q242.96-18.64 240.98-16.62Q239-14.60 239-11.04L239-11.04L239 0L236.16 0L236.16-21.04L238.88-21.04L238.88-17.16Q240.04-19.08 242.10-20.14Q244.16-21.20 246.88-21.20L246.88-21.20Z M283.36 0.20Q280.80 0.20 278.46-0.54Q276.12-1.28 274.80-2.40L274.80-2.40L276.08-4.64Q277.40-3.60 279.40-2.94Q281.40-2.28 283.56-2.28L283.56-2.28Q286.44-2.28 287.82-3.18Q289.20-4.08 289.20-5.72L289.20-5.72Q289.20-6.88 288.44-7.54Q287.68-8.20 286.52-8.54Q285.36-8.88 283.44-9.20L283.44-9.20Q280.88-9.68 279.32-10.18Q277.76-10.68 276.66-11.88Q275.56-13.08 275.56-15.20L275.56-15.20Q275.56-17.84 277.76-19.52Q279.96-21.20 283.88-21.20L283.88-21.20Q285.92-21.20 287.96-20.66Q290-20.12 291.32-19.24L291.32-19.24L290.08-16.96Q287.48-18.76 283.88-18.76L283.88-18.76Q281.16-18.76 279.78-17.80Q278.40-16.84 278.40-15.28L278.40-15.28Q278.40-14.08 279.18-13.36Q279.96-12.64 281.12-12.30Q282.28-11.96 284.32-11.60L284.32-11.60Q286.84-11.12 288.36-10.64Q289.88-10.16 290.96-9Q292.04-7.84 292.04-5.80L292.04-5.80Q292.04-3.04 289.74-1.42Q287.44 0.20 283.36 0.20L283.36 0.20Z M307.88 0.20Q304.84 0.20 302.40-1.18Q299.96-2.56 298.56-5Q297.16-7.44 297.16-10.52L297.16-10.52Q297.16-13.60 298.56-16.04Q299.96-18.48 302.40-19.84Q304.84-21.20 307.88-21.20L307.88-21.20Q310.92-21.20 313.36-19.84Q315.80-18.48 317.18-16.04Q318.56-13.60 318.56-10.52L318.56-10.52Q318.56-7.44 317.18-5Q315.80-2.56 313.36-1.18Q310.92 0.20 307.88 0.20L307.88 0.20ZM307.88-2.32Q310.12-2.32 311.90-3.34Q313.68-4.36 314.68-6.24Q315.68-8.12 315.68-10.52L315.68-10.52Q315.68-12.92 314.68-14.80Q313.68-16.68 311.90-17.70Q310.12-18.72 307.88-18.72L307.88-18.72Q305.64-18.72 303.86-17.70Q302.08-16.68 301.06-14.80Q300.04-12.92 300.04-10.52L300.04-10.52Q300.04-8.12 301.06-6.24Q302.08-4.36 303.86-3.34Q305.64-2.32 307.88-2.32L307.88-2.32Z M326.36 0L326.36-29.68L329.20-29.68L329.20 0L326.36 0Z M355.24-21.04L358.08-21.04L358.08 0L355.36 0L355.36-3.84Q354.24-1.92 352.28-0.86Q350.32 0.20 347.80 0.20L347.80 0.20Q343.68 0.20 341.30-2.10Q338.92-4.40 338.92-8.84L338.92-8.84L338.92-21.04L341.76-21.04L341.76-9.12Q341.76-5.80 343.40-4.08Q345.04-2.36 348.08-2.36L348.08-2.36Q351.40-2.36 353.32-4.38Q355.24-6.40 355.24-10L355.24-10L355.24-21.04Z M376.76 0.20Q373.64 0.20 371.18-1.16Q368.72-2.52 367.32-4.98Q365.92-7.44 365.92-10.52L365.92-10.52Q365.92-13.60 367.32-16.04Q368.72-18.48 371.18-19.84Q373.64-21.20 376.76-21.20L376.76-21.20Q379.48-21.20 381.62-20.14Q383.76-19.08 385-17.04L385-17.04L382.88-15.60Q381.84-17.16 380.24-17.94Q378.64-18.72 376.76-18.72L376.76-18.72Q374.48-18.72 372.66-17.70Q370.84-16.68 369.82-14.80Q368.80-12.92 368.80-10.52L368.80-10.52Q368.80-8.08 369.82-6.22Q370.84-4.36 372.66-3.34Q374.48-2.32 376.76-2.32L376.76-2.32Q378.64-2.32 380.24-3.08Q381.84-3.84 382.88-5.40L382.88-5.40L385-3.96Q383.76-1.92 381.60-0.86Q379.44 0.20 376.76 0.20L376.76 0.20Z M392.56 0L392.56-21.04L395.40-21.04L395.40 0L392.56 0ZM394.00-25.64Q393.12-25.64 392.52-26.24Q391.92-26.84 391.92-27.68L391.92-27.68Q391.92-28.48 392.52-29.08Q393.12-29.68 394.00-29.68L394.00-29.68Q394.88-29.68 395.48-29.10Q396.08-28.52 396.08-27.72L396.08-27.72Q396.08-26.84 395.48-26.24Q394.88-25.64 394.00-25.64L394.00-25.64Z M413.92 0.20Q410.88 0.20 408.44-1.18Q406.00-2.56 404.60-5Q403.20-7.44 403.20-10.52L403.20-10.52Q403.20-13.60 404.60-16.04Q406.00-18.48 408.44-19.84Q410.88-21.20 413.92-21.20L413.92-21.20Q416.96-21.20 419.40-19.84Q421.84-18.48 423.22-16.04Q424.60-13.60 424.60-10.52L424.60-10.52Q424.60-7.44 423.22-5Q421.84-2.56 419.40-1.18Q416.96 0.20 413.92 0.20L413.92 0.20ZM413.92-2.32Q416.16-2.32 417.94-3.34Q419.72-4.36 420.72-6.24Q421.72-8.12 421.72-10.52L421.72-10.52Q421.72-12.92 420.72-14.80Q419.72-16.68 417.94-17.70Q416.16-18.72 413.92-18.72L413.92-18.72Q411.68-18.72 409.90-17.70Q408.12-16.68 407.10-14.80Q406.08-12.92 406.08-10.52L406.08-10.52Q406.08-8.12 407.10-6.24Q408.12-4.36 409.90-3.34Q411.68-2.32 413.92-2.32L413.92-2.32Z M443.12-21.20Q447.08-21.20 449.42-18.90Q451.76-16.60 451.76-12.20L451.76-12.20L451.76 0L448.92 0L448.92-11.92Q448.92-15.20 447.28-16.92Q445.64-18.64 442.60-18.64L442.60-18.64Q439.20-18.64 437.22-16.62Q435.24-14.60 435.24-11.04L435.24-11.04L435.24 0L432.40 0L432.40-21.04L435.12-21.04L435.12-17.16Q436.28-19.08 438.34-20.14Q440.40-21.20 443.12-21.20L443.12-21.20Z M479.92-10.52L479.88-9.64L462.28-9.64Q462.52-6.36 464.80-4.34Q467.08-2.32 470.56-2.32L470.56-2.32Q472.52-2.32 474.16-3.02Q475.80-3.72 477.00-5.08L477.00-5.08L478.60-3.24Q477.20-1.56 475.10-0.68Q473.00 0.20 470.48 0.20L470.48 0.20Q467.24 0.20 464.74-1.18Q462.24-2.56 460.84-5Q459.44-7.44 459.44-10.52L459.44-10.52Q459.44-13.60 460.78-16.04Q462.12-18.48 464.46-19.84Q466.80-21.20 469.72-21.20L469.72-21.20Q472.64-21.20 474.96-19.84Q477.28-18.48 478.60-16.06Q479.92-13.64 479.92-10.52L479.92-10.52ZM469.72-18.76Q466.68-18.76 464.62-16.82Q462.56-14.88 462.28-11.76L462.28-11.76L477.20-11.76Q476.92-14.88 474.86-16.82Q472.80-18.76 469.72-18.76L469.72-18.76Z M493.36 0.20Q490.80 0.20 488.46-0.54Q486.12-1.28 484.80-2.40L484.80-2.40L486.08-4.64Q487.40-3.60 489.40-2.94Q491.40-2.28 493.56-2.28L493.56-2.28Q496.44-2.28 497.82-3.18Q499.20-4.08 499.20-5.72L499.20-5.72Q499.20-6.88 498.44-7.54Q497.68-8.20 496.52-8.54Q495.36-8.88 493.44-9.20L493.44-9.20Q490.88-9.68 489.32-10.18Q487.76-10.68 486.66-11.88Q485.56-13.08 485.56-15.20L485.56-15.20Q485.56-17.84 487.76-19.52Q489.96-21.20 493.88-21.20L493.88-21.20Q495.92-21.20 497.96-20.66Q500.00-20.12 501.32-19.24L501.32-19.24L500.08-16.96Q497.48-18.76 493.88-18.76L493.88-18.76Q491.16-18.76 489.78-17.80Q488.40-16.84 488.40-15.28L488.40-15.28Q488.40-14.08 489.18-13.36Q489.96-12.64 491.12-12.30Q492.28-11.96 494.32-11.60L494.32-11.60Q496.84-11.12 498.36-10.64Q499.88-10.16 500.96-9Q502.04-7.84 502.04-5.80L502.04-5.80Q502.04-3.04 499.74-1.42Q497.44 0.20 493.36 0.20L493.36 0.20Z M521.76 0L521.76-21.04L524.60-21.04L524.60 0L521.76 0ZM523.20-25.64Q522.32-25.64 521.72-26.24Q521.12-26.84 521.12-27.68L521.12-27.68Q521.12-28.48 521.72-29.08Q522.32-29.68 523.20-29.68L523.20-29.68Q524.08-29.68 524.68-29.10Q525.28-28.52 525.28-27.72L525.28-27.72Q525.28-26.84 524.68-26.24Q524.08-25.64 523.20-25.64L523.20-25.64Z M545.24-21.20Q549.20-21.20 551.54-18.90Q553.88-16.60 553.88-12.20L553.88-12.20L553.88 0L551.04 0L551.04-11.92Q551.04-15.20 549.40-16.92Q547.76-18.64 544.72-18.64L544.72-18.64Q541.32-18.64 539.34-16.62Q537.36-14.60 537.36-11.04L537.36-11.04L537.36 0L534.52 0L534.52-21.04L537.24-21.04L537.24-17.16Q538.40-19.08 540.46-20.14Q542.52-21.20 545.24-21.20L545.24-21.20Z M570.56-27.48Q568.72-27.48 567.78-26.48Q566.84-25.48 566.84-23.52L566.84-23.52L566.84-21.04L573.32-21.04L573.32-18.64L566.92-18.64L566.92 0L564.08 0L564.08-18.64L560.32-18.64L560.32-21.04L564.08-21.04L564.08-23.64Q564.08-26.52 565.74-28.20Q567.40-29.88 570.44-29.88L570.44-29.88Q571.64-29.88 572.76-29.54Q573.88-29.20 574.64-28.56L574.64-28.56L573.68-26.44Q572.44-27.48 570.56-27.48L570.56-27.48Z M587.40 0.20Q584.36 0.20 581.92-1.18Q579.48-2.56 578.08-5Q576.68-7.44 576.68-10.52L576.68-10.52Q576.68-13.60 578.08-16.04Q579.48-18.48 581.92-19.84Q584.36-21.20 587.40-21.20L587.40-21.20Q590.44-21.20 592.88-19.84Q595.32-18.48 596.70-16.04Q598.08-13.60 598.08-10.52L598.08-10.52Q598.08-7.44 596.70-5Q595.32-2.56 592.88-1.18Q590.44 0.20 587.40 0.20L587.40 0.20ZM587.40-2.32Q589.64-2.32 591.42-3.34Q593.20-4.36 594.20-6.24Q595.20-8.12 595.20-10.52L595.20-10.52Q595.20-12.92 594.20-14.80Q593.20-16.68 591.42-17.70Q589.64-18.72 587.40-18.72L587.40-18.72Q585.16-18.72 583.38-17.70Q581.60-16.68 580.58-14.80Q579.56-12.92 579.56-10.52L579.56-10.52Q579.56-8.12 580.58-6.24Q581.60-4.36 583.38-3.34Q585.16-2.32 587.40-2.32L587.40-2.32Z M608.60-16.92Q609.60-19.04 611.58-20.12Q613.56-21.20 616.48-21.20L616.48-21.20L616.48-18.44L615.80-18.48Q612.48-18.48 610.60-16.44Q608.72-14.40 608.72-10.72L608.72-10.72L608.72 0L605.88 0L605.88-21.04L608.60-21.04L608.60-16.92Z M649.84-21.20Q653.80-21.20 656.06-18.92Q658.32-16.64 658.32-12.20L658.32-12.20L658.32 0L655.48 0L655.48-11.92Q655.48-15.20 653.90-16.92Q652.32-18.64 649.44-18.64L649.44-18.64Q646.16-18.64 644.28-16.62Q642.40-14.60 642.40-11.04L642.40-11.04L642.40 0L639.56 0L639.56-11.92Q639.56-15.20 637.98-16.92Q636.40-18.64 633.48-18.64L633.48-18.64Q630.24-18.64 628.34-16.62Q626.44-14.60 626.44-11.04L626.44-11.04L626.44 0L623.60 0L623.60-21.04L626.32-21.04L626.32-17.20Q627.44-19.12 629.44-20.16Q631.44-21.20 634.04-21.20L634.04-21.20Q636.68-21.20 638.62-20.08Q640.56-18.96 641.52-16.76L641.52-16.76Q642.68-18.84 644.86-20.02Q647.04-21.20 649.84-21.20L649.84-21.20Z M675.40-21.20Q679.52-21.20 681.72-19.14Q683.92-17.08 683.92-13.04L683.92-13.04L683.92 0L681.20 0L681.20-3.28Q680.24-1.64 678.38-0.72Q676.52 0.20 673.96 0.20L673.96 0.20Q670.44 0.20 668.36-1.48Q666.28-3.16 666.28-5.92L666.28-5.92Q666.28-8.60 668.22-10.24Q670.16-11.88 674.40-11.88L674.40-11.88L681.08-11.88L681.08-13.16Q681.08-15.88 679.56-17.30Q678.04-18.72 675.12-18.72L675.12-18.72Q673.12-18.72 671.28-18.06Q669.44-17.40 668.12-16.24L668.12-16.24L666.84-18.36Q668.44-19.72 670.68-20.46Q672.92-21.20 675.40-21.20L675.40-21.20ZM674.40-2.04Q676.80-2.04 678.52-3.14Q680.24-4.24 681.08-6.32L681.08-6.32L681.08-9.76L674.48-9.76Q669.08-9.76 669.08-6L669.08-6Q669.08-4.16 670.48-3.10Q671.88-2.04 674.40-2.04L674.40-2.04ZM672.88-24.32L678.36-29.28L682.16-29.28L675.68-24.32L672.88-24.32Z M703.72-3.32L704.72-1.28Q703.92-0.56 702.74-0.18Q701.56 0.20 700.28 0.20L700.28 0.20Q697.32 0.20 695.72-1.40Q694.12-3 694.12-5.92L694.12-5.92L694.12-18.64L690.36-18.64L690.36-21.04L694.12-21.04L694.12-25.64L696.96-25.64L696.96-21.04L703.36-21.04L703.36-18.64L696.96-18.64L696.96-6.08Q696.96-4.20 697.90-3.22Q698.84-2.24 700.60-2.24L700.60-2.24Q701.48-2.24 702.30-2.52Q703.12-2.80 703.72-3.32L703.72-3.32Z M711.88 0L711.88-21.04L714.72-21.04L714.72 0L711.88 0ZM713.32-25.64Q712.44-25.64 711.84-26.24Q711.24-26.84 711.24-27.68L711.24-27.68Q711.24-28.48 711.84-29.08Q712.44-29.68 713.32-29.68L713.32-29.68Q714.20-29.68 714.80-29.10Q715.40-28.52 715.40-27.72L715.40-27.72Q715.40-26.84 714.80-26.24Q714.20-25.64 713.32-25.64L713.32-25.64Z M733.36 0.20Q730.24 0.20 727.78-1.16Q725.32-2.52 723.92-4.98Q722.52-7.44 722.52-10.52L722.52-10.52Q722.52-13.60 723.92-16.04Q725.32-18.48 727.78-19.84Q730.24-21.20 733.36-21.20L733.36-21.20Q736.08-21.20 738.22-20.14Q740.36-19.08 741.60-17.04L741.60-17.04L739.48-15.60Q738.44-17.16 736.84-17.94Q735.24-18.72 733.36-18.72L733.36-18.72Q731.08-18.72 729.26-17.70Q727.44-16.68 726.42-14.80Q725.40-12.92 725.40-10.52L725.40-10.52Q725.40-8.08 726.42-6.22Q727.44-4.36 729.26-3.34Q731.08-2.32 733.36-2.32L733.36-2.32Q735.24-2.32 736.84-3.08Q738.44-3.84 739.48-5.40L739.48-5.40L741.60-3.96Q740.36-1.92 738.20-0.86Q736.04 0.20 733.36 0.20L733.36 0.20Z M756.52-21.20Q760.64-21.20 762.84-19.14Q765.04-17.08 765.04-13.04L765.04-13.04L765.04 0L762.32 0L762.32-3.28Q761.36-1.64 759.50-0.72Q757.64 0.20 755.08 0.20L755.08 0.20Q751.56 0.20 749.48-1.48Q747.40-3.16 747.40-5.92L747.40-5.92Q747.40-8.60 749.34-10.24Q751.28-11.88 755.52-11.88L755.52-11.88L762.20-11.88L762.20-13.16Q762.20-15.88 760.68-17.30Q759.16-18.72 756.24-18.72L756.24-18.72Q754.24-18.72 752.40-18.06Q750.56-17.40 749.24-16.24L749.24-16.24L747.96-18.36Q749.56-19.72 751.80-20.46Q754.04-21.20 756.52-21.20L756.52-21.20ZM755.52-2.04Q757.92-2.04 759.64-3.14Q761.36-4.24 762.20-6.32L762.20-6.32L762.20-9.76L755.60-9.76Q750.20-9.76 750.20-6L750.20-6Q750.20-4.16 751.60-3.10Q753.00-2.04 755.52-2.04L755.52-2.04Z M780.40 0.20Q777.84 0.20 775.50-0.54Q773.16-1.28 771.84-2.40L771.84-2.40L773.12-4.64Q774.44-3.60 776.44-2.94Q778.44-2.28 780.60-2.28L780.60-2.28Q783.48-2.28 784.86-3.18Q786.24-4.08 786.24-5.72L786.24-5.72Q786.24-6.88 785.48-7.54Q784.72-8.20 783.56-8.54Q782.40-8.88 780.48-9.20L780.48-9.20Q777.92-9.68 776.36-10.18Q774.80-10.68 773.70-11.88Q772.60-13.08 772.60-15.20L772.60-15.20Q772.60-17.84 774.80-19.52Q777-21.20 780.92-21.20L780.92-21.20Q782.96-21.20 785-20.66Q787.04-20.12 788.36-19.24L788.36-19.24L787.12-16.96Q784.52-18.76 780.92-18.76L780.92-18.76Q778.20-18.76 776.82-17.80Q775.44-16.84 775.44-15.28L775.44-15.28Q775.44-14.08 776.22-13.36Q777-12.64 778.16-12.30Q779.32-11.96 781.36-11.60L781.36-11.60Q783.88-11.12 785.40-10.64Q786.92-10.16 788-9Q789.08-7.84 789.08-5.80L789.08-5.80Q789.08-3.04 786.78-1.42Q784.48 0.20 780.40 0.20L780.40 0.20Z"/></g>
</svg>
</g><g opacity="1" transform="rotate(0 75.0399 300.9256)">
<svg width="363.4308" height="60" x="75.0399" y="300.9256" version="1.1" preserveAspectRatio="none" viewBox="3.4 -29.6 182.20000000000002 30.080000000000002">
  <g transform="matrix(1 0 0 1 0 0)" class="companyName"><path id="id-D6z1nYkh12" d="M21.32-2.24Q17.56 0 11.28 0L11.28 0L3.40 0Q3.40 0.12 3.88-0.22Q4.36-0.56 4.74-1.48Q5.12-2.40 5.12-4.16L5.12-4.16L5.12-23.84Q5.12-25.40 4.74-26.22Q4.36-27.04 3.88-27.32Q3.40-27.60 3.40-27.52L3.40-27.52L11.24-27.52Q17.36-27.52 20.92-25.52L20.92-25.52Q24.08-23.76 25.80-20.76Q27.52-17.76 27.52-14L27.52-14Q27.52-9.92 25.90-6.94Q24.28-3.96 21.32-2.24L21.32-2.24ZM19.76-23.72Q18-24.88 16-25.40Q14-25.92 11.24-25.92L11.24-25.92L8-25.92L8-1.60L11.24-1.60Q14.52-1.60 16.62-2.16Q18.72-2.72 20.24-3.88L20.24-3.88Q22.20-5.40 23.26-7.86Q24.32-10.32 24.32-13.60L24.32-13.60Q24.32-17.08 23.10-19.70Q21.88-22.32 19.76-23.72L19.76-23.72Z M35.52-11.24Q36.12-12.52 37.50-13.70Q38.88-14.88 40.28-14.88L40.28-14.88Q41.16-14.88 41.60-14.64L41.60-14.64L41.60-11.36Q40.72-12.44 39.12-12.44L39.12-12.44Q37.44-12.44 36.48-10.98Q35.52-9.52 35.52-7.24L35.52-7.24L35.52-4Q35.52-1.76 36.04-0.92Q36.56-0.08 37.04 0L37.04 0L31.40 0Q31.88-0.08 32.42-0.90Q32.96-1.72 32.96-4L32.96-4L32.96-10.04Q32.96-11.72 32.42-12.34Q31.88-12.96 31.20-12.96L31.20-12.96L35.52-14.88L35.52-11.24Z M46.08 0.40Q45.28 0.40 44.66-0.14Q44.04-0.68 44.04-1.64L44.04-1.64Q44.04-2.60 44.64-3.12Q45.24-3.64 46.08-3.64L46.08-3.64Q46.92-3.64 47.52-3.12Q48.12-2.60 48.12-1.64L48.12-1.64Q48.12-0.68 47.50-0.14Q46.88 0.40 46.08 0.40L46.08 0.40Z M72.12 0.48Q70.04 0.48 68.12-0.10Q66.20-0.68 64.68-1.72L64.68-1.72L64.68-6.56Q65.72-3.88 67.86-2.50Q70-1.12 72.32-1.12L72.32-1.12Q74.64-1.12 76.20-2.66Q77.76-4.20 77.76-6.48L77.76-6.48Q77.76-8 77.14-9.08Q76.52-10.16 75.16-11.10Q73.80-12.04 71.32-13.20L71.32-13.20Q67.84-14.80 66.26-16.54Q64.68-18.28 64.68-20.76L64.68-20.76Q64.68-22.88 65.70-24.54Q66.72-26.20 68.46-27.10Q70.20-28 72.28-28L72.28-28Q74.08-28 75.80-27.50Q77.52-27 79-26.08L79-26.08L79-21.76Q78.04-23.96 76.10-25.18Q74.16-26.40 72.16-26.40L72.16-26.40Q69.88-26.40 68.48-24.92Q67.08-23.44 67.08-21.40L67.08-21.40Q67.08-19.92 67.92-18.86Q68.76-17.80 69.98-17.08Q71.20-16.36 73.40-15.32L73.40-15.32Q75.64-14.24 77.08-13.32Q78.52-12.40 79.48-10.92Q80.44-9.44 80.44-7.32L80.44-7.32Q80.44-4.92 79.30-3.16Q78.16-1.40 76.26-0.46Q74.36 0.48 72.12 0.48L72.12 0.48Z M84.48-6.84Q84.48-8.92 85.50-10.78Q86.52-12.64 88.32-13.76Q90.12-14.88 92.32-14.88L92.32-14.88Q94.44-14.88 96.16-13.90Q97.88-12.92 98.86-11.24Q99.84-9.56 99.84-7.56L99.84-7.56Q99.84-5.48 98.82-3.62Q97.80-1.76 96-0.64Q94.20 0.48 92 0.48L92 0.48Q89.88 0.48 88.16-0.50Q86.44-1.48 85.46-3.16Q84.48-4.84 84.48-6.84L84.48-6.84ZM96.96-6.40Q96.96-8.08 96.32-9.72Q95.68-11.36 94.52-12.40Q93.36-13.44 91.84-13.44L91.84-13.44Q89.72-13.44 88.54-11.84Q87.36-10.24 87.36-8L87.36-8Q87.36-6.32 88-4.68Q88.64-3.04 89.80-2Q90.96-0.96 92.48-0.96L92.48-0.96Q94.60-0.96 95.78-2.56Q96.96-4.16 96.96-6.40L96.96-6.40Z M104.64-24.60Q104.64-26.28 104.10-26.90Q103.56-27.52 102.88-27.52L102.88-27.52L102.64-27.52L107.20-29.60L107.20-4Q107.20-2.24 107.56-1.36Q107.92-0.48 108.36-0.18Q108.80 0.12 108.80 0L108.80 0L103.04 0Q103.04 0.12 103.48-0.18Q103.92-0.48 104.28-1.38Q104.64-2.28 104.64-4L104.64-4L104.64-24.60Z M123.20-2.32Q121.20 0.48 118.28 0.48L118.28 0.48Q116.24 0.48 114.92-0.86Q113.60-2.20 113.60-4.96L113.60-4.96L113.60-10.64Q113.60-12.28 113.10-13.16Q112.60-14.04 111.96-14.36Q111.32-14.68 111.32-14.56L111.32-14.56L116.16-14.56L116.16-5.56Q116.16-3.68 117.18-2.68Q118.20-1.68 119.60-1.68L119.60-1.68Q121-1.68 122.10-2.62Q123.20-3.56 123.20-5.08L123.20-5.08L123.20-10.92Q123.20-12.48 122.80-13.28Q122.40-14.08 121.88-14.36Q121.36-14.64 121.36-14.56L121.36-14.56L125.76-14.56L125.76-4.52Q125.76-2.84 126.30-2.22Q126.84-1.60 127.52-1.60L127.52-1.60L127.76-1.60L123.20 0.48L123.20-2.32Z M136.12 0.48Q134.16 0.48 133.16-0.86Q132.16-2.20 132.16-4.08L132.16-4.08L132.16-12.96L129.92-12.96L134.72-18.40L134.72-14.56L139.84-14.56L139.84-12.96L134.72-12.96L134.72-4.52Q134.72-3 135.52-2.22Q136.32-1.44 137.36-1.44L137.36-1.44Q138.16-1.44 138.92-1.92Q139.68-2.40 140.16-3.24L140.16-3.24Q139.56 0.48 136.12 0.48L136.12 0.48Z M144.32-10.04Q144.32-11.72 143.78-12.34Q143.24-12.96 142.56-12.96L142.56-12.96L146.88-14.88L146.88-4Q146.88-2.24 147.24-1.36Q147.60-0.48 148.04-0.18Q148.48 0.12 148.48 0L148.48 0L142.72 0Q142.72 0.12 143.16-0.18Q143.60-0.48 143.96-1.36Q144.32-2.24 144.32-4L144.32-4L144.32-10.04ZM145.56-19.72Q144.68-19.72 144.18-20.30Q143.68-20.88 143.68-21.64L143.68-21.64Q143.68-22.40 144.18-22.98Q144.68-23.56 145.56-23.56L145.56-23.56Q146.44-23.56 146.94-22.98Q147.44-22.40 147.44-21.64L147.44-21.64Q147.44-20.88 146.94-20.30Q146.44-19.72 145.56-19.72L145.56-19.72Z M151.68-6.84Q151.68-8.92 152.70-10.78Q153.72-12.64 155.52-13.76Q157.32-14.88 159.52-14.88L159.52-14.88Q161.64-14.88 163.36-13.90Q165.08-12.92 166.06-11.24Q167.04-9.56 167.04-7.56L167.04-7.56Q167.04-5.48 166.02-3.62Q165-1.76 163.20-0.64Q161.40 0.48 159.20 0.48L159.20 0.48Q157.08 0.48 155.36-0.50Q153.64-1.48 152.66-3.16Q151.68-4.84 151.68-6.84L151.68-6.84ZM164.16-6.40Q164.16-8.08 163.52-9.72Q162.88-11.36 161.72-12.40Q160.56-13.44 159.04-13.44L159.04-13.44Q156.92-13.44 155.74-11.84Q154.56-10.24 154.56-8L154.56-8Q154.56-6.32 155.20-4.68Q155.84-3.04 157-2Q158.16-0.96 159.68-0.96L159.68-0.96Q161.80-0.96 162.98-2.56Q164.16-4.16 164.16-6.40L164.16-6.40Z M174.40-12.16Q175.32-13.40 176.58-14.14Q177.84-14.88 179.24-14.88L179.24-14.88Q181.40-14.88 182.70-13.50Q184-12.12 184-9.52L184-9.52L184-3.96Q184-2.28 184.36-1.40Q184.72-0.52 185.16-0.20Q185.60 0.12 185.60 0L185.60 0L179.84 0Q179.84 0.12 180.28-0.18Q180.72-0.48 181.08-1.36Q181.44-2.24 181.44-4L181.44-4L181.44-8.56Q181.44-9.92 181.08-10.72Q180.72-11.52 180.12-12.04L180.12-12.04Q179.20-12.80 177.92-12.80L177.92-12.80Q176.48-12.80 175.44-11.86Q174.40-10.92 174.40-9.24L174.40-9.24L174.40-4Q174.40-2.28 174.76-1.40Q175.12-0.52 175.58-0.20Q176.04 0.12 176.04 0L176.04 0L170.28 0Q170.28 0.12 170.72-0.18Q171.16-0.48 171.50-1.38Q171.84-2.28 171.84-4L171.84-4L171.84-10.04Q171.84-11.72 171.30-12.34Q170.76-12.96 170.08-12.96L170.08-12.96L174.40-14.88L174.40-12.16Z"/></g>
</svg>
</g></svg></svg>