<svg version="1.1" preserveAspectRatio="none" xmlns="http://www.w3.org/2000/svg" width="500" height="500" viewBox="0 0 500 500"><rect width="100%" height="100%" fill="#E74C32" fill-opacity="1"/><svg viewBox="46.7365 91.6608 398.8067 267.1815" width="333" height="223.09414435615054" x="83.5px" y="138.4529px" xmlns="http://www.w3.org/2000/svg" xmlns:xlink="http://www.w3.org/1999/xlink" preserveAspectRatio="none"><defs></defs><style>.companyName {fill:#EFEFEF;fill-opacity:1;}.icon1 {fill:#281817;fill-opacity:1;}.icon2 {fill:#EFEFEF;fill-opacity:1;}.icon3 {fill:#DDAC77;fill-opacity:1;}.icon3-str {stroke:#DDAC77;stroke-opacity:1;}.text {fill:#EFEFEF;fill-opacity:1;}</style><g opacity="1" transform="rotate(0 46.7365 339.3423)">
<svg width="398.8067" height="19.5" x="46.7365" y="339.3423" version="1.1" preserveAspectRatio="none" viewBox="3.24 -28.32 741.0400000000001 36.24">
  <g transform="matrix(1 0 0 1 0 0)" class="text"><path id="id-6izo4zJp35" d="M3.24-26.48L6.24-26.48L6.24-2.88L20.68-2.88L20.68 0L3.24 0L3.24-26.48Z M35.36-20.32L35.36-20.32Q39.84-20.32 42.64-17.32L42.64-17.32Q45.28-14.44 45.28-10L45.28-10Q45.28-5.56 42.64-2.68L42.64-2.68Q39.84 0.32 35.36 0.32L35.36 0.32Q30.88 0.32 28.08-2.68L28.08-2.68Q25.44-5.56 25.44-10L25.44-10Q25.44-14.44 28.08-17.32L28.08-17.32Q30.88-20.32 35.36-20.32ZM35.36-2.40L35.36-2.40Q38.60-2.40 40.48-4.64L40.48-4.64Q42.28-6.76 42.28-10L42.28-10Q42.28-13.24 40.48-15.36L40.48-15.36Q38.60-17.60 35.36-17.60L35.36-17.60Q32.12-17.60 30.24-15.36L30.24-15.36Q28.44-13.24 28.44-10L28.44-10Q28.44-6.76 30.24-4.64L30.24-4.64Q32.12-2.40 35.36-2.40Z M67.16-20L67.16-16.96Q69.16-20.32 73.24-20.32L73.24-20.32Q75.24-20.32 76.94-19.26Q78.64-18.20 79.60-16.28L79.60-16.28Q80.96-18.80 83.84-19.88L83.84-19.88Q85-20.32 86.46-20.32Q87.92-20.32 89.26-19.74Q90.60-19.16 91.64-18.08L91.64-18.08Q93.88-15.68 93.88-12.08L93.88-12.08L93.88 0L90.88 0L90.88-12Q90.88-14.48 89.48-16.08L89.48-16.08Q88.08-17.60 85.92-17.60L85.92-17.60Q83.64-17.60 82.12-16.12L82.12-16.12Q80.52-14.60 80.52-11.96L80.52-11.96L80.52 0L77.52 0L77.52-12Q77.52-14.48 76.12-16.08L76.12-16.08Q74.72-17.60 72.56-17.60L72.56-17.60Q70.28-17.60 68.76-16.12L68.76-16.12Q67.16-14.60 67.16-11.96L67.16-11.96L67.16 0L64.16 0L64.16-20L67.16-20Z M111-2.40L111-2.40Q115.04-2.40 116.80-5.76L116.80-5.76L120.08-5.76Q119.04-3.04 116.78-1.36Q114.52 0.32 110.96 0.32L110.96 0.32Q106.44 0.32 103.60-2.68L103.60-2.68Q100.84-5.60 100.84-10L100.84-10Q100.84-14.44 103.48-17.32L103.48-17.32Q106.28-20.32 110.76-20.32L110.76-20.32Q115.24-20.32 118.04-17.32L118.04-17.32Q120.68-14.44 120.68-10L120.68-10L120.68-8.80L103.92-8.80Q104.24-6.04 106.12-4.24L106.12-4.24Q108.04-2.40 111-2.40ZM110.76-17.60L110.76-17.60Q108-17.60 106.12-15.88L106.12-15.88Q104.36-14.24 103.96-11.60L103.96-11.60L117.56-11.60Q117.16-14.24 115.40-15.88L115.40-15.88Q113.52-17.60 110.76-17.60Z M127.56 7.92L127.56-20L130.56-20L130.56 7.92L127.56 7.92ZM127.44-27.28L130.68-27.28L130.68-23.36L127.44-23.36L127.44-27.28Z M147.64-20.32L147.64-20.32Q152.12-20.32 154.92-17.32L154.92-17.32Q157.56-14.44 157.56-10L157.56-10Q157.56-5.56 154.92-2.68L154.92-2.68Q152.12 0.32 147.64 0.32L147.64 0.32Q143.16 0.32 140.36-2.68L140.36-2.68Q137.72-5.56 137.72-10L137.72-10Q137.72-14.44 140.36-17.32L140.36-17.32Q143.16-20.32 147.64-20.32ZM147.64-2.40L147.64-2.40Q150.88-2.40 152.76-4.64L152.76-4.64Q154.56-6.76 154.56-10L154.56-10Q154.56-13.24 152.76-15.36L152.76-15.36Q150.88-17.60 147.64-17.60L147.64-17.60Q144.40-17.60 142.52-15.36L142.52-15.36Q140.72-13.24 140.72-10L140.72-10Q140.72-6.76 142.52-4.64L142.52-4.64Q144.40-2.40 147.64-2.40Z M175.08-20.32L175.28-20.32L175.28-17.32L174.92-17.32Q171.68-17.32 169.64-14.72L169.64-14.72Q167.72-12.24 167.72-8.80L167.72-8.80L167.72 0L164.72 0L164.72-20L167.72-20L167.72-15.08Q168.68-18.20 171.88-19.68L171.88-19.68Q173.20-20.32 175.08-20.32L175.08-20.32Z M202.36-2.40L202.36-2.40Q206.40-2.40 208.16-5.76L208.16-5.76L211.44-5.76Q210.40-3.04 208.14-1.36Q205.88 0.32 202.32 0.32L202.32 0.32Q197.80 0.32 194.96-2.68L194.96-2.68Q192.20-5.60 192.20-10L192.20-10Q192.20-14.44 194.84-17.32L194.84-17.32Q197.64-20.32 202.12-20.32L202.12-20.32Q206.60-20.32 209.40-17.32L209.40-17.32Q212.04-14.44 212.04-10L212.04-10L212.04-8.80L195.28-8.80Q195.60-6.04 197.48-4.24L197.48-4.24Q199.40-2.40 202.36-2.40ZM202.12-17.60L202.12-17.60Q199.36-17.60 197.48-15.88L197.48-15.88Q195.72-14.24 195.32-11.60L195.32-11.60L208.92-11.60Q208.52-14.24 206.76-15.88L206.76-15.88Q204.88-17.60 202.12-17.60Z M218.92-20L221.92-20L221.92-16.88Q223.00-18.32 224.56-19.32Q226.12-20.32 228.12-20.32Q230.12-20.32 231.56-19.76Q233.00-19.20 234.08-18.08L234.08-18.08Q236.56-15.64 236.56-11.64L236.56-11.64L236.56 0L233.56 0L233.56-11.56Q233.56-14.32 232.00-15.96Q230.44-17.60 227.96-17.60L227.96-17.60Q225.44-17.60 223.68-15.92L223.68-15.92Q221.92-14.20 221.92-11.52L221.92-11.52L221.92 0L218.92 0L218.92-20Z M271.28-14.64L268.24-14.64Q267.84-17.76 263.22-17.76Q258.60-17.76 258.60-14.88L258.60-14.88Q258.60-13.68 259.58-13.06Q260.56-12.44 262.04-12.04Q263.52-11.64 265.26-11.30Q267.00-10.96 268.48-10.34Q269.96-9.72 270.94-8.64Q271.92-7.56 271.92-5.68L271.92-5.68Q271.92-2.76 269.72-1.22Q267.52 0.32 263.76 0.32L263.76 0.32Q259.76 0.32 257.40-1.68L257.40-1.68Q255.24-3.44 255.08-6.28L255.08-6.28L258.20-6.28Q258.48-3.52 261.32-2.56L261.32-2.56Q262.36-2.24 263.38-2.24Q264.40-2.24 265.28-2.36Q266.16-2.48 267.00-2.80L267.00-2.80Q268.92-3.56 268.92-5.40L268.92-5.40Q268.92-6.64 267.94-7.30Q266.96-7.96 265.48-8.38Q264.00-8.80 262.26-9.14Q260.52-9.48 259.04-10.08Q257.56-10.68 256.58-11.72Q255.60-12.76 255.60-14.60L255.60-14.60Q255.60-17.32 257.58-18.82Q259.56-20.32 263.44-20.32L263.44-20.32Q267.12-20.32 269.24-18.56L269.24-18.56Q271.00-17.08 271.28-14.64L271.28-14.64Z M287.64-20.32L287.64-20.32Q292.12-20.32 294.92-17.32L294.92-17.32Q297.56-14.44 297.56-10L297.56-10Q297.56-5.56 294.92-2.68L294.92-2.68Q292.12 0.32 287.64 0.32L287.64 0.32Q283.16 0.32 280.36-2.68L280.36-2.68Q277.72-5.56 277.72-10L277.72-10Q277.72-14.44 280.36-17.32L280.36-17.32Q283.16-20.32 287.64-20.32ZM287.64-2.40L287.64-2.40Q290.88-2.40 292.76-4.64L292.76-4.64Q294.56-6.76 294.56-10L294.56-10Q294.56-13.24 292.76-15.36L292.76-15.36Q290.88-17.60 287.64-17.60L287.64-17.60Q284.40-17.60 282.52-15.36L282.52-15.36Q280.72-13.24 280.72-10L280.72-10Q280.72-6.76 282.52-4.64L282.52-4.64Q284.40-2.40 287.64-2.40Z M307.72-28L307.72 0L304.72 0L304.72-28L307.72-28Z M333.56 0L330.56 0L330.56-3.12Q329.48-1.68 327.92-0.68Q326.36 0.32 324.36 0.32Q322.36 0.32 320.92-0.24Q319.48-0.80 318.40-1.92L318.40-1.92Q315.92-4.36 315.92-8.36L315.92-8.36L315.92-20L318.92-20L318.92-8.44Q318.92-5.68 320.48-4.04Q322.04-2.40 324.52-2.40L324.52-2.40Q327.04-2.40 328.80-4.08L328.80-4.08Q330.56-5.80 330.56-8.48L330.56-8.48L330.56-20L333.56-20L333.56 0Z M351.20-2.40L351.20-2.40Q353.12-2.40 354.60-3.48Q356.08-4.56 356.76-6.28L356.76-6.28L360.00-6.28Q359.08-3.32 356.64-1.52L356.64-1.52Q354.08 0.32 350.56 0.32L350.56 0.32Q346.16 0.32 343.40-2.68L343.40-2.68Q340.72-5.60 340.72-10L340.72-10Q340.72-14.40 343.40-17.32L343.40-17.32Q346.16-20.32 350.56-20.32L350.56-20.32Q354.08-20.32 356.64-18.48L356.64-18.48Q359.08-16.68 360.00-13.72L360.00-13.72L356.76-13.72Q356.08-15.44 354.60-16.52Q353.12-17.60 351.20-17.60Q349.28-17.60 347.94-17Q346.60-16.40 345.68-15.36L345.68-15.36Q343.72-13.20 343.72-10L343.72-10Q343.72-6.80 345.68-4.64L345.68-4.64Q347.68-2.40 351.20-2.40Z M366.92 0L366.92-20L369.92-20L369.92 0L366.92 0ZM366.80-27.28L370.04-27.28L370.04-23.36L366.80-23.36L366.80-27.28Z M387.00-20.32L387.00-20.32Q391.48-20.32 394.28-17.32L394.28-17.32Q396.92-14.44 396.92-10L396.92-10Q396.92-5.56 394.28-2.68L394.28-2.68Q391.48 0.32 387.00 0.32L387.00 0.32Q382.52 0.32 379.72-2.68L379.72-2.68Q377.08-5.56 377.08-10L377.08-10Q377.08-14.44 379.72-17.32L379.72-17.32Q382.52-20.32 387.00-20.32ZM387.00-2.40L387.00-2.40Q390.24-2.40 392.12-4.64L392.12-4.64Q393.92-6.76 393.92-10L393.92-10Q393.92-13.24 392.12-15.36L392.12-15.36Q390.24-17.60 387.00-17.60L387.00-17.60Q383.76-17.60 381.88-15.36L381.88-15.36Q380.08-13.24 380.08-10L380.08-10Q380.08-6.76 381.88-4.64L381.88-4.64Q383.76-2.40 387.00-2.40Z M404.08-20L407.08-20L407.08-16.88Q408.16-18.32 409.72-19.32Q411.28-20.32 413.28-20.32Q415.28-20.32 416.72-19.76Q418.16-19.20 419.24-18.08L419.24-18.08Q421.72-15.64 421.72-11.64L421.72-11.64L421.72 0L418.72 0L418.72-11.56Q418.72-14.32 417.16-15.96Q415.60-17.60 413.12-17.60L413.12-17.60Q410.60-17.60 408.84-15.92L408.84-15.92Q407.08-14.20 407.08-11.52L407.08-11.52L407.08 0L404.08 0L404.08-20Z M438.84-2.40L438.84-2.40Q442.88-2.40 444.64-5.76L444.64-5.76L447.92-5.76Q446.88-3.04 444.62-1.36Q442.36 0.32 438.80 0.32L438.80 0.32Q434.28 0.32 431.44-2.68L431.44-2.68Q428.68-5.60 428.68-10L428.68-10Q428.68-14.44 431.32-17.32L431.32-17.32Q434.12-20.32 438.60-20.32L438.60-20.32Q443.08-20.32 445.88-17.32L445.88-17.32Q448.52-14.44 448.52-10L448.52-10L448.52-8.80L431.76-8.80Q432.08-6.04 433.96-4.24L433.96-4.24Q435.88-2.40 438.84-2.40ZM438.60-17.60L438.60-17.60Q435.84-17.60 433.96-15.88L433.96-15.88Q432.20-14.24 431.80-11.60L431.80-11.60L445.40-11.60Q445.00-14.24 443.24-15.88L443.24-15.88Q441.36-17.60 438.60-17.60Z M470.20-14.64L467.16-14.64Q466.76-17.76 462.14-17.76Q457.52-17.76 457.52-14.88L457.52-14.88Q457.52-13.68 458.50-13.06Q459.48-12.44 460.96-12.04Q462.44-11.64 464.18-11.30Q465.92-10.96 467.40-10.34Q468.88-9.72 469.86-8.64Q470.84-7.56 470.84-5.68L470.84-5.68Q470.84-2.76 468.64-1.22Q466.44 0.32 462.68 0.32L462.68 0.32Q458.68 0.32 456.32-1.68L456.32-1.68Q454.16-3.44 454.00-6.28L454.00-6.28L457.12-6.28Q457.40-3.52 460.24-2.56L460.24-2.56Q461.28-2.24 462.30-2.24Q463.32-2.24 464.20-2.36Q465.08-2.48 465.92-2.80L465.92-2.80Q467.84-3.56 467.84-5.40L467.84-5.40Q467.84-6.64 466.86-7.30Q465.88-7.96 464.40-8.38Q462.92-8.80 461.18-9.14Q459.44-9.48 457.96-10.08Q456.48-10.68 455.50-11.72Q454.52-12.76 454.52-14.60L454.52-14.60Q454.52-17.32 456.50-18.82Q458.48-20.32 462.36-20.32L462.36-20.32Q466.04-20.32 468.16-18.56L468.16-18.56Q469.92-17.08 470.20-14.64L470.20-14.64Z M489.60 0L489.60-20L492.60-20L492.60 0L489.60 0ZM489.48-27.28L492.72-27.28L492.72-23.36L489.48-23.36L489.48-27.28Z M501.00-20L504.00-20L504.00-16.88Q505.08-18.32 506.64-19.32Q508.20-20.32 510.20-20.32Q512.20-20.32 513.64-19.76Q515.08-19.20 516.16-18.08L516.16-18.08Q518.64-15.64 518.64-11.64L518.64-11.64L518.64 0L515.64 0L515.64-11.56Q515.64-14.32 514.08-15.96Q512.52-17.60 510.04-17.60L510.04-17.60Q507.52-17.60 505.76-15.92L505.76-15.92Q504.00-14.20 504.00-11.52L504.00-11.52L504.00 0L501.00 0L501.00-20Z M535.48-25.48L535.08-25.48Q532.96-25.48 531.90-24.54Q530.84-23.60 530.84-21.52L530.84-21.52L530.84-20L535.48-20L535.48-17.36L530.84-17.36L530.84 0L527.84 0L527.84-17.36L524.40-17.36L524.40-20L527.84-20L527.84-21.76Q527.84-25.04 529.80-26.68Q531.76-28.32 535.24-28.32L535.24-28.32L535.48-28.32L535.48-25.48Z M550.24-20.32L550.24-20.32Q554.72-20.32 557.52-17.32L557.52-17.32Q560.16-14.44 560.16-10L560.16-10Q560.16-5.56 557.52-2.68L557.52-2.68Q554.72 0.32 550.24 0.32L550.24 0.32Q545.76 0.32 542.96-2.68L542.96-2.68Q540.32-5.56 540.32-10L540.32-10Q540.32-14.44 542.96-17.32L542.96-17.32Q545.76-20.32 550.24-20.32ZM550.24-2.40L550.24-2.40Q553.48-2.40 555.36-4.64L555.36-4.64Q557.16-6.76 557.16-10L557.16-10Q557.16-13.24 555.36-15.36L555.36-15.36Q553.48-17.60 550.24-17.60L550.24-17.60Q547.00-17.60 545.12-15.36L545.12-15.36Q543.32-13.24 543.32-10L543.32-10Q543.32-6.76 545.12-4.64L545.12-4.64Q547.00-2.40 550.24-2.40Z M577.68-20.32L577.88-20.32L577.88-17.32L577.52-17.32Q574.28-17.32 572.24-14.72L572.24-14.72Q570.32-12.24 570.32-8.80L570.32-8.80L570.32 0L567.32 0L567.32-20L570.32-20L570.32-15.08Q571.28-18.20 574.48-19.68L574.48-19.68Q575.80-20.32 577.68-20.32L577.68-20.32Z M587.32-20L587.32-16.96Q589.32-20.32 593.40-20.32L593.40-20.32Q595.40-20.32 597.10-19.26Q598.80-18.20 599.76-16.28L599.76-16.28Q601.12-18.80 604.00-19.88L604.00-19.88Q605.16-20.32 606.62-20.32Q608.08-20.32 609.42-19.74Q610.76-19.16 611.80-18.08L611.80-18.08Q614.04-15.68 614.04-12.08L614.04-12.08L614.04 0L611.04 0L611.04-12Q611.04-14.48 609.64-16.08L609.64-16.08Q608.24-17.60 606.08-17.60L606.08-17.60Q603.80-17.60 602.28-16.12L602.28-16.12Q600.68-14.60 600.68-11.96L600.68-11.96L600.68 0L597.68 0L597.68-12Q597.68-14.48 596.28-16.08L596.28-16.08Q594.88-17.60 592.72-17.60L592.72-17.60Q590.44-17.60 588.92-16.12L588.92-16.12Q587.32-14.60 587.32-11.96L587.32-11.96L587.32 0L584.32 0L584.32-20L587.32-20Z M637.84 0L637.84-3.20Q635.44 0.32 630.68 0.32L630.68 0.32Q626.36 0.32 623.64-2.68L623.64-2.68Q621.00-5.64 621.00-10L621.00-10Q621.00-14.36 623.64-17.32L623.64-17.32Q626.36-20.32 630.88-20.32Q635.40-20.32 637.84-16.76L637.84-16.76L637.84-20L640.84-20L640.84 0L637.84 0ZM631.08-2.40L631.08-2.40Q634.32-2.40 636.20-4.64L636.20-4.64Q638.00-6.76 638.00-10L638.00-10Q638.00-13.24 636.20-15.36L636.20-15.36Q634.32-17.60 631.08-17.60L631.08-17.60Q627.88-17.60 625.88-15.36L625.88-15.36Q624.00-13.24 624.00-10L624.00-10Q624.00-6.76 625.88-4.64L625.88-4.64Q627.88-2.40 631.08-2.40ZM628.36-22.80L630.80-27L635.08-27L630.80-22.80L628.36-22.80Z M654.40 0L651.40 0L651.40-17.36L647.32-17.36L647.32-20L651.40-20L651.40-27.16L654.40-27.16L654.40-20L659.00-20L659.00-17.36L654.40-17.36L654.40 0Z M665.48 0L665.48-20L668.48-20L668.48 0L665.48 0ZM665.36-27.28L668.60-27.28L668.60-23.36L665.36-23.36L665.36-27.28Z M686.12-2.40L686.12-2.40Q688.04-2.40 689.52-3.48Q691-4.56 691.68-6.28L691.68-6.28L694.92-6.28Q694-3.32 691.56-1.52L691.56-1.52Q689 0.32 685.48 0.32L685.48 0.32Q681.08 0.32 678.32-2.68L678.32-2.68Q675.64-5.60 675.64-10L675.64-10Q675.64-14.40 678.32-17.32L678.32-17.32Q681.08-20.32 685.48-20.32L685.48-20.32Q689-20.32 691.56-18.48L691.56-18.48Q694-16.68 694.92-13.72L694.92-13.72L691.68-13.72Q691-15.44 689.52-16.52Q688.04-17.60 686.12-17.60Q684.20-17.60 682.86-17Q681.52-16.40 680.60-15.36L680.60-15.36Q678.64-13.20 678.64-10L678.64-10Q678.64-6.80 680.60-4.64L680.60-4.64Q682.60-2.40 686.12-2.40Z M717.44 0L717.44-3.20Q715.04 0.32 710.28 0.32L710.28 0.32Q705.96 0.32 703.24-2.68L703.24-2.68Q700.60-5.64 700.60-10L700.60-10Q700.60-14.36 703.24-17.32L703.24-17.32Q705.96-20.32 710.48-20.32Q715-20.32 717.44-16.76L717.44-16.76L717.44-20L720.44-20L720.44 0L717.44 0ZM710.68-2.40L710.68-2.40Q713.92-2.40 715.80-4.64L715.80-4.64Q717.60-6.76 717.60-10L717.60-10Q717.60-13.24 715.80-15.36L715.80-15.36Q713.92-17.60 710.68-17.60L710.68-17.60Q707.48-17.60 705.48-15.36L705.48-15.36Q703.60-13.24 703.60-10L703.60-10Q703.60-6.76 705.48-4.64L705.48-4.64Q707.48-2.40 710.68-2.40Z M743.64-14.64L740.60-14.64Q740.20-17.76 735.58-17.76Q730.96-17.76 730.96-14.88L730.96-14.88Q730.96-13.68 731.94-13.06Q732.92-12.44 734.40-12.04Q735.88-11.64 737.62-11.30Q739.36-10.96 740.84-10.34Q742.32-9.72 743.30-8.64Q744.28-7.56 744.28-5.68L744.28-5.68Q744.28-2.76 742.08-1.22Q739.88 0.32 736.12 0.32L736.12 0.32Q732.12 0.32 729.76-1.68L729.76-1.68Q727.60-3.44 727.44-6.28L727.44-6.28L730.56-6.28Q730.84-3.52 733.68-2.56L733.68-2.56Q734.72-2.24 735.74-2.24Q736.76-2.24 737.64-2.36Q738.52-2.48 739.36-2.80L739.36-2.80Q741.28-3.56 741.28-5.40L741.28-5.40Q741.28-6.64 740.30-7.30Q739.32-7.96 737.84-8.38Q736.36-8.80 734.62-9.14Q732.88-9.48 731.40-10.08Q729.92-10.68 728.94-11.72Q727.96-12.76 727.96-14.60L727.96-14.60Q727.96-17.32 729.94-18.82Q731.92-20.32 735.80-20.32L735.80-20.32Q739.48-20.32 741.60-18.56L741.60-18.56Q743.36-17.08 743.64-14.64L743.64-14.64Z"/></g>
</svg>
</g><g opacity="1" transform="rotate(0 71.5378 271.3423)">
<svg width="349.2041" height="50" x="71.5378" y="271.3423" version="1.1" preserveAspectRatio="none" viewBox="1.32 -31.4 228.24 32.68">
  <g transform="matrix(1 0 0 1 0 0)" class="companyName"><path id="id-D6z1nYkh12" d="M9.64 0.12Q5.32 0.12 1.68-0.24L1.68-0.24L1.48-4.08L4.40-4.88L4.40-20.12Q4.40-21.16 4.24-21.50Q4.08-21.84 3.40-22.12L3.40-22.12L1.32-23.28L1.56-26.60Q5.72-26.92 8.56-27.10Q11.40-27.28 13.12-27.28L13.12-27.28Q18.64-27.28 21.98-26Q25.32-24.72 26.86-21.96Q28.40-19.20 28.40-14.64L28.40-14.64Q28.40-8.88 25.76-5.32L25.76-5.32Q23.40-2.24 19.50-1.06Q15.60 0.12 9.64 0.12L9.64 0.12ZM14.68-5.60Q18.04-5.60 20-6.40L20-6.40Q20.36-7.40 20.66-9.52Q20.96-11.64 20.96-13.48L20.96-13.48Q20.96-18 19.10-20.16Q17.24-22.32 13.44-22.32L13.44-22.32Q12.92-22.32 12.48-22.28Q12.04-22.24 11.64-22.20L11.64-22.20L11.64-5.80Q13.24-5.60 14.68-5.60L14.68-5.60Z M31.28 0L31.08-3.80L33.52-4.52L33.52-14.24Q33.52-15.12 33.40-15.38Q33.28-15.64 32.76-15.96L32.76-15.96L31.00-16.92L31.12-19.92Q31.80-20.08 32.28-20.12L32.28-20.12Q37.12-21.12 39.44-21.20L39.44-21.20Q39.80-20.16 40.12-18.60L40.12-18.60Q42.52-20.48 44.20-21.20L44.20-21.20L46.48-21.20Q46.44-19.68 46.28-17.90Q46.12-16.12 45.88-15.04L45.88-15.04Q44.44-15.12 43.76-15.12L43.76-15.12Q42.08-15.12 40.28-14.92L40.28-14.92L40.28-5.84Q40.28-5 40.40-4.72Q40.52-4.44 41.04-4.12L41.04-4.12L43.44-2.84L43.28 0L31.28 0Z M49.12 1.28L47.44-4.68L53.92-6.40L55.56-0.44L49.12 1.28Z M75.64 0.48Q71.24 0.48 66.72-0.88L66.72-0.88Q66.92-4.84 67.36-8.24L67.36-8.24L70.44-8.84L72.44-5.44Q74.84-4.60 76.68-4.60L76.68-4.60Q77.32-4.60 79.40-4.96L79.40-4.96Q79.48-5.76 79.48-6.04L79.48-6.04Q79.48-7 79.16-7.50Q78.84-8 77.76-8.62Q76.68-9.24 73.88-10.48L73.88-10.48Q70.44-12.16 68.92-14.10Q67.40-16.04 67.40-18.68L67.40-18.68Q67.40-22.80 70.20-25.12Q73.00-27.44 77.88-27.44L77.88-27.44Q80.24-27.44 82.58-26.98Q84.92-26.52 86.68-25.72L86.68-25.72Q86.60-23.48 86.32-20.16L86.32-20.16L86.20-18.44L83.28-18L80.24-21.88Q78.80-22.32 76.64-22.32L76.64-22.32Q75.28-22.32 74.60-22.08L74.60-22.08Q74.40-21.28 74.40-20.84L74.40-20.84Q74.40-19.96 74.84-19.30Q75.28-18.64 76.40-17.94Q77.52-17.24 79.72-16.20L79.72-16.20Q82.92-14.68 84.56-13.52Q86.20-12.36 86.86-11.10Q87.52-9.84 87.52-8.04L87.52-8.04Q87.52-4.08 84.36-1.80Q81.20 0.48 75.64 0.48L75.64 0.48Z M100.24 0.52Q95.16 0.52 92.66-2.08Q90.16-4.68 90.16-10.04L90.16-10.04Q90.16-13.48 91.42-16.04Q92.68-18.60 95.04-19.96Q97.40-21.32 100.60-21.32L100.60-21.32Q110.96-21.32 110.96-10.60L110.96-10.60Q110.96-5.36 108.14-2.42Q105.32 0.52 100.24 0.52L100.24 0.52ZM100.88-4.16Q101.68-4.16 102.28-4.30Q102.88-4.44 103.56-4.76L103.56-4.76Q103.80-5.68 103.96-7.12Q104.12-8.56 104.12-9.88L104.12-9.88Q104.12-13.12 103.10-14.80Q102.08-16.48 100.08-16.48L100.08-16.48Q98.76-16.48 97.40-16.12L97.40-16.12Q97.12-15.52 96.96-14.18Q96.80-12.84 96.80-11.12L96.80-11.12Q96.80-7.76 97.86-5.96Q98.92-4.16 100.88-4.16L100.88-4.16Z M112.08 0L111.96-3.68L114.76-4.52L114.76-23.68Q114.76-24.56 114.62-24.82Q114.48-25.08 113.92-25.40L113.92-25.40L112.16-26.32L112.36-29.36Q113.16-29.52 113.60-29.56L113.60-29.56Q118.88-30.52 120.96-30.60L120.96-30.60Q121.36-29.68 121.48-28.52L121.48-28.52L121.48-5.84Q121.48-5 121.60-4.72Q121.72-4.44 122.28-4.12L122.28-4.12L124.24-3L124.08 0L112.08 0Z M133.48 0.56Q130.28 0.56 128.72-1.34Q127.16-3.24 127.16-7.08L127.16-7.08L127.16-14.24Q127.16-15.12 127.02-15.38Q126.88-15.64 126.32-15.96L126.32-15.96L124.52-16.92L124.72-19.92Q125.28-20 125.52-20.08L125.52-20.08Q125.96-20.16 128.66-20.64Q131.36-21.12 133.16-21.20L133.16-21.20Q133.60-20.20 133.84-18.88L133.84-18.88L133.84-8.80Q133.84-7.04 133.94-6.32Q134.04-5.60 134.58-5.22Q135.12-4.84 136.44-4.84L136.44-4.84Q138.36-4.84 140.16-5.52L140.16-5.52L140.16-14.24Q140.16-15.12 140.04-15.38Q139.92-15.64 139.40-15.96L139.40-15.96L137.64-16.92L137.80-19.92Q141.04-20.52 142.86-20.84Q144.68-21.16 146.20-21.20L146.20-21.20Q146.64-20.20 146.88-18.88L146.88-18.88L146.88-5.76Q146.88-5.04 147-4.76Q147.12-4.48 147.56-4.20L147.56-4.20L149.16-3.28L149.04-0.80Q147.32-0.36 145.08-0.02Q142.84 0.32 140.92 0.40L140.92 0.40Q140.76-0.08 140.56-0.80L140.56-0.80Q140.52-1.12 140.36-1.56L140.36-1.56L140.24-1.56Q138.60-0.60 136.78-0.02Q134.96 0.56 133.48 0.56L133.48 0.56Z M159.56 0.52Q156.04 0.52 154.36-1.22Q152.68-2.96 152.68-6.52L152.68-6.52L152.68-16.24L149.88-16.24L149.88-19.16L157.08-25.72L159.40-25.44L159.40-20.92L166.12-20.92L166.12-16.20L159.40-16.20L159.40-7.96Q159.40-6.04 159.94-5.40Q160.48-4.76 162.04-4.76L162.04-4.76Q163.36-4.76 165.72-5.12L165.72-5.12L166.20-1.04Q164.76-0.36 162.98 0.08Q161.20 0.52 159.56 0.52L159.56 0.52Z M171.68-23.48L170-29.60L176.80-31.40L178.44-25.32L171.68-23.48ZM168.44 0L168.32-3.68L171.12-4.52L171.12-14.24Q171.12-15.12 170.98-15.38Q170.84-15.64 170.28-15.96L170.28-15.96L168.52-16.92L168.72-19.92Q172.04-20.56 173.86-20.86Q175.68-21.16 177.20-21.20L177.20-21.20Q177.72-19.48 177.84-18.64L177.84-18.64L177.84-5.84Q177.84-5 177.96-4.72Q178.08-4.44 178.64-4.12L178.64-4.12L180.60-3L180.44 0L168.44 0Z M191.88 0.52Q186.80 0.52 184.30-2.08Q181.80-4.68 181.80-10.04L181.80-10.04Q181.80-13.48 183.06-16.04Q184.32-18.60 186.68-19.96Q189.04-21.32 192.24-21.32L192.24-21.32Q202.60-21.32 202.60-10.60L202.60-10.60Q202.60-5.36 199.78-2.42Q196.96 0.52 191.88 0.52L191.88 0.52ZM192.52-4.16Q193.32-4.16 193.92-4.30Q194.52-4.44 195.20-4.76L195.20-4.76Q195.44-5.68 195.60-7.12Q195.76-8.56 195.76-9.88L195.76-9.88Q195.76-13.12 194.74-14.80Q193.72-16.48 191.72-16.48L191.72-16.48Q190.40-16.48 189.04-16.12L189.04-16.12Q188.76-15.52 188.60-14.18Q188.44-12.84 188.44-11.12L188.44-11.12Q188.44-7.76 189.50-5.96Q190.56-4.16 192.52-4.16L192.52-4.16Z M204.76-0.04L204.56-3.84L207.04-4.56L207.04-14.24Q207.04-15.12 206.92-15.38Q206.80-15.64 206.28-15.96L206.28-15.96L204.52-16.92L204.64-19.92L205.52-20.08Q210.76-21.12 213.08-21.20L213.08-21.20Q213.40-20.36 213.60-19.36L213.60-19.36Q216.04-20.48 217.58-20.90Q219.12-21.32 220.48-21.32L220.48-21.32Q226.84-21.32 226.84-13.72L226.84-13.72L226.84-5.88Q226.84-5.04 226.96-4.76Q227.08-4.48 227.64-4.16L227.64-4.16L229.56-3.04L229.40-0.04L218.36-0.04L218.16-3.84L220.12-4.40L220.12-11.96Q220.12-13.76 220.00-14.48Q219.88-15.20 219.34-15.60Q218.80-16 217.44-16L217.44-16Q216.00-16 213.80-15.56L213.80-15.56L213.80-5.88Q213.80-5.04 213.92-4.76Q214.04-4.48 214.56-4.16L214.56-4.16L216.52-3.04L216.36-0.04L204.76-0.04Z"/></g>
</svg>
</g><g opacity="1" transform="rotate(0 176.2991 91.6608)">
<svg width="139.6815" height="139.6815" x="176.2991" y="91.6608" version="1.1" preserveAspectRatio="none" viewBox="0 0 64 64">
  <g transform="matrix(1 0 0 1 0 0)" class="icon1"><title>19-Learning</title><g data-name="19-Learning"><path d="M16,32a9,9,0,0,1,9-9V21A11,11,0,0,0,14,32v6h2Z"></path><rect x="14" y="40" width="2" height="2"></rect><rect x="18" y="6" width="2" height="2"></rect><path d="M61.13,48H53.26A14.91,14.91,0,0,0,55,41V31A15,15,0,0,0,32.92,17.78c0-3.07.49-8.8,3.77-12.44A10.66,10.66,0,0,1,45,2V0a12.58,12.58,0,0,0-9.8,4,13.15,13.15,0,0,0-1.32,1.78A6,6,0,0,0,28,1H18a6,6,0,0,0,0,12H28a6,6,0,0,0,3.51-1.14,29,29,0,0,0-.6,5.84A15,15,0,0,0,9,31V41a14.91,14.91,0,0,0,1.74,7H2.87A2.87,2.87,0,0,0,0,50.87V61.13A2.87,2.87,0,0,0,2.87,64H61.13A2.87,2.87,0,0,0,64,61.13V50.87A2.87,2.87,0,0,0,61.13,48ZM28,11H18a4,4,0,0,1,0-8H28a4,4,0,0,1,3.86,3H22V8h9.86A4,4,0,0,1,28,11ZM11,31A13,13,0,0,1,31,20.07v0h0l.37.24a1,1,0,0,0,1.14,0A13,13,0,0,1,53,31V41a12.91,12.91,0,0,1-2.05,7H13.05A12.91,12.91,0,0,1,11,41ZM62,61.13a.87.87,0,0,1-.87.87H2.87A.87.87,0,0,1,2,61.13V50.87A.87.87,0,0,1,2.87,50H61.13a.87.87,0,0,1,.87.87Z"></path><path d="M59,52H39a1,1,0,0,0-1,1v6a1,1,0,0,0,1,1H59a1,1,0,0,0,1-1V53A1,1,0,0,0,59,52Zm-1,6H40V54H58Z"></path><rect x="34" y="52" width="2" height="8"></rect><rect x="26" y="52" width="2" height="8"></rect><rect x="22" y="52" width="2" height="8"></rect><rect x="18" y="52" width="2" height="8"></rect><rect x="30" y="52" width="2" height="2"></rect><rect x="30" y="58" width="2" height="2"></rect><path d="M14,52H6a1,1,0,0,0-1,1v6a1,1,0,0,0,1,1h8a1,1,0,0,0,1-1V53A1,1,0,0,0,14,52Zm-1,6H7V54h6Z"></path></g></g>
</svg>
</g></svg></svg>