<svg version="1.1" preserveAspectRatio="none" xmlns="http://www.w3.org/2000/svg" width="500" height="500" viewBox="0 0 500 500"><rect width="100%" height="100%" fill="#121B31" fill-opacity="1"/><svg viewBox="133.0528 161.9999 340.7777 176" width="333" height="171.9830845739026" x="83.5px" y="164.0085px" xmlns="http://www.w3.org/2000/svg" xmlns:xlink="http://www.w3.org/1999/xlink" preserveAspectRatio="none"><defs></defs><style>.companyName {fill:#F7F7F7;fill-opacity:1;}.icon3 {fill:#D0E156;fill-opacity:1;}.icon3-str {stroke:#D0E156;stroke-opacity:1;}.shapeStroke-str {stroke:#F7F7F7;stroke-opacity:1;}.text {fill:#F7F7F7;fill-opacity:1;}</style><g opacity="1" transform="rotate(0 138.581 161.9999)">
<svg width="329.7213" height="120" x="138.581" y="161.9999" version="1.1" preserveAspectRatio="none" viewBox="1.8 -26.4 189.04 68.8">
  <g transform="matrix(1 0 0 1 0 0)" class="companyName"><path id="id-D6z1nYkh11" d="M10.12-26.40Q16.44-26.40 19.86-23.06Q23.28-19.72 23.28-13.40L23.28-13.40Q23.28-6.92 19.86-3.46Q16.44 0 10.12 0L10.12 0L1.80 0L1.80-26.40L10.12-26.40ZM10.28-1.84Q15.56-1.84 18.38-4.82Q21.20-7.80 21.20-13.40L21.20-13.40Q21.20-18.76 18.38-21.66Q15.56-24.56 10.28-24.56L10.28-24.56L3.80-24.56L3.80-1.84L10.28-1.84Z M49.80 0L47.44 0L39.88-11.44L39.76-11.44L31.96-11.44L31.96 0L29.96 0L29.96-26.40L39.76-26.40Q43.72-26.40 46.06-24.40Q48.40-22.40 48.40-18.92L48.40-18.92Q48.40-16.04 46.72-14.14Q45.04-12.24 42.12-11.68L42.12-11.68L49.80 0ZM31.96-24.56L31.96-13.32L39.72-13.32Q42.92-13.32 44.62-14.76Q46.32-16.20 46.32-18.92L46.32-18.92Q46.32-21.64 44.62-23.10Q42.92-24.56 39.72-24.56L39.72-24.56L31.96-24.56Z M55.80-3.28Q56.60-3.28 57.10-2.78Q57.60-2.28 57.60-1.48L57.60-1.48Q57.60-0.68 57.10-0.18Q56.60 0.32 55.80 0.32L55.80 0.32Q55.00 0.32 54.50-0.18Q54.00-0.68 54.00-1.48L54.00-1.48Q54.00-2.28 54.50-2.78Q55.00-3.28 55.80-3.28L55.80-3.28Z M12.32 15.20Q19.76 15.20 22.28 21.04L22.28 21.04L20.56 22.44Q19.56 19.60 17.58 18.32Q15.60 17.04 12.36 17.04L12.36 17.04Q10.04 17.04 8.32 17.76Q6.60 18.48 5.70 19.72Q4.80 20.96 4.80 22.52L4.80 22.52Q4.80 24.04 5.56 25.04Q6.32 26.04 8.14 26.74Q9.96 27.44 13.16 28L13.16 28Q18.32 28.88 20.48 30.56Q22.64 32.24 22.64 35.20L22.64 35.20Q22.64 37.32 21.40 38.96Q20.16 40.60 17.90 41.50Q15.64 42.40 12.72 42.40L12.72 42.40Q8.56 42.40 5.70 40.74Q2.84 39.08 1.80 36.08L1.80 36.08L3.56 34.72Q4.36 37.56 6.78 39.06Q9.20 40.56 12.76 40.56L12.76 40.56Q16.20 40.56 18.38 39.16Q20.56 37.76 20.56 35.32L20.56 35.32Q20.56 33.20 18.78 31.96Q17 30.72 12.60 29.96L12.60 29.96Q8.88 29.32 6.72 28.40Q4.56 27.48 3.62 26.12Q2.68 24.76 2.68 22.72L2.68 22.72Q2.68 20.68 3.86 18.96Q5.04 17.24 7.22 16.22Q9.40 15.20 12.32 15.20L12.32 15.20Z M39.40 15.20Q43.12 15.20 45.86 16.86Q48.60 18.52 50.08 21.58Q51.56 24.64 51.56 28.80L51.56 28.80Q51.56 32.96 50.08 36.02Q48.60 39.08 45.86 40.74Q43.12 42.40 39.40 42.40L39.40 42.40Q35.68 42.40 32.94 40.74Q30.20 39.08 28.72 36.02Q27.24 32.96 27.24 28.80L27.24 28.80Q27.24 24.64 28.72 21.58Q30.20 18.52 32.94 16.86Q35.68 15.20 39.40 15.20L39.40 15.20ZM39.40 17.04Q36.32 17.04 34.06 18.46Q31.80 19.88 30.58 22.54Q29.36 25.20 29.36 28.80L29.36 28.80Q29.36 32.40 30.58 35.06Q31.80 37.72 34.06 39.14Q36.32 40.56 39.40 40.56L39.40 40.56Q42.48 40.56 44.76 39.14Q47.04 37.72 48.26 35.06Q49.48 32.40 49.48 28.80L49.48 28.80Q49.48 25.20 48.26 22.54Q47.04 19.88 44.76 18.46Q42.48 17.04 39.40 17.04L39.40 17.04Z M60.20 40.16L76.04 40.16L76.04 42L58.20 42L58.20 15.60L60.20 15.60L60.20 40.16Z M99.92 15.60L99.92 32.36Q99.92 37.24 97.28 39.82Q94.64 42.40 89.76 42.40L89.76 42.40Q84.88 42.40 82.22 39.82Q79.56 37.24 79.56 32.36L79.56 32.36L79.56 15.60L81.56 15.60L81.56 31.96Q81.56 36.20 83.64 38.38Q85.72 40.56 89.76 40.56L89.76 40.56Q93.76 40.56 95.84 38.38Q97.92 36.20 97.92 31.96L97.92 31.96L97.92 15.60L99.92 15.60Z M125.92 15.60L125.92 17.44L116.28 17.44L116.28 42L114.28 42L114.28 17.44L104.64 17.44L104.64 15.60L125.92 15.60Z M132.96 15.60L132.96 42L130.96 42L130.96 15.60L132.96 15.60Z M151.76 15.20Q155.48 15.20 158.22 16.86Q160.96 18.52 162.44 21.58Q163.92 24.64 163.92 28.80L163.92 28.80Q163.92 32.96 162.44 36.02Q160.96 39.08 158.22 40.74Q155.48 42.40 151.76 42.40L151.76 42.40Q148.04 42.40 145.30 40.74Q142.56 39.08 141.08 36.02Q139.60 32.96 139.60 28.80L139.60 28.80Q139.60 24.64 141.08 21.58Q142.56 18.52 145.30 16.86Q148.04 15.20 151.76 15.20L151.76 15.20ZM151.76 17.04Q148.68 17.04 146.42 18.46Q144.16 19.88 142.94 22.54Q141.72 25.20 141.72 28.80L141.72 28.80Q141.72 32.40 142.94 35.06Q144.16 37.72 146.42 39.14Q148.68 40.56 151.76 40.56L151.76 40.56Q154.84 40.56 157.12 39.14Q159.40 37.72 160.62 35.06Q161.84 32.40 161.84 28.80L161.84 28.80Q161.84 25.20 160.62 22.54Q159.40 19.88 157.12 18.46Q154.84 17.04 151.76 17.04L151.76 17.04Z M190.84 15.60L190.84 42L188.36 42L174.36 21.28L172.40 17.76L172.36 17.76L172.48 21.08L172.48 42L170.56 42L170.56 15.60L173.08 15.60L187.04 36.28L189.04 39.84L188.96 36.52L188.96 15.60L190.84 15.60Z"/></g>
</svg>
</g><g opacity="1" transform="rotate(0 133.0528 299.9999)">
<svg width="340.7777" height="3" x="133.0528" y="299.9999" version="1.1" preserveAspectRatio="none" viewBox="0 0 340.7777 3">
  <defs><rect x="0" y="0" width="340.7777" height="3" rx="0px" ry="0px" id="id-tBXipXk0b1684634405384"></rect></defs><use class="icon3 shapeStroke-str" style="stroke-width:0;" xlink:href="#id-tBXipXk0b1684634405384"></use>
</svg>
</g><g opacity="1" transform="rotate(0 133.0528 317.9999)">
<svg width="340.7777" height="20" x="133.0528" y="317.9999" version="1.1" preserveAspectRatio="none" viewBox="4.16 -31 664.52 39">
  <g transform="matrix(1 0 0 1 0 0)" class="text"><path id="id-D-YM9nyY435" d="M4.16-28.92L8.04-28.92L8.04-3.76L22.76-3.76L22.76 0L4.16 0L4.16-28.92Z M27.48-8.44Q27.48-10.88 28.66-12.90Q29.84-14.92 31.94-16.08Q34.04-17.24 36.68-17.24L36.68-17.24Q39.32-17.24 41.38-16.08Q43.44-14.92 44.58-12.92Q45.72-10.92 45.72-8.44L45.72-8.44Q45.72-5.96 44.58-3.94Q43.44-1.92 41.36-0.76Q39.28 0.40 36.60 0.40L36.60 0.40Q34 0.40 31.92-0.70Q29.84-1.80 28.66-3.80Q27.48-5.80 27.48-8.44L27.48-8.44ZM31.24-8.40Q31.24-6.84 31.94-5.52Q32.64-4.20 33.86-3.44Q35.08-2.68 36.56-2.68L36.56-2.68Q38.88-2.68 40.40-4.32Q41.92-5.96 41.92-8.40L41.92-8.40Q41.92-10.84 40.40-12.50Q38.88-14.16 36.56-14.16L36.56-14.16Q35.04-14.16 33.84-13.38Q32.64-12.60 31.94-11.28Q31.24-9.96 31.24-8.40L31.24-8.40Z M86.20-17.24Q88.60-17.24 90.02-15.88Q91.44-14.52 91.52-12.28L91.52-12.28L91.52 0L87.80 0L87.80-10.92Q87.68-13.84 85.16-14L85.16-14Q83.72-14 82.58-13.14Q81.44-12.28 80.80-10.88Q80.16-9.48 80.12-7.88L80.12-7.88L80.12 0L76.36 0L76.36-10.92Q76.24-13.84 73.64-14L73.64-14Q72.24-14 71.10-13.14Q69.96-12.28 69.32-10.86Q68.68-9.44 68.68-7.84L68.68-7.84L68.68 0L64.96 0L64.96-16.56L68.32-16.56L68.60-13.44Q69.56-15.24 71.22-16.24Q72.88-17.24 75-17.24L75-17.24Q77-17.24 78.36-16.30Q79.72-15.36 80.12-13.72L80.12-13.72Q81.16-15.36 82.76-16.30Q84.36-17.24 86.20-17.24L86.20-17.24Z M106.52-2.80Q108.60-2.80 110.56-4.24L110.56-4.24L112.28-1.48Q110.96-0.60 109.42-0.10Q107.88 0.40 106.44 0.40L106.44 0.40Q103.68 0.40 101.62-0.74Q99.56-1.88 98.44-3.88Q97.32-5.88 97.32-8.40L97.32-8.40Q97.32-10.84 98.54-12.86Q99.76-14.88 101.88-16.06Q104-17.24 106.52-17.24L106.52-17.24Q109.76-17.24 111.94-15.34Q114.12-13.44 114.92-10.04L114.92-10.04L101.80-5.44Q102.52-4.20 103.74-3.50Q104.96-2.80 106.52-2.80L106.52-2.80ZM106.24-14.28Q103.96-14.28 102.48-12.68Q101-11.08 101-8.60L101-8.60Q101-8 101.04-7.68L101.04-7.68L110.68-11.24Q110.08-12.60 108.98-13.44Q107.88-14.28 106.24-14.28L106.24-14.28Z M120.60 8L118.36 5.68Q120.76 3.64 120.76-0.04L120.76-0.04L120.76-16.56L124.52-16.56L124.52 0.12Q124.52 2.96 123.58 4.88Q122.64 6.80 120.60 8L120.60 8ZM120.48-22.52Q120.48-23.40 121.16-24Q121.84-24.60 122.72-24.60L122.72-24.60Q123.60-24.60 124.26-24Q124.92-23.40 124.92-22.52L124.92-22.52Q124.92-21.64 124.26-21.04Q123.60-20.44 122.72-20.44L122.72-20.44Q121.84-20.44 121.16-21.04Q120.48-21.64 120.48-22.52L120.48-22.52Z M130.12-8.44Q130.12-10.88 131.30-12.90Q132.48-14.92 134.58-16.08Q136.68-17.24 139.32-17.24L139.32-17.24Q141.96-17.24 144.02-16.08Q146.08-14.92 147.22-12.92Q148.36-10.92 148.36-8.44L148.36-8.44Q148.36-5.96 147.22-3.94Q146.08-1.92 144-0.76Q141.92 0.40 139.24 0.40L139.24 0.40Q136.64 0.40 134.56-0.70Q132.48-1.80 131.30-3.80Q130.12-5.80 130.12-8.44L130.12-8.44ZM133.88-8.40Q133.88-6.84 134.58-5.52Q135.28-4.20 136.50-3.44Q137.72-2.68 139.20-2.68L139.20-2.68Q141.52-2.68 143.04-4.32Q144.56-5.96 144.56-8.40L144.56-8.40Q144.56-10.84 143.04-12.50Q141.52-14.16 139.20-14.16L139.20-14.16Q137.68-14.16 136.48-13.38Q135.28-12.60 134.58-11.28Q133.88-9.96 133.88-8.40L133.88-8.40Z M157.76-12.64Q158.40-14 159.58-15.04Q160.76-16.08 162.08-16.64Q163.40-17.20 164.40-17.24L164.40-17.24L164.24-13.52Q162.44-13.60 160.98-12.80Q159.52-12 158.70-10.58Q157.88-9.16 157.88-7.56L157.88-7.56L157.88 0L154.16 0L154.16-16.56L157.48-16.56L157.76-12.64Z M191.20-2.80Q193.28-2.80 195.24-4.24L195.24-4.24L196.96-1.48Q195.64-0.60 194.10-0.10Q192.56 0.40 191.12 0.40L191.12 0.40Q188.36 0.40 186.30-0.74Q184.24-1.88 183.12-3.88Q182.00-5.88 182.00-8.40L182.00-8.40Q182.00-10.84 183.22-12.86Q184.44-14.88 186.56-16.06Q188.68-17.24 191.20-17.24L191.20-17.24Q194.44-17.24 196.62-15.34Q198.80-13.44 199.60-10.04L199.60-10.04L186.48-5.44Q187.20-4.20 188.42-3.50Q189.64-2.80 191.20-2.80L191.20-2.80ZM190.92-14.28Q188.64-14.28 187.16-12.68Q185.68-11.08 185.68-8.60L185.68-8.60Q185.68-8 185.72-7.68L185.72-7.68L195.36-11.24Q194.76-12.60 193.66-13.44Q192.56-14.28 190.92-14.28L190.92-14.28Z M215.32-17.20Q217.64-17.20 219.16-15.82Q220.68-14.44 220.72-12.24L220.72-12.24L220.72 0L216.96 0L216.96-10.96Q216.88-12.36 216.12-13.16Q215.36-13.96 213.84-14L213.84-14Q211.64-14 210.20-12.24Q208.76-10.48 208.76-7.76L208.76-7.76L208.76 0L205.04 0L205.04-16.56L208.40-16.56L208.64-13.36Q209.52-15.16 211.28-16.18Q213.04-17.20 215.32-17.20L215.32-17.20Z M246.08 0.36Q244.24 0.36 242.58-0.28Q240.92-0.92 239.88-2.16L239.88-2.16L241.48-4.32Q242.48-3.36 243.58-2.84Q244.68-2.32 245.76-2.32L245.76-2.32Q247.08-2.32 247.92-2.84Q248.76-3.36 248.76-4.44L248.76-4.44Q248.76-5.28 248.24-5.80Q247.72-6.32 247.06-6.56Q246.40-6.80 244.84-7.28L244.84-7.28Q240.60-8.64 240.60-12.12L240.60-12.12Q240.60-14.20 242.14-15.68Q243.68-17.16 246.44-17.16L246.44-17.16Q248.20-17.16 249.56-16.72Q250.92-16.28 252.08-15.32L252.08-15.32L250.60-13.04Q249.96-13.72 248.98-14.12Q248.00-14.52 247.12-14.56L247.12-14.56Q246.00-14.56 245.20-14.02Q244.40-13.48 244.40-12.56L244.40-12.56Q244.40-11.80 244.92-11.30Q245.44-10.80 246.00-10.58Q246.56-10.36 248.20-9.84L248.20-9.84Q250.24-9.16 251.38-8.08Q252.52-7 252.52-5.16L252.52-5.16Q252.52-2.76 250.84-1.20Q249.16 0.36 246.08 0.36L246.08 0.36Z M257.08-8.44Q257.08-10.88 258.26-12.90Q259.44-14.92 261.54-16.08Q263.64-17.24 266.28-17.24L266.28-17.24Q268.92-17.24 270.98-16.08Q273.04-14.92 274.18-12.92Q275.32-10.92 275.32-8.44L275.32-8.44Q275.32-5.96 274.18-3.94Q273.04-1.92 270.96-0.76Q268.88 0.40 266.20 0.40L266.20 0.40Q263.60 0.40 261.52-0.70Q259.44-1.80 258.26-3.80Q257.08-5.80 257.08-8.44L257.08-8.44ZM260.84-8.40Q260.84-6.84 261.54-5.52Q262.24-4.20 263.46-3.44Q264.68-2.68 266.16-2.68L266.16-2.68Q268.48-2.68 270.00-4.32Q271.52-5.96 271.52-8.40L271.52-8.40Q271.52-10.84 270.00-12.50Q268.48-14.16 266.16-14.16L266.16-14.16Q264.64-14.16 263.44-13.38Q262.24-12.60 261.54-11.28Q260.84-9.96 260.84-8.40L260.84-8.40Z M281.12-31L284.84-31L284.84 0L281.12 0L281.12-31Z M303.80-16.56L307.52-16.56L307.52 0L304.16 0L303.92-3.16Q303.08-1.48 301.32-0.42Q299.56 0.64 297.40 0.64L297.40 0.64Q295.12 0.64 293.66-0.74Q292.20-2.12 292.12-4.32L292.12-4.32L292.12-16.56L295.84-16.56L295.84-5.64Q295.92-4.24 296.66-3.42Q297.40-2.60 298.88-2.56L298.88-2.56Q300.24-2.56 301.36-3.38Q302.48-4.20 303.14-5.64Q303.80-7.08 303.80-8.84L303.80-8.84L303.80-16.56Z M328.24-1.56Q327.12-0.64 325.58-0.12Q324.04 0.40 322.44 0.40L322.44 0.40Q319.76 0.40 317.70-0.68Q315.64-1.76 314.50-3.74Q313.36-5.72 313.36-8.32L313.36-8.32Q313.36-10.88 314.56-12.86Q315.76-14.84 317.76-15.92Q319.76-17 322.08-17L322.08-17Q325.88-17 328.36-14.92L328.36-14.92L326.48-12.48Q325.68-13.08 324.64-13.50Q323.60-13.92 322.40-13.92L322.40-13.92Q320.92-13.92 319.70-13.18Q318.48-12.44 317.78-11.16Q317.08-9.88 317.08-8.32L317.08-8.32Q317.08-6.76 317.82-5.48Q318.56-4.20 319.84-3.44Q321.12-2.68 322.76-2.68L322.76-2.68Q324.80-2.68 326.32-3.88L326.32-3.88L328.24-1.56Z M333.84-16.56L337.56-16.56L337.56 0L333.84 0L333.84-16.56ZM333.56-22.52Q333.56-23.40 334.24-24Q334.92-24.60 335.80-24.60L335.80-24.60Q336.68-24.60 337.34-24Q338.00-23.40 338.00-22.52L338.00-22.52Q338.00-21.64 337.34-21.04Q336.68-20.44 335.80-20.44L335.80-20.44Q334.92-20.44 334.24-21.04Q333.56-21.64 333.56-22.52L333.56-22.52Z M343.40-8.44Q343.40-10.88 344.58-12.90Q345.76-14.92 347.86-16.08Q349.96-17.24 352.60-17.24L352.60-17.24Q355.24-17.24 357.30-16.08Q359.36-14.92 360.50-12.92Q361.64-10.92 361.64-8.44L361.64-8.44Q361.64-5.96 360.50-3.94Q359.36-1.92 357.28-0.76Q355.20 0.40 352.52 0.40L352.52 0.40Q349.92 0.40 347.84-0.70Q345.76-1.80 344.58-3.80Q343.40-5.80 343.40-8.44L343.40-8.44ZM347.16-8.40Q347.16-6.84 347.86-5.52Q348.56-4.20 349.78-3.44Q351.00-2.68 352.48-2.68L352.48-2.68Q354.80-2.68 356.32-4.32Q357.84-5.96 357.84-8.40L357.84-8.40Q357.84-10.84 356.32-12.50Q354.80-14.16 352.48-14.16L352.48-14.16Q350.96-14.16 349.76-13.38Q348.56-12.60 347.86-11.28Q347.16-9.96 347.16-8.40L347.16-8.40Z M377.72-17.20Q380.04-17.20 381.56-15.82Q383.08-14.44 383.12-12.24L383.12-12.24L383.12 0L379.36 0L379.36-10.96Q379.28-12.36 378.52-13.16Q377.76-13.96 376.24-14L376.24-14Q374.04-14 372.60-12.24Q371.16-10.48 371.16-7.76L371.16-7.76L371.16 0L367.44 0L367.44-16.56L370.80-16.56L371.04-13.36Q371.92-15.16 373.68-16.18Q375.44-17.20 377.72-17.20L377.72-17.20Z M398.12-2.80Q400.20-2.80 402.16-4.24L402.16-4.24L403.88-1.48Q402.56-0.60 401.02-0.10Q399.48 0.40 398.04 0.40L398.04 0.40Q395.28 0.40 393.22-0.74Q391.16-1.88 390.04-3.88Q388.92-5.88 388.92-8.40L388.92-8.40Q388.92-10.84 390.14-12.86Q391.36-14.88 393.48-16.06Q395.60-17.24 398.12-17.24L398.12-17.24Q401.36-17.24 403.54-15.34Q405.72-13.44 406.52-10.04L406.52-10.04L393.40-5.44Q394.12-4.20 395.34-3.50Q396.56-2.80 398.12-2.80L398.12-2.80ZM397.84-14.28Q395.56-14.28 394.08-12.68Q392.60-11.08 392.60-8.60L392.60-8.60Q392.60-8 392.64-7.68L392.64-7.68L402.28-11.24Q401.68-12.60 400.58-13.44Q399.48-14.28 397.84-14.28L397.84-14.28Z M416.64 0.36Q414.80 0.36 413.14-0.28Q411.48-0.92 410.44-2.16L410.44-2.16L412.04-4.32Q413.04-3.36 414.14-2.84Q415.24-2.32 416.32-2.32L416.32-2.32Q417.64-2.32 418.48-2.84Q419.32-3.36 419.32-4.44L419.32-4.44Q419.32-5.28 418.80-5.80Q418.28-6.32 417.62-6.56Q416.96-6.80 415.40-7.28L415.40-7.28Q411.16-8.64 411.16-12.12L411.16-12.12Q411.16-14.20 412.70-15.68Q414.24-17.16 417.00-17.16L417.00-17.16Q418.76-17.16 420.12-16.72Q421.48-16.28 422.64-15.32L422.64-15.32L421.16-13.04Q420.52-13.72 419.54-14.12Q418.56-14.52 417.68-14.56L417.68-14.56Q416.56-14.56 415.76-14.02Q414.96-13.48 414.96-12.56L414.96-12.56Q414.96-11.80 415.48-11.30Q416.00-10.80 416.56-10.58Q417.12-10.36 418.76-9.84L418.76-9.84Q420.80-9.16 421.94-8.08Q423.08-7 423.08-5.16L423.08-5.16Q423.08-2.76 421.40-1.20Q419.72 0.36 416.64 0.36L416.64 0.36Z M442.52-16.56L446.24-16.56L446.24 0L442.52 0L442.52-16.56ZM442.24-22.52Q442.24-23.40 442.92-24Q443.60-24.60 444.48-24.60L444.48-24.60Q445.36-24.60 446.02-24Q446.68-23.40 446.68-22.52L446.68-22.52Q446.68-21.64 446.02-21.04Q445.36-20.44 444.48-20.44L444.48-20.44Q443.60-20.44 442.92-21.04Q442.24-21.64 442.24-22.52L442.24-22.52Z M463.80-17.20Q466.12-17.20 467.64-15.82Q469.16-14.44 469.20-12.24L469.20-12.24L469.20 0L465.44 0L465.44-10.96Q465.36-12.36 464.60-13.16Q463.84-13.96 462.32-14L462.32-14Q460.12-14 458.68-12.24Q457.24-10.48 457.24-7.76L457.24-7.76L457.24 0L453.52 0L453.52-16.56L456.88-16.56L457.12-13.36Q458.00-15.16 459.76-16.18Q461.52-17.20 463.80-17.20L463.80-17.20Z M477.80 0L477.80-13.24L474.96-13.24L474.96-16.60L477.80-16.60L477.80-23.56Q477.80-27.16 479.44-29.08Q481.08-31 484.24-31L484.24-31Q485.12-31 486.12-30.74Q487.12-30.48 487.88-30L487.88-30L486.28-27.28Q485.68-27.92 484.60-27.92L484.60-27.92Q483.08-27.92 482.30-26.88Q481.52-25.84 481.52-23.52L481.52-23.52L481.52-16.60L486.80-16.60L486.80-13.24L481.52-13.24L481.52 0L477.80 0Z M490.08-8.44Q490.08-10.88 491.26-12.90Q492.44-14.92 494.54-16.08Q496.64-17.24 499.28-17.24L499.28-17.24Q501.92-17.24 503.98-16.08Q506.04-14.92 507.18-12.92Q508.32-10.92 508.32-8.44L508.32-8.44Q508.32-5.96 507.18-3.94Q506.04-1.92 503.96-0.76Q501.88 0.40 499.20 0.40L499.20 0.40Q496.60 0.40 494.52-0.70Q492.44-1.80 491.26-3.80Q490.08-5.80 490.08-8.44L490.08-8.44ZM493.84-8.40Q493.84-6.84 494.54-5.52Q495.24-4.20 496.46-3.44Q497.68-2.68 499.16-2.68L499.16-2.68Q501.48-2.68 503.00-4.32Q504.52-5.96 504.52-8.40L504.52-8.40Q504.52-10.84 503.00-12.50Q501.48-14.16 499.16-14.16L499.16-14.16Q497.64-14.16 496.44-13.38Q495.24-12.60 494.54-11.28Q493.84-9.96 493.84-8.40L493.84-8.40Z M517.72-12.64Q518.36-14 519.54-15.04Q520.72-16.08 522.04-16.64Q523.36-17.20 524.36-17.24L524.36-17.24L524.20-13.52Q522.40-13.60 520.94-12.80Q519.48-12 518.66-10.58Q517.84-9.16 517.84-7.56L517.84-7.56L517.84 0L514.12 0L514.12-16.56L517.44-16.56L517.72-12.64Z M551.20-17.24Q553.60-17.24 555.02-15.88Q556.44-14.52 556.52-12.28L556.52-12.28L556.52 0L552.80 0L552.80-10.92Q552.68-13.84 550.16-14L550.16-14Q548.72-14 547.58-13.14Q546.44-12.28 545.80-10.88Q545.16-9.48 545.12-7.88L545.12-7.88L545.12 0L541.36 0L541.36-10.92Q541.24-13.84 538.64-14L538.64-14Q537.24-14 536.10-13.14Q534.96-12.28 534.32-10.86Q533.68-9.44 533.68-7.84L533.68-7.84L533.68 0L529.96 0L529.96-16.56L533.32-16.56L533.60-13.44Q534.56-15.24 536.22-16.24Q537.88-17.24 540.00-17.24L540.00-17.24Q542.00-17.24 543.36-16.30Q544.72-15.36 545.12-13.72L545.12-13.72Q546.16-15.36 547.76-16.30Q549.36-17.24 551.20-17.24L551.20-17.24Z M577.32-16.56L580.76-16.56L580.76 0L577.04 0L577.04-2.72Q576.16-1.56 574.48-0.58Q572.80 0.40 570.68 0.40L570.68 0.40Q568.32 0.40 566.42-0.62Q564.52-1.64 563.42-3.60Q562.32-5.56 562.32-8.28L562.32-8.28Q562.32-11 563.46-13.02Q564.60-15.04 566.54-16.14Q568.48-17.24 570.84-17.24L570.84-17.24Q572.96-17.24 574.52-16.32Q576.08-15.40 577.04-13.92L577.04-13.92L577.32-16.56ZM571.68-2.68Q573.72-2.68 575.18-3.82Q576.64-4.96 577.04-6.92L577.04-6.92L577.04-10.20Q576.56-11.96 575.04-13.06Q573.52-14.16 571.56-14.16L571.56-14.16Q570.08-14.16 568.82-13.44Q567.56-12.72 566.82-11.42Q566.08-10.12 566.08-8.48L566.08-8.48Q566.08-6.88 566.84-5.56Q567.60-4.24 568.88-3.46Q570.16-2.68 571.68-2.68L571.68-2.68ZM579.12-25.04L574.04-19.68L571.64-19.68L574.96-25.04L579.12-25.04Z M589.64-23.84L593.40-23.84L593.40-16.52L597.92-16.52L597.92-13.56L593.40-13.56L593.40 0L589.64 0L589.64-13.56L586.60-13.56L586.60-16.52L589.64-16.52L589.64-23.84Z M603.24-16.56L606.96-16.56L606.96 0L603.24 0L603.24-16.56ZM602.96-22.52Q602.96-23.40 603.64-24Q604.32-24.60 605.20-24.60L605.20-24.60Q606.08-24.60 606.74-24Q607.40-23.40 607.40-22.52L607.40-22.52Q607.40-21.64 606.74-21.04Q606.08-20.44 605.20-20.44L605.20-20.44Q604.32-20.44 603.64-21.04Q602.96-21.64 602.96-22.52L602.96-22.52Z M627.68-1.56Q626.56-0.64 625.02-0.12Q623.48 0.40 621.88 0.40L621.88 0.40Q619.20 0.40 617.14-0.68Q615.08-1.76 613.94-3.74Q612.80-5.72 612.80-8.32L612.80-8.32Q612.80-10.88 614-12.86Q615.20-14.84 617.20-15.92Q619.20-17 621.52-17L621.52-17Q625.32-17 627.80-14.92L627.80-14.92L625.92-12.48Q625.12-13.08 624.08-13.50Q623.04-13.92 621.84-13.92L621.84-13.92Q620.36-13.92 619.14-13.18Q617.92-12.44 617.22-11.16Q616.52-9.88 616.52-8.32L616.52-8.32Q616.52-6.76 617.26-5.48Q618-4.20 619.28-3.44Q620.56-2.68 622.20-2.68L622.20-2.68Q624.24-2.68 625.76-3.88L625.76-3.88L627.68-1.56Z M646.84-16.56L650.28-16.56L650.28 0L646.56 0L646.56-2.72Q645.68-1.56 644-0.58Q642.32 0.40 640.20 0.40L640.20 0.40Q637.84 0.40 635.94-0.62Q634.04-1.64 632.94-3.60Q631.84-5.56 631.84-8.28L631.84-8.28Q631.84-11 632.98-13.02Q634.12-15.04 636.06-16.14Q638-17.24 640.36-17.24L640.36-17.24Q642.48-17.24 644.04-16.32Q645.60-15.40 646.56-13.92L646.56-13.92L646.84-16.56ZM641.20-2.68Q643.24-2.68 644.70-3.82Q646.16-4.96 646.56-6.92L646.56-6.92L646.56-10.20Q646.08-11.96 644.56-13.06Q643.04-14.16 641.08-14.16L641.08-14.16Q639.60-14.16 638.34-13.44Q637.08-12.72 636.34-11.42Q635.60-10.12 635.60-8.48L635.60-8.48Q635.60-6.88 636.36-5.56Q637.12-4.24 638.40-3.46Q639.68-2.68 641.20-2.68L641.20-2.68Z M662.24 0.36Q660.40 0.36 658.74-0.28Q657.08-0.92 656.04-2.16L656.04-2.16L657.64-4.32Q658.64-3.36 659.74-2.84Q660.84-2.32 661.92-2.32L661.92-2.32Q663.24-2.32 664.08-2.84Q664.92-3.36 664.92-4.44L664.92-4.44Q664.92-5.28 664.40-5.80Q663.88-6.32 663.22-6.56Q662.56-6.80 661.00-7.28L661.00-7.28Q656.76-8.64 656.76-12.12L656.76-12.12Q656.76-14.20 658.30-15.68Q659.84-17.16 662.60-17.16L662.60-17.16Q664.36-17.16 665.72-16.72Q667.08-16.28 668.24-15.32L668.24-15.32L666.76-13.04Q666.12-13.72 665.14-14.12Q664.16-14.52 663.28-14.56L663.28-14.56Q662.16-14.56 661.36-14.02Q660.56-13.48 660.56-12.56L660.56-12.56Q660.56-11.80 661.08-11.30Q661.60-10.80 662.16-10.58Q662.72-10.36 664.36-9.84L664.36-9.84Q666.40-9.16 667.54-8.08Q668.68-7 668.68-5.16L668.68-5.16Q668.68-2.76 667.00-1.20Q665.32 0.36 662.24 0.36L662.24 0.36Z"/></g>
</svg>
</g></svg></svg>