<svg version="1.1" preserveAspectRatio="none" xmlns="http://www.w3.org/2000/svg" width="500" height="500" viewBox="0 0 500 500"><rect width="100%" height="100%" fill="#1A1A1A" fill-opacity="1"/><svg viewBox="118.8319 154.3017 367.0046 285.1875" width="333" height="258.76361631434594" x="83.5px" y="120.6182px" xmlns="http://www.w3.org/2000/svg" xmlns:xlink="http://www.w3.org/1999/xlink" preserveAspectRatio="none"><defs></defs><style>.companyName {fill:#EBE7D9;fill-opacity:1;}.icon2 {fill:#BA3521;fill-opacity:1;}.icon3 {fill:#F55139;fill-opacity:1;}.icon3-str {stroke:#F55139;stroke-opacity:1;}.shape {fill:#35247B;fill-opacity:1;}.text {fill:#BCBBB5;fill-opacity:1;}</style><g opacity="1" transform="rotate(0 155.5324 154.3017)">
<svg width="293.6037" height="285.1875" x="155.5324" y="154.3017" version="1.1" preserveAspectRatio="none" viewBox="7.699998378753662 9.399999618530272 84.60001373291016 82.17499542236328">
  <g transform="matrix(1 0 0 1 0 0)" class="shape"><path d="M7.8,54.6c0.7,0,1.5,0,2.2,0c1.3,0,2.6,0,4,0c1.9,0,3.9-0.1,5.8-0.1c1.6,0,3.2-0.1,4.8-0.1c1.7,0,3.5-0.1,5.2-0.1  c1.7,0,3.4-0.1,5.1-0.1c1.9,0,3.9-0.1,5.8-0.1c2,0,4.1-0.1,6.1-0.1c0.5,0,0.9,0,1.4,0c-0.9,0-1.9,0-2.8,0c-2.6,0-5.2-0.1-7.7-0.1  c-1.8,0-3.6-0.1-5.3-0.1c-1.8,0-3.5-0.1-5.3-0.1c-1.5,0-2.9-0.1-4.4-0.1c-1.7,0-3.3-0.1-5-0.1c-2.1,0-4.3-0.1-6.4-0.1  c-1.2,0-2.4-0.1-3.6-0.1c1.3,0,2.7,0,4,0c1.8,0,3.6-0.1,5.4-0.1c0.7,0,1.5,0,2.2,0c2,0,3.9-0.1,5.9-0.1c0.7,0,1.5,0,2.2,0  c1.6,0,3.2-0.1,4.8-0.1c2.1,0,4.3-0.1,6.4-0.1c1.9,0,3.7-0.1,5.6-0.1c0.8,0,1.5,0,2.3-0.1c-0.1,0-0.3,0-0.4,0c-0.9,0-1.7,0-2.6,0  c-1.8,0-3.7-0.1-5.5-0.1c-1.6,0-3.3,0-4.9-0.1c-1.9,0-3.8-0.1-5.7-0.1c-1.7,0-3.4-0.1-5.1-0.1c-1.6,0-3.2-0.1-4.7-0.1  c-1.6,0-3.2,0-4.8-0.1c-1.7,0-3.4-0.1-5.1-0.1c0.7,0,1.4,0,2.1,0c1.4,0,2.7,0,4.1,0c1.9,0,3.8-0.1,5.7-0.1c1.6,0,3.2-0.1,4.8-0.1  c1.7,0,3.4-0.1,5.1-0.1c1.7,0,3.3-0.1,5-0.1c2,0,4.1-0.1,6.1-0.1c1.6,0,3.3,0,4.9-0.1c0.3,0,0.6,0,1,0c-0.7,0-1.3,0-2-0.1  c-1.8,0-3.7-0.1-5.5-0.1c-1.2,0-2.4,0-3.6-0.1c-1.1,0-2.2,0-3.4,0c-1.5,0-3-0.1-4.5-0.1c-1.5,0-3,0-4.5-0.1c-2.1,0-4.1-0.1-6.2-0.1  c-2,0-4-0.1-6-0.1c-1,0-2-0.1-3-0.1c0.6,0,1.1,0,1.7,0c1.5,0,3,0,4.6,0c1.7,0,3.3-0.1,5-0.1c1.6,0,3.2-0.1,4.8-0.1  c1.8,0,3.6-0.1,5.5-0.1c1.5,0,2.9-0.1,4.4-0.1c1.6,0,3.3-0.1,4.9-0.1c2.5,0,5.1-0.1,7.6-0.1c0.1,0,0.1,0,0.2,0c-0.6,0-1.2,0-1.8,0  c-1.9,0-3.7-0.1-5.6-0.1c-1.1,0-2.2,0-3.4-0.1c-1.1,0-2.3,0-3.4,0c-1.8,0-3.7-0.1-5.5-0.1c-1.4,0-2.8,0-4.1-0.1  c-1.6,0-3.3-0.1-4.9-0.1c-1.5,0-2.9-0.1-4.4-0.1c-1.8,0-3.6-0.1-5.4-0.1c0.6,0,1.2,0,1.8,0c1.4,0,2.8,0,4.2,0c1.6,0,3.2-0.1,4.8-0.1  c1.5,0,3.1,0,4.6-0.1c1.4,0,2.7-0.1,4.1-0.1c2.5,0,4.9-0.1,7.4-0.1c1.8,0,3.6-0.1,5.5-0.1c2.2,0,4.5-0.1,6.7-0.1c0.1,0,0.2,0,0.3,0  c-1,0-1.9,0-2.9-0.1c-1.5,0-2.9,0-4.4-0.1c-2.2,0-4.4-0.1-6.6-0.1c-2,0-4-0.1-6-0.1c-1.1,0-2.2,0-3.4-0.1c-1.6,0-3.1-0.1-4.7-0.1  c-0.7,0-1.5,0-2.2,0c-1.7,0-3.5,0-5.2-0.1c-1.4,0-2.7-0.1-4.1-0.1c0.6,0,1.2,0,1.8,0c1.5,0,3,0,4.5,0c1.6,0,3.2-0.1,4.7-0.1  c1.9,0,3.9-0.1,5.8-0.1c1.7,0,3.5-0.1,5.2-0.1c1.7,0,3.3-0.1,5-0.1c2,0,4-0.1,6-0.1c2.2,0,4.4-0.1,6.6-0.1c2.4,0,4.9,0,7.3,0  c2.8,0,5.6,0.1,8.3,0.1c2.1,0,4.2,0.1,6.3,0.1c1.7,0,3.4,0.1,5.1,0.1c1.7,0,3.4,0.1,5.1,0.1c1.9,0,3.7,0.1,5.6,0.1  c2.3,0,4.5,0.1,6.8,0.1c0,0,0.1,0,0.2,0c-1.1,0-2,0.1-3,0.1c-1.7,0-3.5,0-5.2,0.1c-1.8,0-3.7,0.1-5.5,0.1c-1.5,0-3,0.1-4.6,0.1  c-1.4,0-2.9,0.1-4.3,0.1c-1.4,0-2.9,0.1-4.3,0.1c-1.2,0-2.4,0-3.6,0.1c-0.7,0-1.4,0-2.1,0c-2.3,0-4.5,0.1-6.8,0.1c1.5,0,2.9,0,4.4,0  c1.7,0,3.5,0.1,5.2,0.1c2.1,0,4.2,0.1,6.3,0.1c1.8,0,3.6,0.1,5.3,0.1c1.9,0,3.7,0.1,5.6,0.1c1.5,0,3.1,0.1,4.6,0.1  c2.2,0,4.3,0.1,6.5,0.1c0.5,0,1,0,1.5,0c-1,0-2,0.1-3,0.1c-1.7,0-3.4,0-5.2,0.1c-1.7,0-3.5,0.1-5.2,0.1c-1.8,0-3.6,0.1-5.4,0.1  c-1.5,0-3.1,0.1-4.6,0.1c-1.7,0-3.4,0.1-5.1,0.1c-2,0-4,0.1-6,0.1c-1.4,0-2.8,0.1-4.2,0.1c1.2,0,2.5,0,3.7,0c1.3,0,2.6,0,3.8,0.1  c1.2,0,2.3,0,3.5,0.1c1.5,0,3,0.1,4.6,0.1c1.9,0,3.7,0.1,5.6,0.1c1.8,0,3.6,0.1,5.3,0.1c1.7,0,3.5,0.1,5.2,0.1  c2.4,0,4.7,0.1,7.1,0.1c-0.2,0-0.5,0-0.7,0c-2,0-4,0.1-6,0.1c-1.5,0-3,0.1-4.6,0.1c-2,0-4,0.1-6.1,0.1c-1.8,0-3.6,0.1-5.4,0.1  c-1.9,0-3.8,0.1-5.7,0.1c-1.7,0-3.3,0.1-5,0.1c-1.5,0-3,0.1-4.5,0.1c-0.2,0-0.3,0-0.5,0c1,0,2.1,0,3.1,0c1.9,0,3.8,0.1,5.7,0.1  c0.5,0,1,0,1.5,0c1.5,0,3.1,0,4.6,0.1c1.7,0,3.5,0.1,5.2,0.1c1.8,0,3.7,0.1,5.5,0.1c1.5,0,3,0.1,4.6,0.1c2.2,0,4.5,0.1,6.7,0.1  c0.5,0,1,0,1.5,0c-0.7,0-1.4,0-2,0.1c-1.3,0-2.7,0-4,0.1c-1.2,0-2.3,0-3.5,0.1c-1.2,0-2.3,0-3.5,0.1c-1.6,0-3.2,0.1-4.7,0.1  c-1.4,0-2.9,0.1-4.3,0.1c-1.9,0-3.8,0.1-5.7,0.1c-1.7,0-3.4,0-5.1,0.1c-1.6,0-3.3,0.1-4.9,0.1c-0.4,0-0.9,0-1.3,0c1.2,0,2.4,0,3.6,0  c1.3,0,2.7,0,4,0.1c1.3,0,2.5,0,3.8,0.1c1.5,0,3.1,0.1,4.6,0.1c1.5,0,2.9,0.1,4.4,0.1c2.1,0,4.3,0.1,6.4,0.1c1.9,0,3.8,0.1,5.7,0.1  c1.7,0,3.4,0,5.1,0.1c0.5,0,1,0,1.5,0.1c-0.6,0-1.3,0-1.9,0.1c-2,0-4.1,0.1-6.1,0.1c-1.9,0-3.7,0.1-5.6,0.1c-1.7,0-3.3,0.1-5,0.1  c-1.8,0-3.6,0.1-5.5,0.1c-1,0-2,0-3.1,0c-1.3,0-2.5,0.1-3.8,0.1c-1,0-2,0-3.1,0c-2.1,0-4.3,0.1-6.4,0.1c-0.1,0-0.2,0-0.3,0  c1.5,0,3.1,0,4.6,0c1.5,0,3.1,0,4.6,0.1c1,0,2.1,0,3.1,0c1.7,0,3.4,0.1,5.2,0.1c1.8,0,3.7,0.1,5.5,0.1c1.7,0,3.4,0.1,5.2,0.1  c1.8,0,3.6,0.1,5.4,0.1c2.4,0,4.7,0.1,7.1,0.1c-1.6,0-3.2,0.1-4.8,0.1c-1.7,0-3.5,0.1-5.2,0.1c-1.1,0-2.2,0-3.3,0  c-1.5,0-3,0.1-4.5,0.1c-1.9,0-3.9,0.1-5.8,0.1c-1.6,0-3.2,0.1-4.8,0.1c-1.9,0-3.7,0.1-5.6,0.1c-2.3,0-4.6,0.1-6.8,0.1  c-2.1,0-4.3,0-6.4,0c-2,0-4.1-0.1-6.1-0.1c-1.8,0-3.6-0.1-5.3-0.1c-1.7,0-3.3-0.1-5-0.1c-1.9,0-3.8-0.1-5.7-0.1  c-1.8,0-3.7-0.1-5.5-0.1c-1.5,0-3,0-4.5-0.1C11,54.7,9.4,54.7,7.8,54.6C7.8,54.6,7.8,54.6,7.8,54.6z M48.7,54  C48.7,54,48.7,54,48.7,54c0.1,0,0.1,0,0.2,0c0,0,0,0,0,0C48.9,54,48.8,54,48.7,54z M50.4,54L50.4,54L50.4,54L50.4,54z M47.7,48.5  L47.7,48.5L47.7,48.5L47.7,48.5z"></path><path d="M8.1,46.4c0.7,0,1.4,0,2.1,0c2,0,4-0.1,6.1-0.1c1,0,2.1,0,3.1,0c1.6,0,3.1-0.1,4.7-0.1c1.9,0,3.7-0.1,5.6-0.1  c1.5,0,3-0.1,4.5-0.1c1.6,0,3.2-0.1,4.8-0.1c1.5,0,2.9,0,4.4-0.1c2.1,0,4.3,0,6.4,0c2.6,0,5.2,0,7.8,0c2.1,0,4.2,0.1,6.2,0.1  c1.8,0,3.6,0.1,5.3,0.1c1.7,0,3.4,0.1,5.1,0.1c1.7,0,3.3,0.1,5,0.1c1.9,0,3.8,0.1,5.6,0.1c2.3,0,4.6,0.1,6.8,0.1c0,0,0.1,0,0.1,0  c-1.6,0-3.2,0.1-4.8,0.1c-1.8,0-3.6,0.1-5.4,0.1c-1,0-2.1,0-3.1,0c-1.5,0-2.9,0.1-4.4,0.1c-1.9,0-3.8,0.1-5.7,0.1  c-1.6,0-3.2,0.1-4.7,0.1c-1.7,0-3.4,0.1-5.1,0.1c-1.8,0-3.7,0.1-5.5,0.1c-2.3,0-4.7,0-7,0c-2.3,0-4.6-0.1-7-0.1  c-2.2,0-4.4-0.1-6.6-0.1c-3-0.1-5.9-0.1-8.9-0.2c-2.1,0-4.3-0.1-6.4-0.1c-2.1,0-4.3-0.1-6.4-0.1C9.9,46.5,9,46.4,8.1,46.4  C8.1,46.4,8.1,46.4,8.1,46.4z"></path><path d="M8.2,56c1.9,0,3.7,0,5.6-0.1c1.8,0,3.6-0.1,5.3-0.1c1.9,0,3.8-0.1,5.7-0.1c1.8,0,3.5-0.1,5.3-0.1c1.6,0,3.2-0.1,4.8-0.1  c1.8,0,3.6-0.1,5.4-0.1c1.7,0,3.5-0.1,5.2-0.1c2.5,0,5,0,7.6,0c1.6,0,3.1,0,4.7,0c2,0,4,0.1,6.1,0.1c1.8,0,3.6,0.1,5.3,0.1  c1.7,0,3.3,0.1,5,0.1c1.7,0,3.5,0.1,5.2,0.1c1.8,0,3.6,0.1,5.4,0.1c2.4,0,4.7,0.1,7.1,0.1c0,0,0.1,0,0.2,0c-0.7,0-1.4,0-2,0.1  c-1.6,0-3.3,0.1-4.9,0.1c-1.7,0-3.4,0.1-5.1,0.1c-0.6,0-1.3,0-1.9,0c-1.4,0-2.9,0.1-4.3,0.1c-1.4,0-2.8,0.1-4.2,0.1  c-1.1,0-2.2,0-3.3,0.1c-0.9,0-1.9,0-2.8,0c-2.9,0-5.9,0.1-8.8,0.1c-2.4,0-4.9,0-7.3,0c-2.6,0-5.2-0.1-7.8-0.1c-1.7,0-3.5,0-5.2-0.1  c-1.4,0-2.8-0.1-4.2-0.1c-2,0-4.1-0.1-6.1-0.1c-2.3,0-4.6-0.1-6.9-0.1c-1.5,0-2.9,0-4.4-0.1C11.2,56.1,9.7,56,8.2,56  C8.2,56,8.2,56,8.2,56z"></path><path d="M8.4,45c1.2,0,2.5,0,3.7,0c1.9,0,3.7-0.1,5.6-0.1c2.5,0,5-0.1,7.4-0.1c1.8,0,3.5-0.1,5.3-0.1c1.7,0,3.5-0.1,5.2-0.1  c2.2,0,4.5,0,6.7-0.1c4.1-0.1,8.2-0.1,12.3,0c2.5,0,5,0.1,7.4,0.1c2.3,0,4.6,0.1,6.9,0.1c1.7,0,3.4,0.1,5.1,0.1  c1.7,0,3.5,0.1,5.2,0.1c1.9,0,3.7,0.1,5.6,0.1c2.3,0,4.6,0.1,7,0.1c-0.3,0-0.6,0-0.9,0c-2,0.1-3.9,0.1-5.9,0.1c-1,0-2.1,0-3.1,0.1  c-1.1,0-2.2,0-3.2,0.1c-1.6,0-3.2,0.1-4.8,0.1c-1.9,0-3.9,0.1-5.8,0.1c-1.9,0-3.7,0.1-5.6,0.1c-2.5,0-5,0.1-7.5,0.1  c-3,0.1-6,0-8.9,0c-2.5,0-5-0.1-7.6-0.1c-1.8,0-3.7-0.1-5.5-0.1c-1.9,0-3.8-0.1-5.7-0.1c-0.8,0-1.6,0-2.5,0c-1.7,0-3.3-0.1-5-0.1  c-2.3,0-4.6-0.1-7-0.1C11.3,45.1,9.8,45.1,8.4,45C8.4,45,8.4,45,8.4,45z"></path><path d="M91.7,57.3c-0.6,0-1.3,0-1.9,0.1c-2.2,0-4.3,0.1-6.5,0.1c-1.9,0-3.7,0.1-5.6,0.1c-1.9,0-3.7,0.1-5.6,0.1  c-1.6,0-3.2,0.1-4.8,0.1c-2,0-4,0.1-6,0.1c-2.5,0-5.1,0.1-7.6,0.1c-2.5,0-5,0-7.6,0c-2.3,0-4.6,0-6.8-0.1c-1.9,0-3.9-0.1-5.8-0.1  c-1.7,0-3.4-0.1-5.1-0.1c-1.8,0-3.6-0.1-5.3-0.1c-1.9,0-3.7-0.1-5.6-0.1c-2.1,0-4.2-0.1-6.2-0.1c-1,0-2-0.1-3-0.1c0.8,0,1.6,0,2.4,0  c1.4,0,2.7,0,4.1-0.1c1.1,0,2.2,0,3.3-0.1c1.2,0,2.4,0,3.6-0.1c1.1,0,2.3,0,3.4-0.1c1.4,0,2.8-0.1,4.2-0.1c1.6,0,3.2-0.1,4.8-0.1  c1.7,0,3.4-0.1,5.1-0.1c1,0,1.9,0,2.9,0c2.1,0,4.2-0.1,6.2-0.1c2.4,0,4.8,0,7.2,0c2.6,0,5.1,0.1,7.7,0.1c1.9,0,3.7,0.1,5.6,0.1  c1.6,0,3.3,0.1,4.9,0.1c1.7,0,3.5,0.1,5.2,0.1c1.9,0,3.8,0.1,5.7,0.1C87.1,57.3,89.4,57.3,91.7,57.3C91.7,57.3,91.7,57.3,91.7,57.3z  "></path><path d="M8.4,43.6c1.6,0,3.3,0,4.9,0c2.3,0,4.6-0.1,6.9-0.1c1.8,0,3.6-0.1,5.5-0.1c1.7,0,3.4-0.1,5.1-0.1c1.9,0,3.8-0.1,5.7-0.1  c1.7,0,3.5-0.1,5.2-0.1c2.2,0,4.3-0.1,6.5-0.1c2.2,0,4.5,0,6.7,0c2.6,0,5.2,0.1,7.8,0.1c1.9,0,3.8,0.1,5.7,0.1  c1.9,0,3.7,0.1,5.6,0.1c1.5,0,3.1,0.1,4.6,0.1c1.7,0,3.3,0.1,5,0.1c1.9,0,3.7,0.1,5.6,0.1c0.9,0,1.8,0,2.7,0c-0.7,0-1.4,0-2.1,0.1  c-1.3,0-2.6,0.1-4,0.1c-2.2,0-4.4,0.1-6.7,0.1c-2.3,0-4.6,0.1-6.8,0.1c-1.5,0-3,0-4.5,0.1c-1.7,0-3.3,0.1-5,0.1  c-2,0-4.1,0.1-6.1,0.1c-2.6,0-5.3,0.1-7.9,0.1c-2.8,0-5.6,0-8.3-0.1c-1.9,0-3.9-0.1-5.8-0.1c-1.9,0-3.9-0.1-5.8-0.1  c-1.9,0-3.7-0.1-5.6-0.1c-1.8,0-3.6-0.1-5.4-0.1c-2.1,0-4.1-0.1-6.2-0.1C10.4,43.7,9.4,43.7,8.4,43.6C8.4,43.7,8.4,43.7,8.4,43.6z"></path><path d="M8.5,58.7c1.4,0,2.7,0,4.1,0c1.3,0,2.6,0,4-0.1c1.1,0,2.2,0,3.3-0.1c1.7,0,3.4-0.1,5.1-0.1c1.9,0,3.8-0.1,5.7-0.1  c1.9,0,3.8-0.1,5.7-0.1c1.7,0,3.5-0.1,5.2-0.1c3.2,0,6.3-0.1,9.5-0.1c1.3,0,2.6,0,4,0c2.6,0,5.2,0.1,7.8,0.1c1.7,0,3.5,0.1,5.2,0.1  c2,0,4.1,0.1,6.1,0.1c1.4,0,2.7,0,4.1,0.1c1.7,0,3.5,0.1,5.2,0.1c1.8,0,3.5,0.1,5.3,0.1c0.8,0,1.7,0,2.5,0.1c-0.2,0-0.4,0-0.5,0  c-1.7,0.1-3.5,0.1-5.2,0.1c-2.3,0-4.6,0.1-6.9,0.1c-2.3,0-4.5,0.1-6.8,0.1c-1.8,0-3.7,0.1-5.5,0.1c-1.1,0-2.2,0-3.3,0.1  c-1.8,0-3.6,0.1-5.4,0.1c-2.6,0-5.2,0-7.8,0c-2.4,0-4.7,0-7.1,0c-1.5,0-3.1,0-4.6-0.1c-1.2,0-2.4,0-3.6,0c-1.9,0-3.8-0.1-5.7-0.1  c-1.7,0-3.3-0.1-5-0.1c-1.6,0-3.3-0.1-4.9-0.1c-1.7,0-3.3-0.1-5-0.1c-0.9,0-1.8,0-2.6,0C10.3,58.8,9.4,58.7,8.5,58.7  C8.5,58.7,8.5,58.7,8.5,58.7z"></path><path d="M91.3,42.3c-1.7,0-3.3,0.1-5,0.1c-1.8,0-3.6,0.1-5.4,0.1c-1.1,0-2.1,0-3.2,0c-1.6,0-3.2,0.1-4.8,0.1c-2,0-3.9,0.1-5.9,0.1  c-1.7,0-3.4,0.1-5.2,0.1c-2.1,0-4.1,0.1-6.2,0.1c-2.5,0-5,0-7.6,0c-2.7,0-5.4,0-8.1-0.1c-2,0-4.1-0.1-6.1-0.1  c-1.8,0-3.6-0.1-5.5-0.1c-1.6,0-3.3-0.1-4.9-0.1c-2,0-3.9-0.1-5.9-0.1c-1.8,0-3.5,0-5.3-0.1c-1.3,0-2.5-0.1-3.8-0.1  c0.6,0,1.2,0,1.8,0c1.5,0,3,0,4.5,0c1.7,0,3.4-0.1,5.1-0.1c2,0,4-0.1,6-0.1c1.9,0,3.7-0.1,5.6-0.1c1.9,0,3.9-0.1,5.8-0.1  c3.1,0,6.1-0.1,9.2-0.1c2,0,4,0,6,0c2.6,0,5.1,0,7.7,0.1c2.3,0,4.6,0.1,6.8,0.1c2,0,4,0.1,6.1,0.1c2,0,4.1,0.1,6.1,0.1  c0.9,0,1.8,0,2.7,0c1.5,0,2.9,0,4.4,0.1c1.6,0,3.2,0,4.8,0.1C91.1,42.3,91.2,42.3,91.3,42.3C91.3,42.3,91.3,42.3,91.3,42.3z"></path><path d="M91.1,60.1c-2.2,0-4.3,0.1-6.5,0.1c-1.4,0-2.8,0-4.1,0.1c-1,0-2.1,0-3.1,0c-1.5,0-3.1,0.1-4.6,0.1c-2.2,0-4.5,0.1-6.7,0.1  c-1.9,0-3.9,0.1-5.8,0.1c-2.2,0-4.3,0-6.5,0.1c-3.1,0-6.1,0-9.2,0c-2.3,0-4.5-0.1-6.8-0.1c-0.8,0-1.6,0-2.4,0  c-1.9,0-3.8-0.1-5.7-0.1c-1.2,0-2.4,0-3.6-0.1c-1.7,0-3.4-0.1-5.1-0.1c-0.8,0-1.6,0-2.4,0c-1.7,0-3.4,0-5.1-0.1  c-1.5,0-3.1-0.1-4.6-0.1c1.7,0,3.5,0,5.2-0.1c2.4,0,4.7-0.1,7.1-0.1c1.8,0,3.5-0.1,5.3-0.1c1.8,0,3.5-0.1,5.3-0.1  c1.9,0,3.8-0.1,5.7-0.1c2.9,0,5.9-0.1,8.8-0.1c2,0,4,0,6,0c2.7,0,5.5,0,8.2,0.1c2.4,0,4.8,0.1,7.2,0.1c1.8,0,3.6,0.1,5.4,0.1  c1.8,0,3.5,0.1,5.3,0.1c1.9,0,3.8,0.1,5.7,0.1C86.3,60,88.7,60,91.1,60.1C91.1,60.1,91.1,60.1,91.1,60.1z"></path><path d="M91,40.9c-0.4,0-0.8,0-1.2,0c-1.9,0-3.9,0.1-5.8,0.1c-1.5,0-3.1,0.1-4.6,0.1c-2.6,0-5.1,0.1-7.7,0.1c-1.6,0-3.2,0.1-4.7,0.1  c-1.9,0-3.9,0-5.8,0.1c-5,0.1-10.1,0.1-15.1,0.1c-1.6,0-3.2,0-4.8,0c-2.2,0-4.4-0.1-6.6-0.1c-1.5,0-2.9,0-4.4-0.1  c-2.2,0-4.3-0.1-6.5-0.1c-1.8,0-3.6-0.1-5.5-0.1c-2.1,0-4.3-0.1-6.4-0.1c-1,0-1.9-0.1-2.9-0.1c0.6,0,1.3,0,1.9,0c1.4,0,2.9,0,4.3,0  c1.7,0,3.4-0.1,5.1-0.1c2.1,0,4.1-0.1,6.2-0.1c0.6,0,1.2,0,1.9,0c1.2,0,2.4,0,3.6,0c1.2,0,2.4,0,3.6-0.1c2.8,0,5.7-0.1,8.5-0.1  c2.9,0,5.8,0,8.7,0c2.6,0,5.2,0,7.8,0c2.1,0,4.2,0.1,6.3,0.1c1.9,0,3.8,0.1,5.7,0.1c1.7,0,3.5,0.1,5.2,0.1c2.1,0,4.1,0.1,6.2,0.1  c1.4,0,2.9,0,4.3,0.1C89.2,40.9,90.1,40.9,91,40.9C91,40.9,91,40.9,91,40.9z"></path><path d="M90.6,61.5c-1.7,0-3.3,0.1-5,0.1c-1.8,0-3.6,0.1-5.3,0.1c-1.2,0-2.4,0-3.6,0.1c-1.7,0-3.4,0.1-5.1,0.1c-1.7,0-3.3,0.1-5,0.1  c-1.3,0-2.5,0-3.8,0.1c-1.9,0-3.8,0-5.7,0.1c-3.4,0-6.9,0-10.3,0c-3.1,0-6.2,0-9.3-0.1c-2.4,0-4.9-0.1-7.3-0.1c-1.8,0-3.7,0-5.5-0.1  c-2.1,0-4.1-0.1-6.2-0.1c-1.4,0-2.8,0-4.2-0.1c-1.6,0-3.3-0.1-4.9-0.1c0.6,0,1.1,0,1.7,0c1.5,0,2.9,0,4.4,0c1.7,0,3.4-0.1,5.1-0.1  c2,0,4-0.1,6.1-0.1c1.4,0,2.9,0,4.3-0.1c2.1,0,4.1-0.1,6.2-0.1c2.9,0,5.7-0.1,8.6-0.1c1.6,0,3.2,0,4.8,0c2.8,0,5.7,0,8.5,0  c2.4,0,4.8,0.1,7.2,0.1c2.1,0,4.1,0.1,6.2,0.1c1.9,0,3.7,0.1,5.6,0.1c1.8,0,3.6,0.1,5.5,0.1C85.8,61.4,88.2,61.4,90.6,61.5  C90.6,61.4,90.6,61.5,90.6,61.5z"></path><path d="M9.2,39.5c1.7,0,3.4,0,5.1-0.1c2.4,0,4.8-0.1,7.2-0.1c1.9,0,3.8-0.1,5.7-0.1c1.9,0,3.9-0.1,5.8-0.1c2.2,0,4.4-0.1,6.7-0.1  C44.3,39,49,39,53.6,39c1.8,0,3.6,0,5.4,0c2.4,0,4.8,0.1,7.2,0.1c1.9,0,3.7,0.1,5.6,0.1c2,0,4,0.1,6,0.1c1.9,0,3.7,0.1,5.6,0.1  c2.4,0,4.8,0.1,7.2,0.1c-1.6,0-3.2,0.1-4.8,0.1c-1.3,0-2.6,0-3.9,0c-1.9,0-3.7,0.1-5.6,0.1c-1.9,0-3.9,0.1-5.8,0.1  c-1.9,0-3.7,0.1-5.6,0.1c-1.7,0-3.4,0.1-5.1,0.1c-3.2,0-6.4,0.1-9.7,0.1c-2.5,0-5,0-7.6,0c-1.6,0-3.3,0-4.9-0.1c-1.3,0-2.7,0-4-0.1  c-1.3,0-2.5,0-3.8-0.1c-1.9,0-3.8-0.1-5.7-0.1c-1.7,0-3.5-0.1-5.2-0.1c-2.3,0-4.6-0.1-6.9-0.1C11.2,39.6,10.2,39.6,9.2,39.5  C9.2,39.6,9.2,39.5,9.2,39.5z"></path><path d="M90.4,62.8c-2.5,0-5,0.1-7.4,0.1c-2.4,0-4.7,0.1-7.1,0.1c-1.9,0-3.9,0.1-5.8,0.1c-2.1,0-4.1,0.1-6.2,0.1  c-3.2,0-6.3,0.1-9.5,0.1c-2.4,0-4.7,0-7.1,0c-2.9,0-5.7,0-8.6-0.1c-2.5,0-4.9-0.1-7.4-0.1c-2.1,0-4.1-0.1-6.2-0.1  c-2,0-3.9-0.1-5.9-0.1c-2.2,0-4.4-0.1-6.6-0.1c-1,0-1.9-0.1-2.9-0.1c0.7,0,1.3,0,2,0c1.5,0,3,0,4.5,0c1.9,0,3.8-0.1,5.7-0.1  c1.9,0,3.8-0.1,5.7-0.1c1.8,0,3.6-0.1,5.4-0.1c2.2,0,4.4,0,6.6-0.1c4.5-0.1,9.1-0.1,13.6-0.1c2,0,4,0,6.1,0c2.3,0,4.6,0.1,6.9,0.1  c1.8,0,3.6,0.1,5.4,0.1c1.9,0,3.8,0.1,5.7,0.1c1.9,0,3.7,0.1,5.6,0.1C85.3,62.7,87.9,62.8,90.4,62.8C90.4,62.8,90.4,62.8,90.4,62.8z  "></path><path d="M9.7,38.2c0.8,0,1.5,0,2.3,0c1.4,0,2.7,0,4.1,0c2.1,0,4.1-0.1,6.2-0.1c1.9,0,3.8-0.1,5.7-0.1c2,0,4-0.1,6.1-0.1  c2.6,0,5.2,0,7.7-0.1c4.1-0.1,8.1-0.1,12.2,0c3.1,0,6.3,0.1,9.4,0.1c2.5,0,5.1,0.1,7.6,0.1c1.9,0,3.8,0.1,5.7,0.1  c1.9,0,3.8,0.1,5.7,0.1c2.6,0,5.1,0.1,7.7,0.1c0.1,0,0.1,0,0.2,0c-0.6,0-1.2,0-1.9,0c-2.3,0-4.6,0.1-7,0.1c-1.9,0-3.8,0.1-5.7,0.1  c-2.1,0-4.3,0.1-6.4,0.1c-1.7,0-3.4,0-5.1,0.1c-2.1,0-4.1,0.1-6.2,0.1c-1,0-2,0-3,0c-3,0-6,0-8.9,0c-2.4,0-4.7,0-7.1-0.1  c-2.6,0-5.2-0.1-7.8-0.1c-1.6,0-3.2,0-4.8-0.1c-1.6,0-3.1-0.1-4.7-0.1c-2.5,0-5.1-0.1-7.6-0.1C12.7,38.3,11.2,38.2,9.7,38.2  C9.7,38.2,9.7,38.2,9.7,38.2z"></path><path d="M9.7,64.2c1.5,0,2.9,0,4.4,0c1.5,0,3,0,4.5-0.1c1.2,0,2.4,0,3.6,0c1.7,0,3.3-0.1,5-0.1c1.7,0,3.4-0.1,5.1-0.1  c1.1,0,2.2,0,3.2-0.1c2,0,4,0,6.1-0.1c4,0,8.1-0.1,12.1,0c3.2,0,6.4,0.1,9.6,0.1c2.5,0,5,0.1,7.4,0.1c1.9,0,3.8,0.1,5.7,0.1  c2,0,4.1,0.1,6.1,0.1c2.4,0,4.7,0.1,7.1,0.1c0,0,0.1,0,0.1,0c-0.3,0-0.5,0-0.8,0c-2.1,0.1-4.3,0.1-6.4,0.1c-1.2,0-2.3,0-3.5,0.1  c-1.3,0-2.5,0-3.8,0.1c-1.8,0-3.6,0.1-5.4,0.1c-1.9,0-3.8,0.1-5.7,0.1c-1.6,0-3.3,0.1-4.9,0.1c-0.9,0-1.8,0-2.7,0  c-3.2,0-6.4,0-9.6,0c-2.9,0-5.7,0-8.6-0.1c-2.5,0-4.9-0.1-7.4-0.1c-1.8,0-3.6,0-5.4-0.1c-2,0-4-0.1-6.1-0.1c-2.2,0-4.4-0.1-6.6-0.1  C12.1,64.3,10.9,64.2,9.7,64.2C9.7,64.2,9.7,64.2,9.7,64.2z"></path><path d="M89.7,36.9c-2.2,0-4.4,0.1-6.6,0.1c-1.3,0-2.5,0-3.8,0.1c-1.2,0-2.4,0-3.6,0.1c-1.7,0-3.4,0-5.1,0.1c-2.1,0-4.1,0.1-6.2,0.1  c-4.4,0.1-8.8,0.1-13.1,0.1c-3.2,0-6.5,0-9.7,0c-1,0-2.1,0-3.1,0c-2.3,0-4.6-0.1-6.9-0.1c-1.2,0-2.5,0-3.7-0.1c-1.2,0-2.5,0-3.7-0.1  c-1.2,0-2.5,0-3.7-0.1c-1.9,0-3.9-0.1-5.8-0.1c-1.5,0-3-0.1-4.6-0.1c0.8,0,1.7,0,2.5,0c1.5,0,2.9,0,4.4,0c2,0,4-0.1,6-0.1  c2.1,0,4.1-0.1,6.2-0.1c2.1,0,4.1-0.1,6.2-0.1c3.1,0,6.2-0.1,9.3-0.1c3.1,0,6.2,0,9.3,0c2.8,0,5.6,0,8.3,0.1c2.7,0,5.4,0.1,8.1,0.1  c2,0,4.1,0.1,6.1,0.1c1.9,0,3.9,0.1,5.8,0.1C84.7,36.7,87.2,36.8,89.7,36.9C89.7,36.8,89.7,36.8,89.7,36.9z"></path><path d="M10.5,65.5c0.9,0,1.7,0,2.6,0c1.4,0,2.8,0,4.2,0c1.2,0,2.3,0,3.5-0.1c2.1,0,4.1-0.1,6.2-0.1c1.3,0,2.6,0,3.9-0.1  c1.4,0,2.7,0,4.1,0c2.6,0,5.1-0.1,7.7-0.1c3.9,0,7.9,0,11.8,0c2.6,0,5.2,0,7.7,0.1c2.6,0,5.2,0.1,7.8,0.1c2,0,4,0.1,6,0.1  c2,0,4,0.1,6.1,0.1c2.3,0,4.6,0.1,6.9,0.1c0.1,0,0.2,0,0.2,0c-0.3,0-0.7,0-1,0c-2,0-4,0.1-6,0.1c-1.2,0-2.5,0-3.7,0.1  c-1.5,0-3,0-4.5,0.1c-2.1,0-4.1,0.1-6.2,0.1c-2.5,0-5,0.1-7.5,0.1c-4.9,0.1-9.8,0.1-14.8,0c-1.8,0-3.6,0-5.4,0c-1.9,0-3.9,0-5.8-0.1  c-2.3,0-4.6-0.1-7-0.1c-2.3,0-4.6-0.1-6.9-0.1c-2.4,0-4.9-0.1-7.3-0.1C12.2,65.6,11.3,65.6,10.5,65.5C10.5,65.5,10.5,65.5,10.5,65.5  z"></path><path d="M89.3,35.5c-0.4,0-0.7,0-1.1,0c-2,0-4.1,0.1-6.1,0.1c-1.7,0-3.4,0.1-5.1,0.1c-2.4,0-4.8,0.1-7.2,0.1c-2.5,0-4.9,0.1-7.4,0.1  c-4.5,0-9.1,0.1-13.6,0.1c-2.9,0-5.9,0-8.8,0c-2.3,0-4.7-0.1-7-0.1c-2,0-4-0.1-6-0.1c-1.8,0-3.6-0.1-5.5-0.1c-1.9,0-3.7,0-5.6-0.1  c-1.8,0-3.6-0.1-5.4-0.1c0.8,0,1.6,0,2.4,0c1.5,0,3.1,0,4.6,0c2.1,0,4.2-0.1,6.2-0.1c2,0,4.1-0.1,6.1-0.1c2.3,0,4.6-0.1,6.9-0.1  c3,0,6-0.1,8.9-0.1c2.9,0,5.9,0,8.8,0c1.7,0,3.5,0,5.2,0c2.9,0,5.7,0.1,8.6,0.1c2,0,3.9,0.1,5.9,0.1c2.4,0,4.8,0.1,7.2,0.1  c2.6,0,5.1,0.1,7.7,0.1C89.1,35.4,89.2,35.4,89.3,35.5z"></path><path d="M89,66.9c-0.5,0-1.1,0-1.6,0.1c-1.9,0-3.8,0.1-5.7,0.1c-1.4,0-2.8,0-4.2,0.1c-1.2,0-2.4,0-3.6,0c-2,0-4,0.1-6,0.1  c-1.9,0-3.8,0.1-5.7,0.1c-2.3,0-4.6,0-7,0.1c-2.8,0-5.6,0-8.3,0c-3.2,0-6.4,0-9.6-0.1c-2.7,0-5.4-0.1-8.2-0.1  c-2.3,0-4.6-0.1-6.9-0.1c-2.6,0-5.2-0.1-7.8-0.1c-1.1,0-2.1-0.1-3.2-0.1c0.6,0,1.2,0,1.8,0c1.5,0,3.1,0,4.6,0c1.8,0,3.6-0.1,5.5-0.1  c1.8,0,3.7-0.1,5.5-0.1c1.5,0,2.9-0.1,4.4-0.1c1,0,2.1,0,3.1,0c2.8,0,5.5-0.1,8.3-0.1c3.4,0,6.9,0,10.3,0c2.4,0,4.9,0,7.3,0  c2,0,4,0.1,6.1,0.1c1.8,0,3.6,0,5.4,0.1c1.8,0,3.6,0.1,5.4,0.1c2.8,0,5.7,0.1,8.5,0.1C87.9,66.9,88.4,66.9,89,66.9  C89,66.9,89,66.9,89,66.9z"></path><path d="M11.3,34.1c1.1,0,2.3,0,3.4,0c1.2,0,2.3,0,3.5,0c2.1,0,4.3-0.1,6.4-0.1c2.1,0,4.2-0.1,6.3-0.1c2.5,0,5.1-0.1,7.6-0.1  c5-0.1,9.9-0.1,14.9-0.1c2.4,0,4.7,0,7.1,0c1.8,0,3.6,0,5.4,0.1c1.5,0,3,0.1,4.6,0.1c1.3,0,2.6,0,3.9,0c2.3,0,4.6,0.1,6.9,0.1  c1.6,0,3.2,0,4.7,0.1c0.8,0,1.7,0,2.5,0.1c-0.4,0-0.7,0-1.1,0c-2.6,0-5.3,0.1-7.9,0.1c-2.1,0-4.2,0.1-6.2,0.1c-2.3,0-4.6,0.1-7,0.1  c-2.4,0-4.8,0-7.2,0.1c-4.6,0.1-9.2,0.1-13.8,0c-2.9,0-5.9-0.1-8.8-0.1c-2.2,0-4.4-0.1-6.6-0.1c-0.7,0-1.5,0-2.2,0  c-2.2,0-4.3-0.1-6.5-0.1c-2.2,0-4.3-0.1-6.5-0.1C13.5,34.2,12.4,34.1,11.3,34.1C11.3,34.1,11.3,34.1,11.3,34.1z"></path><path d="M88.3,68.3c-2.5,0-4.9,0.1-7.4,0.1c-1.4,0-2.8,0-4.2,0.1c-0.6,0-1.2,0-1.9,0c-2.8,0-5.7,0.1-8.5,0.1c-2.8,0-5.6,0.1-8.4,0.1  c-3.3,0-6.5,0.1-9.8,0c-3.1,0-6.1,0-9.2-0.1c-1.2,0-2.3,0-3.5,0c-2.3,0-4.6,0-6.8-0.1c-2.3,0-4.6-0.1-7-0.1c-1.5,0-2.9,0-4.4-0.1  c-2,0-4-0.1-6-0.1c0.8,0,1.6,0,2.4,0c1.5,0,2.9,0,4.4,0c1.9,0,3.8-0.1,5.7-0.1c2.4,0,4.9-0.1,7.3-0.1c0.9,0,1.9,0,2.8-0.1  c1.3,0,2.7,0,4,0c5-0.1,10.1-0.1,15.1-0.1c2.4,0,4.7,0,7.1,0c2.5,0,5.1,0.1,7.6,0.1c2.2,0,4.3,0.1,6.5,0.1c2.1,0,4.2,0.1,6.3,0.1  C83.1,68.2,85.7,68.2,88.3,68.3C88.3,68.3,88.3,68.3,88.3,68.3z"></path><path d="M11.8,32.7c0.9,0,1.7,0,2.6,0c1.5,0,3,0,4.5,0c2.1,0,4.3-0.1,6.4-0.1c2.4,0,4.8-0.1,7.2-0.1c1.6,0,3.2,0,4.8-0.1  c2.7,0,5.5-0.1,8.2-0.1c2.9,0,5.7,0,8.6,0c1.2,0,2.5,0,3.7,0c2.9,0,5.7,0.1,8.6,0.1c2.3,0,4.6,0.1,6.9,0.1c2.2,0,4.3,0.1,6.5,0.1  c2.6,0,5.2,0.1,7.7,0.1c0,0,0.1,0,0.1,0c-0.4,0-0.8,0-1.2,0c-1.9,0-3.7,0.1-5.6,0.1c-1.4,0-2.7,0-4.1,0.1c-0.8,0-1.6,0-2.4,0  c-2.1,0-4.1,0.1-6.2,0.1c-1,0-2.1,0-3.1,0c-2.3,0-4.6,0.1-7,0.1c-2.3,0-4.6,0-7,0c-2,0-4,0-6.1,0c-2.7,0-5.4,0-8.1-0.1  c-2.9,0-5.8-0.1-8.7-0.1c-2.1,0-4.2-0.1-6.3-0.1c-2.3,0-4.6-0.1-6.9-0.1C14.1,32.8,12.9,32.8,11.8,32.7  C11.8,32.7,11.8,32.7,11.8,32.7z"></path><path d="M87.7,69.7c-0.5,0-1.1,0-1.6,0c-1.9,0-3.7,0.1-5.6,0.1c-1.6,0-3.3,0-4.9,0.1c-1.2,0-2.5,0-3.7,0c-2.4,0-4.9,0.1-7.3,0.1  c-4,0-7.9,0.1-11.9,0.1c-3.6,0-7.2,0-10.8,0c-1.3,0-2.6,0-3.9,0c-2.2,0-4.5,0-6.7-0.1c-2.7,0-5.5-0.1-8.2-0.1  c-2.6,0-5.2-0.1-7.8-0.1c-1,0-2-0.1-3-0.1c0.7,0,1.3,0,2,0c1.6,0,3.2,0,4.8,0c2,0,4-0.1,6.1-0.1c2.4,0,4.9-0.1,7.3-0.1  c2.4,0,4.8-0.1,7.2-0.1c3.7,0,7.3,0,11-0.1c2.4,0,4.7,0,7.1,0c2.2,0,4.3,0,6.5,0.1c2.7,0,5.4,0.1,8.1,0.1c2.4,0,4.8,0.1,7.2,0.1  C82.2,69.6,84.9,69.6,87.7,69.7C87.6,69.6,87.6,69.6,87.7,69.7z"></path><path d="M87.6,31.4c-2.8,0-5.6,0.1-8.3,0.1c-2.4,0-4.9,0.1-7.3,0.1c-2,0-4,0.1-6,0.1c-3.7,0-7.4,0.1-11.1,0.1c-2.9,0-5.7,0-8.6,0  c-1.9,0-3.8,0-5.7,0c-2,0-4,0-6-0.1c-1.6,0-3.2,0-4.8,0c-1.9,0-3.9-0.1-5.8-0.1c-2.7,0-5.3-0.1-8-0.1c-1.2,0-2.3-0.1-3.5-0.1  c1.2,0,2.3,0,3.5,0c2,0,4-0.1,6-0.1c1.4,0,2.7,0,4.1,0c2.2,0,4.3-0.1,6.5-0.1c2.3,0,4.5-0.1,6.8-0.1c2,0,3.9,0,5.9,0  c2.9,0,5.8,0,8.7,0c3.6,0,7.3,0,10.9,0.1c2.5,0,5,0.1,7.5,0.1c2.3,0,4.5,0.1,6.8,0.1c2.7,0,5.4,0.1,8.1,0.1  C87.4,31.3,87.5,31.3,87.6,31.4C87.6,31.3,87.6,31.4,87.6,31.4z"></path><path d="M87,71.1c-2.7,0-5.4,0.1-8.1,0.1c-1.3,0-2.6,0-3.8,0.1c-1.5,0-3,0-4.5,0.1c-1.6,0-3.1,0-4.7,0.1c-1.8,0-3.6,0-5.4,0  c-4.4,0-8.7,0-13.1,0.1c-2.2,0-4.4,0-6.6,0c-3.3,0-6.5-0.1-9.8-0.1c-2.3,0-4.6-0.1-6.9-0.1c-2.6,0-5.2-0.1-7.8-0.1c-1,0-2-0.1-3-0.1  c0.8,0,1.6,0,2.4,0c1.5,0,3.1,0,4.6,0c2.2,0,4.5-0.1,6.7-0.1c2.5,0,5.1-0.1,7.6-0.1c3.5,0,7-0.1,10.6-0.1c2.1,0,4.3,0,6.4,0  c3.4,0,6.7,0,10.1,0.1c1,0,2,0,3,0c2.6,0,5.3,0.1,7.9,0.1c2,0,4.1,0.1,6.1,0.1C81.3,70.9,84.1,71,87,71.1C87,71,87,71,87,71.1z"></path><path d="M13.2,30c1.7,0,3.3,0,5,0c1.6,0,3.2,0,4.8-0.1c0.7,0,1.3,0,2,0c1,0,1.9,0,2.9,0c2,0,4-0.1,6.1-0.1c3.1,0,6.2-0.1,9.3-0.1  c5.3,0,10.5,0,15.8,0c1.4,0,2.8,0,4.1,0c2,0,4,0,6,0.1c2.7,0,5.5,0.1,8.2,0.1c2.3,0,4.6,0,6.8,0.1c0.7,0,1.5,0,2.2,0.1  c-0.3,0-0.6,0-0.9,0c-2.1,0.1-4.3,0.1-6.4,0.1c-1.5,0-3.1,0-4.6,0.1c-1.3,0-2.6,0-3.9,0c-2.4,0-4.8,0.1-7.2,0.1  c-3,0-5.9,0.1-8.9,0.1c-3,0-5.9,0-8.9,0c-2.1,0-4.2,0-6.3,0c-2.8,0-5.5,0-8.3-0.1c-2.3,0-4.7-0.1-7-0.1c-2.5,0-5-0.1-7.5-0.1  C15.4,30.1,14.3,30,13.2,30C13.2,30,13.2,30,13.2,30z"></path><path d="M13.8,72.4c1.1,0,2.2,0,3.3,0c2.2,0,4.5-0.1,6.7-0.1c1.4,0,2.9,0,4.3,0c2.7,0,5.4-0.1,8.1-0.1c3.4,0,6.7-0.1,10.1-0.1  c3.7,0,7.5,0,11.2,0c1.8,0,3.6,0,5.4,0c2.1,0,4.2,0,6.2,0.1c2.3,0,4.6,0.1,6.8,0.1c2.7,0,5.5,0.1,8.2,0.1c0.7,0,1.3,0,2,0  c-0.4,0-0.8,0-1.1,0c-1.9,0-3.8,0.1-5.7,0.1c-1.1,0-2.3,0-3.4,0c-2.2,0-4.4,0.1-6.6,0.1c-2.9,0-5.8,0.1-8.7,0.1c-1.2,0-2.4,0-3.6,0  c-3.5,0-7,0-10.5,0c-1.1,0-2.1,0-3.2,0c-3,0-6,0-8.9-0.1c-3.2,0-6.3-0.1-9.5-0.1c-2.6,0-5.2-0.1-7.8-0.1  C16.1,72.5,15,72.4,13.8,72.4C13.8,72.4,13.8,72.4,13.8,72.4z"></path><path d="M85.6,28.6c-0.9,0-1.7,0-2.6,0.1c-1.5,0-2.9,0-4.4,0.1c-1.6,0-3.2,0-4.7,0.1c-1.6,0-3.2,0-4.7,0.1c-2.1,0-4.1,0-6.2,0.1  c-1.7,0-3.5,0-5.2,0c-3.9,0-7.9,0-11.8,0c-3.3,0-6.7-0.1-10-0.1c-1,0-1.9,0-2.9,0c-1.5,0-3,0-4.5-0.1c-0.8,0-1.6,0-2.5,0  c-2.8,0-5.6-0.1-8.3-0.1c-1.3,0-2.6-0.1-3.8-0.1c0.9,0,1.8,0,2.7,0c1.7,0,3.3,0,5,0c2,0,3.9,0,5.9-0.1c2.9,0,5.9-0.1,8.8-0.1  c2.6,0,5.2-0.1,7.8-0.1c3.5,0,7.1,0,10.6,0c2.9,0,5.8,0,8.8,0.1c2,0,4,0,6,0.1c2.6,0,5.2,0.1,7.8,0.1c2.1,0,4.3,0,6.4,0.1  C84.3,28.6,85,28.6,85.6,28.6C85.6,28.6,85.6,28.6,85.6,28.6z"></path><path d="M85.2,73.8c-0.8,0-1.6,0-2.4,0c-2.7,0-5.3,0.1-8,0.1c-2.2,0-4.4,0.1-6.6,0.1c-3.4,0-6.8,0.1-10.2,0.1c-2.4,0-4.8,0-7.2,0  c-3.8,0-7.7,0-11.5,0c-1.5,0-3.1,0-4.6,0c-2.8,0-5.6-0.1-8.3-0.1c-2.7,0-5.5-0.1-8.2-0.1c-1.2,0-2.3-0.1-3.5-0.1c0.8,0,1.5,0,2.3,0  c1.7,0,3.4,0,5.2,0c2.6,0,5.2-0.1,7.7-0.1c2.9,0,5.8-0.1,8.7-0.1c2.3,0,4.5,0,6.8-0.1c2.2,0,4.4,0,6.7,0c2.6,0,5.2,0,7.8,0  c2.7,0,5.4,0.1,8.2,0.1c2.3,0,4.6,0,6.9,0.1c2.3,0,4.6,0.1,6.9,0.1C82.8,73.7,84,73.7,85.2,73.8C85.2,73.7,85.2,73.8,85.2,73.8z"></path><path d="M85.1,27.3c-0.7,0-1.4,0-2.1,0c-2.8,0-5.6,0.1-8.3,0.1c-2.7,0-5.4,0.1-8.1,0.1c-4.4,0-8.7,0.1-13.1,0.1c-1.5,0-3,0-4.5,0  c-4.4,0-8.8,0-13.2-0.1c-2.5,0-5,0-7.5-0.1c-3.4,0-6.7-0.1-10.1-0.1c-1,0-2-0.1-2.9-0.1c1.2,0,2.5,0,3.7,0c1.3,0,2.7,0,4,0  c2,0,3.9,0,5.9-0.1c3.2,0,6.4-0.1,9.6-0.1c4,0,7.9,0,11.9-0.1c2.2,0,4.5,0,6.7,0c3.3,0,6.6,0.1,9.9,0.1c2.5,0,5,0.1,7.4,0.1  c3,0,6,0.1,9,0.1C83.9,27.2,84.5,27.2,85.1,27.3C85.1,27.2,85.1,27.2,85.1,27.3z"></path><path d="M15.4,75.1c1.4,0,2.7,0,4.1,0c1.3,0,2.6,0,3.9,0c2.7,0,5.4-0.1,8.2-0.1c3.6,0,7.1-0.1,10.7-0.1c4.2,0,8.4,0,12.6,0  c2.9,0,5.8,0,8.7,0.1c1.2,0,2.5,0,3.7,0c1.8,0,3.6,0,5.4,0.1c1.9,0,3.7,0.1,5.6,0.1c1.3,0,2.7,0,4,0c0.7,0,1.4,0,2.1,0  c-0.9,0-1.8,0-2.7,0.1c-2.2,0-4.3,0.1-6.5,0.1c-2.3,0-4.6,0.1-6.9,0.1c-1,0-2,0-3.1,0c-2.7,0-5.4,0-8.1,0.1c-2.6,0-5.3,0-7.9,0  c-1.8,0-3.6,0-5.4,0c-2.4,0-4.8,0-7.2,0c-3,0-6-0.1-8.9-0.1c-2.8,0-5.7-0.1-8.5-0.1C18,75.2,16.7,75.2,15.4,75.1  C15.4,75.1,15.4,75.1,15.4,75.1z"></path><path d="M84.2,25.9c-0.8,0-1.6,0-2.4,0c-2.2,0-4.5,0.1-6.7,0.1c-3,0-6.1,0.1-9.1,0.1c-5,0-10,0.1-14.9,0.1c-3.8,0-7.6,0-11.4,0  c-2.8,0-5.6-0.1-8.4-0.1c-0.8,0-1.6,0-2.5,0c-2.8,0-5.6-0.1-8.4-0.1c-1.5,0-2.9-0.1-4.4-0.1c0.7,0,1.5,0,2.2,0c1.8,0,3.6,0,5.5,0  c2.6,0,5.2-0.1,7.8-0.1c2.2,0,4.3,0,6.5-0.1c3.3,0,6.6,0,9.9,0c3.2,0,6.4,0,9.6,0c2.1,0,4.2,0,6.3,0c3.1,0,6.1,0.1,9.2,0.1  c3.6,0,7.3,0.1,10.9,0.1C83.9,25.9,84,25.9,84.2,25.9C84.2,25.9,84.2,25.9,84.2,25.9z"></path><path d="M83.6,76.5c-0.8,0-1.6,0-2.4,0.1c-2.7,0-5.4,0.1-8.1,0.1c-2.9,0-5.9,0-8.8,0.1c-6.5,0.1-13,0.1-19.6,0.1c-2,0-4.1,0-6.1,0  c-1.9,0-3.9,0-5.8,0c-2.2,0-4.4,0-6.6-0.1c-2,0-4,0-6-0.1c-1.2,0-2.5-0.1-3.7-0.1c0.8,0,1.7,0,2.5,0c1.1,0,2.2,0,3.3,0  c1.8,0,3.6-0.1,5.4-0.1c1.8,0,3.7,0,5.5,0c3.4,0,6.7-0.1,10.1-0.1c3.8,0,7.6,0,11.4,0c3.5,0,7.1,0,10.6,0.1c2.9,0,5.7,0.1,8.6,0.1  c3.1,0,6.3,0.1,9.4,0.1C83.5,76.5,83.5,76.5,83.6,76.5z"></path><path d="M16.7,24.5c0.9,0,1.9,0,2.8,0c2.1,0,4.1,0,6.2,0c2.4,0,4.7,0,7.1-0.1c3.1,0,6.2-0.1,9.3-0.1c4.8,0,9.6,0,14.4,0  c2.4,0,4.7,0,7.1,0c3.2,0,6.3,0.1,9.5,0.1c3.2,0,6.3,0.1,9.5,0.1c0.1,0,0.1,0,0.2,0c-0.6,0-1.3,0-1.9,0c-3.1,0-6.2,0.1-9.3,0.1  c-2.5,0-5,0.1-7.6,0.1c-4.1,0-8.3,0.1-12.4,0.1c-4,0-8.1,0-12.1,0c-2.8,0-5.6-0.1-8.4-0.1c-2.9,0-5.8-0.1-8.7-0.1  C20.5,24.6,18.6,24.6,16.7,24.5C16.7,24.5,16.7,24.5,16.7,24.5z"></path><path d="M17.7,77.8c0.9,0,1.8,0,2.6,0c1.9,0,3.7,0,5.6,0c3.4,0,6.9,0,10.3-0.1c6.4-0.1,12.7-0.1,19.1-0.1c2.5,0,5,0,7.6,0  c2.6,0,5.2,0,7.8,0.1c3,0,6,0.1,9.1,0.1c0.9,0,1.7,0,2.6,0c-1.1,0-2.2,0.1-3.4,0.1c-1.9,0-3.8,0-5.7,0.1c-2.2,0-4.4,0.1-6.7,0.1  c-1.5,0-3.1,0-4.6,0c-2,0-4.1,0-6.1,0c-2.9,0-5.7,0-8.6,0c-1.5,0-3.1,0-4.6,0c-2.6,0-5.1,0-7.7-0.1c-2.5,0-4.9,0-7.4-0.1  c-1.7,0-3.3,0-5,0C21,77.9,19.4,77.9,17.7,77.8C17.8,77.9,17.7,77.9,17.7,77.8z"></path><path d="M17.9,23.1c0.8,0,1.6,0,2.5,0c1.2,0,2.3,0,3.5,0c2.3,0,4.5-0.1,6.8-0.1c2.3,0,4.5,0,6.8,0c3.5,0,7,0,10.5-0.1  c3,0,6.1,0,9.1,0c1.4,0,2.9,0,4.3,0c3.4,0,6.9,0.1,10.3,0.1c2.6,0,5.3,0.1,7.9,0.1c0.8,0,1.6,0,2.5,0c-1.8,0-3.6,0.1-5.4,0.1  c-2.3,0-4.6,0-7,0.1c-4.1,0-8.2,0.1-12.4,0.1c-4.5,0-9,0-13.4,0c-3.4,0-6.8,0-10.2-0.1c-2.7,0-5.3-0.1-8-0.1c-1.4,0-2.7,0-4.1,0  C20.4,23.2,19.2,23.2,17.9,23.1C17.9,23.1,17.9,23.1,17.9,23.1z"></path><path d="M18.7,79.2c0.9,0,1.7,0,2.6,0c2.1,0,4.3,0,6.4,0c3.8,0,7.5-0.1,11.3-0.1c5.3,0,10.6,0,15.9,0c1.7,0,3.5,0,5.2,0  c2.4,0,4.7,0,7.1,0.1c2.4,0,4.8,0.1,7.2,0.1c2.1,0,4.3,0,6.4,0c0.1,0,0.2,0,0.3,0c-0.9,0-1.7,0-2.6,0c-3.5,0-7,0.1-10.5,0.1  c-3.6,0-7.1,0.1-10.7,0.1c-4.5,0-9,0-13.4,0c-2.7,0-5.4,0-8.1,0c-3.7,0-7.4-0.1-11.1-0.1C22.6,79.3,20.7,79.3,18.7,79.2  C18.7,79.2,18.7,79.2,18.7,79.2z"></path><path d="M80.8,21.8c-1.1,0-2.2,0-3.2,0.1c-3.2,0-6.4,0.1-9.7,0.1c-3.6,0-7.2,0.1-10.8,0.1c-4.5,0-8.9,0-13.4,0c-2.7,0-5.5,0-8.2,0  c-3.1,0-6.2,0-9.3-0.1c-2.3,0-4.6-0.1-6.9-0.1c0.8,0,1.7,0,2.5,0c2.2,0,4.4,0,6.6,0c3.1,0,6.2-0.1,9.3-0.1c1.3,0,2.6,0,4,0  c2.7,0,5.4,0,8.2,0c2.5,0,5,0,7.4,0c3.5,0,6.9,0,10.4,0.1c4.3,0,8.6,0.1,12.9,0.1C80.6,21.8,80.7,21.8,80.8,21.8  C80.8,21.8,80.8,21.8,80.8,21.8z"></path><path d="M20,80.6c1.7,0,3.4,0,5.1,0c1.6,0,3.2,0,4.8,0c3.3,0,6.7-0.1,10-0.1c4.5,0,9,0,13.4,0c4.5,0,8.9,0,13.4,0.1  c3.4,0,6.9,0.1,10.3,0.1c0.9,0,1.8,0,2.7,0.1c-0.9,0-1.8,0-2.8,0c-2.9,0-5.8,0-8.8,0.1c-7.9,0.1-15.8,0.1-23.7,0.1  c-2.8,0-5.7,0-8.5,0c-3.3,0-6.6-0.1-9.9-0.1c-2,0-4-0.1-6-0.1C20.1,80.6,20,80.6,20,80.6z"></path><path d="M79.4,20.4c-0.8,0-1.6,0-2.4,0c-2.4,0-4.8,0.1-7.2,0.1c-1.6,0-3.2,0-4.8,0c-6.9,0.1-13.9,0.1-20.8,0.1c-2.8,0-5.5,0-8.3,0  c-3.1,0-6.2-0.1-9.3-0.1c-2,0-4-0.1-6-0.1c0.1,0,0.3,0,0.4,0c2.4,0,4.9,0,7.3,0c1,0,1.9,0,2.9,0c6.9,0,13.8-0.1,20.6-0.1  c4.5,0,9,0,13.4,0c3.9,0,7.8,0.1,11.7,0.1C77.8,20.4,78.6,20.4,79.4,20.4C79.4,20.4,79.4,20.4,79.4,20.4z"></path><path d="M21.4,82c1.1,0,2.1,0,3.2,0c2.4,0,4.7,0,7.1,0c2.7,0,5.5-0.1,8.2-0.1c1.6,0,3.2,0,4.8,0c2.8,0,5.6,0,8.3,0  c4.6,0,9.1,0,13.7,0.1c2.8,0,5.7,0,8.5,0.1c1,0,2,0,3,0.1c-1.1,0-2.2,0-3.4,0.1c-3.1,0-6.3,0.1-9.4,0.1c-2.6,0-5.3,0-7.9,0.1  c-0.9,0-1.9,0-2.8,0c-4.1,0-8.1,0-12.2,0c-4.6,0-9.1,0-13.7-0.1c-1.9,0-3.9-0.1-5.8-0.1C22.6,82,22,82,21.4,82  C21.4,82,21.4,82,21.4,82z"></path><path d="M22.1,19c18.5-0.2,37-0.2,55.6,0c-0.7,0-1.4,0-2.1,0c-2.6,0-5.1,0.1-7.7,0.1c-1.6,0-3.3,0-4.9,0c-2.2,0-4.5,0-6.7,0  c-3.6,0-7.2,0-10.8,0c-1.9,0-3.8,0-5.7,0c-2.8,0-5.7,0-8.5-0.1c-1.6,0-3.2,0-4.7,0C25,19.1,23.5,19.1,22.1,19z"></path><path d="M23.2,83.3c17.9-0.2,35.8-0.2,53.6,0c-1,0-1.9,0-2.9,0c-2.7,0-5.4,0.1-8.1,0.1c-2.6,0-5.1,0-7.7,0c-4.5,0-9,0-13.5,0  c-1.9,0-3.8,0-5.7,0c-3.7,0-7.5,0-11.2-0.1C26.2,83.4,24.7,83.4,23.2,83.3z"></path><path d="M23.6,17.7c17.5-0.2,35.1-0.2,52.6,0c-0.8,0-1.6,0-2.5,0c-1.4,0-2.9,0-4.3,0.1c-2.4,0-4.8,0-7.2,0c-2.1,0-4.1,0-6.2,0  c-3.8,0-7.6,0-11.3,0c-4.3,0-8.5,0-12.8-0.1C29.2,17.8,26.4,17.7,23.6,17.7z"></path><path d="M24.8,84.7c16.7-0.2,33.4-0.2,50.1,0c-1.1,0-2.2,0-3.4,0c-4.4,0-8.8,0.1-13.1,0.1c-4.9,0-9.7,0-14.6,0c-3.3,0-6.5,0-9.8,0  C30.9,84.8,27.9,84.8,24.8,84.7z"></path><path d="M25.4,16.3c3.8-0.1,44.5-0.1,48.8,0c-0.9,0-1.9,0-2.8,0c-4.6,0.1-9.2,0.1-13.8,0.1c-4.2,0-8.5,0-12.7,0c-3.3,0-6.6,0-9.8,0  c-1.6,0-3.2,0-4.7,0c-1.5,0-3.1-0.1-4.6-0.1C25.6,16.3,25.6,16.3,25.4,16.3z"></path><path d="M26.9,86.1c4-0.1,41.1-0.1,46,0c-1.1,0-2.2,0-3.3,0c-4,0-8.1,0.1-12.1,0.1c-6.1,0-12.1,0-18.2,0c-2.2,0-4.5,0-6.7,0  C30.6,86.1,28.8,86.1,26.9,86.1z"></path><path d="M72.1,14.9c-0.7,0-1.5,0-2.2,0c-2.1,0-4.1,0.1-6.2,0.1c-2.3,0-4.6,0-7,0c-6.2,0-12.4,0-18.6,0c-1.7,0-3.4,0-5.1,0  c-1.8,0-3.7-0.1-5.5-0.1C29.3,14.8,69.5,14.8,72.1,14.9z"></path><path d="M70.5,87.4c-5.3,0.2-33.2,0.2-41.7,0C42.8,87.3,56.7,87.3,70.5,87.4z"></path><path d="M70,13.6c-13.3,0.2-26.6,0.2-39.9,0C31.2,13.5,68,13.5,70,13.6z"></path><path d="M31.6,88.8c2.7-0.1,33.6-0.1,36.4,0c-0.9,0-1.7,0-2.6,0c-1.7,0-3.4,0-5.1,0.1c-1.9,0-3.8,0-5.7,0c-4.4,0-8.8,0-13.2,0  c-2.1,0-4.2,0-6.3-0.1C34.1,88.8,32.8,88.8,31.6,88.8z"></path><path d="M32.6,12.2c11.5-0.1,23.1-0.1,34.6,0c-3.8,0-7.7,0.1-11.5,0.1c-3.8,0-7.7,0-11.5,0C40.3,12.3,36.5,12.2,32.6,12.2z"></path><path d="M34.4,90.2c10.1-0.1,20.2-0.1,30.3,0C54.6,90.3,44.5,90.3,34.4,90.2z"></path><path d="M36.4,10.8c9.2,0,18.3,0,27.5,0C54.8,10.9,45.6,10.9,36.4,10.8z"></path><path d="M39.2,91.5c7.1,0,14.2,0,21.4,0C53.4,91.6,46.3,91.6,39.2,91.5z"></path><path d="M41.2,9.4c5.8,0,11.5,0,17.3,0c0,0,0,0,0,0C52.7,9.5,46.9,9.5,41.2,9.4C41.2,9.5,41.2,9.5,41.2,9.4z"></path><path d="M86.3,28.6C86.3,28.6,86.3,28.6,86.3,28.6C86.3,28.6,86.3,28.6,86.3,28.6C86.3,28.6,86.3,28.6,86.3,28.6z"></path><polygon points="83.6,24.5 83.5,24.5 83.5,24.5 "></polygon><path d="M65.2,90.2C65.1,90.2,65.1,90.2,65.2,90.2C65.1,90.2,65.1,90.2,65.2,90.2C65.1,90.2,65.1,90.2,65.2,90.2  C65.1,90.2,65.1,90.2,65.2,90.2z"></path><polygon points="60.3,9.5 60.3,9.5 60.3,9.5 "></polygon><polygon points="26.2,86.1 26.2,86.1 26.2,86.1 "></polygon><polygon points="74.7,16.3 74.7,16.3 74.7,16.3 "></polygon><polygon points="85.6,73.7 85.6,73.7 85.6,73.8 "></polygon><polygon points="39.9,9.5 39.9,9.5 39.9,9.5 "></polygon></g>
</svg>
</g><g opacity="1" transform="rotate(0 128.183 331.4954)">
<svg width="348.3025" height="16.8" x="128.183" y="331.4954" version="1.1" preserveAspectRatio="none" viewBox="4.56 -29.88 784.5200000000001 37.84">
  <g transform="matrix(1 0 0 1 0 0)" class="text"><path id="id-6izo4zJp35" d="M4.56 0L4.56-28L7.52-28L7.52-2.56L23.20-2.56L23.20 0L4.56 0Z M37.80 0.20Q34.76 0.20 32.32-1.18Q29.88-2.56 28.48-5Q27.08-7.44 27.08-10.52L27.08-10.52Q27.08-13.60 28.48-16.04Q29.88-18.48 32.32-19.84Q34.76-21.20 37.80-21.20L37.80-21.20Q40.84-21.20 43.28-19.84Q45.72-18.48 47.10-16.04Q48.48-13.60 48.48-10.52L48.48-10.52Q48.48-7.44 47.10-5Q45.72-2.56 43.28-1.18Q40.84 0.20 37.80 0.20L37.80 0.20ZM37.80-2.32Q40.04-2.32 41.82-3.34Q43.60-4.36 44.60-6.24Q45.60-8.12 45.60-10.52L45.60-10.52Q45.60-12.92 44.60-14.80Q43.60-16.68 41.82-17.70Q40.04-18.72 37.80-18.72L37.80-18.72Q35.56-18.72 33.78-17.70Q32-16.68 30.98-14.80Q29.96-12.92 29.96-10.52L29.96-10.52Q29.96-8.12 30.98-6.24Q32-4.36 33.78-3.34Q35.56-2.32 37.80-2.32L37.80-2.32Z M95-21.20Q98.96-21.20 101.22-18.92Q103.48-16.64 103.48-12.20L103.48-12.20L103.48 0L100.64 0L100.64-11.92Q100.64-15.20 99.06-16.92Q97.48-18.64 94.60-18.64L94.60-18.64Q91.32-18.64 89.44-16.62Q87.56-14.60 87.56-11.04L87.56-11.04L87.56 0L84.72 0L84.72-11.92Q84.72-15.20 83.14-16.92Q81.56-18.64 78.64-18.64L78.64-18.64Q75.40-18.64 73.50-16.62Q71.60-14.60 71.60-11.04L71.60-11.04L71.60 0L68.76 0L68.76-21.04L71.48-21.04L71.48-17.20Q72.60-19.12 74.60-20.16Q76.60-21.20 79.20-21.20L79.20-21.20Q81.84-21.20 83.78-20.08Q85.72-18.96 86.68-16.76L86.68-16.76Q87.84-18.84 90.02-20.02Q92.20-21.20 95-21.20L95-21.20Z M131.64-10.52L131.60-9.64L114-9.64Q114.24-6.36 116.52-4.34Q118.80-2.32 122.28-2.32L122.28-2.32Q124.24-2.32 125.88-3.02Q127.52-3.72 128.72-5.08L128.72-5.08L130.32-3.24Q128.92-1.56 126.82-0.68Q124.72 0.20 122.20 0.20L122.20 0.20Q118.96 0.20 116.46-1.18Q113.96-2.56 112.56-5Q111.16-7.44 111.16-10.52L111.16-10.52Q111.16-13.60 112.50-16.04Q113.84-18.48 116.18-19.84Q118.52-21.20 121.44-21.20L121.44-21.20Q124.36-21.20 126.68-19.84Q129-18.48 130.32-16.06Q131.64-13.64 131.64-10.52L131.64-10.52ZM121.44-18.76Q118.40-18.76 116.34-16.82Q114.28-14.88 114-11.76L114-11.76L128.92-11.76Q128.64-14.88 126.58-16.82Q124.52-18.76 121.44-18.76L121.44-18.76Z M136.32 7.96Q135 7.96 133.82 7.62Q132.64 7.28 131.88 6.60L131.88 6.60L132.88 4.44Q134.12 5.52 136.16 5.52L136.16 5.52Q137.84 5.52 138.74 4.52Q139.64 3.52 139.64 1.56L139.64 1.56L139.64-21.04L142.48-21.04L142.48 1.56Q142.48 4.52 140.88 6.24Q139.28 7.96 136.32 7.96L136.32 7.96ZM141.08-25.68Q140.20-25.68 139.60-26.28Q139-26.88 139-27.72L139-27.72Q139-28.52 139.60-29.12Q140.20-29.72 141.08-29.72L141.08-29.72Q141.96-29.72 142.56-29.14Q143.16-28.56 143.16-27.76L143.16-27.76Q143.16-26.88 142.56-26.28Q141.96-25.68 141.08-25.68L141.08-25.68Z M161 0.20Q157.96 0.20 155.52-1.18Q153.08-2.56 151.68-5Q150.28-7.44 150.28-10.52L150.28-10.52Q150.28-13.60 151.68-16.04Q153.08-18.48 155.52-19.84Q157.96-21.20 161-21.20L161-21.20Q164.04-21.20 166.48-19.84Q168.92-18.48 170.30-16.04Q171.68-13.60 171.68-10.52L171.68-10.52Q171.68-7.44 170.30-5Q168.92-2.56 166.48-1.18Q164.04 0.20 161 0.20L161 0.20ZM161-2.32Q163.24-2.32 165.02-3.34Q166.80-4.36 167.80-6.24Q168.80-8.12 168.80-10.52L168.80-10.52Q168.80-12.92 167.80-14.80Q166.80-16.68 165.02-17.70Q163.24-18.72 161-18.72L161-18.72Q158.76-18.72 156.98-17.70Q155.20-16.68 154.18-14.80Q153.16-12.92 153.16-10.52L153.16-10.52Q153.16-8.12 154.18-6.24Q155.20-4.36 156.98-3.34Q158.76-2.32 161-2.32L161-2.32Z M182.20-16.92Q183.20-19.04 185.18-20.12Q187.16-21.20 190.08-21.20L190.08-21.20L190.08-18.44L189.40-18.48Q186.08-18.48 184.20-16.44Q182.32-14.40 182.32-10.72L182.32-10.72L182.32 0L179.48 0L179.48-21.04L182.20-21.04L182.20-16.92Z M228.36-10.52L228.32-9.64L210.72-9.64Q210.96-6.36 213.24-4.34Q215.52-2.32 219-2.32L219-2.32Q220.96-2.32 222.60-3.02Q224.24-3.72 225.44-5.08L225.44-5.08L227.04-3.24Q225.64-1.56 223.54-0.68Q221.44 0.20 218.92 0.20L218.92 0.20Q215.68 0.20 213.18-1.18Q210.68-2.56 209.28-5Q207.88-7.44 207.88-10.52L207.88-10.52Q207.88-13.60 209.22-16.04Q210.56-18.48 212.90-19.84Q215.24-21.20 218.16-21.20L218.16-21.20Q221.08-21.20 223.40-19.84Q225.72-18.48 227.04-16.06Q228.36-13.64 228.36-10.52L228.36-10.52ZM218.16-18.76Q215.12-18.76 213.06-16.82Q211-14.88 210.72-11.76L210.72-11.76L225.64-11.76Q225.36-14.88 223.30-16.82Q221.24-18.76 218.16-18.76L218.16-18.76Z M246.88-21.20Q250.84-21.20 253.18-18.90Q255.52-16.60 255.52-12.20L255.52-12.20L255.52 0L252.68 0L252.68-11.92Q252.68-15.20 251.04-16.92Q249.40-18.64 246.36-18.64L246.36-18.64Q242.96-18.64 240.98-16.62Q239-14.60 239-11.04L239-11.04L239 0L236.16 0L236.16-21.04L238.88-21.04L238.88-17.16Q240.04-19.08 242.10-20.14Q244.16-21.20 246.88-21.20L246.88-21.20Z M283.36 0.20Q280.80 0.20 278.46-0.54Q276.12-1.28 274.80-2.40L274.80-2.40L276.08-4.64Q277.40-3.60 279.40-2.94Q281.40-2.28 283.56-2.28L283.56-2.28Q286.44-2.28 287.82-3.18Q289.20-4.08 289.20-5.72L289.20-5.72Q289.20-6.88 288.44-7.54Q287.68-8.20 286.52-8.54Q285.36-8.88 283.44-9.20L283.44-9.20Q280.88-9.68 279.32-10.18Q277.76-10.68 276.66-11.88Q275.56-13.08 275.56-15.20L275.56-15.20Q275.56-17.84 277.76-19.52Q279.96-21.20 283.88-21.20L283.88-21.20Q285.92-21.20 287.96-20.66Q290-20.12 291.32-19.24L291.32-19.24L290.08-16.96Q287.48-18.76 283.88-18.76L283.88-18.76Q281.16-18.76 279.78-17.80Q278.40-16.84 278.40-15.28L278.40-15.28Q278.40-14.08 279.18-13.36Q279.96-12.64 281.12-12.30Q282.28-11.96 284.32-11.60L284.32-11.60Q286.84-11.12 288.36-10.64Q289.88-10.16 290.96-9Q292.04-7.84 292.04-5.80L292.04-5.80Q292.04-3.04 289.74-1.42Q287.44 0.20 283.36 0.20L283.36 0.20Z M307.88 0.20Q304.84 0.20 302.40-1.18Q299.96-2.56 298.56-5Q297.16-7.44 297.16-10.52L297.16-10.52Q297.16-13.60 298.56-16.04Q299.96-18.48 302.40-19.84Q304.84-21.20 307.88-21.20L307.88-21.20Q310.92-21.20 313.36-19.84Q315.80-18.48 317.18-16.04Q318.56-13.60 318.56-10.52L318.56-10.52Q318.56-7.44 317.18-5Q315.80-2.56 313.36-1.18Q310.92 0.20 307.88 0.20L307.88 0.20ZM307.88-2.32Q310.12-2.32 311.90-3.34Q313.68-4.36 314.68-6.24Q315.68-8.12 315.68-10.52L315.68-10.52Q315.68-12.92 314.68-14.80Q313.68-16.68 311.90-17.70Q310.12-18.72 307.88-18.72L307.88-18.72Q305.64-18.72 303.86-17.70Q302.08-16.68 301.06-14.80Q300.04-12.92 300.04-10.52L300.04-10.52Q300.04-8.12 301.06-6.24Q302.08-4.36 303.86-3.34Q305.64-2.32 307.88-2.32L307.88-2.32Z M326.36 0L326.36-29.68L329.20-29.68L329.20 0L326.36 0Z M355.24-21.04L358.08-21.04L358.08 0L355.36 0L355.36-3.84Q354.24-1.92 352.28-0.86Q350.32 0.20 347.80 0.20L347.80 0.20Q343.68 0.20 341.30-2.10Q338.92-4.40 338.92-8.84L338.92-8.84L338.92-21.04L341.76-21.04L341.76-9.12Q341.76-5.80 343.40-4.08Q345.04-2.36 348.08-2.36L348.08-2.36Q351.40-2.36 353.32-4.38Q355.24-6.40 355.24-10L355.24-10L355.24-21.04Z M376.76 0.20Q373.64 0.20 371.18-1.16Q368.72-2.52 367.32-4.98Q365.92-7.44 365.92-10.52L365.92-10.52Q365.92-13.60 367.32-16.04Q368.72-18.48 371.18-19.84Q373.64-21.20 376.76-21.20L376.76-21.20Q379.48-21.20 381.62-20.14Q383.76-19.08 385-17.04L385-17.04L382.88-15.60Q381.84-17.16 380.24-17.94Q378.64-18.72 376.76-18.72L376.76-18.72Q374.48-18.72 372.66-17.70Q370.84-16.68 369.82-14.80Q368.80-12.92 368.80-10.52L368.80-10.52Q368.80-8.08 369.82-6.22Q370.84-4.36 372.66-3.34Q374.48-2.32 376.76-2.32L376.76-2.32Q378.64-2.32 380.24-3.08Q381.84-3.84 382.88-5.40L382.88-5.40L385-3.96Q383.76-1.92 381.60-0.86Q379.44 0.20 376.76 0.20L376.76 0.20Z M392.56 0L392.56-21.04L395.40-21.04L395.40 0L392.56 0ZM394.00-25.64Q393.12-25.64 392.52-26.24Q391.92-26.84 391.92-27.68L391.92-27.68Q391.92-28.48 392.52-29.08Q393.12-29.68 394.00-29.68L394.00-29.68Q394.88-29.68 395.48-29.10Q396.08-28.52 396.08-27.72L396.08-27.72Q396.08-26.84 395.48-26.24Q394.88-25.64 394.00-25.64L394.00-25.64Z M413.92 0.20Q410.88 0.20 408.44-1.18Q406.00-2.56 404.60-5Q403.20-7.44 403.20-10.52L403.20-10.52Q403.20-13.60 404.60-16.04Q406.00-18.48 408.44-19.84Q410.88-21.20 413.92-21.20L413.92-21.20Q416.96-21.20 419.40-19.84Q421.84-18.48 423.22-16.04Q424.60-13.60 424.60-10.52L424.60-10.52Q424.60-7.44 423.22-5Q421.84-2.56 419.40-1.18Q416.96 0.20 413.92 0.20L413.92 0.20ZM413.92-2.32Q416.16-2.32 417.94-3.34Q419.72-4.36 420.72-6.24Q421.72-8.12 421.72-10.52L421.72-10.52Q421.72-12.92 420.72-14.80Q419.72-16.68 417.94-17.70Q416.16-18.72 413.92-18.72L413.92-18.72Q411.68-18.72 409.90-17.70Q408.12-16.68 407.10-14.80Q406.08-12.92 406.08-10.52L406.08-10.52Q406.08-8.12 407.10-6.24Q408.12-4.36 409.90-3.34Q411.68-2.32 413.92-2.32L413.92-2.32Z M443.12-21.20Q447.08-21.20 449.42-18.90Q451.76-16.60 451.76-12.20L451.76-12.20L451.76 0L448.92 0L448.92-11.92Q448.92-15.20 447.28-16.92Q445.64-18.64 442.60-18.64L442.60-18.64Q439.20-18.64 437.22-16.62Q435.24-14.60 435.24-11.04L435.24-11.04L435.24 0L432.40 0L432.40-21.04L435.12-21.04L435.12-17.16Q436.28-19.08 438.34-20.14Q440.40-21.20 443.12-21.20L443.12-21.20Z M479.92-10.52L479.88-9.64L462.28-9.64Q462.52-6.36 464.80-4.34Q467.08-2.32 470.56-2.32L470.56-2.32Q472.52-2.32 474.16-3.02Q475.80-3.72 477.00-5.08L477.00-5.08L478.60-3.24Q477.20-1.56 475.10-0.68Q473.00 0.20 470.48 0.20L470.48 0.20Q467.24 0.20 464.74-1.18Q462.24-2.56 460.84-5Q459.44-7.44 459.44-10.52L459.44-10.52Q459.44-13.60 460.78-16.04Q462.12-18.48 464.46-19.84Q466.80-21.20 469.72-21.20L469.72-21.20Q472.64-21.20 474.96-19.84Q477.28-18.48 478.60-16.06Q479.92-13.64 479.92-10.52L479.92-10.52ZM469.72-18.76Q466.68-18.76 464.62-16.82Q462.56-14.88 462.28-11.76L462.28-11.76L477.20-11.76Q476.92-14.88 474.86-16.82Q472.80-18.76 469.72-18.76L469.72-18.76Z M493.36 0.20Q490.80 0.20 488.46-0.54Q486.12-1.28 484.80-2.40L484.80-2.40L486.08-4.64Q487.40-3.60 489.40-2.94Q491.40-2.28 493.56-2.28L493.56-2.28Q496.44-2.28 497.82-3.18Q499.20-4.08 499.20-5.72L499.20-5.72Q499.20-6.88 498.44-7.54Q497.68-8.20 496.52-8.54Q495.36-8.88 493.44-9.20L493.44-9.20Q490.88-9.68 489.32-10.18Q487.76-10.68 486.66-11.88Q485.56-13.08 485.56-15.20L485.56-15.20Q485.56-17.84 487.76-19.52Q489.96-21.20 493.88-21.20L493.88-21.20Q495.92-21.20 497.96-20.66Q500.00-20.12 501.32-19.24L501.32-19.24L500.08-16.96Q497.48-18.76 493.88-18.76L493.88-18.76Q491.16-18.76 489.78-17.80Q488.40-16.84 488.40-15.28L488.40-15.28Q488.40-14.08 489.18-13.36Q489.96-12.64 491.12-12.30Q492.28-11.96 494.32-11.60L494.32-11.60Q496.84-11.12 498.36-10.64Q499.88-10.16 500.96-9Q502.04-7.84 502.04-5.80L502.04-5.80Q502.04-3.04 499.74-1.42Q497.44 0.20 493.36 0.20L493.36 0.20Z M521.76 0L521.76-21.04L524.60-21.04L524.60 0L521.76 0ZM523.20-25.64Q522.32-25.64 521.72-26.24Q521.12-26.84 521.12-27.68L521.12-27.68Q521.12-28.48 521.72-29.08Q522.32-29.68 523.20-29.68L523.20-29.68Q524.08-29.68 524.68-29.10Q525.28-28.52 525.28-27.72L525.28-27.72Q525.28-26.84 524.68-26.24Q524.08-25.64 523.20-25.64L523.20-25.64Z M545.24-21.20Q549.20-21.20 551.54-18.90Q553.88-16.60 553.88-12.20L553.88-12.20L553.88 0L551.04 0L551.04-11.92Q551.04-15.20 549.40-16.92Q547.76-18.64 544.72-18.64L544.72-18.64Q541.32-18.64 539.34-16.62Q537.36-14.60 537.36-11.04L537.36-11.04L537.36 0L534.52 0L534.52-21.04L537.24-21.04L537.24-17.16Q538.40-19.08 540.46-20.14Q542.52-21.20 545.24-21.20L545.24-21.20Z M570.56-27.48Q568.72-27.48 567.78-26.48Q566.84-25.48 566.84-23.52L566.84-23.52L566.84-21.04L573.32-21.04L573.32-18.64L566.92-18.64L566.92 0L564.08 0L564.08-18.64L560.32-18.64L560.32-21.04L564.08-21.04L564.08-23.64Q564.08-26.52 565.74-28.20Q567.40-29.88 570.44-29.88L570.44-29.88Q571.64-29.88 572.76-29.54Q573.88-29.20 574.64-28.56L574.64-28.56L573.68-26.44Q572.44-27.48 570.56-27.48L570.56-27.48Z M587.40 0.20Q584.36 0.20 581.92-1.18Q579.48-2.56 578.08-5Q576.68-7.44 576.68-10.52L576.68-10.52Q576.68-13.60 578.08-16.04Q579.48-18.48 581.92-19.84Q584.36-21.20 587.40-21.20L587.40-21.20Q590.44-21.20 592.88-19.84Q595.32-18.48 596.70-16.04Q598.08-13.60 598.08-10.52L598.08-10.52Q598.08-7.44 596.70-5Q595.32-2.56 592.88-1.18Q590.44 0.20 587.40 0.20L587.40 0.20ZM587.40-2.32Q589.64-2.32 591.42-3.34Q593.20-4.36 594.20-6.24Q595.20-8.12 595.20-10.52L595.20-10.52Q595.20-12.92 594.20-14.80Q593.20-16.68 591.42-17.70Q589.64-18.72 587.40-18.72L587.40-18.72Q585.16-18.72 583.38-17.70Q581.60-16.68 580.58-14.80Q579.56-12.92 579.56-10.52L579.56-10.52Q579.56-8.12 580.58-6.24Q581.60-4.36 583.38-3.34Q585.16-2.32 587.40-2.32L587.40-2.32Z M608.60-16.92Q609.60-19.04 611.58-20.12Q613.56-21.20 616.48-21.20L616.48-21.20L616.48-18.44L615.80-18.48Q612.48-18.48 610.60-16.44Q608.72-14.40 608.72-10.72L608.72-10.72L608.72 0L605.88 0L605.88-21.04L608.60-21.04L608.60-16.92Z M649.84-21.20Q653.80-21.20 656.06-18.92Q658.32-16.64 658.32-12.20L658.32-12.20L658.32 0L655.48 0L655.48-11.92Q655.48-15.20 653.90-16.92Q652.32-18.64 649.44-18.64L649.44-18.64Q646.16-18.64 644.28-16.62Q642.40-14.60 642.40-11.04L642.40-11.04L642.40 0L639.56 0L639.56-11.92Q639.56-15.20 637.98-16.92Q636.40-18.64 633.48-18.64L633.48-18.64Q630.24-18.64 628.34-16.62Q626.44-14.60 626.44-11.04L626.44-11.04L626.44 0L623.60 0L623.60-21.04L626.32-21.04L626.32-17.20Q627.44-19.12 629.44-20.16Q631.44-21.20 634.04-21.20L634.04-21.20Q636.68-21.20 638.62-20.08Q640.56-18.96 641.52-16.76L641.52-16.76Q642.68-18.84 644.86-20.02Q647.04-21.20 649.84-21.20L649.84-21.20Z M675.40-21.20Q679.52-21.20 681.72-19.14Q683.92-17.08 683.92-13.04L683.92-13.04L683.92 0L681.20 0L681.20-3.28Q680.24-1.64 678.38-0.72Q676.52 0.20 673.96 0.20L673.96 0.20Q670.44 0.20 668.36-1.48Q666.28-3.16 666.28-5.92L666.28-5.92Q666.28-8.60 668.22-10.24Q670.16-11.88 674.40-11.88L674.40-11.88L681.08-11.88L681.08-13.16Q681.08-15.88 679.56-17.30Q678.04-18.72 675.12-18.72L675.12-18.72Q673.12-18.72 671.28-18.06Q669.44-17.40 668.12-16.24L668.12-16.24L666.84-18.36Q668.44-19.72 670.68-20.46Q672.92-21.20 675.40-21.20L675.40-21.20ZM674.40-2.04Q676.80-2.04 678.52-3.14Q680.24-4.24 681.08-6.32L681.08-6.32L681.08-9.76L674.48-9.76Q669.08-9.76 669.08-6L669.08-6Q669.08-4.16 670.48-3.10Q671.88-2.04 674.40-2.04L674.40-2.04ZM672.88-24.32L678.36-29.28L682.16-29.28L675.68-24.32L672.88-24.32Z M703.72-3.32L704.72-1.28Q703.92-0.56 702.74-0.18Q701.56 0.20 700.28 0.20L700.28 0.20Q697.32 0.20 695.72-1.40Q694.12-3 694.12-5.92L694.12-5.92L694.12-18.64L690.36-18.64L690.36-21.04L694.12-21.04L694.12-25.64L696.96-25.64L696.96-21.04L703.36-21.04L703.36-18.64L696.96-18.64L696.96-6.08Q696.96-4.20 697.90-3.22Q698.84-2.24 700.60-2.24L700.60-2.24Q701.48-2.24 702.30-2.52Q703.12-2.80 703.72-3.32L703.72-3.32Z M711.88 0L711.88-21.04L714.72-21.04L714.72 0L711.88 0ZM713.32-25.64Q712.44-25.64 711.84-26.24Q711.24-26.84 711.24-27.68L711.24-27.68Q711.24-28.48 711.84-29.08Q712.44-29.68 713.32-29.68L713.32-29.68Q714.20-29.68 714.80-29.10Q715.40-28.52 715.40-27.72L715.40-27.72Q715.40-26.84 714.80-26.24Q714.20-25.64 713.32-25.64L713.32-25.64Z M733.36 0.20Q730.24 0.20 727.78-1.16Q725.32-2.52 723.92-4.98Q722.52-7.44 722.52-10.52L722.52-10.52Q722.52-13.60 723.92-16.04Q725.32-18.48 727.78-19.84Q730.24-21.20 733.36-21.20L733.36-21.20Q736.08-21.20 738.22-20.14Q740.36-19.08 741.60-17.04L741.60-17.04L739.48-15.60Q738.44-17.16 736.84-17.94Q735.24-18.72 733.36-18.72L733.36-18.72Q731.08-18.72 729.26-17.70Q727.44-16.68 726.42-14.80Q725.40-12.92 725.40-10.52L725.40-10.52Q725.40-8.08 726.42-6.22Q727.44-4.36 729.26-3.34Q731.08-2.32 733.36-2.32L733.36-2.32Q735.24-2.32 736.84-3.08Q738.44-3.84 739.48-5.40L739.48-5.40L741.60-3.96Q740.36-1.92 738.20-0.86Q736.04 0.20 733.36 0.20L733.36 0.20Z M756.52-21.20Q760.64-21.20 762.84-19.14Q765.04-17.08 765.04-13.04L765.04-13.04L765.04 0L762.32 0L762.32-3.28Q761.36-1.64 759.50-0.72Q757.64 0.20 755.08 0.20L755.08 0.20Q751.56 0.20 749.48-1.48Q747.40-3.16 747.40-5.92L747.40-5.92Q747.40-8.60 749.34-10.24Q751.28-11.88 755.52-11.88L755.52-11.88L762.20-11.88L762.20-13.16Q762.20-15.88 760.68-17.30Q759.16-18.72 756.24-18.72L756.24-18.72Q754.24-18.72 752.40-18.06Q750.56-17.40 749.24-16.24L749.24-16.24L747.96-18.36Q749.56-19.72 751.80-20.46Q754.04-21.20 756.52-21.20L756.52-21.20ZM755.52-2.04Q757.92-2.04 759.64-3.14Q761.36-4.24 762.20-6.32L762.20-6.32L762.20-9.76L755.60-9.76Q750.20-9.76 750.20-6L750.20-6Q750.20-4.16 751.60-3.10Q753.00-2.04 755.52-2.04L755.52-2.04Z M780.40 0.20Q777.84 0.20 775.50-0.54Q773.16-1.28 771.84-2.40L771.84-2.40L773.12-4.64Q774.44-3.60 776.44-2.94Q778.44-2.28 780.60-2.28L780.60-2.28Q783.48-2.28 784.86-3.18Q786.24-4.08 786.24-5.72L786.24-5.72Q786.24-6.88 785.48-7.54Q784.72-8.20 783.56-8.54Q782.40-8.88 780.48-9.20L780.48-9.20Q777.92-9.68 776.36-10.18Q774.80-10.68 773.70-11.88Q772.60-13.08 772.60-15.20L772.60-15.20Q772.60-17.84 774.80-19.52Q777-21.20 780.92-21.20L780.92-21.20Q782.96-21.20 785-20.66Q787.04-20.12 788.36-19.24L788.36-19.24L787.12-16.96Q784.52-18.76 780.92-18.76L780.92-18.76Q778.20-18.76 776.82-17.80Q775.44-16.84 775.44-15.28L775.44-15.28Q775.44-14.08 776.22-13.36Q777-12.64 778.16-12.30Q779.32-11.96 781.36-11.60L781.36-11.60Q783.88-11.12 785.40-10.64Q786.92-10.16 788-9Q789.08-7.84 789.08-5.80L789.08-5.80Q789.08-3.04 786.78-1.42Q784.48 0.20 780.40 0.20L780.40 0.20Z"/></g>
</svg>
</g><g opacity="1" transform="rotate(0 118.8319 245.4954)">
<svg width="367.0046" height="60" x="118.8319" y="245.4954" version="1.1" preserveAspectRatio="none" viewBox="4.52 -30.4 188.64000000000001 30.839999999999996">
  <g transform="matrix(1 0 0 1 0 0)" class="companyName"><path id="id-D6z1nYkh12" d="M4.52 0L4.52-28.40L11.52-28.40Q16.72-28.40 20.14-26.28Q23.56-24.16 25.14-20.88Q26.72-17.60 26.72-14.04L26.72-14.04Q26.72-9.88 24.82-6.68Q22.92-3.48 19.74-1.74Q16.56 0 12.88 0L12.88 0L4.52 0ZM6.48-1.88L12.36-1.88Q15.80-1.88 18.62-3.38Q21.44-4.88 23.08-7.66Q24.72-10.44 24.72-14.16L24.72-14.16Q24.72-17.48 23.22-20.30Q21.72-23.12 18.80-24.80Q15.88-26.48 11.80-26.48L11.80-26.48L6.48-26.48L6.48-1.88Z M34.80-11.92Q35.64-13.80 37.56-14.92Q39.48-16.04 41.40-16.08L41.40-16.08L41.32-14.24Q39.56-14.24 38.08-13.46Q36.60-12.68 35.74-11.30Q34.88-9.92 34.88-8.28L34.88-8.28L34.88 0L33 0L33-15.64L34.64-15.64L34.80-11.92Z M43.36-1.36Q43.36-1.92 43.76-2.32Q44.16-2.72 44.68-2.72L44.68-2.72Q45.20-2.72 45.62-2.32Q46.04-1.92 46.04-1.36L46.04-1.36Q46.04-0.80 45.62-0.40Q45.20 0 44.68 0L44.68 0Q44.16 0 43.76-0.38Q43.36-0.76 43.36-1.36L43.36-1.36Z M78.84-25.20Q77.40-25.88 75.64-26.36Q73.88-26.84 72.20-26.84L72.20-26.84Q69.40-26.84 67.72-25.46Q66.04-24.08 66.04-21.92L66.04-21.92Q66.04-20.40 66.94-19.34Q67.84-18.28 69.24-17.58Q70.64-16.88 72.84-16.04L72.84-16.04Q75.24-15.16 76.82-14.24Q78.40-13.32 79.48-11.74Q80.56-10.16 80.56-7.68L80.56-7.68Q80.56-5.32 79.44-3.50Q78.32-1.68 76.30-0.68Q74.28 0.32 71.68 0.32L71.68 0.32Q67.16 0.32 62.72-2.60L62.72-2.60L63.64-4.20Q65.12-3.08 67.28-2.24Q69.44-1.40 71.48-1.40L71.48-1.40Q73.28-1.40 74.90-2.10Q76.52-2.80 77.54-4.22Q78.56-5.64 78.56-7.64L78.56-7.64Q78.56-9.52 77.62-10.80Q76.68-12.08 75.26-12.86Q73.84-13.64 71.68-14.44L71.68-14.44Q69.28-15.32 67.72-16.14Q66.16-16.96 65.10-18.32Q64.04-19.68 64.04-21.72L64.04-21.72Q64.04-23.72 65.06-25.26Q66.08-26.80 67.90-27.66Q69.72-28.52 71.96-28.56L71.96-28.56Q73.88-28.56 75.94-28.04Q78-27.52 79.60-26.72L79.60-26.72L78.84-25.20Z M85.40-7.92Q85.40-10.16 86.50-12.06Q87.60-13.96 89.52-15.06Q91.44-16.16 93.76-16.16L93.76-16.16Q96.08-16.16 98.00-15.06Q99.92-13.96 101.00-12.06Q102.08-10.16 102.08-7.92L102.08-7.92Q102.08-5.64 100.98-3.76Q99.88-1.88 97.98-0.78Q96.08 0.32 93.72 0.32L93.72 0.32Q91.36 0.32 89.46-0.74Q87.56-1.80 86.48-3.68Q85.40-5.56 85.40-7.92L85.40-7.92ZM87.28-7.88Q87.28-6.08 88.14-4.56Q89.00-3.04 90.48-2.16Q91.96-1.28 93.72-1.28L93.72-1.28Q95.48-1.28 96.96-2.16Q98.44-3.04 99.30-4.56Q100.16-6.08 100.16-7.88L100.16-7.88Q100.16-9.68 99.30-11.22Q98.44-12.76 96.96-13.64Q95.48-14.52 93.72-14.52L93.72-14.52Q91.92-14.52 90.44-13.58Q88.96-12.64 88.12-11.12Q87.28-9.60 87.28-7.88L87.28-7.88Z M107.68-30.40L109.56-30.40L109.56 0L107.68 0L107.68-30.40Z M128.04-15.64L129.92-15.64L129.92 0L128.24 0L128.12-3.32Q127.36-1.68 125.52-0.62Q123.68 0.44 121.60 0.44L121.60 0.44Q119.44 0.44 118.10-0.86Q116.76-2.16 116.68-4.24L116.68-4.24L116.68-15.64L118.56-15.64L118.56-4.80Q118.64-3.20 119.56-2.24Q120.48-1.28 122.24-1.20L122.24-1.20Q123.76-1.20 125.10-2Q126.44-2.80 127.24-4.20Q128.04-5.60 128.04-7.32L128.04-7.32L128.04-15.64Z M138.60-22.52L140.52-22.52L140.52-15.44L145.36-15.44L145.36-13.92L140.52-13.92L140.52 0L138.60 0L138.60-13.92L135.28-13.92L135.28-15.44L138.60-15.44L138.60-22.52Z M150.04-15.64L151.92-15.64L151.92 0L150.04 0L150.04-15.64ZM149.64-21.40Q149.64-21.96 150.06-22.34Q150.48-22.72 151.04-22.72L151.04-22.72Q151.60-22.72 152.00-22.34Q152.40-21.96 152.40-21.40L152.40-21.40Q152.40-20.80 152.00-20.42Q151.60-20.04 151.04-20.04L151.04-20.04Q150.48-20.04 150.06-20.44Q149.64-20.84 149.64-21.40L149.64-21.40Z M157.52-7.92Q157.52-10.16 158.62-12.06Q159.72-13.96 161.64-15.06Q163.56-16.16 165.88-16.16L165.88-16.16Q168.20-16.16 170.12-15.06Q172.04-13.96 173.12-12.06Q174.20-10.16 174.20-7.92L174.20-7.92Q174.20-5.64 173.10-3.76Q172.00-1.88 170.10-0.78Q168.20 0.32 165.84 0.32L165.84 0.32Q163.48 0.32 161.58-0.74Q159.68-1.80 158.60-3.68Q157.52-5.56 157.52-7.92L157.52-7.92ZM159.40-7.88Q159.40-6.08 160.26-4.56Q161.12-3.04 162.60-2.16Q164.08-1.28 165.84-1.28L165.84-1.28Q167.60-1.28 169.08-2.16Q170.56-3.04 171.42-4.56Q172.28-6.08 172.28-7.88L172.28-7.88Q172.28-9.68 171.42-11.22Q170.56-12.76 169.08-13.64Q167.60-14.52 165.84-14.52L165.84-14.52Q164.04-14.52 162.56-13.58Q161.08-12.64 160.24-11.12Q159.40-9.60 159.40-7.88L159.40-7.88Z M188.20-16.08Q190.36-16.08 191.72-14.78Q193.08-13.48 193.16-11.40L193.16-11.40L193.16 0L191.24 0L191.24-10.88Q191.16-12.44 190.24-13.42Q189.32-14.40 187.60-14.44L187.60-14.44Q186-14.44 184.66-13.68Q183.32-12.92 182.50-11.54Q181.68-10.16 181.68-8.40L181.68-8.40L181.68 0L179.80 0L179.80-15.64L181.44-15.64L181.60-12.16Q182.36-13.96 184.18-15.02Q186-16.08 188.20-16.08L188.20-16.08Z"/></g>
</svg>
</g></svg></svg>