<svg version="1.1" preserveAspectRatio="none" xmlns="http://www.w3.org/2000/svg" width="500" height="500" viewBox="0 0 500 500"><rect width="100%" height="100%" fill="#FFEB62" fill-opacity="1"/><svg viewBox="33.4263 -21.7385 405.3771 480.6063" width="280.8755821552901" height="333" x="109.5622px" y="83.5px" xmlns="http://www.w3.org/2000/svg" xmlns:xlink="http://www.w3.org/1999/xlink" preserveAspectRatio="none"><defs></defs><style>.companyName {fill:#262626;fill-opacity:1;}.icon1 {fill:#262626;fill-opacity:1;}.icon2 {fill:#FF7B04;fill-opacity:1;}.icon3 {fill:#928B53;fill-opacity:1;}.icon3-str {stroke:#928B53;stroke-opacity:1;}.text {fill:#262626;fill-opacity:1;}</style><g opacity="1" transform="rotate(0 45.5902 -21.7385)">
<svg width="381.0492" height="369.6063" x="45.5902" y="-21.7385" version="1.1" preserveAspectRatio="none" viewBox="3.497488260269165 4.879833221435547 93.01346588134766 90.22029113769531">
  <g transform="matrix(1 0 0 1 0 0)" class="icon1"><title>Artboard 21</title><path d="M81.27,51.46h-33a2.5,2.5,0,0,0-2.18,1.28,21.4,21.4,0,0,0,18.7,31.81h.18A21.39,21.39,0,0,0,83.46,52.75,2.5,2.5,0,0,0,81.27,51.46ZM64.9,79.56h-.14a16.4,16.4,0,0,1-15-23.1H79.73A16.39,16.39,0,0,1,64.9,79.56Z"></path><path d="M78.07,34.54a4.22,4.22,0,0,1-2.55-3.82v-12h.4a6.92,6.92,0,0,0,6.89-7.59,7.08,7.08,0,0,0-7.08-6.25H53.6a6.92,6.92,0,0,0-6.89,7.59,7.08,7.08,0,0,0,7.08,6.25H54V30.63a4.18,4.18,0,0,1-2.38,3.83,31.74,31.74,0,0,0-8.56,52.06,31.43,31.43,0,0,0,21.67,8.58q1.07,0,2.14-.07a31.74,31.74,0,0,0,11.2-60.49ZM91.46,64.88A26.74,26.74,0,1,1,53.69,39,9.19,9.19,0,0,0,59,30.63V16.25a2.5,2.5,0,0,0-2.5-2.5H53.79A2.07,2.07,0,0,1,51.69,12,1.92,1.92,0,0,1,53.6,9.91H75.73a2.07,2.07,0,0,1,2.1,1.72,1.92,1.92,0,0,1-1.91,2.12H73a2.5,2.5,0,0,0-2.5,2.5V30.72A9.29,9.29,0,0,0,76,39.07,26.65,26.65,0,0,1,91.46,64.88Z"></path><path d="M32.33,81.91a2.5,2.5,0,0,0-3.39,1,7,7,0,0,1-13.12-3.35V76h3.52a2.5,2.5,0,1,0,0-5H15.82V64.63h3.52a2.5,2.5,0,1,0,0-5H15.82V53.21h3.52a2.5,2.5,0,1,0,0-5H15.82V41.78h3.52a2.5,2.5,0,1,0,0-5H15.82V30.36h3.52a2.5,2.5,0,1,0,0-5H15.82V16.25a2.5,2.5,0,0,0-2.5-2.5H10.61A2.07,2.07,0,0,1,8.51,12a1.92,1.92,0,0,1,1.91-2.12H34.65a2.07,2.07,0,0,1,2.1,1.72,1.92,1.92,0,0,1-1.91,2.12h-2.9a2.5,2.5,0,0,0-2.5,2.5v26a2.5,2.5,0,0,0,5,0V18.75h.4a6.92,6.92,0,0,0,6.89-7.59,7.08,7.08,0,0,0-7.08-6.25H10.42A6.92,6.92,0,0,0,3.53,12.5a7.08,7.08,0,0,0,7.08,6.25h.21v60.8A12,12,0,0,0,33.33,85.3,2.5,2.5,0,0,0,32.33,81.91Z"></path></g>
</svg>
</g><g opacity="1" transform="rotate(0 33.4263 440.8678)">
<svg width="405.3771" height="18" x="33.4263" y="440.8678" version="1.1" preserveAspectRatio="none" viewBox="3.76 -30.88 876.52 38.92">
  <g transform="matrix(1 0 0 1 0 0)" class="text"><path id="id-6izo4zJp35" d="M3.76 0L3.76-28L8.96-28L8.96-4.40L23.60-4.40L23.60 0L3.76 0Z M40.64 0.28Q37.40 0.28 34.80-1.12Q32.20-2.52 30.74-5.02Q29.28-7.52 29.28-10.68L29.28-10.68Q29.28-13.84 30.74-16.32Q32.20-18.80 34.80-20.20Q37.40-21.60 40.64-21.60L40.64-21.60Q43.92-21.60 46.52-20.20Q49.12-18.80 50.58-16.32Q52.04-13.84 52.04-10.68L52.04-10.68Q52.04-7.52 50.58-5.02Q49.12-2.52 46.52-1.12Q43.92 0.28 40.64 0.28L40.64 0.28ZM40.64-4Q43.40-4 45.20-5.84Q47-7.68 47-10.68L47-10.68Q47-13.68 45.20-15.52Q43.40-17.36 40.64-17.36L40.64-17.36Q37.88-17.36 36.10-15.52Q34.32-13.68 34.32-10.68L34.32-10.68Q34.32-7.68 36.10-5.84Q37.88-4 40.64-4L40.64-4Z M102.84-21.60Q106.88-21.60 109.24-19.26Q111.60-16.92 111.60-12.24L111.60-12.24L111.60 0L106.60 0L106.60-11.60Q106.60-14.40 105.36-15.82Q104.12-17.24 101.80-17.24L101.80-17.24Q99.28-17.24 97.76-15.58Q96.24-13.92 96.24-10.84L96.24-10.84L96.24 0L91.24 0L91.24-11.60Q91.24-14.40 90.00-15.82Q88.76-17.24 86.44-17.24L86.44-17.24Q83.88-17.24 82.38-15.60Q80.88-13.96 80.88-10.84L80.88-10.84L80.88 0L75.88 0L75.88-21.36L80.64-21.36L80.64-18.64Q81.84-20.08 83.64-20.84Q85.44-21.60 87.64-21.60L87.64-21.60Q90.04-21.60 91.90-20.70Q93.76-19.80 94.84-18.04L94.84-18.04Q96.16-19.72 98.24-20.66Q100.32-21.60 102.84-21.60L102.84-21.60Z M142.28-10.56Q142.28-10.04 142.20-9.08L142.20-9.08L125.44-9.08Q125.88-6.72 127.74-5.34Q129.60-3.96 132.36-3.96L132.36-3.96Q135.88-3.96 138.16-6.28L138.16-6.28L140.84-3.20Q139.40-1.48 137.20-0.60Q135 0.28 132.24 0.28L132.24 0.28Q128.72 0.28 126.04-1.12Q123.36-2.52 121.90-5.02Q120.44-7.52 120.44-10.68L120.44-10.68Q120.44-13.80 121.86-16.30Q123.28-18.80 125.80-20.20Q128.32-21.60 131.48-21.60L131.48-21.60Q134.60-21.60 137.06-20.22Q139.52-18.84 140.90-16.34Q142.28-13.84 142.28-10.56L142.28-10.56ZM131.48-17.60Q129.08-17.60 127.42-16.18Q125.76-14.76 125.40-12.40L125.40-12.40L137.52-12.40Q137.20-14.72 135.56-16.16Q133.92-17.60 131.48-17.60L131.48-17.60Z M148.88 8.04Q145.72 8.04 144.08 6.80L144.08 6.80L145.52 3.08Q146.64 3.92 148.44 3.92L148.44 3.92Q149.84 3.92 150.58 3.06Q151.32 2.20 151.32 0.52L151.32 0.52L151.32-21.36L156.32-21.36L156.32 0.40Q156.32 3.96 154.36 6Q152.40 8.04 148.88 8.04L148.88 8.04ZM153.80-24.88Q152.44-24.88 151.52-25.74Q150.60-26.60 150.60-27.88L150.60-27.88Q150.60-29.16 151.52-30.02Q152.44-30.88 153.80-30.88L153.80-30.88Q155.16-30.88 156.08-30.06Q157-29.24 157-28L157-28Q157-26.68 156.10-25.78Q155.20-24.88 153.80-24.88L153.80-24.88Z M176.48 0.28Q173.24 0.28 170.64-1.12Q168.04-2.52 166.58-5.02Q165.12-7.52 165.12-10.68L165.12-10.68Q165.12-13.84 166.58-16.32Q168.04-18.80 170.64-20.20Q173.24-21.60 176.48-21.60L176.48-21.60Q179.76-21.60 182.36-20.20Q184.96-18.80 186.42-16.32Q187.88-13.84 187.88-10.68L187.88-10.68Q187.88-7.52 186.42-5.02Q184.96-2.52 182.36-1.12Q179.76 0.28 176.48 0.28L176.48 0.28ZM176.48-4Q179.24-4 181.04-5.84Q182.84-7.68 182.84-10.68L182.84-10.68Q182.84-13.68 181.04-15.52Q179.24-17.36 176.48-17.36L176.48-17.36Q173.72-17.36 171.94-15.52Q170.16-13.68 170.16-10.68L170.16-10.68Q170.16-7.68 171.94-5.84Q173.72-4 176.48-4L176.48-4Z M201.44-18.24Q203.60-21.60 209.04-21.60L209.04-21.60L209.04-16.84Q208.40-16.96 207.88-16.96L207.88-16.96Q204.96-16.96 203.32-15.26Q201.68-13.56 201.68-10.36L201.68-10.36L201.68 0L196.68 0L196.68-21.36L201.44-21.36L201.44-18.24Z M252.60-10.56Q252.60-10.04 252.52-9.08L252.52-9.08L235.76-9.08Q236.20-6.72 238.06-5.34Q239.92-3.96 242.68-3.96L242.68-3.96Q246.20-3.96 248.48-6.28L248.48-6.28L251.16-3.20Q249.72-1.48 247.52-0.60Q245.32 0.28 242.56 0.28L242.56 0.28Q239.04 0.28 236.36-1.12Q233.68-2.52 232.22-5.02Q230.76-7.52 230.76-10.68L230.76-10.68Q230.76-13.80 232.18-16.30Q233.60-18.80 236.12-20.20Q238.64-21.60 241.80-21.60L241.80-21.60Q244.92-21.60 247.38-20.22Q249.84-18.84 251.22-16.34Q252.60-13.84 252.60-10.56L252.60-10.56ZM241.80-17.60Q239.40-17.60 237.74-16.18Q236.08-14.76 235.72-12.40L235.72-12.40L247.84-12.40Q247.52-14.72 245.88-16.16Q244.24-17.60 241.80-17.60L241.80-17.60Z M273.52-21.60Q277.56-21.60 280-19.24Q282.44-16.88 282.44-12.24L282.44-12.24L282.44 0L277.44 0L277.44-11.60Q277.44-14.40 276.12-15.82Q274.80-17.24 272.36-17.24L272.36-17.24Q269.60-17.24 268-15.58Q266.40-13.92 266.40-10.80L266.40-10.80L266.40 0L261.40 0L261.40-21.36L266.16-21.36L266.16-18.60Q267.40-20.08 269.28-20.84Q271.16-21.60 273.52-21.60L273.52-21.60Z M314.44 0.28Q311.84 0.28 309.36-0.40Q306.88-1.08 305.40-2.12L305.40-2.12L307.32-5.92Q308.76-4.96 310.78-4.38Q312.80-3.80 314.76-3.80L314.76-3.80Q319.24-3.80 319.24-6.16L319.24-6.16Q319.24-7.28 318.10-7.72Q316.96-8.16 314.44-8.56L314.44-8.56Q311.80-8.96 310.14-9.48Q308.48-10 307.26-11.30Q306.04-12.60 306.04-14.92L306.04-14.92Q306.04-17.96 308.58-19.78Q311.12-21.60 315.44-21.60L315.44-21.60Q317.64-21.60 319.84-21.10Q322.04-20.60 323.44-19.76L323.44-19.76L321.52-15.96Q318.80-17.56 315.40-17.56L315.40-17.56Q313.20-17.56 312.06-16.90Q310.92-16.24 310.92-15.16L310.92-15.16Q310.92-13.96 312.14-13.46Q313.36-12.96 315.92-12.52L315.92-12.52Q318.48-12.12 320.12-11.60Q321.76-11.08 322.94-9.84Q324.12-8.60 324.12-6.32L324.12-6.32Q324.12-3.32 321.52-1.52Q318.92 0.28 314.44 0.28L314.44 0.28Z M342.04 0.28Q338.80 0.28 336.20-1.12Q333.60-2.52 332.14-5.02Q330.68-7.52 330.68-10.68L330.68-10.68Q330.68-13.84 332.14-16.32Q333.60-18.80 336.20-20.20Q338.80-21.60 342.04-21.60L342.04-21.60Q345.32-21.60 347.92-20.20Q350.52-18.80 351.98-16.32Q353.44-13.84 353.44-10.68L353.44-10.68Q353.44-7.52 351.98-5.02Q350.52-2.52 347.92-1.12Q345.32 0.28 342.04 0.28L342.04 0.28ZM342.04-4Q344.80-4 346.60-5.84Q348.40-7.68 348.40-10.68L348.40-10.68Q348.40-13.68 346.60-15.52Q344.80-17.36 342.04-17.36L342.04-17.36Q339.28-17.36 337.50-15.52Q335.72-13.68 335.72-10.68L335.72-10.68Q335.72-7.68 337.50-5.84Q339.28-4 342.04-4L342.04-4Z M362.24 0L362.24-29.68L367.24-29.68L367.24 0L362.24 0Z M393.48-21.36L398.48-21.36L398.48 0L393.72 0L393.72-2.72Q392.52-1.28 390.72-0.50Q388.92 0.28 386.84 0.28L386.84 0.28Q382.56 0.28 380.10-2.10Q377.64-4.48 377.64-9.16L377.64-9.16L377.64-21.36L382.64-21.36L382.64-9.84Q382.64-6.96 383.94-5.54Q385.24-4.12 387.64-4.12L387.64-4.12Q390.32-4.12 391.90-5.78Q393.48-7.44 393.48-10.56L393.48-10.56L393.48-21.36Z M418.84 0.28Q415.52 0.28 412.88-1.12Q410.24-2.52 408.76-5.02Q407.28-7.52 407.28-10.68L407.28-10.68Q407.28-13.84 408.76-16.32Q410.24-18.80 412.86-20.20Q415.48-21.60 418.84-21.60L418.84-21.60Q422.00-21.60 424.38-20.32Q426.76-19.04 427.96-16.64L427.96-16.64L424.12-14.40Q423.20-15.88 421.82-16.62Q420.44-17.36 418.80-17.36L418.80-17.36Q416.00-17.36 414.16-15.54Q412.32-13.72 412.32-10.68L412.32-10.68Q412.32-7.64 414.14-5.82Q415.96-4 418.80-4L418.80-4Q420.44-4 421.82-4.74Q423.20-5.48 424.12-6.96L424.12-6.96L427.96-4.72Q426.72-2.32 424.34-1.02Q421.96 0.28 418.84 0.28L418.84 0.28Z M436.28 0L436.28-21.36L441.28-21.36L441.28 0L436.28 0ZM438.80-24.88Q437.44-24.88 436.52-25.74Q435.60-26.60 435.60-27.88L435.60-27.88Q435.60-29.16 436.52-30.02Q437.44-30.88 438.80-30.88L438.80-30.88Q440.16-30.88 441.08-30.06Q442.00-29.24 442.00-28L442.00-28Q442.00-26.68 441.10-25.78Q440.20-24.88 438.80-24.88L438.80-24.88Z M461.44 0.28Q458.20 0.28 455.60-1.12Q453.00-2.52 451.54-5.02Q450.08-7.52 450.08-10.68L450.08-10.68Q450.08-13.84 451.54-16.32Q453.00-18.80 455.60-20.20Q458.20-21.60 461.44-21.60L461.44-21.60Q464.72-21.60 467.32-20.20Q469.92-18.80 471.38-16.32Q472.84-13.84 472.84-10.68L472.84-10.68Q472.84-7.52 471.38-5.02Q469.92-2.52 467.32-1.12Q464.72 0.28 461.44 0.28L461.44 0.28ZM461.44-4Q464.20-4 466.00-5.84Q467.80-7.68 467.80-10.68L467.80-10.68Q467.80-13.68 466.00-15.52Q464.20-17.36 461.44-17.36L461.44-17.36Q458.68-17.36 456.90-15.52Q455.12-13.68 455.12-10.68L455.12-10.68Q455.12-7.68 456.90-5.84Q458.68-4 461.44-4L461.44-4Z M493.76-21.60Q497.80-21.60 500.24-19.24Q502.68-16.88 502.68-12.24L502.68-12.24L502.68 0L497.68 0L497.68-11.60Q497.68-14.40 496.36-15.82Q495.04-17.24 492.60-17.24L492.60-17.24Q489.84-17.24 488.24-15.58Q486.64-13.92 486.64-10.80L486.64-10.80L486.64 0L481.64 0L481.64-21.36L486.40-21.36L486.40-18.60Q487.64-20.08 489.52-20.84Q491.40-21.60 493.76-21.60L493.76-21.60Z M533.32-10.56Q533.32-10.04 533.24-9.08L533.24-9.08L516.48-9.08Q516.92-6.72 518.78-5.34Q520.64-3.96 523.40-3.96L523.40-3.96Q526.92-3.96 529.20-6.28L529.20-6.28L531.88-3.20Q530.44-1.48 528.24-0.60Q526.04 0.28 523.28 0.28L523.28 0.28Q519.76 0.28 517.08-1.12Q514.40-2.52 512.94-5.02Q511.48-7.52 511.48-10.68L511.48-10.68Q511.48-13.80 512.90-16.30Q514.32-18.80 516.84-20.20Q519.36-21.60 522.52-21.60L522.52-21.60Q525.64-21.60 528.10-20.22Q530.56-18.84 531.94-16.34Q533.32-13.84 533.32-10.56L533.32-10.56ZM522.52-17.60Q520.12-17.60 518.46-16.18Q516.80-14.76 516.44-12.40L516.44-12.40L528.56-12.40Q528.24-14.72 526.60-16.16Q524.96-17.60 522.52-17.60L522.52-17.60Z M548.72 0.28Q546.12 0.28 543.64-0.40Q541.16-1.08 539.68-2.12L539.68-2.12L541.60-5.92Q543.04-4.96 545.06-4.38Q547.08-3.80 549.04-3.80L549.04-3.80Q553.52-3.80 553.52-6.16L553.52-6.16Q553.52-7.28 552.38-7.72Q551.24-8.16 548.72-8.56L548.72-8.56Q546.08-8.96 544.42-9.48Q542.76-10 541.54-11.30Q540.32-12.60 540.32-14.92L540.32-14.92Q540.32-17.96 542.86-19.78Q545.40-21.60 549.72-21.60L549.72-21.60Q551.92-21.60 554.12-21.10Q556.32-20.60 557.72-19.76L557.72-19.76L555.80-15.96Q553.08-17.56 549.68-17.56L549.68-17.56Q547.48-17.56 546.34-16.90Q545.20-16.24 545.20-15.16L545.20-15.16Q545.20-13.96 546.42-13.46Q547.64-12.96 550.20-12.52L550.20-12.52Q552.76-12.12 554.40-11.60Q556.04-11.08 557.22-9.84Q558.40-8.60 558.40-6.32L558.40-6.32Q558.40-3.32 555.80-1.52Q553.20 0.28 548.72 0.28L548.72 0.28Z M581.76 0L581.76-21.36L586.76-21.36L586.76 0L581.76 0ZM584.28-24.88Q582.92-24.88 582-25.74Q581.08-26.60 581.08-27.88L581.08-27.88Q581.08-29.16 582-30.02Q582.92-30.88 584.28-30.88L584.28-30.88Q585.64-30.88 586.56-30.06Q587.48-29.24 587.48-28L587.48-28Q587.48-26.68 586.58-25.78Q585.68-24.88 584.28-24.88L584.28-24.88Z M609.44-21.60Q613.48-21.60 615.92-19.24Q618.36-16.88 618.36-12.24L618.36-12.24L618.36 0L613.36 0L613.36-11.60Q613.36-14.40 612.04-15.82Q610.72-17.24 608.28-17.24L608.28-17.24Q605.52-17.24 603.92-15.58Q602.32-13.92 602.32-10.80L602.32-10.80L602.32 0L597.32 0L597.32-21.36L602.08-21.36L602.08-18.60Q603.32-20.08 605.20-20.84Q607.08-21.60 609.44-21.60L609.44-21.60Z M637.40-25.92Q634.24-25.92 634.24-22.48L634.24-22.48L634.24-21.20L640.12-21.20L640.12-17.20L634.40-17.20L634.40 0L629.40 0L629.40-17.20L625.88-17.20L625.88-21.20L629.40-21.20L629.40-22.56Q629.40-26 631.40-27.98Q633.40-29.96 637.04-29.96L637.04-29.96Q639.92-29.96 641.56-28.80L641.56-28.80L640.16-25.04Q638.88-25.92 637.40-25.92L637.40-25.92Z M656.76 0.28Q653.52 0.28 650.92-1.12Q648.32-2.52 646.86-5.02Q645.40-7.52 645.40-10.68L645.40-10.68Q645.40-13.84 646.86-16.32Q648.32-18.80 650.92-20.20Q653.52-21.60 656.76-21.60L656.76-21.60Q660.04-21.60 662.64-20.20Q665.24-18.80 666.70-16.32Q668.16-13.84 668.16-10.68L668.16-10.68Q668.16-7.52 666.70-5.02Q665.24-2.52 662.64-1.12Q660.04 0.28 656.76 0.28L656.76 0.28ZM656.76-4Q659.52-4 661.32-5.84Q663.12-7.68 663.12-10.68L663.12-10.68Q663.12-13.68 661.32-15.52Q659.52-17.36 656.76-17.36L656.76-17.36Q654.00-17.36 652.22-15.52Q650.44-13.68 650.44-10.68L650.44-10.68Q650.44-7.68 652.22-5.84Q654.00-4 656.76-4L656.76-4Z M681.72-18.24Q683.88-21.60 689.32-21.60L689.32-21.60L689.32-16.84Q688.68-16.96 688.16-16.96L688.16-16.96Q685.24-16.96 683.60-15.26Q681.96-13.56 681.96-10.36L681.96-10.36L681.96 0L676.96 0L676.96-21.36L681.72-21.36L681.72-18.24Z M724.52-21.60Q728.56-21.60 730.92-19.26Q733.28-16.92 733.28-12.24L733.28-12.24L733.28 0L728.28 0L728.28-11.60Q728.28-14.40 727.04-15.82Q725.80-17.24 723.48-17.24L723.48-17.24Q720.96-17.24 719.44-15.58Q717.92-13.92 717.92-10.84L717.92-10.84L717.92 0L712.92 0L712.92-11.60Q712.92-14.40 711.68-15.82Q710.44-17.24 708.12-17.24L708.12-17.24Q705.56-17.24 704.06-15.60Q702.56-13.96 702.56-10.84L702.56-10.84L702.56 0L697.56 0L697.56-21.36L702.32-21.36L702.32-18.64Q703.52-20.08 705.32-20.84Q707.12-21.60 709.32-21.60L709.32-21.60Q711.72-21.60 713.58-20.70Q715.44-19.80 716.52-18.04L716.52-18.04Q717.84-19.72 719.92-20.66Q722.00-21.60 724.52-21.60L724.52-21.60Z M751.84-21.60Q756.56-21.60 759.06-19.34Q761.56-17.08 761.56-12.52L761.56-12.52L761.56 0L756.84 0L756.84-2.60Q755.92-1.20 754.22-0.46Q752.52 0.28 750.12 0.28L750.12 0.28Q747.72 0.28 745.92-0.54Q744.12-1.36 743.14-2.82Q742.16-4.28 742.16-6.12L742.16-6.12Q742.16-9 744.30-10.74Q746.44-12.48 751.04-12.48L751.04-12.48L756.56-12.48L756.56-12.80Q756.56-15.04 755.22-16.24Q753.88-17.44 751.24-17.44L751.24-17.44Q749.44-17.44 747.70-16.88Q745.96-16.32 744.76-15.32L744.76-15.32L742.80-18.96Q744.48-20.24 746.84-20.92Q749.20-21.60 751.84-21.60L751.84-21.60ZM751.16-3.36Q753.04-3.36 754.50-4.22Q755.96-5.08 756.56-6.68L756.56-6.68L756.56-9.16L751.40-9.16Q747.08-9.16 747.08-6.32L747.08-6.32Q747.08-4.96 748.16-4.16Q749.24-3.36 751.16-3.36L751.16-3.36ZM748.92-24.28L754.32-29.76L760.20-29.76L753.24-24.28L748.92-24.28Z M783.40-4.72L784.80-1.16Q783.92-0.44 782.66-0.08Q781.40 0.28 780.00 0.28L780.00 0.28Q776.48 0.28 774.56-1.56Q772.64-3.40 772.64-6.92L772.64-6.92L772.64-17.20L769.12-17.20L769.12-21.20L772.64-21.20L772.64-26.08L777.64-26.08L777.64-21.20L783.36-21.20L783.36-17.20L777.64-17.20L777.64-7.04Q777.64-5.48 778.40-4.66Q779.16-3.84 780.60-3.84L780.60-3.84Q782.28-3.84 783.40-4.72L783.40-4.72Z M792.92 0L792.92-21.36L797.92-21.36L797.92 0L792.92 0ZM795.44-24.88Q794.08-24.88 793.16-25.74Q792.24-26.60 792.24-27.88L792.24-27.88Q792.24-29.16 793.16-30.02Q794.08-30.88 795.44-30.88L795.44-30.88Q796.80-30.88 797.72-30.06Q798.64-29.24 798.64-28L798.64-28Q798.64-26.68 797.74-25.78Q796.84-24.88 795.44-24.88L795.44-24.88Z M818.28 0.28Q814.96 0.28 812.32-1.12Q809.68-2.52 808.20-5.02Q806.72-7.52 806.72-10.68L806.72-10.68Q806.72-13.84 808.20-16.32Q809.68-18.80 812.30-20.20Q814.92-21.60 818.28-21.60L818.28-21.60Q821.44-21.60 823.82-20.32Q826.20-19.04 827.40-16.64L827.40-16.64L823.56-14.40Q822.64-15.88 821.26-16.62Q819.88-17.36 818.24-17.36L818.24-17.36Q815.44-17.36 813.60-15.54Q811.76-13.72 811.76-10.68L811.76-10.68Q811.76-7.64 813.58-5.82Q815.40-4 818.24-4L818.24-4Q819.88-4 821.26-4.74Q822.64-5.48 823.56-6.96L823.56-6.96L827.40-4.72Q826.16-2.32 823.78-1.02Q821.40 0.28 818.28 0.28L818.28 0.28Z M843.88-21.60Q848.60-21.60 851.10-19.34Q853.60-17.08 853.60-12.52L853.60-12.52L853.60 0L848.88 0L848.88-2.60Q847.96-1.20 846.26-0.46Q844.56 0.28 842.16 0.28L842.16 0.28Q839.76 0.28 837.96-0.54Q836.16-1.36 835.18-2.82Q834.20-4.28 834.20-6.12L834.20-6.12Q834.20-9 836.34-10.74Q838.48-12.48 843.08-12.48L843.08-12.48L848.60-12.48L848.60-12.80Q848.60-15.04 847.26-16.24Q845.92-17.44 843.28-17.44L843.28-17.44Q841.48-17.44 839.74-16.88Q838.00-16.32 836.80-15.32L836.80-15.32L834.84-18.96Q836.52-20.24 838.88-20.92Q841.24-21.60 843.88-21.60L843.88-21.60ZM843.20-3.36Q845.08-3.36 846.54-4.22Q848.00-5.08 848.60-6.68L848.60-6.68L848.60-9.16L843.44-9.16Q839.12-9.16 839.12-6.32L839.12-6.32Q839.12-4.96 840.20-4.16Q841.28-3.36 843.20-3.36L843.20-3.36Z M870.60 0.28Q868.00 0.28 865.52-0.40Q863.04-1.08 861.56-2.12L861.56-2.12L863.48-5.92Q864.92-4.96 866.94-4.38Q868.96-3.80 870.92-3.80L870.92-3.80Q875.40-3.80 875.40-6.16L875.40-6.16Q875.40-7.28 874.26-7.72Q873.12-8.16 870.60-8.56L870.60-8.56Q867.96-8.96 866.30-9.48Q864.64-10 863.42-11.30Q862.20-12.60 862.20-14.92L862.20-14.92Q862.20-17.96 864.74-19.78Q867.28-21.60 871.60-21.60L871.60-21.60Q873.80-21.60 876.00-21.10Q878.20-20.60 879.60-19.76L879.60-19.76L877.68-15.96Q874.96-17.56 871.56-17.56L871.56-17.56Q869.36-17.56 868.22-16.90Q867.08-16.24 867.08-15.16L867.08-15.16Q867.08-13.96 868.30-13.46Q869.52-12.96 872.08-12.52L872.08-12.52Q874.64-12.12 876.28-11.60Q877.92-11.08 879.10-9.84Q880.28-8.60 880.28-6.32L880.28-6.32Q880.28-3.32 877.68-1.52Q875.08 0.28 870.60 0.28L870.60 0.28Z"/></g>
</svg>
</g><g opacity="1" transform="rotate(0 45.5902 387.8678)">
<svg width="381.0492" height="36" x="45.5902" y="387.8678" version="1.1" preserveAspectRatio="none" viewBox="0.08 -28.64 309.92 29.28">
  <g transform="matrix(1 0 0 1 0 0)" class="companyName"><path id="id-D6z1nYkh12" d="M0.08 0L5.68-28L18.32-28Q22.72-28 25.94-26.56Q29.16-25.12 30.88-22.44Q32.60-19.76 32.60-16.12L32.60-16.12Q32.60-11.28 30.36-7.62Q28.12-3.96 24.14-1.98Q20.16 0 15.08 0L15.08 0L0.08 0ZM11-7.36L15.40-7.36Q19.04-7.36 21.06-9.66Q23.08-11.96 23.08-15.56L23.08-15.56Q23.08-18 21.58-19.32Q20.08-20.64 17.24-20.64L17.24-20.64L13.64-20.64L11-7.36Z M62.92-18.80Q62.92-15.08 60.94-12.30Q58.96-9.52 55.36-8.16L55.36-8.16L60.04 0L50.24 0L46.28-7.04L43.96-7.04L42.56 0L33.12 0L38.72-28L51.28-28Q56.80-28 59.86-25.58Q62.92-23.16 62.92-18.80L62.92-18.80ZM53.36-17.88Q53.36-20.72 49.84-20.72L49.84-20.72L46.68-20.72L45.36-14.16L49.24-14.16Q51.20-14.16 52.28-15.14Q53.36-16.12 53.36-17.88L53.36-17.88Z M67.32 0.40Q65.12 0.40 63.74-0.94Q62.36-2.28 62.36-4.36L62.36-4.36Q62.36-6.84 64-8.38Q65.64-9.92 68.04-9.92L68.04-9.92Q70.24-9.92 71.60-8.60Q72.96-7.28 72.96-5.16L72.96-5.16Q72.96-2.68 71.32-1.14Q69.68 0.40 67.32 0.40L67.32 0.40Z M98.20 0.64Q94.56 0.64 91.36-0.14Q88.16-0.92 86.08-2.20L86.08-2.20L89.72-9.16Q94.24-6.56 99.16-6.56L99.16-6.56Q100.96-6.56 101.92-7Q102.88-7.44 102.88-8.20L102.88-8.20Q102.88-8.92 101.90-9.36Q100.92-9.80 98.80-10.32L98.80-10.32Q96-11.04 94.16-11.78Q92.32-12.52 90.94-14.06Q89.56-15.60 89.56-18.12L89.56-18.12Q89.56-21.28 91.26-23.66Q92.96-26.04 96.16-27.34Q99.36-28.64 103.72-28.64L103.72-28.64Q106.84-28.64 109.54-28.02Q112.24-27.40 114.20-26.24L114.20-26.24L110.80-19.36Q109.16-20.40 107.18-20.92Q105.20-21.44 103.12-21.44L103.12-21.44Q101.16-21.44 100.08-20.88Q99-20.32 99-19.56L99-19.56Q99-18.80 99.98-18.36Q100.96-17.92 103.20-17.40L103.20-17.40Q105.92-16.76 107.78-16.04Q109.64-15.32 111-13.80Q112.36-12.28 112.36-9.80L112.36-9.80Q112.36-6.68 110.64-4.32Q108.92-1.96 105.72-0.66Q102.52 0.64 98.20 0.64L98.20 0.64Z M129.12 0.64Q124.84 0.64 121.62-0.94Q118.40-2.52 116.66-5.36Q114.92-8.20 114.92-11.88L114.92-11.88Q114.92-16.76 117.18-20.58Q119.44-24.40 123.46-26.52Q127.48-28.64 132.56-28.64L132.56-28.64Q136.84-28.64 140.06-27.06Q143.28-25.48 145.02-22.64Q146.76-19.80 146.76-16.12L146.76-16.12Q146.76-11.24 144.50-7.42Q142.24-3.60 138.22-1.48Q134.20 0.64 129.12 0.64L129.12 0.64ZM129.92-7Q132.16-7 133.82-8.16Q135.48-9.32 136.36-11.28Q137.24-13.24 137.24-15.56L137.24-15.56Q137.24-18.04 135.78-19.52Q134.32-21 131.76-21L131.76-21Q129.52-21 127.86-19.84Q126.20-18.68 125.32-16.72Q124.44-14.76 124.44-12.44L124.44-12.44Q124.44-9.96 125.90-8.48Q127.36-7 129.92-7L129.92-7Z M147.28 0L152.88-28L162.32-28L158.20-7.32L170.84-7.32L169.36 0L147.28 0Z M185.88 0.64Q182.12 0.64 179.38-0.62Q176.64-1.88 175.18-4.20Q173.72-6.52 173.72-9.64L173.72-9.64Q173.72-10.92 174.04-12.60L174.04-12.60L177.12-28L186.56-28L183.52-12.76Q183.28-11.64 183.28-10.72L183.28-10.72Q183.28-8.84 184.24-7.92Q185.20-7 187.04-7L187.04-7Q189.12-7 190.28-8.32Q191.44-9.64 192.08-12.76L192.08-12.76L195.12-28L204.40-28L201.24-12.20Q199.96-5.84 196.12-2.60Q192.28 0.64 185.88 0.64L185.88 0.64Z M208.80 0L212.92-20.68L204.72-20.68L206.20-28L232.04-28L230.56-20.68L222.36-20.68L218.24 0L208.80 0Z M228.88 0L234.48-28L243.92-28L238.32 0L228.88 0Z M258.64 0.64Q254.36 0.64 251.14-0.94Q247.92-2.52 246.18-5.36Q244.44-8.20 244.44-11.88L244.44-11.88Q244.44-16.76 246.70-20.58Q248.96-24.40 252.98-26.52Q257-28.64 262.08-28.64L262.08-28.64Q266.36-28.64 269.58-27.06Q272.80-25.48 274.54-22.64Q276.28-19.80 276.28-16.12L276.28-16.12Q276.28-11.24 274.02-7.42Q271.76-3.60 267.74-1.48Q263.72 0.64 258.64 0.64L258.64 0.64ZM259.44-7Q261.68-7 263.34-8.16Q265-9.32 265.88-11.28Q266.76-13.24 266.76-15.56L266.76-15.56Q266.76-18.04 265.30-19.52Q263.84-21 261.28-21L261.28-21Q259.04-21 257.38-19.84Q255.72-18.68 254.84-16.72Q253.96-14.76 253.96-12.44L253.96-12.44Q253.96-9.96 255.42-8.48Q256.88-7 259.44-7L259.44-7Z M300.80-28L310-28L304.40 0L296.64 0L288.60-13.04L286 0L276.80 0L282.40-28L290.16-28L298.20-14.96L300.80-28Z"/></g>
</svg>
</g></svg></svg>