<svg version="1.1" preserveAspectRatio="none" xmlns="http://www.w3.org/2000/svg" width="500" height="500" viewBox="0 0 500 500"><rect width="100%" height="100%" fill="#1A244D" fill-opacity="1"/><svg viewBox="923.8997 780.3534 541.6596 154" width="333" height="94.67569669216607" x="83.5px" y="202.6622px" xmlns="http://www.w3.org/2000/svg" xmlns:xlink="http://www.w3.org/1999/xlink" preserveAspectRatio="none"><defs></defs><style>.background {fill:#1A244D;fill-opacity:1;}.icon1 {fill:#FFCC57;fill-opacity:1;}.icon1-str {stroke:#FFCC57;stroke-opacity:1;}.icon2 {fill:#3EA0C0;fill-opacity:1;}.icon3 {fill:#0AF9FF;fill-opacity:0.95;}.icon3-str {stroke:#0AF9FF;stroke-opacity:0.95;}</style><g opacity="1" transform="rotate(0 1029.8996 780.3534)">
<svg width="435.6597" height="110" x="1029.8996" y="780.3534" version="1.1" preserveAspectRatio="none" viewBox="0 0 435.6597 110">
  <defs><rect x="0" y="0" width="435.6597" height="110" rx="0px" ry="0px" id="id-B7crM0kCi1684634705249"></rect></defs><use class="icon1 icon3-str" style="stroke-width:0;" xlink:href="#id-B7crM0kCi1684634705249"></use>
</svg>
</g><g opacity="1" transform="rotate(0 986.8631 914.3534)">
<svg width="415.7328" height="20" x="986.8631" y="914.3534" version="1.1" preserveAspectRatio="none" viewBox="4.2 -30.28 795.7199999999999 38.28">
  <g transform="matrix(1 0 0 1 0 0)" class="icon1"><path id="id-6izo4zJp35" d="M4.20 0L4.20-28L8.20-28L8.20-3.48L23.36-3.48L23.36 0L4.20 0Z M38.20 0.24Q35.04 0.24 32.52-1.16Q30-2.56 28.58-5.02Q27.16-7.48 27.16-10.60L27.16-10.60Q27.16-13.72 28.58-16.18Q30-18.64 32.52-20.02Q35.04-21.40 38.20-21.40L38.20-21.40Q41.36-21.40 43.86-20.02Q46.36-18.64 47.78-16.18Q49.20-13.72 49.20-10.60L49.20-10.60Q49.20-7.48 47.78-5.02Q46.36-2.56 43.86-1.16Q41.36 0.24 38.20 0.24L38.20 0.24ZM38.20-3.12Q40.24-3.12 41.86-4.06Q43.48-5 44.40-6.70Q45.32-8.40 45.32-10.60L45.32-10.60Q45.32-12.80 44.40-14.50Q43.48-16.20 41.86-17.12Q40.24-18.04 38.20-18.04L38.20-18.04Q36.16-18.04 34.54-17.12Q32.92-16.20 31.98-14.50Q31.04-12.80 31.04-10.60L31.04-10.60Q31.04-8.40 31.98-6.70Q32.92-5 34.54-4.06Q36.16-3.12 38.20-3.12L38.20-3.12Z M95.80-21.40Q99.80-21.40 102.14-19.08Q104.48-16.76 104.48-12.20L104.48-12.20L104.48 0L100.64 0L100.64-11.76Q100.64-14.84 99.22-16.40Q97.80-17.96 95.16-17.96L95.16-17.96Q92.24-17.96 90.52-16.14Q88.80-14.32 88.80-10.92L88.80-10.92L88.80 0L84.96 0L84.96-11.76Q84.96-14.84 83.54-16.40Q82.12-17.96 79.48-17.96L79.48-17.96Q76.56-17.96 74.84-16.14Q73.12-14.32 73.12-10.92L73.12-10.92L73.12 0L69.28 0L69.28-21.20L72.96-21.20L72.96-18.04Q74.12-19.68 76-20.54Q77.88-21.40 80.28-21.40L80.28-21.40Q82.76-21.40 84.68-20.40Q86.60-19.40 87.64-17.48L87.64-17.48Q88.84-19.32 90.98-20.36Q93.12-21.40 95.80-21.40L95.80-21.40Z M132.84-10.48Q132.84-10.04 132.76-9.32L132.76-9.32L115.56-9.32Q115.92-6.52 118.02-4.82Q120.12-3.12 123.24-3.12L123.24-3.12Q127.04-3.12 129.36-5.68L129.36-5.68L131.48-3.20Q130.04-1.52 127.90-0.64Q125.76 0.24 123.12 0.24L123.12 0.24Q119.76 0.24 117.16-1.14Q114.56-2.52 113.14-5Q111.72-7.48 111.72-10.60L111.72-10.60Q111.72-13.68 113.10-16.16Q114.48-18.64 116.90-20.02Q119.32-21.40 122.36-21.40L122.36-21.40Q125.40-21.40 127.78-20.02Q130.16-18.64 131.50-16.16Q132.84-13.68 132.84-10.48L132.84-10.48ZM122.36-18.16Q119.60-18.16 117.74-16.48Q115.88-14.80 115.56-12.08L115.56-12.08L129.16-12.08Q128.84-14.76 126.98-16.46Q125.12-18.16 122.36-18.16L122.36-18.16Z M137.44 8Q136.04 8 134.84 7.68Q133.64 7.36 132.84 6.72L132.84 6.72L134.08 3.76Q135.28 4.76 137.20 4.76L137.20 4.76Q138.72 4.76 139.54 3.82Q140.36 2.88 140.36 1.04L140.36 1.04L140.36-21.20L144.20-21.20L144.20 0.96Q144.20 4.24 142.44 6.12Q140.68 8 137.44 8L137.44 8ZM142.28-25.28Q141.16-25.28 140.42-26Q139.68-26.72 139.68-27.76L139.68-27.76Q139.68-28.80 140.42-29.54Q141.16-30.28 142.28-30.28L142.28-30.28Q143.40-30.28 144.14-29.58Q144.88-28.88 144.88-27.84L144.88-27.84Q144.88-26.76 144.14-26.02Q143.40-25.28 142.28-25.28L142.28-25.28Z M162.60 0.24Q159.44 0.24 156.92-1.16Q154.40-2.56 152.98-5.02Q151.56-7.48 151.56-10.60L151.56-10.60Q151.56-13.72 152.98-16.18Q154.40-18.64 156.92-20.02Q159.44-21.40 162.60-21.40L162.60-21.40Q165.76-21.40 168.26-20.02Q170.76-18.64 172.18-16.18Q173.60-13.72 173.60-10.60L173.60-10.60Q173.60-7.48 172.18-5.02Q170.76-2.56 168.26-1.16Q165.76 0.24 162.60 0.24L162.60 0.24ZM162.60-3.12Q164.64-3.12 166.26-4.06Q167.88-5 168.80-6.70Q169.72-8.40 169.72-10.60L169.72-10.60Q169.72-12.80 168.80-14.50Q167.88-16.20 166.26-17.12Q164.64-18.04 162.60-18.04L162.60-18.04Q160.56-18.04 158.94-17.12Q157.32-16.20 156.38-14.50Q155.44-12.80 155.44-10.60L155.44-10.60Q155.44-8.40 156.38-6.70Q157.32-5 158.94-4.06Q160.56-3.12 162.60-3.12L162.60-3.12Z M184.60-17.64Q185.60-19.48 187.56-20.44Q189.52-21.40 192.32-21.40L192.32-21.40L192.32-17.68Q192-17.72 191.44-17.72L191.44-17.72Q188.32-17.72 186.54-15.86Q184.76-14 184.76-10.56L184.76-10.56L184.76 0L180.92 0L180.92-21.20L184.60-21.20L184.60-17.64Z M231.24-10.48Q231.24-10.04 231.16-9.32L231.16-9.32L213.96-9.32Q214.32-6.52 216.42-4.82Q218.52-3.12 221.64-3.12L221.64-3.12Q225.44-3.12 227.76-5.68L227.76-5.68L229.88-3.20Q228.44-1.52 226.30-0.64Q224.16 0.24 221.52 0.24L221.52 0.24Q218.16 0.24 215.56-1.14Q212.96-2.52 211.54-5Q210.12-7.48 210.12-10.60L210.12-10.60Q210.12-13.68 211.50-16.16Q212.88-18.64 215.30-20.02Q217.72-21.40 220.76-21.40L220.76-21.40Q223.80-21.40 226.18-20.02Q228.56-18.64 229.90-16.16Q231.24-13.68 231.24-10.48L231.24-10.48ZM220.76-18.16Q218-18.16 216.14-16.48Q214.28-14.80 213.96-12.08L213.96-12.08L227.56-12.08Q227.24-14.76 225.38-16.46Q223.52-18.16 220.76-18.16L220.76-18.16Z M249.88-21.40Q253.92-21.40 256.30-19.06Q258.68-16.72 258.68-12.20L258.68-12.20L258.68 0L254.84 0L254.84-11.76Q254.84-14.84 253.36-16.40Q251.88-17.96 249.12-17.96L249.12-17.96Q246-17.96 244.20-16.14Q242.40-14.32 242.40-10.92L242.40-10.92L242.40 0L238.56 0L238.56-21.20L242.24-21.20L242.24-18Q243.40-19.64 245.38-20.52Q247.36-21.40 249.88-21.40L249.88-21.40Z M286.64 0.24Q284.04 0.24 281.64-0.46Q279.24-1.16 277.88-2.24L277.88-2.24L279.48-5.28Q280.88-4.28 282.88-3.68Q284.88-3.08 286.92-3.08L286.92-3.08Q291.96-3.08 291.96-5.96L291.96-5.96Q291.96-6.92 291.28-7.48Q290.60-8.04 289.58-8.30Q288.56-8.56 286.68-8.88L286.68-8.88Q284.12-9.28 282.50-9.80Q280.88-10.32 279.72-11.56Q278.56-12.80 278.56-15.04L278.56-15.04Q278.56-17.92 280.96-19.66Q283.36-21.40 287.40-21.40L287.40-21.40Q289.52-21.40 291.64-20.88Q293.76-20.36 295.12-19.48L295.12-19.48L293.48-16.44Q290.88-18.12 287.36-18.12L287.36-18.12Q284.92-18.12 283.64-17.32Q282.36-16.52 282.36-15.20L282.36-15.20Q282.36-14.16 283.08-13.56Q283.80-12.96 284.86-12.68Q285.92-12.40 287.84-12.04L287.84-12.04Q290.40-11.60 291.98-11.10Q293.56-10.60 294.68-9.40Q295.80-8.20 295.80-6.04L295.80-6.04Q295.80-3.16 293.34-1.46Q290.88 0.24 286.64 0.24L286.64 0.24Z M311.68 0.24Q308.52 0.24 306-1.16Q303.48-2.56 302.06-5.02Q300.64-7.48 300.64-10.60L300.64-10.60Q300.64-13.72 302.06-16.18Q303.48-18.64 306-20.02Q308.52-21.40 311.68-21.40L311.68-21.40Q314.84-21.40 317.34-20.02Q319.84-18.64 321.26-16.18Q322.68-13.72 322.68-10.60L322.68-10.60Q322.68-7.48 321.26-5.02Q319.84-2.56 317.34-1.16Q314.84 0.24 311.68 0.24L311.68 0.24ZM311.68-3.12Q313.72-3.12 315.34-4.06Q316.96-5 317.88-6.70Q318.80-8.40 318.80-10.60L318.80-10.60Q318.80-12.80 317.88-14.50Q316.96-16.20 315.34-17.12Q313.72-18.04 311.68-18.04L311.68-18.04Q309.64-18.04 308.02-17.12Q306.40-16.20 305.46-14.50Q304.52-12.80 304.52-10.60L304.52-10.60Q304.52-8.40 305.46-6.70Q306.40-5 308.02-4.06Q309.64-3.12 311.68-3.12L311.68-3.12Z M330.00 0L330.00-29.68L333.84-29.68L333.84 0L330.00 0Z M359.08-21.20L362.92-21.20L362.92 0L359.28 0L359.28-3.20Q358.12-1.56 356.22-0.66Q354.32 0.24 352.08 0.24L352.08 0.24Q347.84 0.24 345.40-2.10Q342.96-4.44 342.96-9L342.96-9L342.96-21.20L346.80-21.20L346.80-9.44Q346.80-6.36 348.28-4.78Q349.76-3.20 352.52-3.20L352.52-3.20Q355.56-3.20 357.32-5.04Q359.08-6.88 359.08-10.24L359.08-10.24L359.08-21.20Z M381.48 0.24Q378.24 0.24 375.70-1.16Q373.16-2.56 371.72-5.02Q370.28-7.48 370.28-10.60L370.28-10.60Q370.28-13.72 371.72-16.18Q373.16-18.64 375.70-20.02Q378.24-21.40 381.48-21.40L381.48-21.40Q384.36-21.40 386.62-20.24Q388.88-19.08 390.12-16.88L390.12-16.88L387.20-15Q386.20-16.52 384.72-17.28Q383.24-18.04 381.44-18.04L381.44-18.04Q379.36-18.04 377.70-17.12Q376.04-16.20 375.10-14.50Q374.16-12.80 374.16-10.60L374.16-10.60Q374.16-8.36 375.10-6.66Q376.04-4.96 377.70-4.04Q379.36-3.12 381.44-3.12L381.44-3.12Q383.24-3.12 384.72-3.88Q386.20-4.64 387.20-6.16L387.20-6.16L390.12-4.32Q388.88-2.12 386.62-0.94Q384.36 0.24 381.48 0.24L381.48 0.24Z M397.08 0L397.08-21.20L400.92-21.20L400.92 0L397.08 0ZM399.00-25.28Q397.88-25.28 397.14-26Q396.40-26.72 396.40-27.76L396.40-27.76Q396.40-28.80 397.14-29.54Q397.88-30.28 399.00-30.28L399.00-30.28Q400.12-30.28 400.86-29.58Q401.60-28.88 401.60-27.84L401.60-27.84Q401.60-26.76 400.86-26.02Q400.12-25.28 399.00-25.28L399.00-25.28Z M419.32 0.24Q416.16 0.24 413.64-1.16Q411.12-2.56 409.70-5.02Q408.28-7.48 408.28-10.60L408.28-10.60Q408.28-13.72 409.70-16.18Q411.12-18.64 413.64-20.02Q416.16-21.40 419.32-21.40L419.32-21.40Q422.48-21.40 424.98-20.02Q427.48-18.64 428.90-16.18Q430.32-13.72 430.32-10.60L430.32-10.60Q430.32-7.48 428.90-5.02Q427.48-2.56 424.98-1.16Q422.48 0.24 419.32 0.24L419.32 0.24ZM419.32-3.12Q421.36-3.12 422.98-4.06Q424.60-5 425.52-6.70Q426.44-8.40 426.44-10.60L426.44-10.60Q426.44-12.80 425.52-14.50Q424.60-16.20 422.98-17.12Q421.36-18.04 419.32-18.04L419.32-18.04Q417.28-18.04 415.66-17.12Q414.04-16.20 413.10-14.50Q412.16-12.80 412.16-10.60L412.16-10.60Q412.16-8.40 413.10-6.70Q414.04-5 415.66-4.06Q417.28-3.12 419.32-3.12L419.32-3.12Z M448.96-21.40Q453.00-21.40 455.38-19.06Q457.76-16.72 457.76-12.20L457.76-12.20L457.76 0L453.92 0L453.92-11.76Q453.92-14.84 452.44-16.40Q450.96-17.96 448.20-17.96L448.20-17.96Q445.08-17.96 443.28-16.14Q441.48-14.32 441.48-10.92L441.48-10.92L441.48 0L437.64 0L437.64-21.20L441.32-21.20L441.32-18Q442.48-19.64 444.46-20.52Q446.44-21.40 448.96-21.40L448.96-21.40Z M486.16-10.48Q486.16-10.04 486.08-9.32L486.08-9.32L468.88-9.32Q469.24-6.52 471.34-4.82Q473.44-3.12 476.56-3.12L476.56-3.12Q480.36-3.12 482.68-5.68L482.68-5.68L484.80-3.20Q483.36-1.52 481.22-0.64Q479.08 0.24 476.44 0.24L476.44 0.24Q473.08 0.24 470.48-1.14Q467.88-2.52 466.46-5Q465.04-7.48 465.04-10.60L465.04-10.60Q465.04-13.68 466.42-16.16Q467.80-18.64 470.22-20.02Q472.64-21.40 475.68-21.40L475.68-21.40Q478.72-21.40 481.10-20.02Q483.48-18.64 484.82-16.16Q486.16-13.68 486.16-10.48L486.16-10.48ZM475.68-18.16Q472.92-18.16 471.06-16.48Q469.20-14.80 468.88-12.08L468.88-12.08L482.48-12.08Q482.16-14.76 480.30-16.46Q478.44-18.16 475.68-18.16L475.68-18.16Z M499.56 0.24Q496.96 0.24 494.56-0.46Q492.16-1.16 490.80-2.24L490.80-2.24L492.40-5.28Q493.80-4.28 495.80-3.68Q497.80-3.08 499.84-3.08L499.84-3.08Q504.88-3.08 504.88-5.96L504.88-5.96Q504.88-6.92 504.20-7.48Q503.52-8.04 502.50-8.30Q501.48-8.56 499.60-8.88L499.60-8.88Q497.04-9.28 495.42-9.80Q493.80-10.32 492.64-11.56Q491.48-12.80 491.48-15.04L491.48-15.04Q491.48-17.92 493.88-19.66Q496.28-21.40 500.32-21.40L500.32-21.40Q502.44-21.40 504.56-20.88Q506.68-20.36 508.04-19.48L508.04-19.48L506.40-16.44Q503.80-18.12 500.28-18.12L500.28-18.12Q497.84-18.12 496.56-17.32Q495.28-16.52 495.28-15.20L495.28-15.20Q495.28-14.16 496-13.56Q496.72-12.96 497.78-12.68Q498.84-12.40 500.76-12.04L500.76-12.04Q503.32-11.60 504.90-11.10Q506.48-10.60 507.60-9.40Q508.72-8.20 508.72-6.04L508.72-6.04Q508.72-3.16 506.26-1.46Q503.80 0.24 499.56 0.24L499.56 0.24Z M528.28 0L528.28-21.20L532.12-21.20L532.12 0L528.28 0ZM530.20-25.28Q529.08-25.28 528.34-26Q527.60-26.72 527.60-27.76L527.60-27.76Q527.60-28.80 528.34-29.54Q529.08-30.28 530.20-30.28L530.20-30.28Q531.32-30.28 532.06-29.58Q532.80-28.88 532.80-27.84L532.80-27.84Q532.80-26.76 532.06-26.02Q531.32-25.28 530.20-25.28L530.20-25.28Z M552.76-21.40Q556.80-21.40 559.18-19.06Q561.56-16.72 561.56-12.20L561.56-12.20L561.56 0L557.72 0L557.72-11.76Q557.72-14.84 556.24-16.40Q554.76-17.96 552-17.96L552-17.96Q548.88-17.96 547.08-16.14Q545.28-14.32 545.28-10.92L545.28-10.92L545.28 0L541.44 0L541.44-21.20L545.12-21.20L545.12-18Q546.28-19.64 548.26-20.52Q550.24-21.40 552.76-21.40L552.76-21.40Z M578.44-26.76Q575-26.76 575-23.04L575-23.04L575-21.20L581.16-21.20L581.16-18.04L575.08-18.04L575.08 0L571.24 0L571.24-18.04L567.64-18.04L567.64-21.20L571.24-21.20L571.24-23.08Q571.24-26.24 573.08-28.08Q574.92-29.92 578.24-29.92L578.24-29.92Q579.52-29.92 580.64-29.60Q581.76-29.28 582.56-28.68L582.56-28.68L581.40-25.76Q580.08-26.76 578.44-26.76L578.44-26.76Z M595.56 0.24Q592.40 0.24 589.88-1.16Q587.36-2.56 585.94-5.02Q584.52-7.48 584.52-10.60L584.52-10.60Q584.52-13.72 585.94-16.18Q587.36-18.64 589.88-20.02Q592.40-21.40 595.56-21.40L595.56-21.40Q598.72-21.40 601.22-20.02Q603.72-18.64 605.14-16.18Q606.56-13.72 606.56-10.60L606.56-10.60Q606.56-7.48 605.14-5.02Q603.72-2.56 601.22-1.16Q598.72 0.24 595.56 0.24L595.56 0.24ZM595.56-3.12Q597.60-3.12 599.22-4.06Q600.84-5 601.76-6.70Q602.68-8.40 602.68-10.60L602.68-10.60Q602.68-12.80 601.76-14.50Q600.84-16.20 599.22-17.12Q597.60-18.04 595.56-18.04L595.56-18.04Q593.52-18.04 591.90-17.12Q590.28-16.20 589.34-14.50Q588.40-12.80 588.40-10.60L588.40-10.60Q588.40-8.40 589.34-6.70Q590.28-5 591.90-4.06Q593.52-3.12 595.56-3.12L595.56-3.12Z M617.56-17.64Q618.56-19.48 620.52-20.44Q622.48-21.40 625.28-21.40L625.28-21.40L625.28-17.68Q624.96-17.72 624.40-17.72L624.40-17.72Q621.28-17.72 619.50-15.86Q617.72-14 617.72-10.56L617.72-10.56L617.72 0L613.88 0L613.88-21.20L617.56-21.20L617.56-17.64Z M658.52-21.40Q662.52-21.40 664.86-19.08Q667.20-16.76 667.20-12.20L667.20-12.20L667.20 0L663.36 0L663.36-11.76Q663.36-14.84 661.94-16.40Q660.52-17.96 657.88-17.96L657.88-17.96Q654.96-17.96 653.24-16.14Q651.52-14.32 651.52-10.92L651.52-10.92L651.52 0L647.68 0L647.68-11.76Q647.68-14.84 646.26-16.40Q644.84-17.96 642.20-17.96L642.20-17.96Q639.28-17.96 637.56-16.14Q635.84-14.32 635.84-10.92L635.84-10.92L635.84 0L632.00 0L632.00-21.20L635.68-21.20L635.68-18.04Q636.84-19.68 638.72-20.54Q640.60-21.40 643.00-21.40L643.00-21.40Q645.48-21.40 647.40-20.40Q649.32-19.40 650.36-17.48L650.36-17.48Q651.56-19.32 653.70-20.36Q655.84-21.40 658.52-21.40L658.52-21.40Z M684.00-21.40Q688.40-21.40 690.74-19.24Q693.08-17.08 693.08-12.80L693.08-12.80L693.08 0L689.44 0L689.44-2.80Q688.48-1.32 686.70-0.54Q684.92 0.24 682.48 0.24L682.48 0.24Q678.92 0.24 676.78-1.48Q674.64-3.20 674.64-6L674.64-6Q674.64-8.80 676.68-10.50Q678.72-12.20 683.16-12.20L683.16-12.20L689.24-12.20L689.24-12.96Q689.24-15.44 687.80-16.76Q686.36-18.08 683.56-18.08L683.56-18.08Q681.68-18.08 679.88-17.46Q678.08-16.84 676.84-15.80L676.84-15.80L675.24-18.68Q676.88-20 679.16-20.70Q681.44-21.40 684.00-21.40L684.00-21.40ZM683.12-2.72Q685.32-2.72 686.92-3.70Q688.52-4.68 689.24-6.48L689.24-6.48L689.24-9.44L683.32-9.44Q678.44-9.44 678.44-6.16L678.44-6.16Q678.44-4.56 679.68-3.64Q680.92-2.72 683.12-2.72L683.12-2.72ZM681.28-24.28L686.72-29.48L691.60-29.48L684.88-24.28L681.28-24.28Z M712.92-4L714.12-1.24Q713.28-0.52 712.04-0.14Q710.80 0.24 709.48 0.24L709.48 0.24Q706.28 0.24 704.52-1.48Q702.76-3.20 702.76-6.40L702.76-6.40L702.76-18.04L699.16-18.04L699.16-21.20L702.76-21.20L702.76-25.84L706.60-25.84L706.60-21.20L712.68-21.20L712.68-18.04L706.60-18.04L706.60-6.56Q706.60-4.84 707.46-3.92Q708.32-3 709.92-3L709.92-3Q711.68-3 712.92-4L712.92-4Z M720.76 0L720.76-21.20L724.60-21.20L724.60 0L720.76 0ZM722.68-25.28Q721.56-25.28 720.82-26Q720.08-26.72 720.08-27.76L720.08-27.76Q720.08-28.80 720.82-29.54Q721.56-30.28 722.68-30.28L722.68-30.28Q723.80-30.28 724.54-29.58Q725.28-28.88 725.28-27.84L725.28-27.84Q725.28-26.76 724.54-26.02Q723.80-25.28 722.68-25.28L722.68-25.28Z M743.16 0.24Q739.92 0.24 737.38-1.16Q734.84-2.56 733.40-5.02Q731.96-7.48 731.96-10.60L731.96-10.60Q731.96-13.72 733.40-16.18Q734.84-18.64 737.38-20.02Q739.92-21.40 743.16-21.40L743.16-21.40Q746.04-21.40 748.30-20.24Q750.56-19.08 751.80-16.88L751.80-16.88L748.88-15Q747.88-16.52 746.40-17.28Q744.92-18.04 743.12-18.04L743.12-18.04Q741.04-18.04 739.38-17.12Q737.72-16.20 736.78-14.50Q735.84-12.80 735.84-10.60L735.84-10.60Q735.84-8.36 736.78-6.66Q737.72-4.96 739.38-4.04Q741.04-3.12 743.12-3.12L743.12-3.12Q744.92-3.12 746.40-3.88Q747.88-4.64 748.88-6.16L748.88-6.16L751.80-4.32Q750.56-2.12 748.30-0.94Q746.04 0.24 743.16 0.24L743.16 0.24Z M766.48-21.40Q770.88-21.40 773.22-19.24Q775.56-17.08 775.56-12.80L775.56-12.80L775.56 0L771.92 0L771.92-2.80Q770.96-1.32 769.18-0.54Q767.40 0.24 764.96 0.24L764.96 0.24Q761.40 0.24 759.26-1.48Q757.12-3.20 757.12-6L757.12-6Q757.12-8.80 759.16-10.50Q761.20-12.20 765.64-12.20L765.64-12.20L771.72-12.20L771.72-12.96Q771.72-15.44 770.28-16.76Q768.84-18.08 766.04-18.08L766.04-18.08Q764.16-18.08 762.36-17.46Q760.56-16.84 759.32-15.80L759.32-15.80L757.72-18.68Q759.36-20 761.64-20.70Q763.92-21.40 766.48-21.40L766.48-21.40ZM765.60-2.72Q767.80-2.72 769.40-3.70Q771.00-4.68 771.72-6.48L771.72-6.48L771.72-9.44L765.80-9.44Q760.92-9.44 760.92-6.16L760.92-6.16Q760.92-4.56 762.16-3.64Q763.40-2.72 765.60-2.72L765.60-2.72Z M790.76 0.24Q788.16 0.24 785.76-0.46Q783.36-1.16 782.00-2.24L782.00-2.24L783.60-5.28Q785.00-4.28 787.00-3.68Q789.00-3.08 791.04-3.08L791.04-3.08Q796.08-3.08 796.08-5.96L796.08-5.96Q796.08-6.92 795.40-7.48Q794.72-8.04 793.70-8.30Q792.68-8.56 790.80-8.88L790.80-8.88Q788.24-9.28 786.62-9.80Q785.00-10.32 783.84-11.56Q782.68-12.80 782.68-15.04L782.68-15.04Q782.68-17.92 785.08-19.66Q787.48-21.40 791.52-21.40L791.52-21.40Q793.64-21.40 795.76-20.88Q797.88-20.36 799.24-19.48L799.24-19.48L797.60-16.44Q795.00-18.12 791.48-18.12L791.48-18.12Q789.04-18.12 787.76-17.32Q786.48-16.52 786.48-15.20L786.48-15.20Q786.48-14.16 787.20-13.56Q787.92-12.96 788.98-12.68Q790.04-12.40 791.96-12.04L791.96-12.04Q794.52-11.60 796.10-11.10Q797.68-10.60 798.80-9.40Q799.92-8.20 799.92-6.04L799.92-6.04Q799.92-3.16 797.46-1.46Q795.00 0.24 790.76 0.24L790.76 0.24Z"/></g>
</svg>
</g><g opacity="1" transform="rotate(0 1059.8996 810.3534)">
<svg width="375.6597" height="50" x="1059.8996" y="810.3534" version="1.1" preserveAspectRatio="none" viewBox="3.32 -31.48 240.12 31.96">
  <g transform="matrix(1 0 0 1 0 0)" class="background"><path id="id-D6z1nYkh12" d="M3.32 0L3.32-28L16.04-28Q20.60-28 24.10-26.26Q27.60-24.52 29.54-21.36Q31.48-18.20 31.48-14L31.48-14Q31.48-9.80 29.54-6.64Q27.60-3.48 24.10-1.74Q20.60 0 16.04 0L16.04 0L3.32 0ZM9.80-5.32L15.72-5.32Q19.92-5.32 22.42-7.66Q24.92-10 24.92-14L24.92-14Q24.92-18 22.42-20.34Q19.92-22.68 15.72-22.68L15.72-22.68L9.80-22.68L9.80-5.32Z M41.88-18.68Q43-20.24 44.90-21.04Q46.80-21.84 49.28-21.84L49.28-21.84L49.28-16.08Q48.24-16.16 47.88-16.16L47.88-16.16Q45.20-16.16 43.68-14.66Q42.16-13.16 42.16-10.16L42.16-10.16L42.16 0L35.92 0L35.92-21.52L41.88-21.52L41.88-18.68Z M55.12 0.32Q53.48 0.32 52.36-0.80Q51.24-1.92 51.24-3.60L51.24-3.60Q51.24-5.32 52.36-6.38Q53.48-7.44 55.12-7.44L55.12-7.44Q56.76-7.44 57.88-6.38Q59-5.32 59-3.60L59-3.60Q59-1.92 57.88-0.80Q56.76 0.32 55.12 0.32L55.12 0.32Z M84.20 0.48Q80.88 0.48 77.78-0.42Q74.68-1.32 72.80-2.76L72.80-2.76L75-7.64Q76.80-6.32 79.28-5.52Q81.76-4.72 84.24-4.72L84.24-4.72Q87-4.72 88.32-5.54Q89.64-6.36 89.64-7.72L89.64-7.72Q89.64-8.72 88.86-9.38Q88.08-10.04 86.86-10.44Q85.64-10.84 83.56-11.32L83.56-11.32Q80.36-12.08 78.32-12.84Q76.28-13.60 74.82-15.28Q73.36-16.96 73.36-19.76L73.36-19.76Q73.36-22.20 74.68-24.18Q76-26.16 78.66-27.32Q81.32-28.48 85.16-28.48L85.16-28.48Q87.84-28.48 90.40-27.84Q92.96-27.20 94.88-26L94.88-26L92.88-21.08Q89-23.28 85.12-23.28L85.12-23.28Q82.40-23.28 81.10-22.40Q79.80-21.52 79.80-20.08L79.80-20.08Q79.80-18.64 81.30-17.94Q82.80-17.24 85.88-16.56L85.88-16.56Q89.08-15.80 91.12-15.04Q93.16-14.28 94.62-12.64Q96.08-11 96.08-8.20L96.08-8.20Q96.08-5.80 94.74-3.82Q93.40-1.84 90.72-0.68Q88.04 0.48 84.20 0.48L84.20 0.48Z M110.32 0.32Q106.92 0.32 104.22-1.10Q101.52-2.52 100-5.04Q98.48-7.56 98.48-10.76L98.48-10.76Q98.48-13.96 100-16.48Q101.52-19 104.22-20.42Q106.92-21.84 110.32-21.84L110.32-21.84Q113.72-21.84 116.40-20.42Q119.08-19 120.60-16.48Q122.12-13.96 122.12-10.76L122.12-10.76Q122.12-7.56 120.60-5.04Q119.08-2.52 116.40-1.10Q113.72 0.32 110.32 0.32L110.32 0.32ZM110.32-4.80Q112.72-4.80 114.26-6.42Q115.80-8.04 115.80-10.76L115.80-10.76Q115.80-13.48 114.26-15.10Q112.72-16.72 110.32-16.72L110.32-16.72Q107.92-16.72 106.36-15.10Q104.80-13.48 104.80-10.76L104.80-10.76Q104.80-8.04 106.36-6.42Q107.92-4.80 110.32-4.80L110.32-4.80Z M126.28 0L126.28-29.68L132.52-29.68L132.52 0L126.28 0Z M153.76-21.52L160-21.52L160 0L154.08 0L154.08-2.56Q152.84-1.16 151.12-0.42Q149.40 0.32 147.40 0.32L147.40 0.32Q143.16 0.32 140.68-2.12Q138.20-4.56 138.20-9.36L138.20-9.36L138.20-21.52L144.44-21.52L144.44-10.28Q144.44-5.08 148.80-5.08L148.80-5.08Q151.04-5.08 152.40-6.54Q153.76-8 153.76-10.88L153.76-10.88L153.76-21.52Z M178-5.44L179.68-1.04Q178.76-0.36 177.42-0.02Q176.08 0.32 174.60 0.32L174.60 0.32Q170.76 0.32 168.66-1.64Q166.56-3.60 166.56-7.40L166.56-7.40L166.56-16.24L163.24-16.24L163.24-21.04L166.56-21.04L166.56-26.28L172.80-26.28L172.80-21.04L178.16-21.04L178.16-16.24L172.80-16.24L172.80-7.48Q172.80-6.12 173.50-5.38Q174.20-4.64 175.48-4.64L175.48-4.64Q176.96-4.64 178-5.44L178-5.44Z M183.20 0L183.20-21.52L189.44-21.52L189.44 0L183.20 0ZM186.32-24.52Q184.60-24.52 183.52-25.52Q182.44-26.52 182.44-28L182.44-28Q182.44-29.48 183.52-30.48Q184.60-31.48 186.32-31.48L186.32-31.48Q188.04-31.48 189.12-30.52Q190.20-29.56 190.20-28.12L190.20-28.12Q190.20-26.56 189.12-25.54Q188.04-24.52 186.32-24.52L186.32-24.52Z M205.48 0.32Q202.08 0.32 199.38-1.10Q196.68-2.52 195.16-5.04Q193.64-7.56 193.64-10.76L193.64-10.76Q193.64-13.96 195.16-16.48Q196.68-19 199.38-20.42Q202.08-21.84 205.48-21.84L205.48-21.84Q208.88-21.84 211.56-20.42Q214.24-19 215.76-16.48Q217.28-13.96 217.28-10.76L217.28-10.76Q217.28-7.56 215.76-5.04Q214.24-2.52 211.56-1.10Q208.88 0.32 205.48 0.32L205.48 0.32ZM205.48-4.80Q207.88-4.80 209.42-6.42Q210.96-8.04 210.96-10.76L210.96-10.76Q210.96-13.48 209.42-15.10Q207.88-16.72 205.48-16.72L205.48-16.72Q203.08-16.72 201.52-15.10Q199.96-13.48 199.96-10.76L199.96-10.76Q199.96-8.04 201.52-6.42Q203.08-4.80 205.48-4.80L205.48-4.80Z M234.52-21.84Q238.52-21.84 240.98-19.44Q243.44-17.04 243.44-12.32L243.44-12.32L243.44 0L237.20 0L237.20-11.36Q237.20-13.92 236.08-15.18Q234.96-16.44 232.84-16.44L232.84-16.44Q230.48-16.44 229.08-14.98Q227.68-13.52 227.68-10.64L227.68-10.64L227.68 0L221.44 0L221.44-21.52L227.40-21.52L227.40-19Q228.64-20.36 230.48-21.10Q232.32-21.84 234.52-21.84L234.52-21.84Z"/></g>
</svg>
</g><g opacity="1" transform="rotate(0 923.8997 780.3534)">
<svg width="109.9999" height="110" x="923.8997" y="780.3534" version="1.1" preserveAspectRatio="none" viewBox="0 0 109.9999 110">
  <defs><rect x="2.199998" y="2.199998" width="105.599904" height="105.600004" rx="0px" ry="0px" id="id-tBXipXk0b1684634705249"></rect></defs><use class="background icon1-str" style="stroke-width:4.399996;" xlink:href="#id-tBXipXk0b1684634705249"></use>
</svg>
</g><g opacity="1" transform="rotate(0 944.7721 790.3534)">
<svg width="68.2551" height="90" x="944.7721" y="790.3534" version="1.1" preserveAspectRatio="none" viewBox="15.884456634521484 0.4999999403953552 96.3155517578125 127">
  <g transform="matrix(1 0 0 1 0 0)" class="icon1"><g><path d="M18.3,72.9c-0.4,0-0.8,0.3-0.8,0.8v10.7c0,0.4,0.3,0.8,0.8,0.8c0.4,0,0.8-0.3,0.8-0.8V73.7C19.1,73.2,18.7,72.9,18.3,72.9z   "></path><path d="M18.3,87.1c-0.4,0-0.8,0.3-0.8,0.8v3.4c0,0.4,0.3,0.8,0.8,0.8c0.4,0,0.8-0.3,0.8-0.8v-3.4C19.1,87.4,18.7,87.1,18.3,87.1z"></path><path d="M109.5,15.1c-0.4,0-0.8,0.3-0.8,0.8v10.7c0,0.4,0.3,0.8,0.8,0.8c0.4,0,0.8-0.3,0.8-0.8V15.8   C110.2,15.4,109.9,15.1,109.5,15.1z"></path><path d="M109.5,29.2c-0.4,0-0.8,0.3-0.8,0.8v3.4c0,0.4,0.3,0.8,0.8,0.8c0.4,0,0.8-0.3,0.8-0.8V30C110.2,29.6,109.9,29.2,109.5,29.2   z"></path><path d="M85.7,87.3c-0.3-0.3-0.8-0.3-1.1,0c-0.3,0.3-0.3,0.8,0,1.1l1.5,1.5c0.1,0.1,0.3,0.2,0.5,0.2c0.2,0,0.4-0.1,0.5-0.2   c0.3-0.3,0.3-0.8,0-1.1L85.7,87.3z"></path><path d="M90.4,92c-0.3-0.3-0.8-0.3-1.1,0c-0.3,0.3-0.3,0.8,0,1.1l1.5,1.5c0.1,0.1,0.3,0.2,0.5,0.2c0.2,0,0.4-0.1,0.5-0.2   c0.3-0.3,0.3-0.8,0-1.1L90.4,92z"></path><path d="M86.1,92l-1.5,1.5c-0.3,0.3-0.3,0.8,0,1.1c0.1,0.1,0.3,0.2,0.5,0.2c0.2,0,0.4-0.1,0.5-0.2l1.5-1.5c0.3-0.3,0.3-0.8,0-1.1   C86.9,91.7,86.4,91.7,86.1,92z"></path><path d="M91.9,87.3c-0.3-0.3-0.8-0.3-1.1,0l-1.5,1.5c-0.3,0.3-0.3,0.8,0,1.1c0.1,0.1,0.3,0.2,0.5,0.2c0.2,0,0.4-0.1,0.5-0.2   l1.5-1.5C92.2,88,92.2,87.6,91.9,87.3z"></path><path d="M23.3,104.3c-0.3-0.3-0.8-0.3-1.1,0s-0.3,0.8,0,1.1l1.5,1.5c0.1,0.1,0.3,0.2,0.5,0.2c0.2,0,0.4-0.1,0.5-0.2   c0.3-0.3,0.3-0.8,0-1.1L23.3,104.3z"></path><path d="M28.1,109c-0.3-0.3-0.8-0.3-1.1,0c-0.3,0.3-0.3,0.8,0,1.1l1.5,1.5c0.1,0.1,0.3,0.2,0.5,0.2c0.2,0,0.4-0.1,0.5-0.2   c0.3-0.3,0.3-0.8,0-1.1L28.1,109z"></path><path d="M23.7,109l-1.5,1.5c-0.3,0.3-0.3,0.8,0,1.1c0.1,0.1,0.3,0.2,0.5,0.2c0.2,0,0.4-0.1,0.5-0.2l1.5-1.5c0.3-0.3,0.3-0.8,0-1.1   C24.5,108.7,24,108.7,23.7,109z"></path><path d="M28.5,104.3l-1.5,1.5c-0.3,0.3-0.3,0.8,0,1.1c0.1,0.1,0.3,0.2,0.5,0.2c0.2,0,0.4-0.1,0.5-0.2l1.5-1.5   c0.3-0.3,0.3-0.8,0-1.1C29.2,104,28.8,104,28.5,104.3z"></path><path d="M23.4,10.9c1.8,0,3.2-1.5,3.2-3.2s-1.5-3.2-3.2-3.2c-1.8,0-3.2,1.5-3.2,3.2S21.6,10.9,23.4,10.9z M23.4,6   c1,0,1.7,0.8,1.7,1.7s-0.8,1.7-1.7,1.7c-1,0-1.7-0.8-1.7-1.7S22.5,6,23.4,6z"></path><path d="M105.8,76.2c-1.8,0-3.2,1.5-3.2,3.2c0,1.8,1.5,3.2,3.2,3.2c1.8,0,3.2-1.5,3.2-3.2C109,77.7,107.6,76.2,105.8,76.2z    M105.8,81.2c-1,0-1.7-0.8-1.7-1.7c0-1,0.8-1.7,1.7-1.7c1,0,1.7,0.8,1.7,1.7C107.5,80.4,106.8,81.2,105.8,81.2z"></path><path d="M33.4,86.1c-2.4,0-4.3,2-4.3,4.3c0,2.4,2,4.3,4.3,4.3c2.4,0,4.3-2,4.3-4.3C37.7,88,35.8,86.1,33.4,86.1z M33.4,93.3   c-1.6,0-2.8-1.3-2.8-2.8c0-1.6,1.3-2.8,2.8-2.8c1.6,0,2.8,1.3,2.8,2.8C36.2,92,35,93.3,33.4,93.3z"></path><path d="M92.3,4.3h11.5c0.4,0,0.8-0.3,0.8-0.8c0-0.4-0.3-0.8-0.8-0.8H92.3c-0.4,0-0.8,0.3-0.8,0.8C91.5,3.9,91.9,4.3,92.3,4.3z"></path><path d="M107.6,4.3h3.7c0.4,0,0.8-0.3,0.8-0.8c0-0.4-0.3-0.8-0.8-0.8h-3.7c-0.4,0-0.8,0.3-0.8,0.8C106.9,3.9,107.2,4.3,107.6,4.3z"></path><path d="M111.4,6.7h-8c-0.4,0-0.8,0.3-0.8,0.8c0,0.4,0.3,0.8,0.8,0.8h8c0.4,0,0.8-0.3,0.8-0.8C112.1,7,111.8,6.7,111.4,6.7z"></path><path d="M99.9,8.2c0.4,0,0.8-0.3,0.8-0.8c0-0.4-0.3-0.8-0.8-0.8h-2.6c-0.4,0-0.8,0.3-0.8,0.8c0,0.4,0.3,0.8,0.8,0.8H99.9z"></path><path d="M107.5,111.1H96c-0.4,0-0.8,0.3-0.8,0.8s0.3,0.8,0.8,0.8h11.5c0.4,0,0.8-0.3,0.8-0.8S107.9,111.1,107.5,111.1z"></path><path d="M92.2,111.1h-3.7c-0.4,0-0.8,0.3-0.8,0.8s0.3,0.8,0.8,0.8h3.7c0.4,0,0.8-0.3,0.8-0.8S92.6,111.1,92.2,111.1z"></path><path d="M88.4,108.7h8c0.4,0,0.8-0.3,0.8-0.8c0-0.4-0.3-0.8-0.8-0.8h-8c-0.4,0-0.8,0.3-0.8,0.8C87.7,108.3,88,108.7,88.4,108.7z"></path><path d="M99.2,107.9c0,0.4,0.3,0.8,0.8,0.8h2.6c0.4,0,0.8-0.3,0.8-0.8c0-0.4-0.3-0.8-0.8-0.8h-2.6   C99.5,107.2,99.2,107.5,99.2,107.9z"></path><path d="M108.6,46.8l-13.5-0.1c-0.4,0-0.8,0.3-0.8,0.7c0,0.4,0.3,0.8,0.7,0.8l13.5,0.1c0,0,0,0,0,0c0.4,0,0.8-0.3,0.8-0.7   C109.3,47.2,109,46.8,108.6,46.8z"></path><path d="M102.1,57.1l-7.9-1.7c-0.4-0.1-0.8,0.2-0.9,0.6c-0.1,0.4,0.2,0.8,0.6,0.9l7.9,1.7c0.1,0,0.1,0,0.2,0c0.3,0,0.7-0.2,0.7-0.6   C102.8,57.6,102.5,57.2,102.1,57.1z"></path><path d="M102.2,37.4c0.4-0.1,0.6-0.6,0.5-0.9c-0.1-0.4-0.6-0.6-0.9-0.5L94,38.5c-0.4,0.1-0.6,0.6-0.5,0.9c0.1,0.3,0.4,0.5,0.7,0.5   c0.1,0,0.2,0,0.2,0L102.2,37.4z"></path><path d="M62.6,15.5c0.4,0,0.8-0.3,0.8-0.8V1.3c0-0.4-0.3-0.8-0.8-0.8s-0.8,0.3-0.8,0.8v13.5C61.9,15.2,62.2,15.5,62.6,15.5z"></path><path d="M45.5,19.7c0.1,0.2,0.4,0.4,0.6,0.4c0.1,0,0.3,0,0.4-0.1c0.4-0.2,0.5-0.7,0.3-1L39.9,7.3c-0.2-0.4-0.7-0.5-1-0.3   c-0.4,0.2-0.5,0.7-0.3,1L45.5,19.7z"></path><path d="M34.4,32c0.3,0,0.5-0.1,0.7-0.4c0.2-0.4,0.1-0.8-0.3-1L23,23.9c-0.4-0.2-0.8-0.1-1,0.3c-0.2,0.4-0.1,0.8,0.3,1L34,31.9   C34.1,31.9,34.3,32,34.4,32z"></path><path d="M30.9,47.4c0-0.4-0.4-0.7-0.8-0.7l-13.5,0.1c-0.4,0-0.8,0.3-0.7,0.8c0,0.4,0.3,0.7,0.8,0.7c0,0,0,0,0,0l13.5-0.1   C30.6,48.2,30.9,47.8,30.9,47.4z"></path><path d="M22.2,70.7c0.1,0.2,0.4,0.4,0.7,0.4c0.1,0,0.3,0,0.4-0.1L35,64.2c0.4-0.2,0.5-0.7,0.3-1c-0.2-0.4-0.7-0.5-1-0.3l-11.7,6.8   C22.2,69.9,22,70.4,22.2,70.7z"></path><path d="M102.7,69.8L91,62.9c-0.4-0.2-0.8-0.1-1,0.3c-0.2,0.4-0.1,0.8,0.3,1l11.7,6.8c0.1,0.1,0.3,0.1,0.4,0.1   c0.3,0,0.5-0.1,0.7-0.4C103.2,70.4,103,70,102.7,69.8z"></path><path d="M103.3,24.3c-0.2-0.4-0.7-0.5-1-0.3l-11.8,6.6c-0.4,0.2-0.5,0.7-0.3,1c0.1,0.2,0.4,0.4,0.7,0.4c0.1,0,0.3,0,0.4-0.1   l11.8-6.6C103.4,25.1,103.5,24.6,103.3,24.3z"></path><path d="M78.8,20c0.1,0.1,0.3,0.1,0.4,0.1c0.3,0,0.5-0.1,0.6-0.4l6.9-11.6c0.2-0.4,0.1-0.8-0.3-1c-0.4-0.2-0.8-0.1-1,0.3l-6.9,11.6   C78.3,19.3,78.4,19.7,78.8,20z"></path><path d="M54.2,15.8c0.1,0.3,0.4,0.5,0.7,0.5c0.1,0,0.2,0,0.2,0c0.4-0.1,0.6-0.5,0.5-0.9l-2.4-7.7c-0.1-0.4-0.5-0.6-0.9-0.5   c-0.4,0.1-0.6,0.5-0.5,0.9L54.2,15.8z"></path><path d="M39.6,24.2c0.1,0.1,0.3,0.2,0.5,0.2c0.2,0,0.4-0.1,0.6-0.2c0.3-0.3,0.3-0.8,0-1.1l-6-5.5c-0.3-0.3-0.8-0.3-1.1,0   c-0.3,0.3-0.3,0.8,0,1.1L39.6,24.2z"></path><path d="M23.2,37.1l7.9,1.7c0.1,0,0.1,0,0.2,0c0.3,0,0.7-0.2,0.7-0.6c0.1-0.4-0.2-0.8-0.6-0.9l-7.9-1.7c-0.4-0.1-0.8,0.2-0.9,0.6   C22.6,36.6,22.8,37,23.2,37.1z"></path><path d="M23,56.8c-0.4,0.1-0.6,0.5-0.5,0.9c0.1,0.3,0.4,0.5,0.7,0.5c0.1,0,0.2,0,0.2,0l7.7-2.5c0.4-0.1,0.6-0.5,0.5-0.9   c-0.1-0.4-0.6-0.6-0.9-0.5L23,56.8z"></path><path d="M38.6,69.3l-5.5,6c-0.3,0.3-0.3,0.8,0.1,1.1c0.1,0.1,0.3,0.2,0.5,0.2c0.2,0,0.4-0.1,0.6-0.2l5.5-6c0.3-0.3,0.3-0.8-0.1-1.1   C39.3,69,38.8,69,38.6,69.3z"></path><path d="M85.8,70.1c-0.3-0.3-0.8-0.3-1.1,0.1c-0.3,0.3-0.3,0.8,0.1,1.1l6,5.4c0.1,0.1,0.3,0.2,0.5,0.2c0.2,0,0.4-0.1,0.6-0.2   c0.3-0.3,0.3-0.8-0.1-1.1L85.8,70.1z"></path><path d="M85.5,25c0.1,0.1,0.3,0.2,0.5,0.2c0.2,0,0.4-0.1,0.6-0.3l5.4-6.1c0.3-0.3,0.3-0.8-0.1-1.1c-0.3-0.3-0.8-0.3-1.1,0.1   l-5.4,6.1C85.1,24.3,85.1,24.7,85.5,25z"></path><path d="M71.3,16.6c0.1,0,0.1,0,0.2,0c0.3,0,0.7-0.2,0.7-0.6l1.7-8c0.1-0.4-0.2-0.8-0.6-0.9c-0.4-0.1-0.8,0.2-0.9,0.6l-1.7,8   C70.6,16.1,70.8,16.5,71.3,16.6z"></path><path d="M87.8,39.2c-3-9.6-11.3-16.8-21.2-18.3c-11-1.7-21.9,3.8-27.2,13.5c-4.6,8.5-4.1,17.6,1.7,27.8c3.8,6.7,8.2,15.5,8.2,24   v0.6c0,0,0,0,0,0.1c0,0,0,0,0,0.1v9.4c0,0,0,0,0,0.1c0,0,0,0,0,0.1v9.6c0,0.1,0,0.1,0,0.1c0,0.1,0,0.3,0.1,0.4L62,127.1   c0.1,0.2,0.4,0.4,0.6,0.4c0.3,0,0.5-0.1,0.6-0.4l12.6-20.6c0.1-0.1,0.1-0.3,0.1-0.4c0,0,0-0.1,0-0.1l0-2.9   c0-13.5-0.1-24.1,5.9-36.7c0.5-1.1,1.1-2.2,1.6-3.3C87.3,55.7,90.8,48.7,87.8,39.2z M74.9,87.6c-0.2,2.6-0.3,5.3-0.4,8H50.8v-8   H74.9z M59.3,119.8l-8.5-13.9v-0.1c0,0,0.1,0,0.1,0c1.6,0,3.1-0.9,3.9-2.1c0.8,1.3,2.3,2.1,3.9,2.1s3.1-0.9,3.9-2.1   c0.8,1.3,2.3,2.1,3.9,2.1c1.6,0,3.1-0.9,3.9-2.1c0.8,1.3,2.3,2.1,3.9,2.1c0,0,0.1,0,0.1,0l0,0.1L66,119.8v-0.2h-6.7V119.8z    M74.5,103.1l0,1.2c0,0-0.1,0-0.1,0c-1.7,0-3.2-1.4-3.2-3.2c0,0,0,0,0-0.1c0,0,0,0,0-0.1v-3.9h3.3C74.5,99.1,74.5,101.1,74.5,103.1   z M69.7,101.1C69.7,101.1,69.7,101.1,69.7,101.1c0,1.8-1.4,3.2-3.2,3.2c-1.7,0-3.2-1.4-3.2-3.2c0,0,0,0,0-0.1c0,0,0-0.1,0-0.1v-3.6   c0-0.1,0-0.2-0.1-0.3h6.4L69.7,101.1C69.7,101,69.7,101,69.7,101.1z M61.9,101.1C61.9,101.1,61.9,101.1,61.9,101.1   c0,1.8-1.4,3.2-3.2,3.2c-1.7,0-3.2-1.4-3.2-3.2c0,0,0,0,0-0.1c0,0,0-0.1,0-0.1v-3.9h6.4c0,0.1-0.1,0.2-0.1,0.3L61.9,101.1   C61.9,101,61.9,101,61.9,101.1z M54.1,101.1C54.1,101.1,54,101.1,54.1,101.1c0,1.8-1.4,3.2-3.2,3.2c0,0-0.1,0-0.1,0v-7.2H54   L54.1,101.1C54,101,54.1,101,54.1,101.1z M62.6,125.3l-2.5-4.2h5.1L62.6,125.3z M82.2,62.5c-0.5,1.1-1.1,2.2-1.6,3.4   c-3.4,7-4.9,13.6-5.5,20.3H50.8c0-8.8-4.5-17.8-8.4-24.6c-5.5-9.8-6-18.4-1.7-26.4c5-9.2,15.3-14.3,25.7-12.7   c9.3,1.4,17.2,8.2,20,17.3C89.1,48.5,85.9,55,82.2,62.5z"></path><path d="M54.9,92h15.5c0.4,0,0.8-0.3,0.8-0.8c0-0.4-0.3-0.8-0.8-0.8H54.9c-0.4,0-0.8,0.3-0.8,0.8C54.2,91.7,54.5,92,54.9,92z"></path><path d="M59.3,35.6c-0.1-0.4-0.6-0.6-1-0.4c-0.4,0.1-0.6,0.6-0.4,1c0,0.1,1.1,3.1-2.7,4.6c-0.4,0.2-0.6,0.6-0.4,1   c0.1,0.3,0.4,0.5,0.7,0.5c0.1,0,0.2,0,0.3-0.1C61,40.1,59.4,35.6,59.3,35.6z"></path><path d="M60.5,58.1c-1.5,0.3-2.7,0.9-3.4,2c-1.2,1.8-0.8,4-0.8,4.1c0.1,0.4,0.4,0.6,0.7,0.6c0,0,0.1,0,0.1,0   c0.4-0.1,0.7-0.5,0.6-0.9c0,0-0.3-1.7,0.6-3c0.5-0.7,1.3-1.2,2.4-1.4c0.4-0.1,0.7-0.5,0.6-0.9C61.3,58.3,61,58,60.5,58.1z"></path><path d="M68.4,30.5c-0.3-0.2-0.5-0.4-0.8-0.7c-0.6-0.4-1.3-0.6-2-0.6c-1.2,0-2.3,0.6-3,1.5c-0.7-0.9-1.8-1.5-3-1.5   c-0.7,0-1.4,0.2-2,0.6l0,0c0,0,0,0,0,0c0,0,0,0,0,0c0,0,0,0,0,0c-0.3,0.2-0.5,0.4-0.7,0.6c0,0,0,0,0,0c-6.5,5.9-9.8,13.1-9.8,21.3   c0,9.1,5.8,14.7,10.8,16.8c0,0,0,0,0,0c0.3,0.2,0.7,0.3,1.1,0.4l0,0c0,0,0,0,0,0c0.2,0,0.4,0.1,0.7,0.1c1.2,0,2.3-0.6,3-1.5   c0.7,0.9,1.8,1.5,3,1.5c0.2,0,0.4,0,0.7-0.1l0,0c0,0,0,0,0.1,0c0,0,0,0,0,0c0,0,0,0,0,0c0.3-0.1,0.7-0.2,1-0.3c0,0,0,0,0,0   c5-2.1,10.8-7.7,10.8-16.8C78.2,43.5,74.9,36.4,68.4,30.5z M59.7,67.5c-0.1,0-0.3,0-0.3,0c-0.3-0.1-0.6-0.2-0.9-0.3   c-1.3-0.5-2.7-1.4-4-2.4c-0.2-1-0.9-5,1.2-6.3c0.4-0.2,0.5-0.7,0.2-1c-0.2-0.4-0.7-0.5-1-0.2c-2,1.3-2.3,3.9-2.1,5.8   c-2.4-2.7-4.2-6.4-4.2-11.2c0-0.8,0-1.6,0.1-2.3c0.4-0.4,1.7-1.6,3.6-1.7c1.5-0.1,3.1,0.6,4.6,1.9c0.1,0.1,0.3,0.2,0.5,0.2   c0.2,0,0.4-0.1,0.6-0.2c0.3-0.3,0.3-0.8-0.1-1.1c-1.9-1.7-3.8-2.5-5.7-2.3c-1.3,0.1-2.4,0.6-3.2,1.1c0.3-1.8,0.8-3.5,1.4-5.1   c0.6,0.9,1.6,2,3.3,2.3c0,0,0.1,0,0.1,0c0.4,0,0.7-0.2,0.7-0.6c0.1-0.4-0.2-0.8-0.6-0.9c-2-0.4-2.6-2.1-2.8-2.7   c0.8-1.7,1.8-3.3,3-4.8c0.2,0.9,0.6,2,1.4,3.4c0.1,0.2,0.4,0.4,0.6,0.4c0.1,0,0.3,0,0.4-0.1c0.4-0.2,0.5-0.7,0.3-1   c-1.9-3.3-1.1-4.5-1-4.6c0,0,0,0,0,0c0.6-0.7,1.3-1.4,2.1-2c0.2-0.2,0.4-0.4,0.6-0.5c0.3-0.2,0.7-0.3,1.2-0.3c1.1,0,2,0.8,2.2,1.8   c0,0.2-0.1,0.4-0.1,0.5v8.7c-0.5-0.2-1-0.4-1.6-0.3c-0.6,0-1.5,0.3-2.2,1.4c-0.2,0.3-0.2,0.8,0.2,1c0.1,0.1,0.3,0.1,0.4,0.1   c0.2,0,0.5-0.1,0.6-0.3c0.3-0.5,0.7-0.7,1.1-0.7c0.5,0,1.1,0.3,1.5,0.6v9c-0.7,0.5-2.4,1.4-4.2,1.2c-1.2-0.1-2.3-0.8-3.2-2   c-0.2-0.2-0.5-0.3-0.8-0.3c-0.3,0.1-0.5,0.4-0.5,0.7c0,0-0.2,2.9-1.8,3.2c-0.4,0.1-0.7,0.5-0.6,0.9c0.1,0.4,0.4,0.6,0.7,0.6   c0,0,0.1,0,0.1,0c1.6-0.3,2.4-1.8,2.7-3c0.9,0.8,2,1.3,3.2,1.4c1.7,0.2,3.3-0.4,4.4-1v11c0,0.2,0,0.4,0.1,0.5   C61.6,66.7,60.7,67.5,59.7,67.5z M72.6,63c0.1-1.9-0.1-4.6-2.1-5.8c-0.4-0.2-0.8-0.1-1,0.2c-0.2,0.4-0.1,0.8,0.2,1   c1.9,1.2,1.5,4.7,1.2,6.2c-1.3,1.1-2.7,1.9-4,2.4c-0.3,0.1-0.5,0.2-0.8,0.3c-0.1,0-0.2,0-0.4,0c-1.1,0-2-0.8-2.2-1.8   c0-0.2,0.1-0.4,0.1-0.5v-11c1.1,0.6,2.7,1.2,4.4,1c1.2-0.1,2.2-0.6,3.2-1.4c0.3,1.2,1.1,2.7,2.7,3c0,0,0.1,0,0.1,0   c0.4,0,0.7-0.2,0.7-0.6c0.1-0.4-0.2-0.8-0.6-0.9c-1.6-0.3-1.8-3.1-1.8-3.2c0-0.3-0.2-0.6-0.5-0.7c-0.3-0.1-0.6,0-0.8,0.3   c-0.9,1.2-2,1.8-3.2,2c-1.8,0.2-3.5-0.7-4.2-1.2v-9c0.4-0.3,1-0.6,1.5-0.6c0.4,0,0.8,0.3,1.1,0.7c0.1,0.2,0.4,0.3,0.6,0.3   c0.2,0,0.3,0,0.4-0.1c0.3-0.2,0.4-0.7,0.2-1c-0.7-1-1.6-1.3-2.2-1.4c-0.6,0-1.1,0.1-1.6,0.3V33c0-0.2,0-0.4-0.1-0.5   c0.2-1,1.1-1.8,2.2-1.8c0.4,0,0.8,0.1,1.1,0.3c0.2,0.2,0.4,0.3,0.6,0.5c0.7,0.7,1.4,1.3,2.1,2c0,0,0,0,0,0c0,0,1,1.2-1,4.6   c-0.2,0.4-0.1,0.8,0.3,1c0.1,0.1,0.3,0.1,0.4,0.1c0.3,0,0.5-0.1,0.6-0.4c0.8-1.4,1.2-2.5,1.4-3.4c1.2,1.5,2.2,3.1,3,4.8   c-0.2,0.6-0.8,2.3-2.8,2.7c-0.4,0.1-0.7,0.5-0.6,0.9c0.1,0.4,0.4,0.6,0.7,0.6c0,0,0.1,0,0.1,0c1.8-0.4,2.8-1.4,3.3-2.3   c0.6,1.6,1.1,3.3,1.4,5.1c-0.8-0.5-1.9-1-3.2-1.1c-2-0.1-3.9,0.7-5.7,2.3c-0.3,0.3-0.3,0.8-0.1,1.1c0.3,0.3,0.8,0.3,1.1,0.1   c1.5-1.4,3.1-2,4.6-1.9c1.8,0.1,3.1,1.3,3.6,1.7c0.1,0.8,0.1,1.5,0.1,2.3C76.7,56.6,74.9,60.3,72.6,63z"></path><path d="M69.8,42.2c0.3,0,0.6-0.2,0.7-0.5c0.2-0.4,0-0.8-0.4-1c-3.7-1.5-2.8-4.3-2.7-4.6c0.1-0.4-0.1-0.8-0.4-1   c-0.4-0.1-0.8,0.1-1,0.4c0,0-1.6,4.5,3.6,6.5C69.6,42.1,69.7,42.2,69.8,42.2z"></path><path d="M64.7,58.1c-0.4-0.1-0.8,0.2-0.9,0.6c-0.1,0.4,0.2,0.8,0.6,0.9c1.1,0.2,1.9,0.6,2.4,1.4c0.9,1.3,0.6,2.9,0.6,3   c-0.1,0.4,0.2,0.8,0.6,0.9c0,0,0.1,0,0.1,0c0.4,0,0.7-0.2,0.7-0.6c0-0.1,0.4-2.3-0.8-4.1C67.4,59,66.3,58.4,64.7,58.1z"></path></g></g>
</svg>
</g></svg></svg>