<svg version="1.1" preserveAspectRatio="none" xmlns="http://www.w3.org/2000/svg" width="500" height="500" viewBox="0 0 500 500"><rect width="100%" height="100%" fill="#005F40" fill-opacity="1"/><svg viewBox="-34.5744 137.9787 610.7845 322.5359" width="333" height="175.8467261366325" x="83.5px" y="162.0766px" xmlns="http://www.w3.org/2000/svg" xmlns:xlink="http://www.w3.org/1999/xlink" preserveAspectRatio="none"><defs></defs><style>.companyName {fill:#EDEDED;fill-opacity:1;}.icon1 {fill:#EDEDED;fill-opacity:1;}.icon2 {fill:#163D26;fill-opacity:1;}.icon3 {fill:#9C9C9C;fill-opacity:1;}.icon3-str {stroke:#9C9C9C;stroke-opacity:1;}.text {fill:#EDEDED;fill-opacity:1;}</style><g opacity="1" transform="rotate(0 -34.5744 432.5146)">
<svg width="610.7845" height="28" x="-34.5744" y="432.5146" version="1.1" preserveAspectRatio="none" viewBox="4.56 -29.88 825.32 37.84">
  <g transform="matrix(1 0 0 1 0 0)" class="text"><path id="id-6izo4zJp35" d="M4.56 0L4.56-28L7.52-28L7.52-2.56L23.20-2.56L23.20 0L4.56 0Z M39 0.20Q35.96 0.20 33.52-1.18Q31.08-2.56 29.68-5Q28.28-7.44 28.28-10.52L28.28-10.52Q28.28-13.60 29.68-16.04Q31.08-18.48 33.52-19.84Q35.96-21.20 39-21.20L39-21.20Q42.04-21.20 44.48-19.84Q46.92-18.48 48.30-16.04Q49.68-13.60 49.68-10.52L49.68-10.52Q49.68-7.44 48.30-5Q46.92-2.56 44.48-1.18Q42.04 0.20 39 0.20L39 0.20ZM39-2.32Q41.24-2.32 43.02-3.34Q44.80-4.36 45.80-6.24Q46.80-8.12 46.80-10.52L46.80-10.52Q46.80-12.92 45.80-14.80Q44.80-16.68 43.02-17.70Q41.24-18.72 39-18.72L39-18.72Q36.76-18.72 34.98-17.70Q33.20-16.68 32.18-14.80Q31.16-12.92 31.16-10.52L31.16-10.52Q31.16-8.12 32.18-6.24Q33.20-4.36 34.98-3.34Q36.76-2.32 39-2.32L39-2.32Z M98.60-21.20Q102.56-21.20 104.82-18.92Q107.08-16.64 107.08-12.20L107.08-12.20L107.08 0L104.24 0L104.24-11.92Q104.24-15.20 102.66-16.92Q101.08-18.64 98.20-18.64L98.20-18.64Q94.92-18.64 93.04-16.62Q91.16-14.60 91.16-11.04L91.16-11.04L91.16 0L88.32 0L88.32-11.92Q88.32-15.20 86.74-16.92Q85.16-18.64 82.24-18.64L82.24-18.64Q79-18.64 77.10-16.62Q75.20-14.60 75.20-11.04L75.20-11.04L75.20 0L72.36 0L72.36-21.04L75.08-21.04L75.08-17.20Q76.20-19.12 78.20-20.16Q80.20-21.20 82.80-21.20L82.80-21.20Q85.44-21.20 87.38-20.08Q89.32-18.96 90.28-16.76L90.28-16.76Q91.44-18.84 93.62-20.02Q95.80-21.20 98.60-21.20L98.60-21.20Z M136.44-10.52L136.40-9.64L118.80-9.64Q119.04-6.36 121.32-4.34Q123.60-2.32 127.08-2.32L127.08-2.32Q129.04-2.32 130.68-3.02Q132.32-3.72 133.52-5.08L133.52-5.08L135.12-3.24Q133.72-1.56 131.62-0.68Q129.52 0.20 127 0.20L127 0.20Q123.76 0.20 121.26-1.18Q118.76-2.56 117.36-5Q115.96-7.44 115.96-10.52L115.96-10.52Q115.96-13.60 117.30-16.04Q118.64-18.48 120.98-19.84Q123.32-21.20 126.24-21.20L126.24-21.20Q129.16-21.20 131.48-19.84Q133.80-18.48 135.12-16.06Q136.44-13.64 136.44-10.52L136.44-10.52ZM126.24-18.76Q123.20-18.76 121.14-16.82Q119.08-14.88 118.80-11.76L118.80-11.76L133.72-11.76Q133.44-14.88 131.38-16.82Q129.32-18.76 126.24-18.76L126.24-18.76Z M142.32 7.96Q141 7.96 139.82 7.62Q138.64 7.28 137.88 6.60L137.88 6.60L138.88 4.44Q140.12 5.52 142.16 5.52L142.16 5.52Q143.84 5.52 144.74 4.52Q145.64 3.52 145.64 1.56L145.64 1.56L145.64-21.04L148.48-21.04L148.48 1.56Q148.48 4.52 146.88 6.24Q145.28 7.96 142.32 7.96L142.32 7.96ZM147.08-25.68Q146.20-25.68 145.60-26.28Q145-26.88 145-27.72L145-27.72Q145-28.52 145.60-29.12Q146.20-29.72 147.08-29.72L147.08-29.72Q147.96-29.72 148.56-29.14Q149.16-28.56 149.16-27.76L149.16-27.76Q149.16-26.88 148.56-26.28Q147.96-25.68 147.08-25.68L147.08-25.68Z M168.20 0.20Q165.16 0.20 162.72-1.18Q160.28-2.56 158.88-5Q157.48-7.44 157.48-10.52L157.48-10.52Q157.48-13.60 158.88-16.04Q160.28-18.48 162.72-19.84Q165.16-21.20 168.20-21.20L168.20-21.20Q171.24-21.20 173.68-19.84Q176.12-18.48 177.50-16.04Q178.88-13.60 178.88-10.52L178.88-10.52Q178.88-7.44 177.50-5Q176.12-2.56 173.68-1.18Q171.24 0.20 168.20 0.20L168.20 0.20ZM168.20-2.32Q170.44-2.32 172.22-3.34Q174-4.36 175-6.24Q176-8.12 176-10.52L176-10.52Q176-12.92 175-14.80Q174-16.68 172.22-17.70Q170.44-18.72 168.20-18.72L168.20-18.72Q165.96-18.72 164.18-17.70Q162.40-16.68 161.38-14.80Q160.36-12.92 160.36-10.52L160.36-10.52Q160.36-8.12 161.38-6.24Q162.40-4.36 164.18-3.34Q165.96-2.32 168.20-2.32L168.20-2.32Z M190.60-16.92Q191.60-19.04 193.58-20.12Q195.56-21.20 198.48-21.20L198.48-21.20L198.48-18.44L197.80-18.48Q194.48-18.48 192.60-16.44Q190.72-14.40 190.72-10.72L190.72-10.72L190.72 0L187.88 0L187.88-21.04L190.60-21.04L190.60-16.92Z M239.16-10.52L239.12-9.64L221.52-9.64Q221.76-6.36 224.04-4.34Q226.32-2.32 229.80-2.32L229.80-2.32Q231.76-2.32 233.40-3.02Q235.04-3.72 236.24-5.08L236.24-5.08L237.84-3.24Q236.44-1.56 234.34-0.68Q232.24 0.20 229.72 0.20L229.72 0.20Q226.48 0.20 223.98-1.18Q221.48-2.56 220.08-5Q218.68-7.44 218.68-10.52L218.68-10.52Q218.68-13.60 220.02-16.04Q221.36-18.48 223.70-19.84Q226.04-21.20 228.96-21.20L228.96-21.20Q231.88-21.20 234.20-19.84Q236.52-18.48 237.84-16.06Q239.16-13.64 239.16-10.52L239.16-10.52ZM228.96-18.76Q225.92-18.76 223.86-16.82Q221.80-14.88 221.52-11.76L221.52-11.76L236.44-11.76Q236.16-14.88 234.10-16.82Q232.04-18.76 228.96-18.76L228.96-18.76Z M258.88-21.20Q262.84-21.20 265.18-18.90Q267.52-16.60 267.52-12.20L267.52-12.20L267.52 0L264.68 0L264.68-11.92Q264.68-15.20 263.04-16.92Q261.40-18.64 258.36-18.64L258.36-18.64Q254.96-18.64 252.98-16.62Q251.00-14.60 251.00-11.04L251.00-11.04L251.00 0L248.16 0L248.16-21.04L250.88-21.04L250.88-17.16Q252.04-19.08 254.10-20.14Q256.16-21.20 258.88-21.20L258.88-21.20Z M297.76 0.20Q295.20 0.20 292.86-0.54Q290.52-1.28 289.20-2.40L289.20-2.40L290.48-4.64Q291.80-3.60 293.80-2.94Q295.80-2.28 297.96-2.28L297.96-2.28Q300.84-2.28 302.22-3.18Q303.60-4.08 303.60-5.72L303.60-5.72Q303.60-6.88 302.84-7.54Q302.08-8.20 300.92-8.54Q299.76-8.88 297.84-9.20L297.84-9.20Q295.28-9.68 293.72-10.18Q292.16-10.68 291.06-11.88Q289.96-13.08 289.96-15.20L289.96-15.20Q289.96-17.84 292.16-19.52Q294.36-21.20 298.28-21.20L298.28-21.20Q300.32-21.20 302.36-20.66Q304.40-20.12 305.72-19.24L305.72-19.24L304.48-16.96Q301.88-18.76 298.28-18.76L298.28-18.76Q295.56-18.76 294.18-17.80Q292.80-16.84 292.80-15.28L292.80-15.28Q292.80-14.08 293.58-13.36Q294.36-12.64 295.52-12.30Q296.68-11.96 298.72-11.60L298.72-11.60Q301.24-11.12 302.76-10.64Q304.28-10.16 305.36-9Q306.44-7.84 306.44-5.80L306.44-5.80Q306.44-3.04 304.14-1.42Q301.84 0.20 297.76 0.20L297.76 0.20Z M323.48 0.20Q320.44 0.20 318.00-1.18Q315.56-2.56 314.16-5Q312.76-7.44 312.76-10.52L312.76-10.52Q312.76-13.60 314.16-16.04Q315.56-18.48 318.00-19.84Q320.44-21.20 323.48-21.20L323.48-21.20Q326.52-21.20 328.96-19.84Q331.40-18.48 332.78-16.04Q334.16-13.60 334.16-10.52L334.16-10.52Q334.16-7.44 332.78-5Q331.40-2.56 328.96-1.18Q326.52 0.20 323.48 0.20L323.48 0.20ZM323.48-2.32Q325.72-2.32 327.50-3.34Q329.28-4.36 330.28-6.24Q331.28-8.12 331.28-10.52L331.28-10.52Q331.28-12.92 330.28-14.80Q329.28-16.68 327.50-17.70Q325.72-18.72 323.48-18.72L323.48-18.72Q321.24-18.72 319.46-17.70Q317.68-16.68 316.66-14.80Q315.64-12.92 315.64-10.52L315.64-10.52Q315.64-8.12 316.66-6.24Q317.68-4.36 319.46-3.34Q321.24-2.32 323.48-2.32L323.48-2.32Z M343.16 0L343.16-29.68L346.00-29.68L346.00 0L343.16 0Z M373.24-21.04L376.08-21.04L376.08 0L373.36 0L373.36-3.84Q372.24-1.92 370.28-0.86Q368.32 0.20 365.80 0.20L365.80 0.20Q361.68 0.20 359.30-2.10Q356.92-4.40 356.92-8.84L356.92-8.84L356.92-21.04L359.76-21.04L359.76-9.12Q359.76-5.80 361.40-4.08Q363.04-2.36 366.08-2.36L366.08-2.36Q369.40-2.36 371.32-4.38Q373.24-6.40 373.24-10L373.24-10L373.24-21.04Z M395.96 0.20Q392.84 0.20 390.38-1.16Q387.92-2.52 386.52-4.98Q385.12-7.44 385.12-10.52L385.12-10.52Q385.12-13.60 386.52-16.04Q387.92-18.48 390.38-19.84Q392.84-21.20 395.96-21.20L395.96-21.20Q398.68-21.20 400.82-20.14Q402.96-19.08 404.20-17.04L404.20-17.04L402.08-15.60Q401.04-17.16 399.44-17.94Q397.84-18.72 395.96-18.72L395.96-18.72Q393.68-18.72 391.86-17.70Q390.04-16.68 389.02-14.80Q388.00-12.92 388.00-10.52L388.00-10.52Q388.00-8.08 389.02-6.22Q390.04-4.36 391.86-3.34Q393.68-2.32 395.96-2.32L395.96-2.32Q397.84-2.32 399.44-3.08Q401.04-3.84 402.08-5.40L402.08-5.40L404.20-3.96Q402.96-1.92 400.80-0.86Q398.64 0.20 395.96 0.20L395.96 0.20Z M412.96 0L412.96-21.04L415.80-21.04L415.80 0L412.96 0ZM414.40-25.64Q413.52-25.64 412.92-26.24Q412.32-26.84 412.32-27.68L412.32-27.68Q412.32-28.48 412.92-29.08Q413.52-29.68 414.40-29.68L414.40-29.68Q415.28-29.68 415.88-29.10Q416.48-28.52 416.48-27.72L416.48-27.72Q416.48-26.84 415.88-26.24Q415.28-25.64 414.40-25.64L414.40-25.64Z M435.52 0.20Q432.48 0.20 430.04-1.18Q427.60-2.56 426.20-5Q424.80-7.44 424.80-10.52L424.80-10.52Q424.80-13.60 426.20-16.04Q427.60-18.48 430.04-19.84Q432.48-21.20 435.52-21.20L435.52-21.20Q438.56-21.20 441.00-19.84Q443.44-18.48 444.82-16.04Q446.20-13.60 446.20-10.52L446.20-10.52Q446.20-7.44 444.82-5Q443.44-2.56 441.00-1.18Q438.56 0.20 435.52 0.20L435.52 0.20ZM435.52-2.32Q437.76-2.32 439.54-3.34Q441.32-4.36 442.32-6.24Q443.32-8.12 443.32-10.52L443.32-10.52Q443.32-12.92 442.32-14.80Q441.32-16.68 439.54-17.70Q437.76-18.72 435.52-18.72L435.52-18.72Q433.28-18.72 431.50-17.70Q429.72-16.68 428.70-14.80Q427.68-12.92 427.68-10.52L427.68-10.52Q427.68-8.12 428.70-6.24Q429.72-4.36 431.50-3.34Q433.28-2.32 435.52-2.32L435.52-2.32Z M465.92-21.20Q469.88-21.20 472.22-18.90Q474.56-16.60 474.56-12.20L474.56-12.20L474.56 0L471.72 0L471.72-11.92Q471.72-15.20 470.08-16.92Q468.44-18.64 465.40-18.64L465.40-18.64Q462.00-18.64 460.02-16.62Q458.04-14.60 458.04-11.04L458.04-11.04L458.04 0L455.20 0L455.20-21.04L457.92-21.04L457.92-17.16Q459.08-19.08 461.14-20.14Q463.20-21.20 465.92-21.20L465.92-21.20Z M503.92-10.52L503.88-9.64L486.28-9.64Q486.52-6.36 488.80-4.34Q491.08-2.32 494.56-2.32L494.56-2.32Q496.52-2.32 498.16-3.02Q499.80-3.72 501.00-5.08L501.00-5.08L502.60-3.24Q501.20-1.56 499.10-0.68Q497.00 0.20 494.48 0.20L494.48 0.20Q491.24 0.20 488.74-1.18Q486.24-2.56 484.84-5Q483.44-7.44 483.44-10.52L483.44-10.52Q483.44-13.60 484.78-16.04Q486.12-18.48 488.46-19.84Q490.80-21.20 493.72-21.20L493.72-21.20Q496.64-21.20 498.96-19.84Q501.28-18.48 502.60-16.06Q503.92-13.64 503.92-10.52L503.92-10.52ZM493.72-18.76Q490.68-18.76 488.62-16.82Q486.56-14.88 486.28-11.76L486.28-11.76L501.20-11.76Q500.92-14.88 498.86-16.82Q496.80-18.76 493.72-18.76L493.72-18.76Z M518.56 0.20Q516.00 0.20 513.66-0.54Q511.32-1.28 510.00-2.40L510.00-2.40L511.28-4.64Q512.60-3.60 514.60-2.94Q516.60-2.28 518.76-2.28L518.76-2.28Q521.64-2.28 523.02-3.18Q524.40-4.08 524.40-5.72L524.40-5.72Q524.40-6.88 523.64-7.54Q522.88-8.20 521.72-8.54Q520.56-8.88 518.64-9.20L518.64-9.20Q516.08-9.68 514.52-10.18Q512.96-10.68 511.86-11.88Q510.76-13.08 510.76-15.20L510.76-15.20Q510.76-17.84 512.96-19.52Q515.16-21.20 519.08-21.20L519.08-21.20Q521.12-21.20 523.16-20.66Q525.20-20.12 526.52-19.24L526.52-19.24L525.28-16.96Q522.68-18.76 519.08-18.76L519.08-18.76Q516.36-18.76 514.98-17.80Q513.60-16.84 513.60-15.28L513.60-15.28Q513.60-14.08 514.38-13.36Q515.16-12.64 516.32-12.30Q517.48-11.96 519.52-11.60L519.52-11.60Q522.04-11.12 523.56-10.64Q525.08-10.16 526.16-9Q527.24-7.84 527.24-5.80L527.24-5.80Q527.24-3.04 524.94-1.42Q522.64 0.20 518.56 0.20L518.56 0.20Z M549.36 0L549.36-21.04L552.20-21.04L552.20 0L549.36 0ZM550.80-25.64Q549.92-25.64 549.32-26.24Q548.72-26.84 548.72-27.68L548.72-27.68Q548.72-28.48 549.32-29.08Q549.92-29.68 550.80-29.68L550.80-29.68Q551.68-29.68 552.28-29.10Q552.88-28.52 552.88-27.72L552.88-27.72Q552.88-26.84 552.28-26.24Q551.68-25.64 550.80-25.64L550.80-25.64Z M574.04-21.20Q578.00-21.20 580.34-18.90Q582.68-16.60 582.68-12.20L582.68-12.20L582.68 0L579.84 0L579.84-11.92Q579.84-15.20 578.20-16.92Q576.56-18.64 573.52-18.64L573.52-18.64Q570.12-18.64 568.14-16.62Q566.16-14.60 566.16-11.04L566.16-11.04L566.16 0L563.32 0L563.32-21.04L566.04-21.04L566.04-17.16Q567.20-19.08 569.26-20.14Q571.32-21.20 574.04-21.20L574.04-21.20Z M600.56-27.48Q598.72-27.48 597.78-26.48Q596.84-25.48 596.84-23.52L596.84-23.52L596.84-21.04L603.32-21.04L603.32-18.64L596.92-18.64L596.92 0L594.08 0L594.08-18.64L590.32-18.64L590.32-21.04L594.08-21.04L594.08-23.64Q594.08-26.52 595.74-28.20Q597.40-29.88 600.44-29.88L600.44-29.88Q601.64-29.88 602.76-29.54Q603.88-29.20 604.64-28.56L604.64-28.56L603.68-26.44Q602.44-27.48 600.56-27.48L600.56-27.48Z M618.60 0.20Q615.56 0.20 613.12-1.18Q610.68-2.56 609.28-5Q607.88-7.44 607.88-10.52L607.88-10.52Q607.88-13.60 609.28-16.04Q610.68-18.48 613.12-19.84Q615.56-21.20 618.60-21.20L618.60-21.20Q621.64-21.20 624.08-19.84Q626.52-18.48 627.90-16.04Q629.28-13.60 629.28-10.52L629.28-10.52Q629.28-7.44 627.90-5Q626.52-2.56 624.08-1.18Q621.64 0.20 618.60 0.20L618.60 0.20ZM618.60-2.32Q620.84-2.32 622.62-3.34Q624.40-4.36 625.40-6.24Q626.40-8.12 626.40-10.52L626.40-10.52Q626.40-12.92 625.40-14.80Q624.40-16.68 622.62-17.70Q620.84-18.72 618.60-18.72L618.60-18.72Q616.36-18.72 614.58-17.70Q612.80-16.68 611.78-14.80Q610.76-12.92 610.76-10.52L610.76-10.52Q610.76-8.12 611.78-6.24Q612.80-4.36 614.58-3.34Q616.36-2.32 618.60-2.32L618.60-2.32Z M641-16.92Q642-19.04 643.98-20.12Q645.96-21.20 648.88-21.20L648.88-21.20L648.88-18.44L648.20-18.48Q644.88-18.48 643-16.44Q641.12-14.40 641.12-10.72L641.12-10.72L641.12 0L638.28 0L638.28-21.04L641-21.04L641-16.92Z M683.44-21.20Q687.40-21.20 689.66-18.92Q691.92-16.64 691.92-12.20L691.92-12.20L691.92 0L689.08 0L689.08-11.92Q689.08-15.20 687.50-16.92Q685.92-18.64 683.04-18.64L683.04-18.64Q679.76-18.64 677.88-16.62Q676-14.60 676-11.04L676-11.04L676 0L673.16 0L673.16-11.92Q673.16-15.20 671.58-16.92Q670-18.64 667.08-18.64L667.08-18.64Q663.84-18.64 661.94-16.62Q660.04-14.60 660.04-11.04L660.04-11.04L660.04 0L657.20 0L657.20-21.04L659.92-21.04L659.92-17.20Q661.04-19.12 663.04-20.16Q665.04-21.20 667.64-21.20L667.64-21.20Q670.28-21.20 672.22-20.08Q674.16-18.96 675.12-16.76L675.12-16.76Q676.28-18.84 678.46-20.02Q680.64-21.20 683.44-21.20L683.44-21.20Z M710.20-21.20Q714.32-21.20 716.52-19.14Q718.72-17.08 718.72-13.04L718.72-13.04L718.72 0L716.00 0L716.00-3.28Q715.04-1.64 713.18-0.72Q711.32 0.20 708.76 0.20L708.76 0.20Q705.24 0.20 703.16-1.48Q701.08-3.16 701.08-5.92L701.08-5.92Q701.08-8.60 703.02-10.24Q704.96-11.88 709.20-11.88L709.20-11.88L715.88-11.88L715.88-13.16Q715.88-15.88 714.36-17.30Q712.84-18.72 709.92-18.72L709.92-18.72Q707.92-18.72 706.08-18.06Q704.24-17.40 702.92-16.24L702.92-16.24L701.64-18.36Q703.24-19.72 705.48-20.46Q707.72-21.20 710.20-21.20L710.20-21.20ZM709.20-2.04Q711.60-2.04 713.32-3.14Q715.04-4.24 715.88-6.32L715.88-6.32L715.88-9.76L709.28-9.76Q703.88-9.76 703.88-6L703.88-6Q703.88-4.16 705.28-3.10Q706.68-2.04 709.20-2.04L709.20-2.04ZM707.68-24.32L713.16-29.28L716.96-29.28L710.48-24.32L707.68-24.32Z M739.72-3.32L740.72-1.28Q739.92-0.56 738.74-0.18Q737.56 0.20 736.28 0.20L736.28 0.20Q733.32 0.20 731.72-1.40Q730.12-3 730.12-5.92L730.12-5.92L730.12-18.64L726.36-18.64L726.36-21.04L730.12-21.04L730.12-25.64L732.96-25.64L732.96-21.04L739.36-21.04L739.36-18.64L732.96-18.64L732.96-6.08Q732.96-4.20 733.90-3.22Q734.84-2.24 736.60-2.24L736.60-2.24Q737.48-2.24 738.30-2.52Q739.12-2.80 739.72-3.32L739.72-3.32Z M749.08 0L749.08-21.04L751.92-21.04L751.92 0L749.08 0ZM750.52-25.64Q749.64-25.64 749.04-26.24Q748.44-26.84 748.44-27.68L748.44-27.68Q748.44-28.48 749.04-29.08Q749.64-29.68 750.52-29.68L750.52-29.68Q751.40-29.68 752.00-29.10Q752.60-28.52 752.60-27.72L752.60-27.72Q752.60-26.84 752.00-26.24Q751.40-25.64 750.52-25.64L750.52-25.64Z M771.76 0.20Q768.64 0.20 766.18-1.16Q763.72-2.52 762.32-4.98Q760.92-7.44 760.92-10.52L760.92-10.52Q760.92-13.60 762.32-16.04Q763.72-18.48 766.18-19.84Q768.64-21.20 771.76-21.20L771.76-21.20Q774.48-21.20 776.62-20.14Q778.76-19.08 780.00-17.04L780.00-17.04L777.88-15.60Q776.84-17.16 775.24-17.94Q773.64-18.72 771.76-18.72L771.76-18.72Q769.48-18.72 767.66-17.70Q765.84-16.68 764.82-14.80Q763.80-12.92 763.80-10.52L763.80-10.52Q763.80-8.08 764.82-6.22Q765.84-4.36 767.66-3.34Q769.48-2.32 771.76-2.32L771.76-2.32Q773.64-2.32 775.24-3.08Q776.84-3.84 777.88-5.40L777.88-5.40L780.00-3.96Q778.76-1.92 776.60-0.86Q774.44 0.20 771.76 0.20L771.76 0.20Z M796.12-21.20Q800.24-21.20 802.44-19.14Q804.64-17.08 804.64-13.04L804.64-13.04L804.64 0L801.92 0L801.92-3.28Q800.96-1.64 799.10-0.72Q797.24 0.20 794.68 0.20L794.68 0.20Q791.16 0.20 789.08-1.48Q787.00-3.16 787.00-5.92L787.00-5.92Q787.00-8.60 788.94-10.24Q790.88-11.88 795.12-11.88L795.12-11.88L801.80-11.88L801.80-13.16Q801.80-15.88 800.28-17.30Q798.76-18.72 795.84-18.72L795.84-18.72Q793.84-18.72 792.00-18.06Q790.16-17.40 788.84-16.24L788.84-16.24L787.56-18.36Q789.16-19.72 791.40-20.46Q793.64-21.20 796.12-21.20L796.12-21.20ZM795.12-2.04Q797.52-2.04 799.24-3.14Q800.96-4.24 801.80-6.32L801.80-6.32L801.80-9.76L795.20-9.76Q789.80-9.76 789.80-6L789.80-6Q789.80-4.16 791.20-3.10Q792.60-2.04 795.12-2.04L795.12-2.04Z M821.20 0.20Q818.64 0.20 816.30-0.54Q813.96-1.28 812.64-2.40L812.64-2.40L813.92-4.64Q815.24-3.60 817.24-2.94Q819.24-2.28 821.40-2.28L821.40-2.28Q824.28-2.28 825.66-3.18Q827.04-4.08 827.04-5.72L827.04-5.72Q827.04-6.88 826.28-7.54Q825.52-8.20 824.36-8.54Q823.20-8.88 821.28-9.20L821.28-9.20Q818.72-9.68 817.16-10.18Q815.60-10.68 814.50-11.88Q813.40-13.08 813.40-15.20L813.40-15.20Q813.40-17.84 815.60-19.52Q817.80-21.20 821.72-21.20L821.72-21.20Q823.76-21.20 825.80-20.66Q827.84-20.12 829.16-19.24L829.16-19.24L827.92-16.96Q825.32-18.76 821.72-18.76L821.72-18.76Q819.00-18.76 817.62-17.80Q816.24-16.84 816.24-15.28L816.24-15.28Q816.24-14.08 817.02-13.36Q817.80-12.64 818.96-12.30Q820.12-11.96 822.16-11.60L822.16-11.60Q824.68-11.12 826.20-10.64Q827.72-10.16 828.80-9Q829.88-7.84 829.88-5.80L829.88-5.80Q829.88-3.04 827.58-1.42Q825.28 0.20 821.20 0.20L821.20 0.20Z"/></g>
</svg>
</g><g opacity="1" transform="rotate(0 76.5665 337.5146)">
<svg width="388.5027" height="70" x="76.5665" y="337.5146" version="1.1" preserveAspectRatio="none" viewBox="2.44 -32.8 184.48 33.24">
  <g transform="matrix(1 0 0 1 0 0)" class="companyName"><path id="id-D6z1nYkh12" d="M2.44 0L2.44-32.40L10.36-32.40Q14.44-32.40 16.74-31.34Q19.04-30.28 20.02-28.08Q21-25.88 21-22.24L21-22.24L21-10.44Q21-6.72 20.04-4.46Q19.08-2.20 16.80-1.10Q14.52 0 10.52 0L10.52 0L2.44 0ZM9-4.60L10.44-4.60Q12.16-4.60 12.98-5.14Q13.80-5.68 14.02-6.72Q14.24-7.76 14.24-9.72L14.24-9.72L14.24-23.12Q14.24-24.96 13.98-25.90Q13.72-26.84 12.92-27.30Q12.12-27.76 10.40-27.76L10.40-27.76L9-27.76L9-4.60Z M25.08 0L25.08-23.12L31.12-23.12L31.12-19.40Q32.32-21.48 33.46-22.44Q34.60-23.40 36.12-23.40L36.12-23.40Q36.48-23.40 37.04-23.32L37.04-23.32L37.04-17.16Q36-17.64 34.88-17.64L34.88-17.64Q32.68-17.64 31.12-15.40L31.12-15.40L31.12 0L25.08 0Z M39.60 0L39.60-5.84L45.36-5.84L45.36 0L39.60 0Z M67.80 0.44Q63.32 0.44 61.08-2.02Q58.84-4.48 58.64-9.64L58.64-9.64L64.32-10.60Q64.40-7.52 65.18-6.06Q65.96-4.60 67.52-4.60L67.52-4.60Q68.68-4.60 69.20-5.34Q69.72-6.08 69.72-7.24L69.72-7.24Q69.72-9.16 68.86-10.50Q68-11.84 66.16-13.44L66.16-13.44L62.80-16.36Q60.80-18.04 59.74-19.96Q58.68-21.88 58.68-24.56L58.68-24.56Q58.68-28.52 61.02-30.66Q63.36-32.80 67.48-32.80L67.48-32.80Q71.88-32.80 73.60-30.26Q75.32-27.72 75.56-23.80L75.56-23.80L69.84-22.96Q69.76-25.52 69.26-26.74Q68.76-27.96 67.28-27.96L67.28-27.96Q66.20-27.96 65.60-27.14Q65-26.32 65-25.20L65-25.20Q65-23.60 65.70-22.50Q66.40-21.40 67.92-20.08L67.92-20.08L71.20-17.20Q73.52-15.16 74.84-12.90Q76.16-10.64 76.16-7.60L76.16-7.60Q76.16-5.28 75.12-3.46Q74.08-1.64 72.18-0.60Q70.28 0.44 67.80 0.44L67.80 0.44Z M86.60 0.40Q82.84 0.40 80.82-1.60Q78.80-3.60 78.80-7.40L78.80-7.40L78.80-15.72Q78.80-19.52 80.82-21.52Q82.84-23.52 86.60-23.52L86.60-23.52Q90.36-23.52 92.38-21.52Q94.40-19.52 94.40-15.72L94.40-15.72L94.40-7.40Q94.40-3.60 92.38-1.60Q90.36 0.40 86.60 0.40L86.60 0.40ZM86.64-3.68Q87.68-3.68 88.06-4.50Q88.44-5.32 88.44-6.96L88.44-6.96L88.44-16.12Q88.44-17.76 88.06-18.60Q87.68-19.44 86.64-19.44L86.64-19.44Q85.56-19.44 85.16-18.58Q84.76-17.72 84.76-16.12L84.76-16.12L84.76-6.96Q84.76-5.36 85.16-4.52Q85.56-3.68 86.64-3.68L86.64-3.68Z M98.40 0L98.40-32.40L104.40-32.40L104.40 0L98.40 0Z M112.56 0.40Q110.56 0.40 109.50-1.08Q108.44-2.56 108.44-4.88L108.44-4.88L108.44-23.12L114.48-23.12L114.48-5.72Q114.48-4.76 114.82-4.28Q115.16-3.80 115.96-3.80L115.96-3.80Q116.80-3.80 118.08-4.68L118.08-4.68L118.08-23.12L124.12-23.12L124.12 0L118.08 0L118.08-2.16Q115.32 0.40 112.56 0.40L112.56 0.40Z M135.20 0.28Q131.72 0.28 130.38-1.28Q129.04-2.84 129.04-6.04L129.04-6.04L129.04-19.16L126.76-19.16L126.76-23.12L129.04-23.12L129.04-30.08L135.16-30.08L135.16-23.12L138.52-23.12L138.52-19.16L135.16-19.16L135.16-6.64Q135.16-4.60 137.20-4.60L137.20-4.60Q138.28-4.60 138.92-4.76L138.92-4.76L138.92-0.04Q136.80 0.28 135.20 0.28L135.20 0.28Z M142.08-26.92L142.08-31.44L148.16-31.44L148.16-26.92L142.08-26.92ZM142.12 0L142.12-23.12L148.16-23.12L148.16 0L142.12 0Z M159.68 0.40Q155.92 0.40 153.90-1.60Q151.88-3.60 151.88-7.40L151.88-7.40L151.88-15.72Q151.88-19.52 153.90-21.52Q155.92-23.52 159.68-23.52L159.68-23.52Q163.44-23.52 165.46-21.52Q167.48-19.52 167.48-15.72L167.48-15.72L167.48-7.40Q167.48-3.60 165.46-1.60Q163.44 0.40 159.68 0.40L159.68 0.40ZM159.72-3.68Q160.76-3.68 161.14-4.50Q161.52-5.32 161.52-6.96L161.52-6.96L161.52-16.12Q161.52-17.76 161.14-18.60Q160.76-19.44 159.72-19.44L159.72-19.44Q158.64-19.44 158.24-18.58Q157.84-17.72 157.84-16.12L157.84-16.12L157.84-6.96Q157.84-5.36 158.24-4.52Q158.64-3.68 159.72-3.68L159.72-3.68Z M171.20 0L171.20-23.12L177.20-23.12L177.20-20.80Q180-23.52 182.80-23.52L182.80-23.52Q184.80-23.52 185.86-22.04Q186.92-20.56 186.92-18.24L186.92-18.24L186.92 0L180.88 0L180.88-17.28Q180.88-18.24 180.56-18.70Q180.24-19.16 179.48-19.16L179.48-19.16Q178.56-19.16 177.20-18.20L177.20-18.20L177.20 0L171.20 0Z"/></g>
</svg>
</g><g opacity="1" transform="rotate(0 193.1174 137.9787)">
<svg width="155.401" height="159.5359" x="193.1174" y="137.9787" version="1.1" preserveAspectRatio="none" viewBox="2.2250003814697266 0.43431463837623596 123.67500305175781 126.96568298339844">
  <g transform="matrix(1 0 0 1 0 0)" class="icon1"><g><path d="M80.6,100.1c-0.1-0.2-0.4-0.4-0.6-0.4H20.4c-0.2,0-0.5,0.1-0.6,0.3c-2.6,4-2.6,9.1,0,13.1c0.1,0.2,0.4,0.3,0.6,0.3H80   c0.3,0,0.5-0.1,0.6-0.4c0.1-0.2,0.1-0.5,0-0.8c-2.3-3.5-2.3-8,0-11.5C80.8,100.6,80.8,100.3,80.6,100.1z M78.7,112H20.8   c-2-3.3-2-7.5,0-10.8h57.9C77,104.6,77,108.6,78.7,112z"></path><path d="M69,108.2H35.6c-0.4,0-0.7,0.3-0.7,0.7c0,0.4,0.3,0.7,0.7,0.7H69c0.4,0,0.7-0.3,0.7-0.7C69.7,108.5,69.4,108.2,69,108.2z"></path><path d="M43.4,105.5h21.9c0.4,0,0.7-0.3,0.7-0.7c0-0.4-0.3-0.7-0.7-0.7H43.4c-0.4,0-0.7,0.3-0.7,0.7   C42.7,105.2,43,105.5,43.4,105.5z"></path><path d="M11.5,109.5v-5.1c0,0,0,0,0,0s0,0,0,0v-57c0,0,0-0.1,0-0.1c0-0.1,0-0.3,0-0.4l-3.9-8.7c-0.1-0.3-0.4-0.4-0.7-0.4   c-0.3,0-0.6,0.2-0.7,0.4l-3.9,8.7c-0.1,0.1-0.1,0.3,0,0.4c0,0,0,0.1,0,0.1v62.1c0,2.2,1.8,4,4,4h1.4   C9.7,113.5,11.5,111.7,11.5,109.5z M3.7,48.2H10v55.5H3.7V48.2z M6.8,40.2l2.9,6.5H3.9L6.8,40.2z M7.5,112H6.1   c-1.4,0-2.5-1.1-2.5-2.5v-4.4H10v4.4C10,110.9,8.9,112,7.5,112z"></path><path d="M6.8,71.2c-0.4,0-0.7,0.3-0.7,0.7v3.9c0,0.4,0.3,0.7,0.7,0.7c0.4,0,0.7-0.3,0.7-0.7v-3.9C7.6,71.5,7.2,71.2,6.8,71.2z"></path><path d="M6.8,61.4c-0.4,0-0.7,0.3-0.7,0.7V66c0,0.4,0.3,0.7,0.7,0.7c0.4,0,0.7-0.3,0.7-0.7v-3.9C7.6,61.7,7.2,61.4,6.8,61.4z"></path><path d="M6.8,56.9c0.4,0,0.7-0.3,0.7-0.7c0-0.4-0.3-0.7-0.7-0.7c-0.4,0-0.7,0.3-0.7,0.7v0C6.1,56.6,6.4,56.9,6.8,56.9z"></path><path d="M6.8,81c-0.4,0-0.7,0.3-0.7,0.7v3.9c0,0.4,0.3,0.7,0.7,0.7c0.4,0,0.7-0.3,0.7-0.7v-3.9C7.6,81.3,7.2,81,6.8,81z"></path><path d="M6.8,90.8c-0.4,0-0.7,0.3-0.7,0.7v3.9c0,0.4,0.3,0.7,0.7,0.7c0.4,0,0.7-0.3,0.7-0.7v-3.9C7.6,91.1,7.2,90.8,6.8,90.8z"></path><path d="M61.9,23.9c0.4,0,0.7-0.3,0.7-0.7V11.3c0-0.4-0.3-0.7-0.7-0.7c-0.4,0-0.7,0.3-0.7,0.7v11.8C61.1,23.6,61.5,23.9,61.9,23.9z   "></path><path d="M61.9,31.6c0.4,0,0.7-0.3,0.7-0.7V27c0-0.4-0.3-0.7-0.7-0.7c-0.4,0-0.7,0.3-0.7,0.7v3.8C61.1,31.3,61.5,31.6,61.9,31.6z"></path><path d="M120.9,84.1c0-0.4-0.3-0.7-0.7-0.7s-0.7,0.3-0.7,0.7V96c0,0.4,0.3,0.7,0.7,0.7s0.7-0.3,0.7-0.7V84.1z"></path><path d="M120.2,99.1c-0.4,0-0.7,0.3-0.7,0.7v3.8c0,0.4,0.3,0.7,0.7,0.7s0.7-0.3,0.7-0.7v-3.8C120.9,99.5,120.6,99.1,120.2,99.1z"></path><path d="M29.1,31.4l1.6,1.6c0.1,0.1,0.3,0.2,0.5,0.2c0.2,0,0.4-0.1,0.5-0.2c0.3-0.3,0.3-0.8,0-1l-1.6-1.6c-0.3-0.3-0.8-0.3-1,0   C28.8,30.6,28.8,31.1,29.1,31.4z"></path><path d="M34.3,36.6l1.6,1.6c0.1,0.1,0.3,0.2,0.5,0.2c0.2,0,0.4-0.1,0.5-0.2c0.3-0.3,0.3-0.8,0-1l-1.6-1.6c-0.3-0.3-0.8-0.3-1,0   S34,36.3,34.3,36.6z"></path><path d="M29.1,38.2c0.1,0.1,0.3,0.2,0.5,0.2c0.2,0,0.4-0.1,0.5-0.2l1.6-1.6c0.3-0.3,0.3-0.8,0-1s-0.8-0.3-1,0l-1.6,1.6   C28.8,37.4,28.8,37.9,29.1,38.2z"></path><path d="M34.8,33.2c0.2,0,0.4-0.1,0.5-0.2l1.6-1.6c0.3-0.3,0.3-0.8,0-1s-0.8-0.3-1,0l-1.6,1.6c-0.3,0.3-0.3,0.8,0,1   C34.4,33.1,34.6,33.2,34.8,33.2z"></path><path d="M66.1,118c-0.3-0.3-0.8-0.3-1,0c-0.3,0.3-0.3,0.8,0,1l1.6,1.6c0.1,0.1,0.3,0.2,0.5,0.2s0.4-0.1,0.5-0.2   c0.3-0.3,0.3-0.8,0-1L66.1,118z"></path><path d="M71.3,123.2c-0.3-0.3-0.8-0.3-1,0s-0.3,0.8,0,1l1.6,1.6c0.1,0.1,0.3,0.2,0.5,0.2c0.2,0,0.4-0.1,0.5-0.2   c0.3-0.3,0.3-0.8,0-1L71.3,123.2z"></path><path d="M66.7,123.2l-1.6,1.6c-0.3,0.3-0.3,0.8,0,1c0.1,0.1,0.3,0.2,0.5,0.2c0.2,0,0.4-0.1,0.5-0.2l1.6-1.6c0.3-0.3,0.3-0.8,0-1   S67,122.9,66.7,123.2z"></path><path d="M71.9,118l-1.6,1.6c-0.3,0.3-0.3,0.8,0,1c0.1,0.1,0.3,0.2,0.5,0.2c0.2,0,0.4-0.1,0.5-0.2l1.6-1.6c0.3-0.3,0.3-0.8,0-1   C72.6,117.7,72.2,117.7,71.9,118z"></path><path d="M122.1,21.8c2.1,0,3.8-1.7,3.8-3.8c0-2.1-1.7-3.8-3.8-3.8c-2.1,0-3.8,1.7-3.8,3.8C118.3,20.1,120,21.8,122.1,21.8z    M122.1,15.8c1.3,0,2.3,1,2.3,2.3c0,1.3-1,2.3-2.3,2.3c-1.3,0-2.3-1-2.3-2.3C119.8,16.8,120.8,15.8,122.1,15.8z"></path><path d="M13.8,118.2c-2.1,0-3.8,1.7-3.8,3.8c0,2.1,1.7,3.8,3.8,3.8c2.1,0,3.8-1.7,3.8-3.8C17.5,119.9,15.8,118.2,13.8,118.2z    M13.8,124.2c-1.3,0-2.3-1-2.3-2.3c0-1.3,1-2.3,2.3-2.3s2.3,1,2.3,2.3C16.1,123.2,15,124.2,13.8,124.2z"></path><path d="M25,10H39c0.4,0,0.7-0.3,0.7-0.7c0-0.4-0.3-0.7-0.7-0.7H25c-0.4,0-0.7,0.3-0.7,0.7C24.2,9.7,24.6,10,25,10z"></path><path d="M15.8,10h4.5c0.4,0,0.7-0.3,0.7-0.7c0-0.4-0.3-0.7-0.7-0.7h-4.5c-0.4,0-0.7,0.3-0.7,0.7C15.1,9.7,15.4,10,15.8,10z"></path><path d="M15.8,14.8h9.8c0.4,0,0.7-0.3,0.7-0.7c0-0.4-0.3-0.7-0.7-0.7h-9.8c-0.4,0-0.7,0.3-0.7,0.7C15.1,14.5,15.4,14.8,15.8,14.8z"></path><path d="M33,14.8c0.4,0,0.7-0.3,0.7-0.7c0-0.4-0.3-0.7-0.7-0.7h-3.2c-0.4,0-0.7,0.3-0.7,0.7c0,0.4,0.3,0.7,0.7,0.7H33z"></path><path d="M115.9,126h-14.1c-0.4,0-0.7,0.3-0.7,0.7c0,0.4,0.3,0.7,0.7,0.7h14.1c0.4,0,0.7-0.3,0.7-0.7   C116.7,126.4,116.3,126,115.9,126z"></path><path d="M125.1,126h-4.5c-0.4,0-0.7,0.3-0.7,0.7c0,0.4,0.3,0.7,0.7,0.7h4.5c0.4,0,0.7-0.3,0.7-0.7C125.8,126.4,125.5,126,125.1,126   z"></path><path d="M125.1,121.2h-9.8c-0.4,0-0.7,0.3-0.7,0.7c0,0.4,0.3,0.7,0.7,0.7h9.8c0.4,0,0.7-0.3,0.7-0.7   C125.8,121.5,125.5,121.2,125.1,121.2z"></path><path d="M107.2,121.9c0,0.4,0.3,0.7,0.7,0.7h3.2c0.4,0,0.7-0.3,0.7-0.7c0-0.4-0.3-0.7-0.7-0.7h-3.2   C107.5,121.2,107.2,121.5,107.2,121.9z"></path><path d="M109.7,110.3V51c0-1.7-1.4-3.1-3.1-3.1H92.4c-1.7,0-3.1,1.4-3.1,3.1v59.3c0,1.7,1.4,3.1,3.1,3.1h14.2   C108.3,113.5,109.7,112.1,109.7,110.3z M90.8,110.3V51c0-0.9,0.7-1.6,1.6-1.6h14.2c0.9,0,1.6,0.7,1.6,1.6v59.3   c0,0.9-0.7,1.6-1.6,1.6H92.4C91.5,112,90.8,111.3,90.8,110.3z"></path><path d="M105,54.8H94.1c-0.4,0-0.7,0.3-0.7,0.7c0,0.4,0.3,0.7,0.7,0.7H105c0.4,0,0.7-0.3,0.7-0.7C105.7,55.2,105.4,54.8,105,54.8z"></path><path d="M105,62H94.1c-0.4,0-0.7,0.3-0.7,0.7s0.3,0.7,0.7,0.7H105c0.4,0,0.7-0.3,0.7-0.7S105.4,62,105,62z"></path><path d="M105,69.1H94.1c-0.4,0-0.7,0.3-0.7,0.7c0,0.4,0.3,0.7,0.7,0.7H105c0.4,0,0.7-0.3,0.7-0.7C105.7,69.4,105.4,69.1,105,69.1z"></path><path d="M105,76.2H94.1c-0.4,0-0.7,0.3-0.7,0.7c0,0.4,0.3,0.7,0.7,0.7H105c0.4,0,0.7-0.3,0.7-0.7C105.7,76.5,105.4,76.2,105,76.2z"></path><path d="M99.5,96.9c-2.6,0-4.8,2.2-4.8,4.8s2.2,4.8,4.8,4.8c2.6,0,4.8-2.2,4.8-4.8S102.2,96.9,99.5,96.9z M99.5,105   c-1.8,0-3.3-1.5-3.3-3.3c0-1.8,1.5-3.3,3.3-3.3c1.8,0,3.3,1.5,3.3,3.3C102.9,103.5,101.4,105,99.5,105z"></path><path d="M49.3,78.8c0.1,0,0.3,0,0.4,0l2.1,4.2c0.1,0.3,0.4,0.4,0.7,0.4c0.1,0,0.2,0,0.3-0.1c0.4-0.2,0.5-0.6,0.3-1L51,78.1   c0.5-0.5,0.8-1.1,0.8-1.9c0-0.1,0-0.2,0-0.3l8.7-4c0.4-0.2,0.5-0.6,0.4-1c-0.2-0.4-0.6-0.5-1-0.4l-8.7,4c-0.5-0.5-1.2-0.9-1.9-0.9   c-1.4,0-2.5,1.1-2.5,2.5C46.7,77.7,47.9,78.8,49.3,78.8z M49.3,75.2c0.4,0,0.8,0.2,1,0.6c0.1,0.1,0.1,0.3,0.1,0.4   c0,0.4-0.2,0.8-0.7,1c-0.1,0.1-0.2,0.1-0.4,0.1c-0.6,0-1.1-0.5-1.1-1.1C48.2,75.7,48.7,75.2,49.3,75.2z"></path><path d="M49.3,64c0.4,0,0.7-0.3,0.7-0.7v-2c0-0.4-0.3-0.7-0.7-0.7c-0.4,0-0.7,0.3-0.7,0.7v2C48.6,63.7,48.9,64,49.3,64z"></path><path d="M36.3,75.5h-2c-0.4,0-0.7,0.3-0.7,0.7c0,0.4,0.3,0.7,0.7,0.7h2c0.4,0,0.7-0.3,0.7-0.7C37,75.9,36.7,75.5,36.3,75.5z"></path><path d="M49.3,88.6c-0.4,0-0.7,0.3-0.7,0.7v2c0,0.4,0.3,0.7,0.7,0.7c0.4,0,0.7-0.3,0.7-0.7v-2C50,88.9,49.7,88.6,49.3,88.6z"></path><path d="M62.3,77h2c0.4,0,0.7-0.3,0.7-0.7c0-0.4-0.3-0.7-0.7-0.7h-2c-0.4,0-0.7,0.3-0.7,0.7C61.6,76.7,61.9,77,62.3,77z"></path><path d="M34.2,53.1c-1.1,0.7-1.9,1.8-2.2,3c-0.3,1.3-0.1,2.6,0.6,3.7c0.1,0.2,0.3,0.3,0.5,0.3c0.1,0,0.1,0,0.2,0   c0.1,0,0.3,0,0.4-0.1l2.9-1.8l1.7,2.9c-4.6,3.4-7.6,8.9-7.6,15.1c0,1.5,0.2,3,0.5,4.4c1.1,4.4,3.6,8.1,7.1,10.7l-2.8,4.8   c-0.2,0.4-0.1,0.8,0.3,1c0.1,0.1,0.2,0.1,0.4,0.1c0.3,0,0.5-0.1,0.6-0.4l2.7-4.7c2.9,1.8,6.3,2.8,9.9,2.8c1,0,2.1-0.1,3.2-0.3   c2.5-0.4,4.7-1.3,6.7-2.6l2.7,4.7c0.1,0.2,0.4,0.4,0.6,0.4c0.1,0,0.3,0,0.4-0.1c0.4-0.2,0.5-0.7,0.3-1l-2.8-4.8   c4.7-3.4,7.6-9,7.6-15.1c0-6.2-3-11.6-7.6-15.1l1.7-2.9l2.9,1.8c0.1,0.1,0.3,0.1,0.4,0.1c0.2,0,0.5-0.1,0.6-0.4   c0.7-1.1,0.9-2.4,0.6-3.7c-0.3-1.3-1.1-2.4-2.2-3c-1.1-0.7-2.4-0.9-3.7-0.6c-1.3,0.3-2.4,1.1-3,2.2c-0.2,0.3-0.1,0.8,0.2,1l3,1.8   l-1.6,2.8c-2.9-1.8-6.3-2.9-10-2.9c-3.7,0-7.1,1.1-10,2.9l-1.6-2.8l3-1.8c0.3-0.2,0.5-0.7,0.2-1c-0.7-1.1-1.8-1.9-3-2.2   C36.6,52.2,35.3,52.4,34.2,53.1z M61,54c0.9-0.2,1.8-0.1,2.6,0.4c0.8,0.5,1.3,1.2,1.6,2.1c0.2,0.7,0.1,1.3-0.1,1.9l-5.8-3.5   C59.8,54.4,60.4,54.1,61,54z M66.6,76.3c0,8.5-6,15.6-14.4,17.1c-1,0.2-2,0.3-3,0.3c-8,0-14.9-5.4-16.8-13.2   C32.1,79,32,77.7,32,76.3C32,66.7,39.7,59,49.3,59C58.8,59,66.6,66.7,66.6,76.3z M36.3,56.7L36.3,56.7L36.3,56.7l-2.9,1.8   c-0.2-0.6-0.2-1.3-0.1-1.9c0.2-0.9,0.8-1.7,1.6-2.1c0.5-0.3,1.2-0.5,1.8-0.5c0.3,0,0.6,0,0.8,0.1c0.7,0.2,1.2,0.5,1.7,1L36.3,56.7z   "></path><path d="M62.6,41.2c0.1,0.3,0.4,0.5,0.7,0.5H109c0.4,0,0.7-0.3,0.7-0.7V1.2c0-0.3-0.2-0.5-0.4-0.7c-0.3-0.1-0.6-0.1-0.8,0.1   L62.8,40.4C62.5,40.6,62.4,40.9,62.6,41.2z M108.3,2.8v37.3h-43L108.3,2.8z"></path><path d="M104.6,11c-0.3-0.1-0.6-0.1-0.8,0.1l-28,24.1c-0.2,0.2-0.3,0.5-0.2,0.8c0.1,0.3,0.4,0.5,0.7,0.5h28c0.4,0,0.7-0.3,0.7-0.7   V11.7C105,11.4,104.9,11.1,104.6,11z M103.6,35H78.3l25.3-21.8V35z"></path></g></g>
</svg>
</g></svg></svg>