<svg version="1.1" preserveAspectRatio="none" xmlns="http://www.w3.org/2000/svg" width="500" height="500" viewBox="0 0 500 500"><rect width="100%" height="100%" fill="#FFFFFF" fill-opacity="1"/><svg viewBox="77.2512 214.8514 451.5655 166" width="333" height="122.41413482650911" x="83.5px" y="188.7929px" xmlns="http://www.w3.org/2000/svg" xmlns:xlink="http://www.w3.org/1999/xlink" preserveAspectRatio="none"><defs></defs><style>.aUPl23inifillColor {fill:#F7F7F7;fill-opacity:0;}.companyName {fill:#BC4823;fill-opacity:1;}.icon3-str {stroke:#4B689C;stroke-opacity:1;}.shapeStroke-str {stroke:#4B689C;stroke-opacity:1;}.text {fill:#9A7E5F;fill-opacity:1;}</style><g opacity="1" transform="rotate(0 77.2512 214.8514)">
<svg width="451.5655" height="166" x="77.2512" y="214.8514" version="1.1" preserveAspectRatio="none" viewBox="0 0 451.5655 166">
  <defs><rect x="3.735" y="3.735" width="444.09549999999996" height="158.53" rx="0%" ry="0%" id="id-UPl23ini1684634238767"></rect></defs><use class="aUPl23inifillColor shapeStroke-str" style="stroke-width:7.47;" xlink:href="#id-UPl23ini1684634238767"></use>
</svg>
</g><g opacity="1" transform="rotate(0 107.2513 320.8514)">
<svg width="391.5654" height="30" x="107.2513" y="320.8514" version="1.1" preserveAspectRatio="none" viewBox="-2.9297 -29.3164 539.1532000000001 41.3086">
  <g transform="matrix(1 0 0 1 0 0)" class="text"><path id="id-6izo4zJp35" d="M10.84-2.44L10.84-2.44Q7.21 0.80 2.17 0.80L2.17 0.80Q-0.88 0.80-2.19-0.49L-2.19-0.49Q-2.93-1.19-2.93-2.97L-2.93-2.97Q-2.93-5.70 1.23-6.50L1.23-6.50Q2.54-6.76 4.38-6.76Q6.21-6.76 9.39-6.07L9.39-6.07Q11.09-7.97 13.45-11.65Q15.80-15.33 17.17-17.32Q18.54-19.32 20.27-21.40Q22.01-23.48 23.91-25.16L23.91-25.16Q27.75-28.59 31.52-28.59L31.52-28.59Q33.20-28.59 33.95-27.74Q34.69-26.89 34.69-25.73Q34.69-24.57 33.62-23.03Q32.56-21.48 31.16-20.29Q29.77-19.10 28.41-18.27Q27.05-17.44 26.27-17.44Q25.49-17.44 24.92-18.11Q24.36-18.77 24.36-19.38Q24.36-20 24.52-20.24Q24.69-20.49 24.86-20.49Q25.04-20.49 25.08-20.27L25.08-20.27Q25.70-20.47 27.08-21.49Q28.46-22.52 29.59-23.63Q30.72-24.75 30.72-25.03Q30.72-25.31 30.38-25.31Q30.04-25.31 29.45-25.08Q28.87-24.84 27.89-24.11Q26.91-23.38 25.78-22.23L25.78-22.23Q23.05-19.49 19.69-14.47L19.69-14.47Q18.91-13.34 17.48-11.17L17.48-11.17Q14.57-6.78 13.32-5.16L13.32-5.16Q23.34-2.52 27.64-2.52L27.64-2.52Q29.63-2.52 30.43-3.03L30.43-3.03Q30.72-3.20 30.82-3.20Q30.92-3.20 30.92-3.05Q30.92-2.89 30.74-2.58Q30.57-2.27 29.87-1.25Q29.18-0.23 28.85-0.04L28.85-0.04Q27.89 0.53 25.60 0.53Q23.30 0.53 21.22 0.20Q19.14-0.14 17.87-0.46Q16.60-0.78 14.11-1.50Q11.62-2.23 10.84-2.44ZM3.71-3.63L3.71-3.63Q1.15-3.63 1.15-3.03L1.15-3.03Q1.15-2.79 1.59-2.62Q2.03-2.44 2.64-2.44L2.64-2.44Q4.53-2.44 6.29-3.44L6.29-3.44Q4.79-3.63 3.71-3.63Z M44.10-14.88Q44.69-14.88 45.30-14.36Q45.92-13.83 45.92-12.74Q45.92-11.66 45.16-9.93Q44.39-8.20 43.07-6.42Q41.74-4.63 40.15-3.06Q38.55-1.48 36.71-0.48Q34.86 0.53 33.36 0.53Q31.85 0.53 30.95-0.42Q30.04-1.37 30.04-3.06Q30.04-4.75 30.87-6.80Q31.70-8.85 33.01-10.42Q34.32-11.99 35.84-13.24L35.84-13.24Q39.02-15.80 41.42-15.80L41.42-15.80Q42.50-15.80 43.05-15.27L43.05-15.27Q43.24-15.10 43.24-14.96L43.24-14.96L43.24-14.84Q43.51-14.88 44.10-14.88ZM42.13-12.29L42.13-12.29L41.99-12.29Q41.31-12.29 41.31-13.28L41.31-13.28Q39.88-12.81 38.32-11.64Q36.76-10.47 35.53-8.87L35.53-8.87Q33.03-5.66 32.99-3.46L32.99-3.46Q32.99-2.36 33.79-2.36Q34.59-2.36 36.17-3.42Q37.75-4.47 39.31-6.43Q40.86-8.38 41.63-9.81Q42.40-11.25 42.40-11.77Q42.40-12.29 42.13-12.29Z M85.27-7.21L85.27-7.21L85.43-6.46Q85.43-6.00 84.94-5.35L84.94-5.35Q83.65-3.67 80.81-1.49Q77.97 0.68 76.62 0.68Q75.27 0.68 74.51-0.11Q73.75-0.90 73.75-1.91L73.75-1.91Q73.75-3.13 76.29-7.27L76.29-7.27Q80.10-13.42 86.01-21.64L86.01-21.64Q84.76-20.35 79.37-14.69L79.37-14.69Q67.44-2.19 65.43-0.53L65.43-0.53Q65.10-0.25 64.46-0.25Q63.83-0.25 63.12-0.77Q62.42-1.29 62.42-1.93L62.42-1.93L62.42-2.03Q62.50-2.85 66.19-10.06Q69.88-17.27 72.38-21.52L72.38-21.52Q68.69-17.46 64.92-12.46L64.92-12.46Q57.75-2.97 54.43 3.71L54.43 3.71Q54.14 4.34 53.71 4.34Q53.28 4.34 52.46 4.12L52.46 4.12Q50.74 3.65 50.74 2.48L50.74 2.48Q50.74 1.78 53.61-2.55Q56.48-6.88 60.27-12.00Q64.06-17.13 68.12-21.88L68.12-21.88Q73.73-28.44 75.33-28.44L75.33-28.44Q75.58-28.44 75.82-28.31Q76.05-28.18 76.11-28.18Q76.17-28.18 76.23-28.24L76.23-28.24Q76.48-28.55 77.23-28.55Q77.99-28.55 78.70-28.26Q79.41-27.97 79.41-27.60L79.41-27.60Q79.41-27.36 77.46-23.87L77.46-23.87Q70.92-12.27 68.67-7.93L68.67-7.93Q70.82-10.53 74.81-14.82Q78.81-19.12 83.20-23.40L83.20-23.40Q88.92-28.95 90.04-28.95L90.04-28.95Q90.49-28.95 91.17-28.75L91.17-28.75Q92.38-28.40 93.49-28.40L93.49-28.40Q93.81-28.34 94.03-28.13Q94.26-27.93 94.26-27.71Q94.26-27.50 94.14-27.36L94.14-27.36Q87.79-18.93 83.44-12.48Q79.08-6.04 78.06-3.77L78.06-3.77Q80.11-4.20 84.18-8.67L84.18-8.67Q84.35-8.91 84.43-8.98Q84.51-9.06 84.57-9.14L84.57-9.14Q84.90-9.53 85.08-8.65L85.08-8.65Q85.15-8.14 85.18-7.94Q85.21-7.73 85.24-7.51Q85.27-7.29 85.27-7.21Z M100.52-14.61L100.52-14.61Q100.52-13.32 99.48-12.34Q98.43-11.37 97.11-11.37L97.11-11.37Q96.68-11.37 96.54-11.57Q96.40-11.78 96.40-12.11Q96.40-12.44 96.48-12.75L96.48-12.75Q95.78-12.52 94.92-12.03Q94.06-11.54 92.81-10.59Q91.56-9.63 91.56-9.16L91.56-9.16Q91.56-9.00 92.02-9.00Q92.48-9.00 93.43-9.33Q94.39-9.65 94.77-9.65Q95.15-9.65 95.27-9.61L95.27-9.61Q95.52-9.47 95.82-9.01Q96.11-8.55 96.11-8.29Q96.11-8.03 95.60-7.60Q95.09-7.17 94.45-6.94Q93.81-6.72 93.59-6.60L93.59-6.60Q89.47-4.30 89.47-3.44L89.47-3.44Q89.47-1.91 92.07-1.91L92.07-1.91Q93.73-1.91 95.41-2.97L95.41-2.97Q96.83-3.87 97.98-4.79Q99.12-5.72 99.42-5.94Q99.72-6.15 99.88-6.15L99.88-6.15Q100.39-6.15 100.39-5.02Q100.39-3.89 100.25-3.53Q100.11-3.16 99.47-2.64L99.47-2.64Q95.29 0.76 91.56 0.76L91.56 0.76Q89.57 0.76 88.38 0.21L88.38 0.21Q86.19-0.78 86.19-2.83L86.19-2.83Q86.19-5.53 89.92-6.91L89.92-6.91Q89.18-7.25 88.96-7.76Q88.75-8.28 88.75-9.42Q88.75-10.57 89.81-11.85Q90.88-13.13 92.42-13.95L92.42-13.95Q95.86-15.80 98.55-15.80L98.55-15.80Q99.20-15.80 99.86-15.49Q100.52-15.18 100.52-14.61Z M114.90-21.72L114.90-21.72Q114.90-20.43 113.50-19.20Q112.11-17.97 110.82-17.97L110.82-17.97Q109.90-17.97 109.90-19.09Q109.90-20.21 111.19-21.45Q112.48-22.68 113.69-22.68Q114.90-22.68 114.90-21.72ZM109.68-5.96Q110.00-6.19 110.24-6.11Q110.48-6.04 110.54-5.68L110.54-5.68Q110.80-4.41 110.52-3.55L110.52-3.55Q110.43-3.40 109.07-2.64Q107.71-1.88 105.98-0.88Q104.25 0.12 102.14 1.68Q100.04 3.24 98.65 4.77L98.65 4.77Q97.83 6.41 96.32 8.24L96.32 8.24Q93.41 11.76 91.48 11.76L91.48 11.76Q90.70 11.76 90.15 11.25Q89.61 10.74 89.61 9.98Q89.61 9.22 89.99 8.56Q90.37 7.91 91.27 7.03Q92.16 6.15 92.81 5.59Q93.45 5.02 94.85 3.89Q96.25 2.75 96.75 2.32L96.75 2.32Q97.61 0.88 98.94-1.41Q100.27-3.69 101.05-5L101.05-5Q103.28-8.73 104.57-10.57L104.57-10.57Q104.47-10.59 104.14-10.55Q103.80-10.51 103.58-10.52Q103.36-10.53 103.11-10.75Q102.87-10.98 102.79-11.45L102.79-11.45Q102.67-12.13 105.03-13.74Q107.38-15.35 108.22-15.35L108.22-15.35Q109.68-15.35 109.68-13.89L109.68-13.89Q109.68-13.73 109.53-13.28Q109.37-12.83 106.18-7.66Q102.98-2.48 101.75-0.61L101.75-0.61Q101.93-0.72 102.84-1.39Q103.75-2.05 104.74-2.77Q105.74-3.50 106.81-4.24L106.81-4.24Q109.29-5.96 109.68-5.96L109.68-5.96Z M123.49-14.88Q124.08-14.88 124.69-14.36Q125.31-13.83 125.31-12.74Q125.31-11.66 124.55-9.93Q123.78-8.20 122.46-6.42Q121.13-4.63 119.54-3.06Q117.94-1.48 116.10-0.48Q114.25 0.53 112.75 0.53Q111.25 0.53 110.34-0.42Q109.43-1.37 109.43-3.06Q109.43-4.75 110.26-6.80Q111.09-8.85 112.40-10.42Q113.71-11.99 115.23-13.24L115.23-13.24Q118.41-15.80 120.82-15.80L120.82-15.80Q121.89-15.80 122.44-15.27L122.44-15.27Q122.63-15.10 122.63-14.96L122.63-14.96L122.63-14.84Q122.91-14.88 123.49-14.88ZM121.52-12.29L121.52-12.29L121.38-12.29Q120.70-12.29 120.70-13.28L120.70-13.28Q119.27-12.81 117.71-11.64Q116.15-10.47 114.92-8.87L114.92-8.87Q112.42-5.66 112.38-3.46L112.38-3.46Q112.38-2.36 113.18-2.36Q113.98-2.36 115.56-3.42Q117.14-4.47 118.70-6.43Q120.25-8.38 121.02-9.81Q121.79-11.25 121.79-11.77Q121.79-12.29 121.52-12.29Z M132.89-11.88L132.06-10.64Q136.67-15.88 139.92-15.88L139.92-15.88Q140.72-15.88 141.23-15.40Q141.75-14.92 141.75-14.16Q141.75-13.40 140.67-11.61Q139.58-9.82 138.67-8.59L138.67-8.59Q138.18-7.97 137.56-7.97Q136.95-7.97 136.61-8.42Q136.26-8.87 136.26-9.47L136.26-9.47Q136.26-10.82 137.71-12.52L137.71-12.52L137.67-12.56Q137.03-12.50 134.48-10.02Q131.93-7.54 130.14-5.58Q128.35-3.61 126.26-0.80L126.26-0.80Q125.66 0.04 125.24 0.04Q124.82 0.04 124.13-0.22Q123.43-0.49 123.29-0.61Q123.14-0.72 123.14-1.00Q123.14-1.27 123.30-1.63Q123.45-1.99 123.87-2.66Q124.29-3.32 125.14-4.80Q125.99-6.29 127.79-9.30Q129.58-12.30 129.94-12.93L129.94-12.93Q130.68-14.22 131.15-14.80L131.15-14.80Q132.03-15.92 134.12-15.92L134.12-15.92Q134.58-15.92 134.58-15.33L134.58-15.33Q134.58-14.41 132.89-11.88L132.89-11.88Z M162.98-14.61L162.98-14.61Q162.98-13.32 161.94-12.34Q160.89-11.37 159.56-11.37L159.56-11.37Q159.13-11.37 159.00-11.57Q158.86-11.78 158.86-12.11Q158.86-12.44 158.94-12.75L158.94-12.75Q158.24-12.52 157.38-12.03Q156.52-11.54 155.27-10.59Q154.02-9.63 154.02-9.16L154.02-9.16Q154.02-9.00 154.48-9.00Q154.93-9.00 155.89-9.33Q156.85-9.65 157.23-9.65Q157.61-9.65 157.73-9.61L157.73-9.61Q157.98-9.47 158.27-9.01Q158.57-8.55 158.57-8.29Q158.57-8.03 158.06-7.60Q157.55-7.17 156.91-6.94Q156.26-6.72 156.05-6.60L156.05-6.60Q151.93-4.30 151.93-3.44L151.93-3.44Q151.93-1.91 154.52-1.91L154.52-1.91Q156.18-1.91 157.86-2.97L157.86-2.97Q159.29-3.87 160.43-4.79Q161.57-5.72 161.88-5.94Q162.18-6.15 162.34-6.15L162.34-6.15Q162.84-6.15 162.84-5.02Q162.84-3.89 162.71-3.53Q162.57-3.16 161.93-2.64L161.93-2.64Q157.75 0.76 154.02 0.76L154.02 0.76Q152.02 0.76 150.83 0.21L150.83 0.21Q148.65-0.78 148.65-2.83L148.65-2.83Q148.65-5.53 152.38-6.91L152.38-6.91Q151.63-7.25 151.42-7.76Q151.20-8.28 151.20-9.42Q151.20-10.57 152.27-11.85Q153.33-13.13 154.88-13.95L154.88-13.95Q158.31-15.80 161.01-15.80L161.01-15.80Q161.65-15.80 162.32-15.49Q162.98-15.18 162.98-14.61Z M173.23-3.01L173.23-3.01Q173.23-2.15 174.41-2.15L174.41-2.15Q175.03-2.15 175.98-2.77Q176.93-3.40 177.69-4.14L177.69-4.14Q179.72-6.15 179.99-6.15L179.99-6.15Q180.50-6.15 180.50-4.69Q180.50-3.22 179.58-2.68L179.58-2.68Q176.79-0.16 175.27 0.39L175.27 0.39Q174.41 0.68 173.37 0.66Q172.34 0.64 171.32-0.23Q170.30-1.11 170.30-2.37Q170.30-3.63 170.97-5.23Q171.63-6.84 172.33-7.98Q173.02-9.12 174.04-10.63Q175.05-12.15 175.11-12.52L175.11-12.52L175.07-12.56Q174.43-12.50 171.88-10.02Q169.33-7.54 167.67-5.70Q166.01-3.87 163.70-0.80L163.70-0.80Q163.06 0.04 162.65 0.04Q162.24 0.04 161.54-0.22Q160.85-0.49 160.70-0.61Q160.54-0.72 160.54-0.96Q160.54-1.19 160.68-1.53Q160.81-1.88 160.94-2.10Q161.07-2.32 161.36-2.79Q161.65-3.26 162.52-4.78Q163.39-6.29 165.19-9.30Q166.98-12.30 167.34-12.93L167.34-12.93Q168.08-14.22 168.55-14.80L168.55-14.80Q169.43-15.92 171.52-15.92L171.52-15.92Q171.98-15.92 171.98-15.33L171.98-15.33Q171.98-14.41 170.29-11.88L170.29-11.88L169.46-10.64Q172.84-14.39 175.17-15.39L175.17-15.39Q176.30-15.88 177.21-15.88Q178.12-15.88 178.65-15.39Q179.19-14.90 179.19-14.31Q179.19-13.71 178.78-12.88Q178.37-12.05 177.95-11.40Q177.53-10.74 176.85-9.75Q176.16-8.75 176.11-8.66Q176.05-8.57 175.80-8.19Q175.56-7.81 175.44-7.64Q175.32-7.46 175.05-7.02Q174.78-6.58 174.61-6.29Q174.45-6.00 174.20-5.57Q173.96-5.14 173.81-4.82Q173.66-4.51 173.51-4.14L173.51-4.14Q173.23-3.46 173.23-3.01Z M192.69-5.37L192.69-5.37L192.43-4.84Q192.43-4.28 194.02-3.76Q195.62-3.24 197.52-3.24Q199.42-3.24 201.71-3.81Q203.99-4.38 205.68-5.20Q207.37-6.02 208.48-6.91Q209.58-7.81 209.58-8.48L209.58-8.48Q209.58-9.32 207.63-10.04Q205.67-10.76 201.95-11.63Q198.23-12.50 196.50-13.83Q194.78-15.16 194.78-17.06Q194.78-18.96 196.14-20.70Q197.51-22.44 199.71-23.79Q201.90-25.14 204.50-26.19L204.50-26.19Q209.87-28.36 214.46-28.36L214.46-28.36Q216.22-28.36 217.57-28.05L217.57-28.05Q220.15-27.44 220.15-26.45Q220.15-25.45 219.97-25.09Q219.80-24.73 219.69-24.61Q219.58-24.49 219.41-24.38Q219.25-24.26 219.17-24.20L219.17-24.20Q218.31-23.48 214.46-23.30L214.46-23.30Q213.14-23.24 213.02-23.16Q212.90-23.09 212.81-23.09Q212.73-23.09 212.61-23.24Q212.49-23.40 212.49-23.75Q212.49-24.10 213.25-25.04L213.25-25.04Q210.87-24.90 208.16-23.95Q205.46-22.99 203.47-21.79Q201.48-20.59 200.15-19.42Q198.82-18.26 198.82-17.78Q198.82-17.30 199.11-16.99L199.11-16.99Q199.93-16.11 203.66-15.16L203.66-15.16Q207.53-14.16 208.82-13.55Q210.11-12.95 210.96-12.40Q211.81-11.86 212.31-11.29L212.31-11.29Q213.51-9.92 213.51-8.52Q213.51-7.11 212.75-5.88Q212.00-4.65 210.49-3.50Q208.98-2.34 206.92-1.45L206.92-1.45Q202.43 0.57 196.22 0.57L196.22 0.57Q191.69 0.57 190.44-1.84L190.44-1.84Q190.11-2.44 190.11-3.10Q190.11-3.75 190.41-4.28Q190.71-4.80 191.14-5.08L191.14-5.08Q191.98-5.61 192.33-5.61Q192.69-5.61 192.69-5.37Z M229.36-14.88Q229.95-14.88 230.57-14.36Q231.18-13.83 231.18-12.74Q231.18-11.66 230.42-9.93Q229.66-8.20 228.33-6.42Q227.00-4.63 225.41-3.06Q223.82-1.48 221.97-0.48Q220.13 0.53 218.62 0.53Q217.12 0.53 216.21-0.42Q215.30-1.37 215.30-3.06Q215.30-4.75 216.13-6.80Q216.96-8.85 218.27-10.42Q219.58-11.99 221.10-13.24L221.10-13.24Q224.29-15.80 226.69-15.80L226.69-15.80Q227.76-15.80 228.31-15.27L228.31-15.27Q228.51-15.10 228.51-14.96L228.51-14.96L228.51-14.84Q228.78-14.88 229.36-14.88ZM227.39-12.29L227.39-12.29L227.26-12.29Q226.57-12.29 226.57-13.28L226.57-13.28Q225.15-12.81 223.58-11.64Q222.02-10.47 220.79-8.87L220.79-8.87Q218.29-5.66 218.25-3.46L218.25-3.46Q218.25-2.36 219.05-2.36Q219.85-2.36 221.44-3.42Q223.02-4.47 224.57-6.43Q226.12-8.38 226.89-9.81Q227.67-11.25 227.67-11.77Q227.67-12.29 227.39-12.29Z M247.74-29.32Q248.68-29.32 249.39-28.76Q250.11-28.20 250.11-27.11Q250.11-26.02 248.90-23.68Q247.68-21.35 245.99-18.92Q244.29-16.48 242.14-13.75L242.14-13.75Q238.74-9.41 235.61-5.96L235.61-5.96Q235.59-5.72 235.45-5.09Q235.30-4.45 235.30-3.81Q235.30-3.16 235.90-2.65Q236.49-2.13 237.37-2.13Q238.25-2.13 239.26-2.75Q240.26-3.38 241.00-4.14L241.00-4.14Q242.96-6.15 243.43-6.15Q243.90-6.15 243.90-4.73L243.90-4.73L243.90-4.34Q243.90-3.57 243.62-3.22L243.62-3.22Q241.98-1.21 239.93-0.22Q237.88 0.76 236.04 0.76Q234.21 0.76 233.25-0.36Q232.29-1.48 232.29-3.44L232.29-3.44Q232.29-7.25 234.33-12.39Q236.38-17.54 238.93-21.15L238.93-21.15Q244.70-29.32 247.74-29.32L247.74-29.32ZM246.86-26.07L246.86-26.07Q246.86-26.37 246.67-26.37L246.67-26.37Q245.99-26.37 243.08-22.46Q240.16-18.55 238.87-16.23Q237.57-13.91 236.41-10.39L236.41-10.39Q238.72-13.13 242.79-18.92Q246.86-24.71 246.86-26.07Z M259.21-6.13L259.21-6.13Q259.58-6.13 259.66-5.57Q259.73-5 259.73-4.39Q259.73-3.79 259.62-3.55L259.62-3.55Q259.05-2.46 257.14-0.89Q255.22 0.68 253.50 0.68L253.50 0.68Q252.45 0.68 251.55 0.05Q250.65-0.59 250.65-2.17Q250.65-3.75 251.49-5.27L251.49-5.27Q246.65 0.80 243.89 0.80L243.89 0.80Q242.80 0.80 242.13 0.02Q241.45-0.76 241.45-1.59Q241.45-2.42 241.69-3.31Q241.92-4.20 242.19-4.90Q242.45-5.61 242.97-6.64Q243.48-7.68 243.74-8.14Q243.99-8.61 244.55-9.56Q245.11-10.51 246.01-12.11Q246.92-13.71 247.52-14.48Q248.11-15.25 248.68-15.26Q249.25-15.27 249.68-14.80Q250.11-14.34 250.11-14.04Q250.11-13.75 248.80-11.41L248.80-11.41Q244.93-4.41 244.93-3.26L244.93-3.26Q244.93-2.97 245.14-2.97L245.14-2.97Q246.08-2.97 249.81-7.03Q253.54-11.09 254.13-12.24Q254.71-13.38 255.27-14.16Q255.83-14.94 256.10-15.12L256.10-15.12Q256.94-15.66 258.27-15.70L258.27-15.70Q258.48-15.70 258.60-15.68Q258.72-15.66 258.88-15.35Q259.03-15.04 259.03-14.86L259.03-14.86Q258.86-14.32 257.48-11.95Q256.10-9.59 255.95-9.28L255.95-9.28Q253.64-4.51 253.64-3.07L253.64-3.07Q253.64-2.25 254.27-2.25L254.27-2.25Q255.40-2.40 257.00-4.06L257.00-4.06Q257.59-4.67 258.16-5.29Q258.74-5.92 258.88-6.03Q259.01-6.13 259.21-6.13Z M271.99-4.34Q273.00-4.98 273.29-5.22Q273.58-5.47 273.97-5.80Q274.36-6.13 274.62-6.13L274.62-6.13Q275.01-6.13 275.01-5.24Q275.01-4.36 274.14-3.33Q273.27-2.30 271.98-1.59Q270.69-0.88 269.23-0.35L269.23-0.35Q266.32 0.72 264.27 0.72Q262.23 0.72 260.59-0.62Q258.95-1.95 258.95-4.11Q258.95-6.27 260.03-8.43Q261.10-10.59 262.79-12.22Q264.48-13.85 266.72-14.86Q268.95-15.88 271.14-15.88L271.14-15.88Q272.19-15.88 273.03-15.27Q273.87-14.67 273.87-13.61Q273.87-12.56 272.83-11.08Q271.78-9.61 270.71-9.61L270.71-9.61Q269.46-9.61 269.46-10.80L269.46-10.80Q269.46-11.11 270.05-11.91Q270.63-12.71 270.63-13.00Q270.63-13.28 270.42-13.28L270.42-13.28Q269.34-13.28 268.11-12.54Q266.88-11.80 265.88-10.98Q264.87-10.16 263.97-9.14L263.97-9.14Q262.02-6.93 262.02-4.55L262.02-4.55Q262.02-3.59 262.63-2.90Q263.25-2.21 264.70-2.21Q266.16-2.21 267.62-2.55Q269.09-2.89 270.04-3.29Q270.98-3.69 271.99-4.34Z M287.39-21.45L287.39-21.45Q287.39-20.33 286.35-19.21Q285.32-18.09 284.20-18.09Q283.07-18.09 283.07-19.26Q283.07-20.43 284.06-21.49Q285.05-22.56 286.24-22.56L286.24-22.56Q286.76-22.56 287.08-22.27Q287.39-21.97 287.39-21.45ZM284.23-4.39L284.23-4.39Q284.23-3.81 284.11-3.55L284.11-3.55Q283.15-1.60 281.06-0.40Q278.97 0.80 277.43 0.80Q275.89 0.80 274.77-0.23Q273.66-1.27 273.66-2.34Q273.66-3.42 274.73-5.47Q275.81-7.52 276.88-9.26Q277.96-11.00 277.96-11.14Q277.96-11.29 277.56-11.72Q277.15-12.15 277.15-12.35Q277.15-12.56 277.97-13.43Q278.78-14.30 279.94-15.15Q281.10-16.00 281.72-16.00Q282.33-16.00 282.82-15.45Q283.31-14.90 283.31-14.45Q283.31-14.00 278.66-6.00L278.66-6.00Q278.60-5.88 278.34-5.48Q278.07-5.08 277.93-4.81Q277.78-4.55 277.58-4.18L277.58-4.18Q277.19-3.40 277.19-2.87L277.19-2.87Q277.19-2.21 278.09-2.21Q278.99-2.21 279.96-2.82Q280.92-3.44 281.63-4.18L281.63-4.18Q283.46-6.15 283.72-6.15L283.72-6.15Q284.23-6.15 284.23-4.39Z M296.84-14.88Q297.43-14.88 298.04-14.36Q298.66-13.83 298.66-12.74Q298.66-11.66 297.90-9.93Q297.13-8.20 295.81-6.42Q294.48-4.63 292.89-3.06Q291.29-1.48 289.45-0.48Q287.60 0.53 286.10 0.53Q284.60 0.53 283.69-0.42Q282.78-1.37 282.78-3.06Q282.78-4.75 283.61-6.80Q284.44-8.85 285.75-10.42Q287.06-11.99 288.58-13.24L288.58-13.24Q291.76-15.80 294.17-15.80L294.17-15.80Q295.24-15.80 295.79-15.27L295.79-15.27Q295.98-15.10 295.98-14.96L295.98-14.96L295.98-14.84Q296.26-14.88 296.84-14.88ZM294.87-12.29L294.87-12.29L294.73-12.29Q294.05-12.29 294.05-13.28L294.05-13.28Q292.62-12.81 291.06-11.64Q289.50-10.47 288.27-8.87L288.27-8.87Q285.77-5.66 285.73-3.46L285.73-3.46Q285.73-2.36 286.53-2.36Q287.33-2.36 288.91-3.42Q290.49-4.47 292.05-6.43Q293.60-8.38 294.37-9.81Q295.14-11.25 295.14-11.77Q295.14-12.29 294.87-12.29Z M309.22-3.01L309.22-3.01Q309.22-2.15 310.40-2.15L310.40-2.15Q311.02-2.15 311.97-2.77Q312.91-3.40 313.68-4.14L313.68-4.14Q315.71-6.15 315.98-6.15L315.98-6.15Q316.49-6.15 316.49-4.69Q316.49-3.22 315.57-2.68L315.57-2.68Q312.78-0.16 311.25 0.39L311.25 0.39Q310.40 0.68 309.36 0.66Q308.33 0.64 307.31-0.23Q306.29-1.11 306.29-2.37Q306.29-3.63 306.96-5.23Q307.62-6.84 308.32-7.98Q309.01-9.12 310.02-10.63Q311.04-12.15 311.10-12.52L311.10-12.52L311.06-12.56Q310.41-12.50 307.87-10.02Q305.32-7.54 303.66-5.70Q302.00-3.87 299.69-0.80L299.69-0.80Q299.05 0.04 298.64 0.04Q298.23 0.04 297.53-0.22Q296.84-0.49 296.68-0.61Q296.53-0.72 296.53-0.96Q296.53-1.19 296.66-1.53Q296.80-1.88 296.93-2.10Q297.06-2.32 297.35-2.79Q297.64-3.26 298.51-4.78Q299.38-6.29 301.18-9.30Q302.97-12.30 303.33-12.93L303.33-12.93Q304.07-14.22 304.54-14.80L304.54-14.80Q305.41-15.92 307.50-15.92L307.50-15.92Q307.97-15.92 307.97-15.33L307.97-15.33Q307.97-14.41 306.27-11.88L306.27-11.88L305.45-10.64Q308.83-14.39 311.16-15.39L311.16-15.39Q312.29-15.88 313.20-15.88Q314.11-15.88 314.64-15.39Q315.18-14.90 315.18-14.31Q315.18-13.71 314.77-12.88Q314.36-12.05 313.94-11.40Q313.52-10.74 312.84-9.75Q312.15-8.75 312.09-8.66Q312.04-8.57 311.79-8.19Q311.55-7.81 311.43-7.64Q311.31-7.46 311.04-7.02Q310.77-6.58 310.60-6.29Q310.43-6.00 310.19-5.57Q309.95-5.14 309.80-4.82Q309.65-4.51 309.50-4.14L309.50-4.14Q309.22-3.46 309.22-3.01Z M328.89-14.61L328.89-14.61Q328.89-13.32 327.85-12.34Q326.80-11.37 325.47-11.37L325.47-11.37Q325.04-11.37 324.91-11.57Q324.77-11.78 324.77-12.11Q324.77-12.44 324.85-12.75L324.85-12.75Q324.14-12.52 323.29-12.03Q322.43-11.54 321.18-10.59Q319.93-9.63 319.93-9.16L319.93-9.16Q319.93-9.00 320.38-9.00Q320.84-9.00 321.80-9.33Q322.76-9.65 323.14-9.65Q323.52-9.65 323.64-9.61L323.64-9.61Q323.89-9.47 324.18-9.01Q324.48-8.55 324.48-8.29Q324.48-8.03 323.97-7.60Q323.46-7.17 322.82-6.94Q322.17-6.72 321.96-6.60L321.96-6.60Q317.84-4.30 317.84-3.44L317.84-3.44Q317.84-1.91 320.43-1.91L320.43-1.91Q322.09-1.91 323.77-2.97L323.77-2.97Q325.20-3.87 326.34-4.79Q327.48-5.72 327.79-5.94Q328.09-6.15 328.25-6.15L328.25-6.15Q328.75-6.15 328.75-5.02Q328.75-3.89 328.62-3.53Q328.48-3.16 327.84-2.64L327.84-2.64Q323.66 0.76 319.93 0.76L319.93 0.76Q317.93 0.76 316.74 0.21L316.74 0.21Q314.55-0.78 314.55-2.83L314.55-2.83Q314.55-5.53 318.29-6.91L318.29-6.91Q317.54-7.25 317.33-7.76Q317.11-8.28 317.11-9.42Q317.11-10.57 318.18-11.85Q319.24-13.13 320.79-13.95L320.79-13.95Q324.22-15.80 326.92-15.80L326.92-15.80Q327.56-15.80 328.23-15.49Q328.89-15.18 328.89-14.61Z M331.10-3.91L331.10-3.91L331.08-3.59Q331.08-3.11 331.45-2.75Q331.82-2.40 332.13-2.40L332.13-2.40Q334.48-2.40 336.28-3.11Q338.09-3.81 338.09-4.51L338.09-4.51Q338.09-4.84 337.43-5.09Q336.78-5.33 335.23-5.69Q333.68-6.05 332.97-6.26Q332.27-6.46 331.86-6.64Q331.45-6.82 331.02-7.13L331.02-7.13Q330.10-7.77 330.10-9.05Q330.10-10.33 331.05-11.59Q332.00-12.85 333.42-13.75Q334.85-14.65 336.49-15.33L336.49-15.33Q339.73-16.68 341.94-16.68L341.94-16.68Q344.10-16.68 344.61-15.74L344.61-15.74Q344.77-15.41 344.77-15L344.77-15L344.77-14.86Q344.77-13.83 344.33-13.24Q343.89-12.66 342.94-12.19Q342.00-11.72 341.44-11.72Q340.88-11.72 340.74-11.80Q340.59-11.88 340.49-12.00Q340.39-12.13 340.25-12.19Q340.10-12.25 340.10-12.48Q340.10-12.71 340.30-12.96Q340.49-13.20 340.57-13.48L340.57-13.48Q339.28-13.42 337.87-12.88Q336.47-12.34 335.46-11.68Q334.46-11.02 333.79-10.41Q333.13-9.80 333.13-9.52Q333.13-9.24 334.03-9.06L334.03-9.06Q338.07-8.26 339.34-7.68Q340.61-7.09 341.10-6.35Q341.59-5.61 341.59-5L341.59-5Q341.59-3.75 340.59-2.64Q339.59-1.52 338.13-0.82L338.13-0.82Q334.98 0.72 332.65 0.72Q330.32 0.72 329.43 0.01Q328.54-0.70 328.54-1.68Q328.54-2.66 329.04-3.49Q329.53-4.32 330.32-4.32Q331.10-4.32 331.10-3.91Z M370.72-28.38L372.29-28.32L373.20-28.36Q373.71-28.36 373.71-27.97L373.71-27.97Q373.71-27.85 373.67-27.79L373.67-27.79Q364.34-14.06 356.23-0.88L356.23-0.88Q355.80-0.18 355.47-0.08L355.47-0.08Q355.45-0.08 355.28 0L355.28 0Q354.30 0.37 353.91 0.37Q353.52 0.37 353.48 0.39L353.48 0.39Q353.30 0.59 353.06 0.59Q352.81 0.59 352.74 0.58Q352.66 0.57 352.29 0.42Q351.92 0.27 351.92 0.20L351.92 0.20Q351.92-0.76 351.99-0.96L351.99-0.96Q352.40-2.34 356.51-8.78Q360.61-15.21 364.86-21.34Q369.10-27.46 370.00-28.16L370.00-28.16Q370.28-28.38 370.72-28.38L370.72-28.38Z M375.76-3.01L375.76-3.01Q375.76-2.15 376.93-2.15L376.93-2.15Q377.56-2.15 378.51-2.77Q379.45-3.40 380.22-4.14L380.22-4.14Q382.25-6.15 382.52-6.15L382.52-6.15Q383.03-6.15 383.03-4.69Q383.03-3.22 382.11-2.68L382.11-2.68Q379.32-0.16 377.79 0.39L377.79 0.39Q376.93 0.68 375.90 0.66Q374.86 0.64 373.85-0.23Q372.83-1.11 372.83-2.37Q372.83-3.63 373.50-5.23Q374.16-6.84 374.85-7.98Q375.55-9.12 376.56-10.63Q377.58-12.15 377.64-12.52L377.64-12.52L377.60-12.56Q376.95-12.50 374.41-10.02Q371.86-7.54 370.20-5.70Q368.54-3.87 366.23-0.80L366.23-0.80Q365.59 0.04 365.18 0.04Q364.77 0.04 364.07-0.22Q363.38-0.49 363.22-0.61Q363.07-0.72 363.07-0.96Q363.07-1.19 363.20-1.53Q363.34-1.88 363.47-2.10Q363.59-2.32 363.89-2.79Q364.18-3.26 365.05-4.78Q365.92-6.29 367.72-9.30Q369.51-12.30 369.86-12.93L369.86-12.93Q370.61-14.22 371.08-14.80L371.08-14.80Q371.95-15.92 374.04-15.92L374.04-15.92Q374.51-15.92 374.51-15.33L374.51-15.33Q374.51-14.41 372.81-11.88L372.81-11.88L371.99-10.64Q375.37-14.39 377.70-15.39L377.70-15.39Q378.83-15.88 379.74-15.88Q380.65-15.88 381.18-15.39Q381.72-14.90 381.72-14.31Q381.72-13.71 381.31-12.88Q380.90-12.05 380.48-11.40Q380.06-10.74 379.38-9.75Q378.69-8.75 378.63-8.66Q378.58-8.57 378.33-8.19Q378.09-7.81 377.97-7.64Q377.85-7.46 377.58-7.02Q377.31-6.58 377.14-6.29Q376.97-6.00 376.73-5.57Q376.49-5.14 376.34-4.82Q376.19-4.51 376.04-4.14L376.04-4.14Q375.76-3.46 375.76-3.01Z M380.90-6.29L380.90-6.29L380.74-6.84Q380.74-6.99 380.90-7.10Q381.05-7.21 381.30-7.54Q381.54-7.87 381.65-7.97Q381.76-8.07 381.96-8.25Q382.17-8.44 382.30-8.55L382.30-8.55Q382.70-8.89 382.85-8.94Q383.01-8.98 383.40-9.10L383.40-9.10Q384.61-9.49 385.45-9.65L385.45-9.65Q390.43-17.97 393.45-22.67Q396.46-27.36 396.88-27.86Q397.30-28.36 398.38-28.75Q399.45-29.14 399.95-29.13Q400.45-29.12 400.45-28.69L400.45-28.69Q400.45-28.52 400.32-28.22Q400.20-27.93 398.18-24.77L398.18-24.77Q390.74-13.11 388.65-9.65L388.65-9.65L389.14-9.47Q393.67-10.31 393.86-10.31Q394.04-10.31 394.79-10.05Q395.55-9.79 395.78-9.75L395.78-9.75Q396.23-9.67 396.23-9.01Q396.23-8.36 395.82-8.28L395.82-8.28Q395.49-8.22 394.23-7.90Q392.97-7.58 392.21-7.40L392.21-7.40Q393.24-6.17 393.24-4.79Q393.24-3.40 392.01-1.12Q390.78 1.15 388.87 3.38Q386.95 5.61 384.85 7.58Q382.75 9.55 380.82 10.77Q378.89 11.99 377.96 11.99Q377.03 11.99 376.30 11.49Q375.57 11.00 375.57 10.02Q375.57 9.04 375.97 7.74Q376.37 6.45 376.84 5.36Q377.30 4.28 378.44 2.25L378.44 2.25Q379.65 0.06 382.81-5.23L382.81-5.23Q382.27-5.14 381.97-5.14Q381.68-5.14 381.43-5.27Q381.17-5.41 381.07-5.63L381.07-5.63Q380.90-6.02 380.90-6.29ZM386.40 2.13Q387.85 0.43 388.85-1.44Q389.84-3.30 389.84-4.48Q389.84-5.66 388.69-6.56L388.69-6.56L386.52-6.07Q386.19-5.53 385.50-4.35Q384.80-3.16 384.37-2.42Q383.93-1.68 383.24-0.51Q382.56 0.66 382.10 1.46Q381.64 2.27 381.08 3.27Q380.53 4.28 380.17 4.99Q379.80 5.70 379.47 6.41L379.47 6.41Q378.83 7.77 378.83 8.18Q378.83 8.59 379.04 8.59L379.04 8.59Q379.43 8.59 380.65 7.71Q381.88 6.82 383.41 5.32Q384.94 3.83 386.40 2.13Z M410.45-14.88Q411.03-14.88 411.65-14.36Q412.26-13.83 412.26-12.74Q412.26-11.66 411.50-9.93Q410.74-8.20 409.41-6.42Q408.09-4.63 406.49-3.06Q404.90-1.48 403.06-0.48Q401.21 0.53 399.71 0.53Q398.20 0.53 397.29-0.42Q396.39-1.37 396.39-3.06Q396.39-4.75 397.22-6.80Q398.05-8.85 399.35-10.42Q400.66-11.99 402.19-13.24L402.19-13.24Q405.37-15.80 407.77-15.80L407.77-15.80Q408.85-15.80 409.39-15.27L409.39-15.27Q409.59-15.10 409.59-14.96L409.59-14.96L409.59-14.84Q409.86-14.88 410.45-14.88ZM408.48-12.29L408.48-12.29L408.34-12.29Q407.66-12.29 407.66-13.28L407.66-13.28Q406.23-12.81 404.67-11.64Q403.10-10.47 401.87-8.87L401.87-8.87Q399.37-5.66 399.34-3.46L399.34-3.46Q399.34-2.36 400.14-2.36Q400.94-2.36 402.52-3.42Q404.10-4.47 405.65-6.43Q407.21-8.38 407.98-9.81Q408.75-11.25 408.75-11.77Q408.75-12.29 408.48-12.29Z M419.84-11.88L419.02-10.64Q423.63-15.88 426.87-15.88L426.87-15.88Q427.67-15.88 428.19-15.40Q428.71-14.92 428.71-14.16Q428.71-13.40 427.63-11.61Q426.54-9.82 425.62-8.59L425.62-8.59Q425.14-7.97 424.52-7.97Q423.90-7.97 423.56-8.42Q423.22-8.87 423.22-9.47L423.22-9.47Q423.22-10.82 424.67-12.52L424.67-12.52L424.63-12.56Q423.98-12.50 421.43-10.02Q418.89-7.54 417.10-5.58Q415.31-3.61 413.22-0.80L413.22-0.80Q412.62 0.04 412.20 0.04Q411.78 0.04 411.08-0.22Q410.39-0.49 410.24-0.61Q410.10-0.72 410.10-1.00Q410.10-1.27 410.25-1.63Q410.41-1.99 410.83-2.66Q411.25-3.32 412.10-4.80Q412.95-6.29 414.74-9.30Q416.54-12.30 416.89-12.93L416.89-12.93Q417.64-14.22 418.10-14.80L418.10-14.80Q418.98-15.92 421.07-15.92L421.07-15.92Q421.54-15.92 421.54-15.33L421.54-15.33Q421.54-14.41 419.84-11.88L419.84-11.88Z M427.40 0.12L427.40 0.12L426.44 0.08L426.09 0.08Q425.90 0.02 425.67-0.16Q425.45-0.33 425.33-0.41Q425.21-0.49 425.21-0.69Q425.21-0.90 425.37-1.41L425.37-1.41Q429.18-9.79 432.73-14.80L432.73-14.80Q433.12-15.35 433.99-15.63Q434.86-15.92 435.68-15.92L435.68-15.92Q436.17-15.92 436.17-15.16L436.17-15.16Q436.17-14.94 436.01-14.58Q435.86-14.22 435.23-13.40Q434.61-12.58 433.75-11.52Q432.89-10.47 432.77-10.31L432.77-10.31Q435.45-13.09 437.61-14.44Q439.76-15.80 440.73-15.80Q441.70-15.80 442.21-15.24Q442.73-14.69 442.73-14.05Q442.73-13.42 442.64-13.00Q442.56-12.58 442.32-12.12Q442.09-11.66 441.92-11.34Q441.76-11.02 441.36-10.50Q440.97-9.98 440.83-9.79Q440.68-9.59 440.22-9.04Q439.76-8.50 439.72-8.44L439.72-8.44Q440.27-8.98 441.25-10.06Q442.22-11.13 442.90-11.86Q443.57-12.58 444.59-13.49Q445.60-14.39 446.48-14.96L446.48-14.96Q448.59-16.29 450.76-16.29L450.76-16.29Q451.50-16.29 452.01-15.82Q452.52-15.35 452.52-14.70Q452.52-14.04 450.94-11.57Q449.35-9.10 447.78-6.61Q446.21-4.12 446.21-3.48L446.21-3.48Q446.21-2.58 446.54-2.41Q446.87-2.25 447.34-2.29Q447.81-2.32 448.66-2.89Q449.51-3.46 450.17-4.06L450.17-4.06Q451.25-5.04 452.17-5.96L452.17-5.96Q452.36-6.13 452.60-6.13L452.60-6.13Q452.97-6.13 453.04-5.57Q453.12-5 453.12-4.39Q453.12-3.79 453.01-3.55L453.01-3.55Q452.44-2.46 450.51-0.88Q448.57 0.70 446.79 0.70L446.79 0.70Q446.58 0.70 446.48 0.68L446.48 0.68Q444.47 0.49 443.70-0.42Q442.93-1.33 442.93-2.58Q442.93-3.83 443.78-5.61Q444.63-7.38 445.64-8.83Q446.66-10.27 447.51-11.44Q448.36-12.60 448.36-12.70Q448.36-12.79 448.20-12.79L448.20-12.79Q447.60-12.79 445.51-10.84L445.51-10.84Q441.93-7.50 439.33-4.39L439.33-4.39Q438.65-3.57 436.09-0.23L436.09-0.23Q435.80 0.16 435.16 0.16Q434.53 0.16 433.85-0.09Q433.16-0.33 433.16-0.72L433.16-0.72Q433.16-0.92 436.27-6.20Q439.37-11.48 439.37-11.96Q439.37-12.44 438.80-12.44Q438.22-12.44 436.42-10.72L436.42-10.72Q431.48-6.00 428.77-1.33L428.77-1.33Q428.59-1.05 428.08-0.47Q427.58 0.12 427.40 0.12Z M467.44-14.84L467.44-14.84Q468.92-14.84 468.92-13.83L468.92-13.83Q468.92-13.28 468.67-13.03Q468.41-12.77 467.58-11.34Q466.75-9.90 465.75-7.67Q464.74-5.43 464.45-3.85L464.45-3.85Q464.39-3.65 464.39-3.30L464.39-3.30Q464.39-2.23 464.98-2.23Q465.56-2.23 466.36-2.78Q467.16-3.34 467.79-3.97Q468.41-4.61 469.01-5.27Q469.61-5.94 469.72-6.04Q469.84-6.13 470.08-6.13L470.08-6.13Q470.45-6.13 470.52-5.57Q470.60-5 470.60-4.39Q470.60-3.79 470.49-3.55L470.49-3.55Q469.92-2.44 467.99-0.88Q466.07 0.68 464.50 0.68Q462.93 0.68 462.18-0.27Q461.44-1.23 461.44-2.39Q461.44-3.55 461.83-4.43L461.83-4.43Q460.21-2.32 458.11-0.86Q456.01 0.61 454.68 0.61Q453.36 0.61 452.52-0.20L452.52-0.20Q451.44-1.19 451.44-2.96Q451.44-4.73 452.23-6.51Q453.02-8.30 454.31-9.78Q455.60-11.25 457.15-12.46L457.15-12.46Q460.39-15 463.12-15L463.12-15Q464.18-15 464.84-14.65Q465.50-14.30 465.68-13.77L465.68-13.77Q466.15-14.47 466.47-14.66Q466.79-14.84 467.44-14.84ZM464.84-12.68L464.84-12.68Q461.50-12.68 457.93-8.96L457.93-8.96Q456.66-7.64 455.59-5.78Q454.53-3.93 454.53-3.24Q454.53-2.56 454.92-2.56L454.92-2.56Q455.47-2.56 457.97-4.72Q460.47-6.88 461.29-7.89L461.29-7.89Q462.18-9.02 464.84-12.68ZM470.19-20.64Q469.66-20.14 467.26-18.79Q464.86-17.44 464.28-17.44Q463.71-17.44 463.71-17.95L463.71-17.95Q463.71-18.13 463.81-18.32L463.81-18.32Q464.24-19.45 465.08-20.38Q465.93-21.31 466.95-22.13Q467.97-22.95 468.73-23.49Q469.49-24.02 469.78-24.30Q470.08-24.57 470.19-24.92L470.19-24.92Q470.33-25.27 470.72-25.27Q471.11-25.27 471.47-24.60Q471.83-23.93 471.83-23.32L471.83-23.32Q471.83-21.72 470.19-20.64L470.19-20.64Z M482.14-25.04L483.06-25.16L483.86-24.96Q484.04-24.96 484.18-24.79Q484.31-24.61 484.31-24.45Q484.31-24.30 483.90-23.61Q483.49-22.93 482.94-22.06Q482.38-21.19 482.34-21.11L482.34-21.11Q483.86-21.23 484.50-21.23Q485.13-21.23 485.37-21.14Q485.60-21.05 485.90-20.65Q486.21-20.25 486.46-20.05Q486.71-19.84 486.71-19.43Q486.71-19.02 486.22-18.74Q485.72-18.46 485.15-18.40L485.15-18.40Q480.62-17.95 480.15-17.93L480.15-17.93Q478.57-15.51 475.73-10.38Q472.89-5.25 472.71-3.96L472.71-3.96Q472.63-3.38 472.63-3.01L472.63-3.01Q472.63-2.25 473.43-2.25Q474.23-2.25 475.21-2.86Q476.19-3.48 477.01-4.20L477.01-4.20Q479.20-6.15 479.35-6.15L479.35-6.15Q479.86-6.15 479.86-4.39L479.86-4.39Q479.86-3.44 478.98-2.68L478.98-2.68Q477.01-0.98 475.66-0.12Q474.31 0.74 472.96 0.74L472.96 0.74Q472.67 0.74 472.42 0.68L472.42 0.68Q470.86 0.39 470.12-0.46Q469.39-1.31 469.40-2.75Q469.41-4.20 470.26-6.26Q471.11-8.32 472.40-10.64L472.40-10.64Q474.51-14.43 476.62-17.75L476.62-17.75L475.88-17.66Q473.61-17.40 473.24-17.40L473.24-17.40L473.06-17.40Q472.50-17.40 471.97-17.63Q471.44-17.85 471.44-18.18Q471.44-18.52 471.72-18.83Q472.01-19.14 472.07-19.32L472.07-19.32Q472.20-19.75 473.09-20.27Q473.98-20.80 474.43-20.83Q474.88-20.86 475.30-20.88Q475.72-20.90 476.24-20.92Q476.75-20.94 477.03-20.96L477.03-20.96L478.79-21.04Q480.43-23.50 481.04-24.20Q481.66-24.90 481.75-24.97Q481.85-25.04 482.14-25.04L482.14-25.04Z M491.73-21.45L491.73-21.45Q491.73-20.33 490.70-19.21Q489.66-18.09 488.54-18.09Q487.42-18.09 487.42-19.26Q487.42-20.43 488.40-21.49Q489.39-22.56 490.58-22.56L490.58-22.56Q491.11-22.56 491.42-22.27Q491.73-21.97 491.73-21.45ZM488.57-4.39L488.57-4.39Q488.57-3.81 488.45-3.55L488.45-3.55Q487.50-1.60 485.41-0.40Q483.32 0.80 481.77 0.80Q480.23 0.80 479.12-0.23Q478.00-1.27 478.00-2.34Q478.00-3.42 479.08-5.47Q480.15-7.52 481.23-9.26Q482.30-11.00 482.30-11.14Q482.30-11.29 481.90-11.72Q481.50-12.15 481.50-12.35Q481.50-12.56 482.31-13.43Q483.12-14.30 484.28-15.15Q485.44-16.00 486.06-16.00Q486.68-16.00 487.16-15.45Q487.65-14.90 487.65-14.45Q487.65-14.00 483.00-6.00L483.00-6.00Q482.94-5.88 482.68-5.48Q482.42-5.08 482.27-4.81Q482.12-4.55 481.93-4.18L481.93-4.18Q481.54-3.40 481.54-2.87L481.54-2.87Q481.54-2.21 482.44-2.21Q483.34-2.21 484.30-2.82Q485.27-3.44 485.97-4.18L485.97-4.18Q487.81-6.15 488.06-6.15L488.06-6.15Q488.57-6.15 488.57-4.39Z M500.63-4.34Q501.64-4.98 501.93-5.22Q502.22-5.47 502.61-5.80Q503.00-6.13 503.26-6.13L503.26-6.13Q503.65-6.13 503.65-5.24Q503.65-4.36 502.78-3.33Q501.91-2.30 500.62-1.59Q499.33-0.88 497.87-0.35L497.87-0.35Q494.96 0.72 492.91 0.72Q490.87 0.72 489.23-0.62Q487.59-1.95 487.59-4.11Q487.59-6.27 488.67-8.43Q489.74-10.59 491.43-12.22Q493.12-13.85 495.36-14.86Q497.59-15.88 499.78-15.88L499.78-15.88Q500.83-15.88 501.67-15.27Q502.51-14.67 502.51-13.61Q502.51-12.56 501.47-11.08Q500.42-9.61 499.35-9.61L499.35-9.61Q498.10-9.61 498.10-10.80L498.10-10.80Q498.10-11.11 498.69-11.91Q499.27-12.71 499.27-13.00Q499.27-13.28 499.06-13.28L499.06-13.28Q497.98-13.28 496.75-12.54Q495.52-11.80 494.52-10.98Q493.51-10.16 492.61-9.14L492.61-9.14Q490.66-6.93 490.66-4.55L490.66-4.55Q490.66-3.59 491.27-2.90Q491.89-2.21 493.34-2.21Q494.80-2.21 496.26-2.55Q497.73-2.89 498.68-3.29Q499.62-3.69 500.63-4.34Z M518.22-14.84L518.22-14.84Q519.70-14.84 519.70-13.83L519.70-13.83Q519.70-13.28 519.45-13.03Q519.19-12.77 518.36-11.34Q517.53-9.90 516.53-7.67Q515.52-5.43 515.23-3.85L515.23-3.85Q515.17-3.65 515.17-3.30L515.17-3.30Q515.17-2.23 515.76-2.23Q516.34-2.23 517.14-2.78Q517.94-3.34 518.57-3.97Q519.19-4.61 519.79-5.27Q520.38-5.94 520.50-6.04Q520.62-6.13 520.85-6.13L520.85-6.13Q521.22-6.13 521.30-5.57Q521.38-5 521.38-4.39Q521.38-3.79 521.26-3.55L521.26-3.55Q520.70-2.44 518.77-0.88Q516.85 0.68 515.28 0.68Q513.70 0.68 512.96-0.27Q512.22-1.23 512.22-2.39Q512.22-3.55 512.61-4.43L512.61-4.43Q510.99-2.32 508.89-0.86Q506.79 0.61 505.46 0.61Q504.13 0.61 503.29-0.20L503.29-0.20Q502.22-1.19 502.22-2.96Q502.22-4.73 503.01-6.51Q503.80-8.30 505.09-9.78Q506.38-11.25 507.92-12.46L507.92-12.46Q511.17-15 513.90-15L513.90-15Q514.95-15 515.62-14.65Q516.28-14.30 516.46-13.77L516.46-13.77Q516.93-14.47 517.25-14.66Q517.57-14.84 518.22-14.84ZM515.62-12.68L515.62-12.68Q512.28-12.68 508.70-8.96L508.70-8.96Q507.44-7.64 506.37-5.78Q505.31-3.93 505.31-3.24Q505.31-2.56 505.70-2.56L505.70-2.56Q506.24-2.56 508.74-4.72Q511.24-6.88 512.06-7.89L512.06-7.89Q512.96-9.02 515.62-12.68Z M522.55-3.91L522.55-3.91L522.53-3.59Q522.53-3.11 522.90-2.75Q523.27-2.40 523.59-2.40L523.59-2.40Q525.93-2.40 527.74-3.11Q529.54-3.81 529.54-4.51L529.54-4.51Q529.54-4.84 528.89-5.09Q528.24-5.33 526.68-5.69Q525.13-6.05 524.43-6.26Q523.72-6.46 523.31-6.64Q522.90-6.82 522.47-7.13L522.47-7.13Q521.56-7.77 521.56-9.05Q521.56-10.33 522.50-11.59Q523.45-12.85 524.88-13.75Q526.30-14.65 527.94-15.33L527.94-15.33Q531.18-16.68 533.39-16.68L533.39-16.68Q535.56-16.68 536.07-15.74L536.07-15.74Q536.22-15.41 536.22-15L536.22-15L536.22-14.86Q536.22-13.83 535.78-13.24Q535.34-12.66 534.40-12.19Q533.45-11.72 532.89-11.72Q532.34-11.72 532.19-11.80Q532.04-11.88 531.95-12.00Q531.85-12.13 531.70-12.19Q531.56-12.25 531.56-12.48Q531.56-12.71 531.75-12.96Q531.95-13.20 532.02-13.48L532.02-13.48Q530.74-13.42 529.33-12.88Q527.92-12.34 526.92-11.68Q525.91-11.02 525.25-10.41Q524.58-9.80 524.58-9.52Q524.58-9.24 525.48-9.06L525.48-9.06Q529.52-8.26 530.79-7.68Q532.06-7.09 532.55-6.35Q533.04-5.61 533.04-5L533.04-5Q533.04-3.75 532.04-2.64Q531.05-1.52 529.58-0.82L529.58-0.82Q526.44 0.72 524.10 0.72Q521.77 0.72 520.88 0.01Q519.99-0.70 519.99-1.68Q519.99-2.66 520.49-3.49Q520.99-4.32 521.77-4.32Q522.55-4.32 522.55-3.91Z"/></g>
</svg>
</g><g opacity="1" transform="rotate(0 112.2837 244.8514)">
<svg width="381.5005" height="60" x="112.2837" y="244.8514" version="1.1" preserveAspectRatio="none" viewBox="4.16 -31 201.16 31.64">
  <g transform="matrix(1 0 0 1 0 0)" class="companyName"><path id="id-D6z1nYkh12" d="M4.16 0L4.16-28.92L12.08-28.92Q17.48-28.92 21.02-26.78Q24.56-24.64 26.18-21.26Q27.80-17.88 27.80-14.12L27.80-14.12Q27.80-9.92 25.84-6.70Q23.88-3.48 20.60-1.74Q17.32 0 13.48 0L13.48 0L4.16 0ZM8.04-3.76L12.72-3.76Q15.92-3.76 18.44-5.02Q20.96-6.28 22.38-8.68Q23.80-11.08 23.80-14.40L23.80-14.40Q23.80-17.80 22.32-20.24Q20.84-22.68 18.38-23.94Q15.92-25.20 13.08-25.20L13.08-25.20L8.04-25.20L8.04-3.76Z M37-12.64Q37.64-14 38.82-15.04Q40-16.08 41.32-16.64Q42.64-17.20 43.64-17.24L43.64-17.24L43.48-13.52Q41.68-13.60 40.22-12.80Q38.76-12 37.94-10.58Q37.12-9.16 37.12-7.56L37.12-7.56L37.12 0L33.40 0L33.40-16.56L36.72-16.56L37-12.64Z M44.80-2.12Q44.80-3 45.44-3.64Q46.08-4.28 46.92-4.28L46.92-4.28Q47.68-4.28 48.34-3.64Q49.00-3 49.00-2.12L49.00-2.12Q49.00-1.20 48.36-0.60Q47.72 0 46.92 0L46.92 0Q46.08 0 45.44-0.60Q44.80-1.20 44.80-2.12L44.80-2.12Z M81.96-23.76Q80.40-24.60 78.64-25.12Q76.88-25.64 75.32-25.64L75.32-25.64Q72.96-25.64 71.58-24.58Q70.20-23.52 70.20-21.68L70.20-21.68Q70.20-19.88 71.82-18.74Q73.44-17.60 76.44-16.48L76.44-16.48Q78.68-15.68 80.22-14.74Q81.76-13.80 82.78-12.14Q83.80-10.48 83.80-7.92L83.80-7.92Q83.80-5.60 82.64-3.72Q81.48-1.84 79.34-0.76Q77.20 0.32 74.32 0.32L74.32 0.32Q71.64 0.32 69.16-0.54Q66.68-1.40 64.80-2.72L64.80-2.72L66.52-5.80Q68-4.68 70.08-3.90Q72.16-3.12 73.96-3.12L73.96-3.12Q76.28-3.12 78.02-4.32Q79.76-5.52 79.76-7.88L79.76-7.88Q79.76-9.88 78.30-11.06Q76.84-12.24 74.20-13.28L74.20-13.28Q71.76-14.20 70.14-15.08Q68.52-15.96 67.36-17.50Q66.20-19.04 66.20-21.36L66.20-21.36Q66.20-24.76 68.58-26.86Q70.96-28.96 74.76-29.08L74.76-29.08Q79.44-29.08 83.44-26.76L83.44-26.76L81.96-23.76Z M87.92-8.44Q87.92-10.88 89.10-12.90Q90.28-14.92 92.38-16.08Q94.48-17.24 97.12-17.24L97.12-17.24Q99.76-17.24 101.82-16.08Q103.88-14.92 105.02-12.92Q106.16-10.92 106.16-8.44L106.16-8.44Q106.16-5.96 105.02-3.94Q103.88-1.92 101.80-0.76Q99.72 0.40 97.04 0.40L97.04 0.40Q94.44 0.40 92.36-0.70Q90.28-1.80 89.10-3.80Q87.92-5.80 87.92-8.44L87.92-8.44ZM91.68-8.40Q91.68-6.84 92.38-5.52Q93.08-4.20 94.30-3.44Q95.52-2.68 97-2.68L97-2.68Q99.32-2.68 100.84-4.32Q102.36-5.96 102.36-8.40L102.36-8.40Q102.36-10.84 100.84-12.50Q99.32-14.16 97-14.16L97-14.16Q95.48-14.16 94.28-13.38Q93.08-12.60 92.38-11.28Q91.68-9.96 91.68-8.40L91.68-8.40Z M111.16-31L114.88-31L114.88 0L111.16 0L111.16-31Z M133.04-16.56L136.76-16.56L136.76 0L133.40 0L133.16-3.16Q132.32-1.48 130.56-0.42Q128.80 0.64 126.64 0.64L126.64 0.64Q124.36 0.64 122.90-0.74Q121.44-2.12 121.36-4.32L121.36-4.32L121.36-16.56L125.08-16.56L125.08-5.64Q125.16-4.24 125.90-3.42Q126.64-2.60 128.12-2.56L128.12-2.56Q129.48-2.56 130.60-3.38Q131.72-4.20 132.38-5.64Q133.04-7.08 133.04-8.84L133.04-8.84L133.04-16.56Z M144.84-23.84L148.60-23.84L148.60-16.52L153.12-16.52L153.12-13.56L148.60-13.56L148.60 0L144.84 0L144.84-13.56L141.80-13.56L141.80-16.52L144.84-16.52L144.84-23.84Z M157.64-16.56L161.36-16.56L161.36 0L157.64 0L157.64-16.56ZM157.36-22.52Q157.36-23.40 158.04-24Q158.72-24.60 159.60-24.60L159.60-24.60Q160.48-24.60 161.14-24Q161.80-23.40 161.80-22.52L161.80-22.52Q161.80-21.64 161.14-21.04Q160.48-20.44 159.60-20.44L159.60-20.44Q158.72-20.44 158.04-21.04Q157.36-21.64 157.36-22.52L157.36-22.52Z M166.40-8.44Q166.40-10.88 167.58-12.90Q168.76-14.92 170.86-16.08Q172.96-17.24 175.60-17.24L175.60-17.24Q178.24-17.24 180.30-16.08Q182.36-14.92 183.50-12.92Q184.64-10.92 184.64-8.44L184.64-8.44Q184.64-5.96 183.50-3.94Q182.36-1.92 180.28-0.76Q178.20 0.40 175.52 0.40L175.52 0.40Q172.92 0.40 170.84-0.70Q168.76-1.80 167.58-3.80Q166.40-5.80 166.40-8.44L166.40-8.44ZM170.16-8.40Q170.16-6.84 170.86-5.52Q171.56-4.20 172.78-3.44Q174-2.68 175.48-2.68L175.48-2.68Q177.80-2.68 179.32-4.32Q180.84-5.96 180.84-8.40L180.84-8.40Q180.84-10.84 179.32-12.50Q177.80-14.16 175.48-14.16L175.48-14.16Q173.96-14.16 172.76-13.38Q171.56-12.60 170.86-11.28Q170.16-9.96 170.16-8.40L170.16-8.40Z M199.92-17.20Q202.24-17.20 203.76-15.82Q205.28-14.44 205.32-12.24L205.32-12.24L205.32 0L201.56 0L201.56-10.96Q201.48-12.36 200.72-13.16Q199.96-13.96 198.44-14L198.44-14Q196.24-14 194.80-12.24Q193.36-10.48 193.36-7.76L193.36-7.76L193.36 0L189.64 0L189.64-16.56L193-16.56L193.24-13.36Q194.12-15.16 195.88-16.18Q197.64-17.20 199.92-17.20L199.92-17.20Z"/></g>
</svg>
</g></svg></svg>