<svg version="1.1" preserveAspectRatio="none" xmlns="http://www.w3.org/2000/svg" width="500" height="500" viewBox="0 0 500 500"><rect width="100%" height="100%" fill="#2089EF" fill-opacity="1"/><svg viewBox="70.1025 188.7508 406.2966 206.053" width="333" height="168.88068716302325" x="83.5px" y="165.5597px" xmlns="http://www.w3.org/2000/svg" xmlns:xlink="http://www.w3.org/1999/xlink" preserveAspectRatio="none"><defs></defs><style>.companyName {fill:#D9F18A;fill-opacity:1;}.icon1 {fill:#FFA2E8;fill-opacity:1;}.icon2 {fill:#FFDEAC;fill-opacity:1;}.icon3 {fill:#89EFCA;fill-opacity:1;}.icon3-str {stroke:#89EFCA;stroke-opacity:1;}.text {fill:#D9F18A;fill-opacity:1;}</style><g opacity="1" transform="rotate(0 202.2932 188.7508)">
<svg width="141.9152" height="78.053" x="202.2932" y="188.7508" version="1.1" preserveAspectRatio="none" viewBox="19.99972152709961 55.999961853027344 160.00015258789062 87.99951934814453">
  <g transform="matrix(1 0 0 1 0 0)" ><g><path d="M175.597 56.502a2.021 2.021 0 0 0-1.346-.502c-50.514.217-123.871 3.523-145.152 4.532-2.913.133-5.236 2.338-5.546 5.231-2.409 22.531-4.844 53.448-2.77 72.783a5.846 5.846 0 0 0 6.153 5.204c10.777-.613 42.56-.329 73.297-.053 30.434.271 59.179.527 69.035-.022.271-.017.538-.048.799-.098 2.404-.461 4.275-2.361 4.673-4.85 2.395-15.048 6.222-55.182 5.038-72.984-.181-2.732-1.385-6.791-4.181-9.241zM27.591 66.197a1.785 1.785 0 0 1 1.7-1.601c20.539-.973 89.631-4.089 139.768-4.494l-1.374 29.143c-.226 4.824-.354 8.862-.47 12.509-.333 10.486-.555 17.498-2.673 30.647-44.46 1.895-94.149 1.3-140.258-1.669-.933-20.125 1.576-48.347 3.307-64.535zm148.136-.185c1.121 16.866-2.572 56.839-4.997 72.073-.136.85-.809 1.482-1.689 1.526-9.723.543-39.741.275-68.771.017-30.802-.276-62.652-.56-73.563.059a1.78 1.78 0 0 1-1.884-1.576 114.361 114.361 0 0 1-.401-4.925c46.455 2.981 96.516 3.556 141.216 1.612a1.218 1.218 0 0 0 1.15-1.022c2.293-13.943 2.531-21.494 2.862-31.946.116-3.636.243-7.661.471-12.47l1.38-29.275c.64-.004 1.292-.01 1.925-.013 1.237 1.409 2.154 3.735 2.301 5.94zM35.083 113.026c.045 3.154.204 6.11.523 8.727.236 1.947 2.158 3.381 4.375 3.263 8.38-.442 33.038-.383 56.884-.325 23.591.057 45.875.112 53.503-.284.225-.012.447-.039.662-.08 1.663-.319 2.963-1.495 3.26-3.025.413-2.112.882-4.983 1.355-8.301.114-.187.194-.397.192-.632-.001-.106-.036-.2-.062-.298 1.683-12.08 3.361-29.47 2.712-38.342-.14-1.926-1.177-4.526-3.174-5.991a1.22 1.22 0 0 0-.73-.237c-39.226.341-96.077 2.782-112.568 3.523-2.054.09-3.732 1.478-3.977 3.296a441.476 441.476 0 0 0-1.501 12.619c-.09.178-.154.37-.149.582.002.098.038.184.062.275-.865 8.522-1.476 17.488-1.367 25.216 0 .002-.002.005-.001.007l.001.007zm2.941 8.432c-.266-2.184-.411-4.635-.473-7.233l8.003-.043-.709 8.225a177.49 177.49 0 0 0-4.992.172c-.927.049-1.748-.454-1.829-1.121zm-.424-15.142 8.653-.232-.488 5.656-8.246.044c-.006-1.776.021-3.601.081-5.468zm.394-7.794c.075.012.144.041.222.039l8.705-.233-.458 5.308-8.774.235c.08-1.772.184-3.561.305-5.349zm.824-9.837 8.953-.206-.638 7.401-8.966.24c.192-2.524.412-5.02.651-7.435zm.846-7.761 8.775-.202-.458 5.311-8.913.205c.196-1.849.396-3.625.596-5.314zm20.141-8.221-.46 5.327-8.244.19.446-5.17c2.494-.107 5.26-.223 8.258-.347zm10.81-.434-.476 5.513-8.342.192.463-5.371c2.643-.108 5.428-.22 8.355-.334zm11.631-.443-.491 5.687-9.165.211.479-5.552c2.954-.113 6.016-.229 9.177-.346zm12.959-.458-.504 5.848-10.495.242.493-5.721c3.42-.125 6.931-.248 10.506-.369zm11.43-.373-.514 5.958-8.969.206.507-5.875c2.961-.099 5.96-.195 8.976-.289zm11.983-.351-.52 6.033-9.526.219.516-5.976c3.169-.096 6.352-.189 9.53-.276zm11.878-.301-.523 6.06-9.425.217.521-6.042c3.161-.084 6.311-.163 9.427-.235zm11.789-.238-.52 6.027-9.341.215.523-6.058c3.159-.069 6.281-.131 9.338-.184zm13.767 13.502c-.102-.025-.202-.058-.312-.055l-12.193.281.458-5.312 12.178-.28a127.105 127.105 0 0 1-.131 5.366zm-.615 9.375-12.709.34.608-7.044 12.46-.287c.047 0 .092-.008.137-.014a255.923 255.923 0 0 1-.496 7.005zm-.739 7.757-12.639.338.458-5.308 12.706-.34a347.012 347.012 0 0 1-.525 5.31zm-1.262 10.422-12.252.066.664-7.701 12.579-.337a355.577 355.577 0 0 1-.991 7.972zm-24.974 11.119.737-8.548 9.327-.05-.737 8.55c-2.824.024-5.951.04-9.327.048zm.948-10.99.642-7.449 9.344-.25-.66 7.649-9.326.05zm-23.817.128.599-6.938 9.53-.255-.616 7.142-9.513.051zm-47.615 10.828.702-8.135 8.329-.045-.703 8.15c-2.919.005-5.706.015-8.328.03zm-10.683.112.706-8.189 8.231-.044-.702 8.137c-3.042.022-5.811.053-8.235.096zm23.572-24.671 9.169-.245-.458 5.308-9.169.246.458-5.309zm-2.909 5.374-8.345.223.458-5.308 8.345-.223-.458 5.308zm36.662-8.719-8.971.24.623-7.22 8.968-.206-.62 7.186zm3.071-7.243 9.526-.219-.616 7.142-9.529.255.619-7.178zm-14.493 7.548-10.499.281.627-7.268 10.495-.242-.623 7.229zm-12.951.347-9.168.245.631-7.312 9.165-.211-.628 7.278zm2.241 2.382 10.499-.281-.458 5.308-10.499.281.458-5.308zm12.95-.346 8.971-.24-.458 5.308-8.971.24.458-5.308zm11.423-.306 9.529-.255-.458 5.308-9.529.255.458-5.308zm11.981-.32 9.428-.252-.458 5.308-9.428.252.458-5.308zm11.88-.318 9.344-.25-.458 5.308-9.344.25.458-5.308zm.211-2.448.611-7.088 9.341-.215-.608 7.053-9.344.25zm-2.452.065-9.428.252.615-7.132 9.425-.217-.612 7.097zm-8.602-9.325.458-5.312 9.425-.217-.458 5.312-9.425.217zm-2.451.056-9.526.22.458-5.312 9.526-.22-.458 5.312zm-11.976.276-8.969.206.458-5.311 8.969-.207-.458 5.312zm-11.42.263-10.495.242.458-5.311 10.495-.242-.458 5.311zm-12.946.298-9.165.211.458-5.311 9.165-.211-.458 5.311zm-11.616.267-8.342.192.458-5.311 8.342-.192-.458 5.311zm-.211 2.446-.632 7.321-8.344.223.634-7.352 8.342-.192zm-11.428 7.609-8.247.221.637-7.392 8.244-.19-.634 7.361zm-.211 2.449-.458 5.308-8.246.221.458-5.308 8.246-.221zm-.669 7.756-.508 5.884-8.231.045.492-5.708 8.247-.221zm1.939 5.871.512-5.937 8.344-.223-.528 6.116-8.328.044zm11.308-6.226 9.169-.245-.549 6.364-9.152.049.532-6.168zm11.621-.311 10.499-.281-.573 6.641-10.48.056.554-6.416zm12.95-.346 8.971-.24-.594 6.886-8.954.048.577-6.694zm23.404-.627 9.428-.252-.638 7.396-9.41.05.62-7.194zm22.923-20.27-9.341.215.458-5.312 9.341-.215-.458 5.312zm-81.961-3.413-.458 5.311-8.244.19.458-5.311 8.244-.19zm9.617 41.737.704-8.159 46.623-.251c.014.002.024.01.038.011.085.008.166-.003.247-.013l10.388-.056-.737 8.54c-8.708.014-18.8-.01-29.145-.035-9.612-.022-19.355-.046-28.118-.037zm83.146-1.38c-.117.603-.829 1.098-1.654 1.135h-.001c-2.196.114-5.66.19-10.005.24l.737-8.539 12.119-.065c-.416 2.85-.826 5.335-1.196 7.229zm4.158-46.927c.043.584.069 1.23.091 1.895l-11.931.275.519-6.01c3.228-.05 6.389-.092 9.435-.12 1.171 1.039 1.798 2.738 1.886 3.96zm-114.267-.404c.107-.021.221-.034.335-.04 1.839-.083 4.205-.187 6.968-.307l-.441 5.121-8.69.2c.169-1.356.335-2.656.492-3.834.074-.55.625-1.004 1.336-1.14z" data-color="1" class="icon1"></path></g></g>
</svg>
</g><g opacity="1" transform="rotate(0 70.1025 372.8038)">
<svg width="406.2966" height="22" x="70.1025" y="372.8038" version="1.1" preserveAspectRatio="none" viewBox="2.56 -32.48 795.12 43.03999999999999">
  <g transform="matrix(1 0 0 1 0 0)" class="text"><path id="id-6izo4zJp35" d="M8.20-28.24L8.20-4.32L17.68-4.32L17.68 0L2.56 0L2.56-28.24L8.20-28.24Z M33.28-22.44Q36.52-22.44 39.10-21.08Q41.68-19.72 43.16-17.14Q44.64-14.56 44.64-11.08L44.64-11.08Q44.64-7.60 43.16-5.04Q41.68-2.48 39.10-1.10Q36.52 0.28 33.28 0.28L33.28 0.28Q30.04 0.28 27.46-1.10Q24.88-2.48 23.40-5.04Q21.92-7.60 21.92-11.08L21.92-11.08Q21.92-14.56 23.40-17.14Q24.88-19.72 27.46-21.08Q30.04-22.44 33.28-22.44L33.28-22.44ZM33.28-17.56Q30.92-17.56 29.28-15.90Q27.64-14.24 27.64-11.08L27.64-11.08Q27.64-7.92 29.28-6.26Q30.92-4.60 33.28-4.60L33.28-4.60Q35.64-4.60 37.28-6.26Q38.92-7.92 38.92-11.08L38.92-11.08Q38.92-14.24 37.28-15.90Q35.64-17.56 33.28-17.56L33.28-17.56Z M89.56-22.48Q93.60-22.48 95.94-19.98Q98.28-17.48 98.28-12.88L98.28-12.88L98.28 0L92.68 0L92.68-12.24Q92.68-14.80 91.38-16.18Q90.08-17.56 87.80-17.56L87.80-17.56Q85.44-17.56 84.04-16.08Q82.64-14.60 82.64-11.76L82.64-11.76L82.64 0L77.04 0L77.04-12.24Q77.04-14.80 75.74-16.18Q74.44-17.56 72.16-17.56L72.16-17.56Q69.80-17.56 68.40-16.08Q67-14.60 67-11.76L67-11.76L67 0L61.36 0L61.36-22.16L67-22.16L67-17.96Q67.88-20.12 69.78-21.30Q71.68-22.48 74.20-22.48L74.20-22.48Q76.88-22.48 78.86-21.20Q80.84-19.92 81.84-17.52L81.84-17.52Q82.88-19.80 84.94-21.14Q87-22.48 89.56-22.48L89.56-22.48Z M126.08-11.92Q126.08-11.08 125.88-10L125.88-10L109.64-10Q109.76-7.04 111.24-5.64Q112.72-4.24 114.92-4.24L114.92-4.24Q116.88-4.24 118.18-5.20Q119.48-6.16 119.84-7.80L119.84-7.80L125.80-7.80Q125.36-5.48 123.92-3.64Q122.48-1.80 120.22-0.76Q117.96 0.28 115.20 0.28L115.20 0.28Q111.96 0.28 109.44-1.10Q106.92-2.48 105.52-5.04Q104.12-7.60 104.12-11.08L104.12-11.08Q104.12-14.56 105.52-17.14Q106.92-19.72 109.44-21.08Q111.96-22.44 115.20-22.44L115.20-22.44Q118.48-22.44 120.94-21.08Q123.40-19.72 124.74-17.34Q126.08-14.96 126.08-11.92L126.08-11.92ZM120.40-12.48Q120.52-15.20 118.98-16.60Q117.44-18 115.20-18L115.20-18Q112.92-18 111.36-16.60Q109.80-15.20 109.64-12.48L109.64-12.48L120.40-12.48Z M135.04-25.48Q133.48-25.48 132.52-26.34Q131.56-27.20 131.56-28.52L131.56-28.52Q131.56-29.88 132.52-30.74Q133.48-31.60 135.04-31.60L135.04-31.60Q136.60-31.60 137.56-30.72Q138.52-29.84 138.52-28.52L138.52-28.52Q138.52-27.20 137.56-26.34Q136.60-25.48 135.04-25.48L135.04-25.48ZM128.32 10.56L128.32 5.68L129.92 5.68Q131.16 5.68 131.70 5.16Q132.24 4.64 132.24 3.36L132.24 3.36L132.24-22.16L137.88-22.16L137.88 3.36Q137.88 10.56 130.64 10.56L130.64 10.56L128.32 10.56Z M155.20-22.44Q158.44-22.44 161.02-21.08Q163.60-19.72 165.08-17.14Q166.56-14.56 166.56-11.08L166.56-11.08Q166.56-7.60 165.08-5.04Q163.60-2.48 161.02-1.10Q158.44 0.28 155.20 0.28L155.20 0.28Q151.96 0.28 149.38-1.10Q146.80-2.48 145.32-5.04Q143.84-7.60 143.84-11.08L143.84-11.08Q143.84-14.56 145.32-17.14Q146.80-19.72 149.38-21.08Q151.96-22.44 155.20-22.44L155.20-22.44ZM155.20-17.56Q152.84-17.56 151.20-15.90Q149.56-14.24 149.56-11.08L149.56-11.08Q149.56-7.92 151.20-6.26Q152.84-4.60 155.20-4.60L155.20-4.60Q157.56-4.60 159.20-6.26Q160.84-7.92 160.84-11.08L160.84-11.08Q160.84-14.24 159.20-15.90Q157.56-17.56 155.20-17.56L155.20-17.56Z M178.20-17.92Q179.44-20.04 181.48-21.26Q183.52-22.48 186.04-22.48L186.04-22.48L186.04-16.44L184.40-16.44Q178.20-16.44 178.20-10.68L178.20-10.68L178.20 0L172.56 0L172.56-22.16L178.20-22.16L178.20-17.92Z M222.72-11.92Q222.72-11.08 222.52-10L222.52-10L206.28-10Q206.40-7.04 207.88-5.64Q209.36-4.24 211.56-4.24L211.56-4.24Q213.52-4.24 214.82-5.20Q216.12-6.16 216.48-7.80L216.48-7.80L222.44-7.80Q222-5.48 220.56-3.64Q219.12-1.80 216.86-0.76Q214.60 0.28 211.84 0.28L211.84 0.28Q208.60 0.28 206.08-1.10Q203.56-2.48 202.16-5.04Q200.76-7.60 200.76-11.08L200.76-11.08Q200.76-14.56 202.16-17.14Q203.56-19.72 206.08-21.08Q208.60-22.44 211.84-22.44L211.84-22.44Q215.12-22.44 217.58-21.08Q220.04-19.72 221.38-17.34Q222.72-14.96 222.72-11.92L222.72-11.92ZM217.04-12.48Q217.16-15.20 215.62-16.60Q214.08-18 211.84-18L211.84-18Q209.56-18 208-16.60Q206.44-15.20 206.28-12.48L206.28-12.48L217.04-12.48Z M241.92-22.48Q245.76-22.48 248.04-19.96Q250.32-17.44 250.32-12.88L250.32-12.88L250.32 0L244.72 0L244.72-12.24Q244.72-14.88 243.36-16.34Q242-17.80 239.64-17.80L239.64-17.80Q237.24-17.80 235.80-16.24Q234.36-14.68 234.36-11.76L234.36-11.76L234.36 0L228.72 0L228.72-22.16L234.36-22.16L234.36-17.72Q235.24-19.96 237.26-21.22Q239.28-22.48 241.92-22.48L241.92-22.48Z M275.64-22.44Q279.68-22.44 282.12-20.40Q284.56-18.36 285.16-14.96L285.16-14.96L279.88-14.96Q279.56-16.56 278.44-17.52Q277.32-18.48 275.52-18.48L275.52-18.48Q274.08-18.48 273.28-17.80Q272.48-17.12 272.48-15.96L272.48-15.96Q272.48-15.04 273.12-14.48Q273.76-13.92 274.72-13.60Q275.68-13.28 277.48-12.84L277.48-12.84Q280-12.28 281.58-11.66Q283.16-11.04 284.30-9.70Q285.44-8.36 285.44-6.08L285.44-6.08Q285.44-3.24 283.22-1.48Q281 0.28 277.24 0.28L277.24 0.28Q272.92 0.28 270.32-1.66Q267.72-3.60 267.16-7.20L267.16-7.20L272.56-7.20Q272.76-5.56 274-4.62Q275.24-3.68 277.24-3.68L277.24-3.68Q278.68-3.68 279.44-4.38Q280.20-5.08 280.20-6.20L280.20-6.20Q280.20-7.16 279.54-7.76Q278.88-8.36 277.90-8.68Q276.92-9 275.12-9.44L275.12-9.44Q272.64-10 271.10-10.58Q269.56-11.16 268.46-12.44Q267.36-13.72 267.36-15.96L267.36-15.96Q267.36-18.84 269.56-20.64Q271.76-22.44 275.64-22.44L275.64-22.44Z M301.88-22.44Q305.12-22.44 307.70-21.08Q310.28-19.72 311.76-17.14Q313.24-14.56 313.24-11.08L313.24-11.08Q313.24-7.60 311.76-5.04Q310.28-2.48 307.70-1.10Q305.12 0.28 301.88 0.28L301.88 0.28Q298.64 0.28 296.06-1.10Q293.48-2.48 292-5.04Q290.52-7.60 290.52-11.08L290.52-11.08Q290.52-14.56 292-17.14Q293.48-19.72 296.06-21.08Q298.64-22.44 301.88-22.44L301.88-22.44ZM301.88-17.56Q299.52-17.56 297.88-15.90Q296.24-14.24 296.24-11.08L296.24-11.08Q296.24-7.92 297.88-6.26Q299.52-4.60 301.88-4.60L301.88-4.60Q304.24-4.60 305.88-6.26Q307.52-7.92 307.52-11.08L307.52-11.08Q307.52-14.24 305.88-15.90Q304.24-17.56 301.88-17.56L301.88-17.56Z M319.24-29.60L324.88-29.60L324.88 0L319.24 0L319.24-29.60Z M347.56-22.16L353.20-22.16L353.20 0L347.56 0L347.56-4.48Q346.68-2.24 344.66-0.98Q342.64 0.28 340 0.28L340 0.28Q336.16 0.28 333.88-2.24Q331.60-4.76 331.60-9.28L331.60-9.28L331.60-22.16L337.20-22.16L337.20-9.92Q337.20-7.28 338.56-5.82Q339.92-4.36 342.24-4.36L342.24-4.36Q344.68-4.36 346.12-5.92Q347.56-7.48 347.56-10.40L347.56-10.40L347.56-22.16Z M370.28-22.44Q374.56-22.44 377.42-20.12Q380.28-17.80 381-13.80L381-13.80L375.04-13.80Q374.68-15.56 373.40-16.58Q372.12-17.60 370.16-17.60L370.16-17.60Q367.92-17.60 366.42-15.94Q364.92-14.28 364.92-11.08L364.92-11.08Q364.92-7.88 366.42-6.22Q367.92-4.56 370.16-4.56L370.16-4.56Q372.12-4.56 373.40-5.58Q374.68-6.60 375.04-8.36L375.04-8.36L381-8.36Q380.28-4.36 377.42-2.04Q374.56 0.28 370.28 0.28L370.28 0.28Q367.04 0.28 364.52-1.10Q362-2.48 360.60-5.04Q359.20-7.60 359.20-11.08L359.20-11.08Q359.20-14.56 360.60-17.14Q362-19.72 364.52-21.08Q367.04-22.44 370.28-22.44L370.28-22.44Z M386.36-28.52Q386.36-29.88 387.32-30.74Q388.28-31.60 389.84-31.60L389.84-31.60Q391.40-31.60 392.36-30.74Q393.32-29.88 393.32-28.52L393.32-28.52Q393.32-27.20 392.36-26.34Q391.40-25.48 389.84-25.48L389.84-25.48Q388.28-25.48 387.32-26.34Q386.36-27.20 386.36-28.52L386.36-28.52ZM387-22.16L392.64-22.16L392.64 0L387 0L387-22.16Z M410-22.44Q413.24-22.44 415.82-21.08Q418.40-19.72 419.88-17.14Q421.36-14.56 421.36-11.08L421.36-11.08Q421.36-7.60 419.88-5.04Q418.40-2.48 415.82-1.10Q413.24 0.28 410 0.28L410 0.28Q406.76 0.28 404.18-1.10Q401.60-2.48 400.12-5.04Q398.64-7.60 398.64-11.08L398.64-11.08Q398.64-14.56 400.12-17.14Q401.60-19.72 404.18-21.08Q406.76-22.44 410-22.44L410-22.44ZM410-17.56Q407.64-17.56 406-15.90Q404.36-14.24 404.36-11.08L404.36-11.08Q404.36-7.92 406-6.26Q407.64-4.60 410-4.60L410-4.60Q412.36-4.60 414-6.26Q415.64-7.92 415.64-11.08L415.64-11.08Q415.64-14.24 414-15.90Q412.36-17.56 410-17.56L410-17.56Z M440.56-22.48Q444.40-22.48 446.68-19.96Q448.96-17.44 448.96-12.88L448.96-12.88L448.96 0L443.36 0L443.36-12.24Q443.36-14.88 442-16.34Q440.64-17.80 438.28-17.80L438.28-17.80Q435.88-17.80 434.44-16.24Q433-14.68 433-11.76L433-11.76L433 0L427.36 0L427.36-22.16L433-22.16L433-17.72Q433.88-19.96 435.90-21.22Q437.92-22.48 440.56-22.48L440.56-22.48Z M476.76-11.92Q476.76-11.08 476.56-10L476.56-10L460.32-10Q460.44-7.04 461.92-5.64Q463.40-4.24 465.60-4.24L465.60-4.24Q467.56-4.24 468.86-5.20Q470.16-6.16 470.52-7.80L470.52-7.80L476.48-7.80Q476.04-5.48 474.60-3.64Q473.16-1.80 470.90-0.76Q468.64 0.28 465.88 0.28L465.88 0.28Q462.64 0.28 460.12-1.10Q457.60-2.48 456.20-5.04Q454.80-7.60 454.80-11.08L454.80-11.08Q454.80-14.56 456.20-17.14Q457.60-19.72 460.12-21.08Q462.64-22.44 465.88-22.44L465.88-22.44Q469.16-22.44 471.62-21.08Q474.08-19.72 475.42-17.34Q476.76-14.96 476.76-11.92L476.76-11.92ZM471.08-12.48Q471.20-15.20 469.66-16.60Q468.12-18 465.88-18L465.88-18Q463.60-18 462.04-16.60Q460.48-15.20 460.32-12.48L460.32-12.48L471.08-12.48Z M490.40-22.44Q494.44-22.44 496.88-20.40Q499.32-18.36 499.92-14.96L499.92-14.96L494.64-14.96Q494.32-16.56 493.20-17.52Q492.08-18.48 490.28-18.48L490.28-18.48Q488.84-18.48 488.04-17.80Q487.24-17.12 487.24-15.96L487.24-15.96Q487.24-15.04 487.88-14.48Q488.52-13.92 489.48-13.60Q490.44-13.28 492.24-12.84L492.24-12.84Q494.76-12.28 496.34-11.66Q497.92-11.04 499.06-9.70Q500.20-8.36 500.20-6.08L500.20-6.08Q500.20-3.24 497.98-1.48Q495.76 0.28 492 0.28L492 0.28Q487.68 0.28 485.08-1.66Q482.48-3.60 481.92-7.20L481.92-7.20L487.32-7.20Q487.52-5.56 488.76-4.62Q490-3.68 492-3.68L492-3.68Q493.44-3.68 494.20-4.38Q494.96-5.08 494.96-6.20L494.96-6.20Q494.96-7.16 494.30-7.76Q493.64-8.36 492.66-8.68Q491.68-9 489.88-9.44L489.88-9.44Q487.40-10 485.86-10.58Q484.32-11.16 483.22-12.44Q482.12-13.72 482.12-15.96L482.12-15.96Q482.12-18.84 484.32-20.64Q486.52-22.44 490.40-22.44L490.40-22.44Z M516.48-28.52Q516.48-29.88 517.44-30.74Q518.40-31.60 519.96-31.60L519.96-31.60Q521.52-31.60 522.48-30.74Q523.44-29.88 523.44-28.52L523.44-28.52Q523.44-27.20 522.48-26.34Q521.52-25.48 519.96-25.48L519.96-25.48Q518.40-25.48 517.44-26.34Q516.48-27.20 516.48-28.52L516.48-28.52ZM517.12-22.16L522.76-22.16L522.76 0L517.12 0L517.12-22.16Z M543.08-22.48Q546.92-22.48 549.20-19.96Q551.48-17.44 551.48-12.88L551.48-12.88L551.48 0L545.88 0L545.88-12.24Q545.88-14.88 544.52-16.34Q543.16-17.80 540.80-17.80L540.80-17.80Q538.40-17.80 536.96-16.24Q535.52-14.68 535.52-11.76L535.52-11.76L535.52 0L529.88 0L529.88-22.16L535.52-22.16L535.52-17.72Q536.40-19.96 538.42-21.22Q540.44-22.48 543.08-22.48L543.08-22.48Z M569.40-26Q566.92-26.16 565.92-25.28Q564.92-24.40 564.92-22.20L564.92-22.20L564.92-22.16L569.40-22.16L569.40-17.40L564.92-17.40L564.92 0L559.28 0L559.28-17.40L556.44-17.40L556.44-22.16L559.28-22.16L559.28-22.68Q559.28-26.64 561.54-28.78Q563.80-30.92 568.24-30.92L568.24-30.92Q569.00-30.92 569.40-30.88L569.40-30.88L569.40-26Z M585.00-22.44Q588.24-22.44 590.82-21.08Q593.40-19.72 594.88-17.14Q596.36-14.56 596.36-11.08L596.36-11.08Q596.36-7.60 594.88-5.04Q593.40-2.48 590.82-1.10Q588.24 0.28 585.00 0.28L585.00 0.28Q581.76 0.28 579.18-1.10Q576.60-2.48 575.12-5.04Q573.64-7.60 573.64-11.08L573.64-11.08Q573.64-14.56 575.12-17.14Q576.60-19.72 579.18-21.08Q581.76-22.44 585.00-22.44L585.00-22.44ZM585.00-17.56Q582.64-17.56 581.00-15.90Q579.36-14.24 579.36-11.08L579.36-11.08Q579.36-7.92 581.00-6.26Q582.64-4.60 585.00-4.60L585.00-4.60Q587.36-4.60 589.00-6.26Q590.64-7.92 590.64-11.08L590.64-11.08Q590.64-14.24 589.00-15.90Q587.36-17.56 585.00-17.56L585.00-17.56Z M608-17.92Q609.24-20.04 611.28-21.26Q613.32-22.48 615.84-22.48L615.84-22.48L615.84-16.44L614.20-16.44Q608-16.44 608-10.68L608-10.68L608 0L602.36 0L602.36-22.16L608-22.16L608-17.92Z M649.16-22.48Q653.20-22.48 655.54-19.98Q657.88-17.48 657.88-12.88L657.88-12.88L657.88 0L652.28 0L652.28-12.24Q652.28-14.80 650.98-16.18Q649.68-17.56 647.40-17.56L647.40-17.56Q645.04-17.56 643.64-16.08Q642.24-14.60 642.24-11.76L642.24-11.76L642.24 0L636.64 0L636.64-12.24Q636.64-14.80 635.34-16.18Q634.04-17.56 631.76-17.56L631.76-17.56Q629.40-17.56 628-16.08Q626.60-14.60 626.60-11.76L626.60-11.76L626.60 0L620.96 0L620.96-22.16L626.60-22.16L626.60-17.96Q627.48-20.12 629.38-21.30Q631.28-22.48 633.80-22.48L633.80-22.48Q636.48-22.48 638.46-21.20Q640.44-19.92 641.44-17.52L641.44-17.52Q642.48-19.80 644.54-21.14Q646.60-22.48 649.16-22.48L649.16-22.48Z M673.52-22.44Q676.32-22.44 678.32-21.12Q680.32-19.80 681.16-17.56L681.16-17.56L681.16-22.16L686.76-22.16L686.76 0L681.16 0L681.16-4.64Q680.32-2.40 678.32-1.06Q676.32 0.28 673.52 0.28L673.52 0.28Q670.72 0.28 668.48-1.08Q666.24-2.44 664.98-5.02Q663.72-7.60 663.72-11.08L663.72-11.08Q663.72-14.56 664.98-17.14Q666.24-19.72 668.48-21.08Q670.72-22.44 673.52-22.44L673.52-22.44ZM675.28-17.52Q672.64-17.52 671.04-15.80Q669.44-14.08 669.44-11.08L669.44-11.08Q669.44-8.08 671.04-6.38Q672.64-4.68 675.28-4.68L675.28-4.68Q677.84-4.68 679.50-6.42Q681.16-8.16 681.16-11.08L681.16-11.08Q681.16-14.04 679.50-15.78Q677.84-17.52 675.28-17.52L675.28-17.52ZM681.32-32.48L681.32-28.16L672.12-23.84L672.12-27.68L681.32-32.48Z M703.52-4.84L705.72-4.84L705.72 0L702.76 0Q699.04 0 697.06-1.80Q695.08-3.60 695.08-7.80L695.08-7.80L695.08-17.40L692.00-17.40L692.00-22.16L695.08-22.16L695.08-27.64L700.72-27.64L700.72-22.16L705.68-22.16L705.68-17.40L700.72-17.40L700.72-7.72Q700.72-6.12 701.36-5.48Q702.00-4.84 703.52-4.84L703.52-4.84Z M711.12-28.52Q711.12-29.88 712.08-30.74Q713.04-31.60 714.60-31.60L714.60-31.60Q716.16-31.60 717.12-30.74Q718.08-29.88 718.08-28.52L718.08-28.52Q718.08-27.20 717.12-26.34Q716.16-25.48 714.60-25.48L714.60-25.48Q713.04-25.48 712.08-26.34Q711.12-27.20 711.12-28.52L711.12-28.52ZM711.76-22.16L717.40-22.16L717.40 0L711.76 0L711.76-22.16Z M734.48-22.44Q738.76-22.44 741.62-20.12Q744.48-17.80 745.20-13.80L745.20-13.80L739.24-13.80Q738.88-15.56 737.60-16.58Q736.32-17.60 734.36-17.60L734.36-17.60Q732.12-17.60 730.62-15.94Q729.12-14.28 729.12-11.08L729.12-11.08Q729.12-7.88 730.62-6.22Q732.12-4.56 734.36-4.56L734.36-4.56Q736.32-4.56 737.60-5.58Q738.88-6.60 739.24-8.36L739.24-8.36L745.20-8.36Q744.48-4.36 741.62-2.04Q738.76 0.28 734.48 0.28L734.48 0.28Q731.24 0.28 728.72-1.10Q726.20-2.48 724.80-5.04Q723.40-7.60 723.40-11.08L723.40-11.08Q723.40-14.56 724.80-17.14Q726.20-19.72 728.72-21.08Q731.24-22.44 734.48-22.44L734.48-22.44Z M759.88-22.44Q762.68-22.44 764.68-21.12Q766.68-19.80 767.52-17.56L767.52-17.56L767.52-22.16L773.12-22.16L773.12 0L767.52 0L767.52-4.64Q766.68-2.40 764.68-1.06Q762.68 0.28 759.88 0.28L759.88 0.28Q757.08 0.28 754.84-1.08Q752.60-2.44 751.34-5.02Q750.08-7.60 750.08-11.08L750.08-11.08Q750.08-14.56 751.34-17.14Q752.60-19.72 754.84-21.08Q757.08-22.44 759.88-22.44L759.88-22.44ZM761.64-17.52Q759.00-17.52 757.40-15.80Q755.80-14.08 755.80-11.08L755.80-11.08Q755.80-8.08 757.40-6.38Q759.00-4.68 761.64-4.68L761.64-4.68Q764.20-4.68 765.86-6.42Q767.52-8.16 767.52-11.08L767.52-11.08Q767.52-14.04 765.86-15.78Q764.20-17.52 761.64-17.52L761.64-17.52Z M787.88-22.44Q791.92-22.44 794.36-20.40Q796.80-18.36 797.40-14.96L797.40-14.96L792.12-14.96Q791.80-16.56 790.68-17.52Q789.56-18.48 787.76-18.48L787.76-18.48Q786.32-18.48 785.52-17.80Q784.72-17.12 784.72-15.96L784.72-15.96Q784.72-15.04 785.36-14.48Q786.00-13.92 786.96-13.60Q787.92-13.28 789.72-12.84L789.72-12.84Q792.24-12.28 793.82-11.66Q795.40-11.04 796.54-9.70Q797.68-8.36 797.68-6.08L797.68-6.08Q797.68-3.24 795.46-1.48Q793.24 0.28 789.48 0.28L789.48 0.28Q785.16 0.28 782.56-1.66Q779.96-3.60 779.40-7.20L779.40-7.20L784.80-7.20Q785.00-5.56 786.24-4.62Q787.48-3.68 789.48-3.68L789.48-3.68Q790.92-3.68 791.68-4.38Q792.44-5.08 792.44-6.20L792.44-6.20Q792.44-7.16 791.78-7.76Q791.12-8.36 790.14-8.68Q789.16-9 787.36-9.44L787.36-9.44Q784.88-10 783.34-10.58Q781.80-11.16 780.70-12.44Q779.60-13.72 779.60-15.96L779.60-15.96Q779.60-18.84 781.80-20.64Q784.00-22.44 787.88-22.44L787.88-22.44Z"/></g>
</svg>
</g><g opacity="1" transform="rotate(0 95.8568 306.8038)">
<svg width="354.788" height="50" x="95.8568" y="306.8038" version="1.1" preserveAspectRatio="none" viewBox="2 -33.16 237.28 33.44">
  <g transform="matrix(1 0 0 1 0 0)" class="companyName"><path id="id-D6z1nYkh12" d="M28.52-14.24Q28.52-10.20 26.72-6.96Q24.92-3.72 21.58-1.86Q18.24 0 13.80 0L13.80 0L2 0L2-28.32L13.80-28.32Q18.24-28.32 21.58-26.52Q24.92-24.72 26.72-21.52Q28.52-18.32 28.52-14.24L28.52-14.24ZM13-7.92Q16-7.92 17.76-9.56Q19.52-11.20 19.52-14.24L19.52-14.24Q19.52-17.28 17.76-18.92Q16-20.56 13-20.56L13-20.56L10.88-20.56L10.88-7.92L13-7.92Z M40.60-18.40Q41.96-20.36 43.92-21.54Q45.88-22.72 48-22.72L48-22.72L48-13.24L45.48-13.24Q42.96-13.24 41.78-12.36Q40.60-11.48 40.60-9.24L40.60-9.24L40.60 0L31.72 0L31.72-22.56L40.60-22.56L40.60-18.40Z M49.52-8.48L58.32-8.48L58.32 0L49.52 0L49.52-8.48Z M90.16-8.36Q90.16-5.92 88.90-3.96Q87.64-2 85.24-0.86Q82.84 0.28 79.52 0.28L79.52 0.28Q74.44 0.28 71.14-2.10Q67.84-4.48 67.56-9.08L67.56-9.08L77-9.08Q77.20-6.64 79.16-6.64L79.16-6.64Q79.84-6.64 80.26-7Q80.68-7.36 80.68-8.04L80.68-8.04Q80.68-9.04 79.66-9.62Q78.64-10.20 76.36-10.96L76.36-10.96Q73.68-11.84 71.90-12.76Q70.12-13.68 68.80-15.48Q67.48-17.28 67.48-20.16L67.48-20.16Q67.48-22.92 68.90-24.86Q70.32-26.80 72.78-27.80Q75.24-28.80 78.32-28.80L78.32-28.80Q83.40-28.80 86.40-26.44Q89.40-24.08 89.68-19.64L89.68-19.64L80.12-19.64Q79.92-21.88 78.28-21.88L78.28-21.88Q77.72-21.88 77.36-21.54Q77-21.20 77-20.52L77-20.52Q77-19.60 78.02-19.02Q79.04-18.44 81.20-17.68L81.20-17.68Q83.92-16.72 85.70-15.78Q87.48-14.84 88.82-13.02Q90.16-11.20 90.16-8.36L90.16-8.36Z M104-22.84Q107.40-22.84 110.12-21.44Q112.84-20.04 114.38-17.42Q115.92-14.80 115.92-11.28L115.92-11.28Q115.92-7.76 114.38-5.14Q112.84-2.52 110.12-1.12Q107.40 0.28 104 0.28L104 0.28Q100.60 0.28 97.88-1.12Q95.16-2.52 93.62-5.14Q92.08-7.76 92.08-11.28L92.08-11.28Q92.08-14.80 93.62-17.42Q95.16-20.04 97.88-21.44Q100.60-22.84 104-22.84L104-22.84ZM104-15.16Q102.76-15.16 101.92-14.18Q101.08-13.20 101.08-11.28L101.08-11.28Q101.08-9.36 101.90-8.38Q102.72-7.40 104-7.40L104-7.40Q105.24-7.40 106.08-8.38Q106.92-9.36 106.92-11.28L106.92-11.28Q106.92-13.20 106.08-14.18Q105.24-15.16 104-15.16L104-15.16Z M118.72-29.60L127.60-29.60L127.60 0L118.72 0L118.72-29.60Z M146.60-22.56L155.48-22.56L155.48 0L146.60 0L146.60-3.44Q145.56-1.84 143.82-0.84Q142.08 0.16 139.68 0.16L139.68 0.16Q135.80 0.16 133.62-2.44Q131.44-5.04 131.44-9.48L131.44-9.48L131.44-22.56L140.28-22.56L140.28-10.60Q140.28-9 141.14-8.06Q142-7.12 143.44-7.12L143.44-7.12Q144.92-7.12 145.76-8.06Q146.60-9 146.60-10.60L146.60-10.60L146.60-22.56Z M171.40-7.56L173.52-7.56L173.52 0L170.16 0Q160.88 0 160.88-9.24L160.88-9.24L160.88-15.16L158.08-15.16L158.08-22.56L160.88-22.56L160.88-28L169.76-28L169.76-22.56L173.44-22.56L173.44-15.16L169.76-15.16L169.76-9.08Q169.76-8.28 170.14-7.92Q170.52-7.56 171.40-7.56L171.40-7.56Z M176.28-28.72Q176.28-30.64 177.68-31.90Q179.08-33.16 181.40-33.16L181.40-33.16Q183.68-33.16 185.08-31.90Q186.48-30.64 186.48-28.72L186.48-28.72Q186.48-26.84 185.08-25.60Q183.68-24.36 181.40-24.36L181.40-24.36Q179.08-24.36 177.68-25.60Q176.28-26.84 176.28-28.72L176.28-28.72ZM176.92-22.56L185.80-22.56L185.80 0L176.92 0L176.92-22.56Z M200.52-22.84Q203.92-22.84 206.64-21.44Q209.36-20.04 210.90-17.42Q212.44-14.80 212.44-11.28L212.44-11.28Q212.44-7.76 210.90-5.14Q209.36-2.52 206.64-1.12Q203.92 0.28 200.52 0.28L200.52 0.28Q197.12 0.28 194.40-1.12Q191.68-2.52 190.14-5.14Q188.60-7.76 188.60-11.28L188.60-11.28Q188.60-14.80 190.14-17.42Q191.68-20.04 194.40-21.44Q197.12-22.84 200.52-22.84L200.52-22.84ZM200.52-15.16Q199.28-15.16 198.44-14.18Q197.60-13.20 197.60-11.28L197.60-11.28Q197.60-9.36 198.42-8.38Q199.24-7.40 200.52-7.40L200.52-7.40Q201.76-7.40 202.60-8.38Q203.44-9.36 203.44-11.28L203.44-11.28Q203.44-13.20 202.60-14.18Q201.76-15.16 200.52-15.16L200.52-15.16Z M231.04-22.72Q234.92-22.72 237.10-20.12Q239.28-17.52 239.28-13.08L239.28-13.08L239.28 0L230.44 0L230.44-11.96Q230.44-13.56 229.58-14.50Q228.72-15.44 227.28-15.44L227.28-15.44Q225.80-15.44 224.96-14.50Q224.12-13.56 224.12-11.96L224.12-11.96L224.12 0L215.24 0L215.24-22.56L224.12-22.56L224.12-19.12Q225.16-20.72 226.90-21.72Q228.64-22.72 231.04-22.72L231.04-22.72Z"/></g>
</svg>
</g></svg></svg>