<svg version="1.1" preserveAspectRatio="none" xmlns="http://www.w3.org/2000/svg" width="500" height="500" viewBox="0 0 500 500"><rect width="100%" height="100%" fill="#14051E" fill-opacity="1"/><svg viewBox="37.7752 128.0703 417.7593 307.6715" width="333" height="245.24794421093677" x="83.5px" y="127.376px" xmlns="http://www.w3.org/2000/svg" xmlns:xlink="http://www.w3.org/1999/xlink" preserveAspectRatio="none"><defs></defs><style>.companyName {fill:#E93232;fill-opacity:1;}.icon1 {fill:#907DB3;fill-opacity:1;}.icon2 {fill:#D6C7F4;fill-opacity:1;}.icon3 {fill:#6A588A;fill-opacity:1;}.icon3-str {stroke:#6A588A;stroke-opacity:1;}.text {fill:#907DB3;fill-opacity:1;}</style><g opacity="1" transform="rotate(0 37.7752 413.2418)">
<svg width="417.7593" height="22.5" x="37.7752" y="413.2418" version="1.1" preserveAspectRatio="none" viewBox="3.52 -24.4 604.48 32.56">
  <g transform="matrix(1 0 0 1 0 0)" class="text"><path id="id-6izo4zJp35" d="M14.72-4.92L14.72-4.92Q15.88-4.68 15.88-3.12L15.88-3.12Q15.88-2.28 15.48-1.80Q15.08-1.32 14.44-1.32L14.44-1.32Q14.24-1.32 13.68-1.38Q13.12-1.44 12.48-1.50Q11.84-1.56 11.24-1.62Q10.64-1.68 10.40-1.68L10.40-1.68Q10.16-1.68 9.96-1.68Q9.76-1.68 9.56-1.64L9.56-1.64Q8.88-1.68 7.98-1.82Q7.08-1.96 6.22-2.14Q5.36-2.32 4.70-2.52Q4.04-2.72 3.92-2.88L3.92-2.88Q3.52-4.08 3.52-6.08L3.52-6.08Q3.52-6.40 3.52-6.74Q3.52-7.08 3.56-7.44L3.56-7.44L3.80-10.28Q3.84-10.60 3.84-10.90Q3.84-11.20 3.84-11.44L3.84-11.44Q3.84-11.76 3.84-11.98Q3.84-12.20 3.76-12.40L3.76-12.40Q4.04-13.92 4.16-14.94Q4.28-15.96 4.28-16.52L4.28-16.52L4.28-16.84Q4.28-17.40 4.76-20.40L4.76-20.40Q5.36-21.68 6.60-21.68L6.60-21.68Q7.36-21.68 7.88-21.10Q8.40-20.52 8.40-19.52L8.40-19.52Q8.24-18.96 8.10-18.12Q7.96-17.28 7.84-16.12L7.84-16.12L7.84-15.80Q7.84-15.44 7.78-14.70Q7.72-13.96 7.64-13.18Q7.56-12.40 7.50-11.78Q7.44-11.16 7.44-11.08L7.44-11.08Q7.44-10.64 7.48-10.52L7.48-10.52Q7.32-8.84 7.24-7.72Q7.16-6.60 7.16-6L7.16-6Q7.16-5.60 7.20-5.48L7.20-5.48Q9.28-5.24 9.96-5.24L9.96-5.24Q10.28-5.24 10.62-5.26Q10.96-5.28 11.32-5.28L11.32-5.28Q12.84-5.28 14.72-4.92Z M30.84-1L30.84-1Q30.32-0.64 29.16-0.30Q28 0.04 26.76 0.28L26.76 0.28L25.12-0.04Q24.76-0.16 23.94-0.60Q23.12-1.04 22.28-1.94Q21.44-2.84 20.80-4.26Q20.16-5.68 20.16-7.72L20.16-7.72Q20.16-8.44 20.50-9.42Q20.84-10.40 21.52-11.26Q22.20-12.12 23.22-12.72Q24.24-13.32 25.60-13.32L25.60-13.32Q28.32-13.32 30.52-11.56L30.52-11.56Q32.44-8.92 32.44-5.72L32.44-5.72Q32.44-3.36 30.84-1ZM28.88-6.68L28.88-6.68Q28.68-8.24 27.90-9.14Q27.12-10.04 25.92-10.04L25.92-10.04Q25.12-10.04 24.42-9.26Q23.72-8.48 23.72-7L23.72-7Q23.72-6.40 23.88-5.74Q24.04-5.08 24.40-4.54Q24.76-4 25.32-3.66Q25.88-3.32 26.68-3.32L26.68-3.32Q27.96-3.32 28.44-4.10Q28.92-4.88 28.92-6.04L28.92-6.04Q28.92-6.20 28.90-6.34Q28.88-6.48 28.88-6.68Z M77.52-2.52L77.52-2.28Q77.52-1.76 76.94-1.42Q76.36-1.08 75.68-1.08L75.68-1.08Q74.88-1.08 74.50-1.60Q74.12-2.12 73.96-2.94Q73.80-3.76 73.78-4.76Q73.76-5.76 73.72-6.68L73.72-6.68Q73.64-6.96 73.52-7.48Q73.40-8 73.32-8.80L73.32-8.80Q72.24-10 70.72-10L70.72-10Q70.16-10 69.60-9.90Q69.04-9.80 68.56-9.46Q68.08-9.12 67.68-8.44Q67.28-7.76 67.04-6.60L67.04-6.60Q67.08-6.40 67.08-5.88L67.08-5.88Q67.08-5.44 67.02-4.82Q66.96-4.20 66.88-3.40L66.88-3.40L66.88-3.20Q66.88-3.04 66.88-2.42Q66.88-1.80 66.72-1.14Q66.56-0.48 66.14 0.04Q65.72 0.56 64.92 0.56L64.92 0.56Q64.20 0.56 63.64 0.14Q63.08-0.28 63.08-0.88L63.08-0.88Q63.08-0.96 63.14-1.48Q63.20-2 63.30-2.66Q63.40-3.32 63.46-3.98Q63.52-4.64 63.52-5.04L63.52-5.04Q63.52-5.72 63.40-6.40L63.40-6.40L63.40-6.92Q63.40-8.96 62.60-10.76L62.60-10.76Q62-11.24 60.72-11.40L60.72-11.40Q60.48-11.32 60.12-11.16Q59.76-11 59.40-10.50Q59.04-10 58.76-9.08Q58.48-8.16 58.36-6.60L58.36-6.60L58.24-4.96Q58.48-3.76 58.48-2.88L58.48-2.88Q58.48-1.84 58.14-1.22Q57.80-0.60 56.64-0.60L56.64-0.60Q56.04-0.60 55.66-0.74Q55.28-0.88 55.06-1.38Q54.84-1.88 54.76-2.86Q54.68-3.84 54.68-5.48L54.68-5.48Q54.68-6.80 54.84-8.06Q55-9.32 55.32-11.32L55.32-11.32Q55.20-12 54.98-12.58Q54.76-13.16 54.76-13.48L54.76-13.48Q54.76-14.16 55.36-14.68Q55.96-15.20 56.76-15.20L56.76-15.20Q57.36-15.20 57.84-14.84L57.84-14.84L58.52-13.96Q59-14.36 59.36-14.58Q59.72-14.80 60-14.92Q60.28-15.04 60.56-15.06Q60.84-15.08 61.20-15.08L61.20-15.08Q61.72-15.08 62.02-15.08Q62.32-15.08 62.64-14.96Q62.96-14.84 63.38-14.58Q63.80-14.32 64.56-13.80L64.56-13.80Q65.04-13.48 65.84-11.72L65.84-11.72L66.08-12Q66.40-12.28 66.96-12.56Q67.52-12.84 68.18-13.06Q68.84-13.28 69.54-13.42Q70.24-13.56 70.80-13.56L70.80-13.56Q72.12-13.56 73.08-13.30Q74.04-13.04 74.72-12.54Q75.40-12.04 75.92-11.26Q76.44-10.48 76.92-9.48L76.92-9.48L76.92-9.20Q76.92-8.88 77-8.04Q77.08-7.20 77.16-6.36Q77.24-5.52 77.32-4.90Q77.40-4.28 77.40-4.36L77.40-4.36Q77.40-4.32 77.42-4.10Q77.44-3.88 77.46-3.58Q77.48-3.28 77.50-2.98Q77.52-2.68 77.52-2.52L77.52-2.52Z M97.32-1.60L97.32-1.60Q96.04-0.32 94.44 0.58Q92.84 1.48 91.20 1.48L91.20 1.48Q89.72 1.48 87.40 1L87.40 1Q86.60 0.48 85.80-0.26Q85-1 84.36-1.90Q83.72-2.80 83.32-3.86Q82.92-4.92 82.92-6.04L82.92-6.04Q82.92-6.36 82.96-6.90Q83-7.44 83.06-7.98Q83.12-8.52 83.16-8.92Q83.20-9.32 83.20-9.32L83.20-9.32Q84-10.60 84.90-11.86Q85.80-13.12 87.44-14.08L87.44-14.08Q90.04-14.64 91.20-14.64L91.20-14.64Q91.80-14.64 92.24-14.58Q92.68-14.52 93.10-14.34Q93.52-14.16 93.94-13.80Q94.36-13.44 94.92-12.88L94.92-12.88Q95.56-12.20 95.94-11.96Q96.32-11.72 96.32-11.52L96.32-11.52Q96.32-7.84 94.04-6.52L94.04-6.52Q93.04-6.16 91.44-5.74Q89.84-5.32 87.08-4.96L87.08-4.96Q87.64-3.44 88.56-2.68Q89.48-1.92 90.64-1.92L90.64-1.92Q92.36-1.92 94.96-3.96L94.96-3.96Q95.36-4.32 95.96-4.32L95.96-4.32Q96.60-4.32 97.10-3.84Q97.60-3.36 97.60-2.64L97.60-2.64Q97.60-2.12 97.32-1.60ZM92.80-10.16L92.80-10.16Q92.04-11.40 91-11.40L91-11.40Q90.56-11.40 90.04-11.28Q89.52-11.16 88.98-10.94Q88.44-10.72 87.98-10.40Q87.52-10.08 87.24-9.64L87.24-9.64L86.84-8.44Q88.20-8.56 89.24-8.64Q90.28-8.72 91.04-8.88Q91.80-9.04 92.24-9.32Q92.68-9.60 92.80-10.16Z M105.68-19.24L107.16-18.72L107.28-17.28L107.28-16.96Q107.28-15.88 106.50-15.34Q105.72-14.80 104.56-14.60L104.56-14.60Q104.40-14.64 104.06-14.82Q103.72-15 103.36-15.28Q103-15.56 102.74-15.92Q102.48-16.28 102.48-16.72L102.48-16.72Q102.48-18.08 103.04-18.80Q103.60-19.52 104.44-19.52L104.44-19.52Q104.96-19.52 105.68-19.24L105.68-19.24ZM107.84-4.72L107.84-4.72L107.84-4.08Q107.84-3.16 107.78-1.86Q107.72-0.56 107.52 1.20L107.52 1.20Q106.72 5 105.04 6.58Q103.36 8.16 100.72 8.16L100.72 8.16Q100.24 8.16 99.70 8.10Q99.16 8.04 98.68 7.86Q98.20 7.68 97.90 7.32Q97.60 6.96 97.60 6.40L97.60 6.40Q97.60 5.64 98.10 5.02Q98.60 4.40 99.28 4.40L99.28 4.40Q99.52 4.40 99.84 4.50Q100.16 4.60 100.48 4.60L100.48 4.60Q102.28 4.60 103.26 2.88Q104.24 1.16 104.24-2L104.24-2L104.24-2.52Q104.28-2.76 104.28-3.08Q104.28-3.40 104.28-3.84L104.28-3.84Q104.28-5.16 104.18-5.86Q104.08-6.56 104.16-6.56L104.16-6.56Q104.04-7.16 103.90-8.02Q103.76-8.88 103.60-10L103.60-10Q104-11.68 105.24-11.68L105.24-11.68Q106.16-11.68 106.62-11.24Q107.08-10.80 107.30-9.94Q107.52-9.08 107.60-7.76Q107.68-6.44 107.84-4.72Z M125.04-1L125.04-1Q124.52-0.64 123.36-0.30Q122.20 0.04 120.96 0.28L120.96 0.28L119.32-0.04Q118.96-0.16 118.14-0.60Q117.32-1.04 116.48-1.94Q115.64-2.84 115-4.26Q114.36-5.68 114.36-7.72L114.36-7.72Q114.36-8.44 114.70-9.42Q115.04-10.40 115.72-11.26Q116.40-12.12 117.42-12.72Q118.44-13.32 119.80-13.32L119.80-13.32Q122.52-13.32 124.72-11.56L124.72-11.56Q126.64-8.92 126.64-5.72L126.64-5.72Q126.64-3.36 125.04-1ZM123.08-6.68L123.08-6.68Q122.88-8.24 122.10-9.14Q121.32-10.04 120.12-10.04L120.12-10.04Q119.32-10.04 118.62-9.26Q117.92-8.48 117.92-7L117.92-7Q117.92-6.40 118.08-5.74Q118.24-5.08 118.60-4.54Q118.96-4 119.52-3.66Q120.08-3.32 120.88-3.32L120.88-3.32Q122.16-3.32 122.64-4.10Q123.12-4.88 123.12-6.04L123.12-6.04Q123.12-6.20 123.10-6.34Q123.08-6.48 123.08-6.68Z M141.12-13.96L142.52-13.60Q143.16-13.20 143.16-12.08L143.16-12.08Q143.16-11.24 142.72-10.64Q142.28-10.04 141.52-10.04L141.52-10.04Q141.04-10.04 140.54-10.30Q140.04-10.56 139.48-10.56L139.48-10.56Q139-10.56 138.54-10.38Q138.08-10.20 137.48-9.60L137.48-9.60L136.28-8.40Q136.28-8.12 136.30-7.84Q136.32-7.56 136.32-7.24L136.32-7.24Q136.32-6.76 136.30-6.24Q136.28-5.72 136.24-5.12L136.24-5.12L136.60-1.48Q136.48 0.36 134.72 0.36L134.72 0.36Q133.80 0.36 133.36-0.22Q132.92-0.80 132.76-1.84Q132.60-2.88 132.62-4.28Q132.64-5.68 132.60-7.36L132.60-7.36Q132.52-9.88 132.48-9.88L132.48-9.88L132.48-9.84Q132.32-10.44 132.24-10.90Q132.16-11.36 132.16-11.72L132.16-11.72Q132.16-12.44 132.68-12.90Q133.20-13.36 134.20-13.36L134.20-13.36Q134.84-13.36 135.72-12.36L135.72-12.36Q136.64-13.08 137.14-13.44Q137.64-13.80 137.98-13.96Q138.32-14.12 138.64-14.14Q138.96-14.16 139.48-14.16L139.48-14.16Q139.92-14.20 140.30-14.12Q140.68-14.04 141.12-13.96L141.12-13.96Z M177.64-1.60L177.64-1.60Q176.36-0.32 174.76 0.58Q173.16 1.48 171.52 1.48L171.52 1.48Q170.04 1.48 167.72 1L167.72 1Q166.92 0.48 166.12-0.26Q165.32-1 164.68-1.90Q164.04-2.80 163.64-3.86Q163.24-4.92 163.24-6.04L163.24-6.04Q163.24-6.36 163.28-6.90Q163.32-7.44 163.38-7.98Q163.44-8.52 163.48-8.92Q163.52-9.32 163.52-9.32L163.52-9.32Q164.32-10.60 165.22-11.86Q166.12-13.12 167.76-14.08L167.76-14.08Q170.36-14.64 171.52-14.64L171.52-14.64Q172.12-14.64 172.56-14.58Q173.00-14.52 173.42-14.34Q173.84-14.16 174.26-13.80Q174.68-13.44 175.24-12.88L175.24-12.88Q175.88-12.20 176.26-11.96Q176.64-11.72 176.64-11.52L176.64-11.52Q176.64-7.84 174.36-6.52L174.36-6.52Q173.36-6.16 171.76-5.74Q170.16-5.32 167.40-4.96L167.40-4.96Q167.96-3.44 168.88-2.68Q169.80-1.92 170.96-1.92L170.96-1.92Q172.68-1.92 175.28-3.96L175.28-3.96Q175.68-4.32 176.28-4.32L176.28-4.32Q176.92-4.32 177.42-3.84Q177.92-3.36 177.92-2.64L177.92-2.64Q177.92-2.12 177.64-1.60ZM173.12-10.16L173.12-10.16Q172.36-11.40 171.32-11.40L171.32-11.40Q170.88-11.40 170.36-11.28Q169.84-11.16 169.30-10.94Q168.76-10.72 168.30-10.40Q167.84-10.08 167.56-9.64L167.56-9.64L167.16-8.44Q168.52-8.56 169.56-8.64Q170.60-8.72 171.36-8.88Q172.12-9.04 172.56-9.32Q173.00-9.60 173.12-10.16Z M195.92-4.44L195.92-4.44L195.92-4.12Q195.92-3.88 195.94-3.26Q195.96-2.64 195.82-2Q195.68-1.36 195.28-0.86Q194.88-0.36 194.08-0.36L194.08-0.36Q192.52-0.36 192.24-1.60L192.24-1.60Q192.28-1.84 192.28-2.14Q192.28-2.44 192.28-2.80L192.28-2.80Q192.28-2.96 192.28-3.98Q192.28-5 192.22-6.20Q192.16-7.40 191.96-8.46Q191.76-9.52 191.36-9.80L191.36-9.80Q190.44-10.44 189.72-10.44L189.72-10.44Q188.76-10.44 188.10-9.86Q187.44-9.28 187.00-7.60L187.00-7.60Q186.96-7.04 186.92-6.34Q186.88-5.64 186.80-4.76L186.80-4.76Q186.80-4.08 186.84-3.26Q186.88-2.44 186.96-1.40L186.96-1.40Q186.96-0.64 186.36-0.14Q185.76 0.36 185.00 0.36L185.00 0.36Q184.40 0.36 184.04 0.04Q183.68-0.28 183.50-0.80Q183.32-1.32 183.26-1.92Q183.20-2.52 183.20-3.12L183.20-3.12Q183.20-3.56 183.24-4.02Q183.28-4.48 183.36-4.96L183.36-4.96L183.68-8.80L184.00-10.72Q183.92-11.20 183.68-11.76Q183.44-12.32 183.44-12.64L183.44-12.64Q183.44-13.32 183.98-13.88Q184.52-14.44 185.32-14.44L185.32-14.44Q185.88-14.44 186.16-14.22Q186.44-14 187.08-13.16L187.08-13.16Q187.88-13.52 188.36-13.62Q188.84-13.72 189.48-13.72L189.48-13.72Q191.56-13.72 193.14-12.74Q194.72-11.76 195.12-9.48L195.12-9.48Q195.24-8.64 195.34-8.08Q195.44-7.52 195.52-7Q195.60-6.48 195.68-5.90Q195.76-5.32 195.92-4.44Z M229.28-4.60L229.28-4.60Q229.16-3.36 228.46-2.34Q227.76-1.32 227.04-0.28L227.04-0.28Q226.60 0.08 225.78 0.34Q224.96 0.60 224.16 0.76Q223.36 0.92 222.78 1Q222.20 1.08 222.28 1.08L222.28 1.08Q221.88 1.08 221.26 0.94Q220.64 0.80 220.06 0.66Q219.48 0.52 219.10 0.38Q218.72 0.24 218.76 0.24L218.76 0.24Q218.40 0.20 217.84-0.02Q217.28-0.24 216.78-0.54Q216.28-0.84 215.90-1.18Q215.52-1.52 215.52-1.84L215.52-1.84Q215.52-2.16 215.68-2.50Q215.84-2.84 216.12-3.14Q216.40-3.44 216.70-3.62Q217.00-3.80 217.32-3.80L217.32-3.80L220.08-2.76Q220.84-2.52 221.58-2.42Q222.32-2.32 223.04-2.32L223.04-2.32Q223.72-2.32 224.26-2.58Q224.80-2.84 225.08-3.20L225.08-3.20L225.68-4.40Q225.60-5.12 225.10-5.52Q224.60-5.92 223.86-6.20Q223.12-6.48 222.28-6.72Q221.44-6.96 220.72-7.36L220.72-7.36L219.00-8.44Q218.16-9.52 218.12-11.76L218.12-11.76Q218.36-13.16 219.32-14L219.32-14Q219.36-14.04 219.84-14.38Q220.32-14.72 221.32-15.36L221.32-15.36Q221.48-15.36 222.34-15.44Q223.20-15.52 224.72-15.68L224.72-15.68Q225.40-15.68 228.04-14.72L228.04-14.72Q228.56-14.20 228.56-13.28L228.56-13.28Q228.56-12.56 228.22-12.06Q227.88-11.56 227.24-11.56L227.24-11.56Q226.56-11.56 225.74-11.90Q224.92-12.24 224.20-12.24L224.20-12.24Q223.20-12.24 222.38-12.06Q221.56-11.88 221.56-11.24L221.56-11.24Q221.56-10.32 222.36-10.12L222.36-10.12Q228.48-8.76 229.28-4.60Z M244.64-1L244.64-1Q244.12-0.64 242.96-0.30Q241.80 0.04 240.56 0.28L240.56 0.28L238.92-0.04Q238.56-0.16 237.74-0.60Q236.92-1.04 236.08-1.94Q235.24-2.84 234.60-4.26Q233.96-5.68 233.96-7.72L233.96-7.72Q233.96-8.44 234.30-9.42Q234.64-10.40 235.32-11.26Q236.00-12.12 237.02-12.72Q238.04-13.32 239.40-13.32L239.40-13.32Q242.12-13.32 244.32-11.56L244.32-11.56Q246.24-8.92 246.24-5.72L246.24-5.72Q246.24-3.36 244.64-1ZM242.68-6.68L242.68-6.68Q242.48-8.24 241.70-9.14Q240.92-10.04 239.72-10.04L239.72-10.04Q238.92-10.04 238.22-9.26Q237.52-8.48 237.52-7L237.52-7Q237.52-6.40 237.68-5.74Q237.84-5.08 238.20-4.54Q238.56-4 239.12-3.66Q239.68-3.32 240.48-3.32L240.48-3.32Q241.76-3.32 242.24-4.10Q242.72-4.88 242.72-6.04L242.72-6.04Q242.72-6.20 242.70-6.34Q242.68-6.48 242.68-6.68Z M257.48-21.04L257.48-21.04Q257.40-20.04 257.02-18.78Q256.64-17.52 256.48-16.72L256.48-16.72L256.48-16.24Q256.48-15.68 256.40-15.04Q256.32-14.40 256.24-13.82Q256.16-13.24 256.06-12.80Q255.96-12.36 255.96-12.20L255.96-12.20Q255.92-12 255.92-11.24Q255.92-10.48 255.92-9.20L255.92-9.20L255.92-8.72Q255.92-7.92 255.84-7.32Q255.76-6.72 255.64-6.24L255.64-6.24L256.00-3.24Q256.16-2.80 257.08-1.92L257.08-1.92Q256.88-1.20 256.04-0.62Q255.20-0.04 254.32-0.04L254.32-0.04Q253.12-0.04 252.50-1.18Q251.88-2.32 251.88-5L251.88-5Q251.88-5.44 251.94-5.76Q252.00-6.08 252.00-6.56L252.00-6.56Q252.00-7.52 251.76-8.96L251.76-8.96Q251.96-9.40 252.06-10.08Q252.16-10.76 252.20-11.38Q252.24-12 252.24-12.44Q252.24-12.88 252.24-12.80L252.24-12.80Q252.24-12.76 252.34-13.36Q252.44-13.96 252.56-14.78Q252.68-15.60 252.78-16.48Q252.88-17.36 252.88-17.88L252.88-17.88L252.88-18.20L253.56-21.56Q254.08-22.44 255.36-22.44L255.36-22.44Q256.76-22.44 257.48-21.04Z M277.00-14.36L277.00-14.36Q277.08-13.88 277.08-13.40Q277.08-12.92 277.08-12.48L277.08-12.48Q277.08-10.64 276.68-9.16L276.68-9.16Q276.52-8.16 276.44-7.10Q276.36-6.04 276.28-4.88L276.28-4.88Q276.28-4.80 276.38-4.02Q276.48-3.24 276.48-1.72L276.48-1.72Q276.48-1.04 275.94-0.70Q275.40-0.36 274.68-0.36L274.68-0.36Q273.80-0.36 273.44-0.74Q273.08-1.12 273.00-2.56L273.00-2.56Q272.32-1.92 271.68-1.58Q271.04-1.24 270.46-1.08Q269.88-0.92 269.38-0.88Q268.88-0.84 268.44-0.84L268.44-0.84Q266.16-0.84 265.00-2.20Q263.84-3.56 263.84-5.96L263.84-5.96Q263.84-6.24 263.84-6.54Q263.84-6.84 263.88-7.24L263.88-7.24Q263.84-7.32 263.84-7.60L263.84-7.60Q263.84-8.04 263.86-8.50Q263.88-8.96 264.00-9.64Q264.12-10.32 264.38-11.34Q264.64-12.36 265.12-13.96L265.12-13.96Q265.64-14.60 266.52-14.60L266.52-14.60Q267.20-14.60 267.70-14.24Q268.20-13.88 268.20-13.12L268.20-13.12Q268.20-12.92 268.08-12.32Q267.96-11.72 267.80-11Q267.64-10.28 267.52-9.56Q267.40-8.84 267.40-8.44L267.40-8.44L267.40-8.24Q267.32-7.80 267.28-7.38Q267.24-6.96 267.24-6.60L267.24-6.60Q267.24-5.56 267.54-4.88Q267.84-4.20 268.84-4.20L268.84-4.20Q269.56-4.20 270.20-4.54Q270.84-4.88 271.38-5.38Q271.92-5.88 272.32-6.46Q272.72-7.04 272.92-7.56L272.92-7.56Q273.12-9.04 273.64-11.44L273.64-11.44L273.64-11.84Q273.64-12.52 273.70-13.16Q273.76-13.80 273.94-14.30Q274.12-14.80 274.48-15.10Q274.84-15.40 275.48-15.40L275.48-15.40Q276.68-15.40 277.00-14.36Z M295.72-3.84L295.72-3.84Q294.96-2.24 293.24-1.30Q291.52-0.36 289.40-0.36L289.40-0.36Q289.12-0.36 288.48-0.44Q287.84-0.52 287.06-0.76Q286.28-1 285.46-1.42Q284.64-1.84 283.96-2.54Q283.28-3.24 282.84-4.24Q282.40-5.24 282.40-6.60L282.40-6.60Q282.36-8.40 282.90-9.88Q283.44-11.36 284.64-12.88L284.64-12.88L285.92-14.52Q288.16-16.04 290.96-16.04L290.96-16.04Q292.48-16.04 293.38-15.48Q294.28-14.92 294.28-13.88L294.28-13.88Q294.28-13.08 293.70-12.58Q293.12-12.08 292.20-12.08L292.20-12.08Q292.16-12.08 291.90-12.14Q291.64-12.20 291.32-12.28Q291.00-12.36 290.68-12.42Q290.36-12.48 290.16-12.48L290.16-12.48Q289.24-12.48 288.06-11.52Q286.88-10.56 286.20-8.48L286.20-8.48Q285.92-7.60 285.92-7.04L285.92-7.04Q285.92-5.92 286.54-5.28Q287.16-4.64 287.92-4.30Q288.68-3.96 289.32-3.86Q289.96-3.76 290.00-3.76L290.00-3.76Q290.56-3.76 291.12-4.08Q291.68-4.40 292.14-4.80Q292.60-5.20 292.88-5.50Q293.16-5.80 293.12-5.80L293.12-5.80Q293.52-6.16 294.04-6.16L294.04-6.16Q294.68-6.16 295.22-5.50Q295.76-4.84 295.76-4.16L295.76-4.16Q295.76-3.96 295.72-3.84Z M306.44-18.84L306.44-18.84Q306.52-18.52 306.52-18.24L306.52-18.24Q306.52-16.96 305.76-16.08L305.76-16.08Q304.56-15.60 303.36-15.60L303.36-15.60Q302.60-16.08 302.10-16.70Q301.60-17.32 301.60-17.92L301.60-17.92Q301.60-18.44 302.80-20.48L302.80-20.48Q303.32-20.40 303.90-20.36Q304.48-20.32 304.98-20.16Q305.48-20 305.86-19.70Q306.24-19.40 306.44-18.84ZM305.16-12.16L305.16-12.16L305.16-11.64Q305.16-11.44 305.16-11.20Q305.16-10.96 305.08-10.76L305.08-10.76L304.76-8.96L304.76-8.60Q304.76-8.36 304.72-7.96Q304.68-7.56 304.62-7.16Q304.56-6.76 304.52-6.40Q304.48-6.04 304.48-5.80L304.48-5.80Q304.48-5.60 304.50-5.48Q304.52-5.36 304.52-5.16L304.52-5.16Q304.52-4.80 304.44-4.38Q304.36-3.96 304.36-3.44L304.36-3.44Q304.36-2.96 304.48-2.44L304.48-2.44Q304.04-0.64 302.64-0.64L302.64-0.64Q300.68-0.64 300.68-4.32L300.68-4.32Q300.68-5.56 300.80-6.78Q300.92-8 301.08-9.04Q301.24-10.08 301.42-10.86Q301.60-11.64 301.72-12.08L301.72-12.08Q302.32-12.96 303.40-12.96L303.40-12.96Q304.44-12.96 305.16-12.16Z M322.60-1L322.60-1Q322.08-0.64 320.92-0.30Q319.76 0.04 318.52 0.28L318.52 0.28L316.88-0.04Q316.52-0.16 315.70-0.60Q314.88-1.04 314.04-1.94Q313.20-2.84 312.56-4.26Q311.92-5.68 311.92-7.72L311.92-7.72Q311.92-8.44 312.26-9.42Q312.60-10.40 313.28-11.26Q313.96-12.12 314.98-12.72Q316.00-13.32 317.36-13.32L317.36-13.32Q320.08-13.32 322.28-11.56L322.28-11.56Q324.20-8.92 324.20-5.72L324.20-5.72Q324.20-3.36 322.60-1ZM320.64-6.68L320.64-6.68Q320.44-8.24 319.66-9.14Q318.88-10.04 317.68-10.04L317.68-10.04Q316.88-10.04 316.18-9.26Q315.48-8.48 315.48-7L315.48-7Q315.48-6.40 315.64-5.74Q315.80-5.08 316.16-4.54Q316.52-4 317.08-3.66Q317.64-3.32 318.44-3.32L318.44-3.32Q319.72-3.32 320.20-4.10Q320.68-4.88 320.68-6.04L320.68-6.04Q320.68-6.20 320.66-6.34Q320.64-6.48 320.64-6.68Z M342.28-4.44L342.28-4.44L342.28-4.12Q342.28-3.88 342.30-3.26Q342.32-2.64 342.18-2Q342.04-1.36 341.64-0.86Q341.24-0.36 340.44-0.36L340.44-0.36Q338.88-0.36 338.60-1.60L338.60-1.60Q338.64-1.84 338.64-2.14Q338.64-2.44 338.64-2.80L338.64-2.80Q338.64-2.96 338.64-3.98Q338.64-5 338.58-6.20Q338.52-7.40 338.32-8.46Q338.12-9.52 337.72-9.80L337.72-9.80Q336.80-10.44 336.08-10.44L336.08-10.44Q335.12-10.44 334.46-9.86Q333.80-9.28 333.36-7.60L333.36-7.60Q333.32-7.04 333.28-6.34Q333.24-5.64 333.16-4.76L333.16-4.76Q333.16-4.08 333.20-3.26Q333.24-2.44 333.32-1.40L333.32-1.40Q333.32-0.64 332.72-0.14Q332.12 0.36 331.36 0.36L331.36 0.36Q330.76 0.36 330.40 0.04Q330.04-0.28 329.86-0.80Q329.68-1.32 329.62-1.92Q329.56-2.52 329.56-3.12L329.56-3.12Q329.56-3.56 329.60-4.02Q329.64-4.48 329.72-4.96L329.72-4.96L330.04-8.80L330.36-10.72Q330.28-11.20 330.04-11.76Q329.80-12.32 329.80-12.64L329.80-12.64Q329.80-13.32 330.34-13.88Q330.88-14.44 331.68-14.44L331.68-14.44Q332.24-14.44 332.52-14.22Q332.80-14 333.44-13.16L333.44-13.16Q334.24-13.52 334.72-13.62Q335.20-13.72 335.84-13.72L335.84-13.72Q337.92-13.72 339.50-12.74Q341.08-11.76 341.48-9.48L341.48-9.48Q341.60-8.64 341.70-8.08Q341.80-7.52 341.88-7Q341.96-6.48 342.04-5.90Q342.12-5.32 342.28-4.44Z M362.08-1.60L362.08-1.60Q360.80-0.32 359.20 0.58Q357.60 1.48 355.96 1.48L355.96 1.48Q354.48 1.48 352.16 1L352.16 1Q351.36 0.48 350.56-0.26Q349.76-1 349.12-1.90Q348.48-2.80 348.08-3.86Q347.68-4.92 347.68-6.04L347.68-6.04Q347.68-6.36 347.72-6.90Q347.76-7.44 347.82-7.98Q347.88-8.52 347.92-8.92Q347.96-9.32 347.96-9.32L347.96-9.32Q348.76-10.60 349.66-11.86Q350.56-13.12 352.20-14.08L352.20-14.08Q354.80-14.64 355.96-14.64L355.96-14.64Q356.56-14.64 357-14.58Q357.44-14.52 357.86-14.34Q358.28-14.16 358.70-13.80Q359.12-13.44 359.68-12.88L359.68-12.88Q360.32-12.20 360.70-11.96Q361.08-11.72 361.08-11.52L361.08-11.52Q361.08-7.84 358.80-6.52L358.80-6.52Q357.80-6.16 356.20-5.74Q354.60-5.32 351.84-4.96L351.84-4.96Q352.40-3.44 353.32-2.68Q354.24-1.92 355.40-1.92L355.40-1.92Q357.12-1.92 359.72-3.96L359.72-3.96Q360.12-4.32 360.72-4.32L360.72-4.32Q361.36-4.32 361.86-3.84Q362.36-3.36 362.36-2.64L362.36-2.64Q362.36-2.12 362.08-1.60ZM357.56-10.16L357.56-10.16Q356.80-11.40 355.76-11.40L355.76-11.40Q355.32-11.40 354.80-11.28Q354.28-11.16 353.74-10.94Q353.20-10.72 352.74-10.40Q352.28-10.08 352-9.64L352-9.64L351.60-8.44Q352.96-8.56 354-8.64Q355.04-8.72 355.80-8.88Q356.56-9.04 357-9.32Q357.44-9.60 357.56-10.16Z M377.96-4.60L377.96-4.60Q377.84-3.36 377.14-2.34Q376.44-1.32 375.72-0.28L375.72-0.28Q375.28 0.08 374.46 0.34Q373.64 0.60 372.84 0.76Q372.04 0.92 371.46 1Q370.88 1.08 370.96 1.08L370.96 1.08Q370.56 1.08 369.94 0.94Q369.32 0.80 368.74 0.66Q368.16 0.52 367.78 0.38Q367.40 0.24 367.44 0.24L367.44 0.24Q367.08 0.20 366.52-0.02Q365.96-0.24 365.46-0.54Q364.96-0.84 364.58-1.18Q364.20-1.52 364.20-1.84L364.20-1.84Q364.20-2.16 364.36-2.50Q364.52-2.84 364.80-3.14Q365.08-3.44 365.38-3.62Q365.68-3.80 366-3.80L366-3.80L368.76-2.76Q369.52-2.52 370.26-2.42Q371-2.32 371.72-2.32L371.72-2.32Q372.40-2.32 372.94-2.58Q373.48-2.84 373.76-3.20L373.76-3.20L374.36-4.40Q374.28-5.12 373.78-5.52Q373.28-5.92 372.54-6.20Q371.80-6.48 370.96-6.72Q370.12-6.96 369.40-7.36L369.40-7.36L367.68-8.44Q366.84-9.52 366.80-11.76L366.80-11.76Q367.04-13.16 368-14L368-14Q368.04-14.04 368.52-14.38Q369-14.72 370-15.36L370-15.36Q370.16-15.36 371.02-15.44Q371.88-15.52 373.40-15.68L373.40-15.68Q374.08-15.68 376.72-14.72L376.72-14.72Q377.24-14.20 377.24-13.28L377.24-13.28Q377.24-12.56 376.90-12.06Q376.56-11.56 375.92-11.56L375.92-11.56Q375.24-11.56 374.42-11.90Q373.60-12.24 372.88-12.24L372.88-12.24Q371.88-12.24 371.06-12.06Q370.24-11.88 370.24-11.24L370.24-11.24Q370.24-10.32 371.04-10.12L371.04-10.12Q377.16-8.76 377.96-4.60Z M406.32-18.84L406.32-18.84Q406.40-18.52 406.40-18.24L406.40-18.24Q406.40-16.96 405.64-16.08L405.64-16.08Q404.44-15.60 403.24-15.60L403.24-15.60Q402.48-16.08 401.98-16.70Q401.48-17.32 401.48-17.92L401.48-17.92Q401.48-18.44 402.68-20.48L402.68-20.48Q403.20-20.40 403.78-20.36Q404.36-20.32 404.86-20.16Q405.36-20 405.74-19.70Q406.12-19.40 406.32-18.84ZM405.04-12.16L405.04-12.16L405.04-11.64Q405.04-11.44 405.04-11.20Q405.04-10.96 404.96-10.76L404.96-10.76L404.64-8.96L404.64-8.60Q404.64-8.36 404.60-7.96Q404.56-7.56 404.50-7.16Q404.44-6.76 404.40-6.40Q404.36-6.04 404.36-5.80L404.36-5.80Q404.36-5.60 404.38-5.48Q404.40-5.36 404.40-5.16L404.40-5.16Q404.40-4.80 404.32-4.38Q404.24-3.96 404.24-3.44L404.24-3.44Q404.24-2.96 404.36-2.44L404.36-2.44Q403.92-0.64 402.52-0.64L402.52-0.64Q400.56-0.64 400.56-4.32L400.56-4.32Q400.56-5.56 400.68-6.78Q400.80-8 400.96-9.04Q401.12-10.08 401.30-10.86Q401.48-11.64 401.60-12.08L401.60-12.08Q402.20-12.96 403.28-12.96L403.28-12.96Q404.32-12.96 405.04-12.16Z M425.28-4.44L425.28-4.44L425.28-4.12Q425.28-3.88 425.30-3.26Q425.32-2.64 425.18-2Q425.04-1.36 424.64-0.86Q424.24-0.36 423.44-0.36L423.44-0.36Q421.88-0.36 421.60-1.60L421.60-1.60Q421.64-1.84 421.64-2.14Q421.64-2.44 421.64-2.80L421.64-2.80Q421.64-2.96 421.64-3.98Q421.64-5 421.58-6.20Q421.52-7.40 421.32-8.46Q421.12-9.52 420.72-9.80L420.72-9.80Q419.80-10.44 419.08-10.44L419.08-10.44Q418.12-10.44 417.46-9.86Q416.80-9.28 416.36-7.60L416.36-7.60Q416.32-7.04 416.28-6.34Q416.24-5.64 416.16-4.76L416.16-4.76Q416.16-4.08 416.20-3.26Q416.24-2.44 416.32-1.40L416.32-1.40Q416.32-0.64 415.72-0.14Q415.12 0.36 414.36 0.36L414.36 0.36Q413.76 0.36 413.40 0.04Q413.04-0.28 412.86-0.80Q412.68-1.32 412.62-1.92Q412.56-2.52 412.56-3.12L412.56-3.12Q412.56-3.56 412.60-4.02Q412.64-4.48 412.72-4.96L412.72-4.96L413.04-8.80L413.36-10.72Q413.28-11.20 413.04-11.76Q412.80-12.32 412.80-12.64L412.80-12.64Q412.80-13.32 413.34-13.88Q413.88-14.44 414.68-14.44L414.68-14.44Q415.24-14.44 415.52-14.22Q415.80-14 416.44-13.16L416.44-13.16Q417.24-13.52 417.72-13.62Q418.20-13.72 418.84-13.72L418.84-13.72Q420.92-13.72 422.50-12.74Q424.08-11.76 424.48-9.48L424.48-9.48Q424.60-8.64 424.70-8.08Q424.80-7.52 424.88-7Q424.96-6.48 425.04-5.90Q425.12-5.32 425.28-4.44Z M440.36-12.44L440.36-12.44L438.20-12.24Q438.04-12.24 437.84-12.20L437.84-12.20Q437.64-12.16 437.38-12.12Q437.12-12.08 436.80-12.04L436.80-12.04L437.12-8.40Q437.16-7.88 437.22-7.12Q437.28-6.36 437.44-5.32L437.44-5.32Q437.40-5 437.38-4.68Q437.36-4.36 437.36-3.96L437.36-3.96Q437.36-3.36 437.40-2.64Q437.44-1.92 437.52-1.08L437.52-1.08Q436.80 0.12 435.48 0.12L435.48 0.12Q434.28 0.12 433.80-1.04L433.80-1.04Q433.80-1.36 433.82-1.82Q433.84-2.28 433.84-2.84L433.84-2.84Q433.84-3.40 433.82-4.06Q433.80-4.72 433.80-5.52L433.80-5.52L433.80-5.72Q433.80-6.36 433.74-6.68Q433.68-7 433.60-7.50Q433.52-8 433.40-8.92Q433.28-9.84 433.16-11.72L433.16-11.72L431.68-11.44Q431.56-11.44 431.46-11.46Q431.36-11.48 431.28-11.48L431.28-11.48Q431.08-11.48 430.92-11.46Q430.76-11.44 430.64-11.44L430.64-11.44Q430.48-11.40 430.36-11.40L430.36-11.40Q429.08-11.72 429.08-13.24L429.08-13.24Q429.08-13.84 429.20-14.16Q429.32-14.48 429.72-14.64Q430.12-14.80 430.90-14.90Q431.68-15 432.96-15.20L432.96-15.20Q432.92-15.88 432.82-16.78Q432.72-17.68 432.72-18.72L432.72-18.72Q432.72-20.32 434.16-22.92L434.16-22.92Q434.56-23.12 434.94-23.32Q435.32-23.52 435.86-23.70Q436.40-23.88 437.14-24.06Q437.88-24.24 439-24.40L439-24.40L439.16-24.40Q439.84-24.40 440.22-23.88Q440.60-23.36 440.60-22.68L440.60-22.68Q440.60-21.92 440.26-21.54Q439.92-21.16 439.40-20.94Q438.88-20.72 438.26-20.58Q437.64-20.44 437.12-20.20L437.12-20.20Q436.64-20.04 436.54-19.60Q436.44-19.16 436.40-18.72L436.40-18.72Q436.40-18.64 436.44-18.06Q436.48-17.48 436.48-17.04L436.48-17.04Q436.48-16.92 436.46-16.82Q436.44-16.72 436.44-16.64L436.44-16.64Q436.44-16.48 436.46-16.22Q436.48-15.96 436.52-15.52L436.52-15.52L438.36-15.76Q438.64-15.80 438.90-15.80Q439.16-15.80 439.36-15.80L439.36-15.80Q440.36-15.80 440.82-15.44Q441.28-15.08 441.28-14.20L441.28-14.20Q441.28-12.80 440.36-12.44Z M455.52-1L455.52-1Q455-0.64 453.84-0.30Q452.68 0.04 451.44 0.28L451.44 0.28L449.80-0.04Q449.44-0.16 448.62-0.60Q447.80-1.04 446.96-1.94Q446.12-2.84 445.48-4.26Q444.84-5.68 444.84-7.72L444.84-7.72Q444.84-8.44 445.18-9.42Q445.52-10.40 446.20-11.26Q446.88-12.12 447.90-12.72Q448.92-13.32 450.28-13.32L450.28-13.32Q453-13.32 455.20-11.56L455.20-11.56Q457.12-8.92 457.12-5.72L457.12-5.72Q457.12-3.36 455.52-1ZM453.56-6.68L453.56-6.68Q453.36-8.24 452.58-9.14Q451.80-10.04 450.60-10.04L450.60-10.04Q449.80-10.04 449.10-9.26Q448.40-8.48 448.40-7L448.40-7Q448.40-6.40 448.56-5.74Q448.72-5.08 449.08-4.54Q449.44-4 450-3.66Q450.56-3.32 451.36-3.32L451.36-3.32Q452.64-3.32 453.12-4.10Q453.60-4.88 453.60-6.04L453.60-6.04Q453.60-6.20 453.58-6.34Q453.56-6.48 453.56-6.68Z M471.60-13.96L473-13.60Q473.64-13.20 473.64-12.08L473.64-12.08Q473.64-11.24 473.20-10.64Q472.76-10.04 472-10.04L472-10.04Q471.52-10.04 471.02-10.30Q470.52-10.56 469.96-10.56L469.96-10.56Q469.48-10.56 469.02-10.38Q468.56-10.20 467.96-9.60L467.96-9.60L466.76-8.40Q466.76-8.12 466.78-7.84Q466.80-7.56 466.80-7.24L466.80-7.24Q466.80-6.76 466.78-6.24Q466.76-5.72 466.72-5.12L466.72-5.12L467.08-1.48Q466.96 0.36 465.20 0.36L465.20 0.36Q464.28 0.36 463.84-0.22Q463.40-0.80 463.24-1.84Q463.08-2.88 463.10-4.28Q463.12-5.68 463.08-7.36L463.08-7.36Q463-9.88 462.96-9.88L462.96-9.88L462.96-9.84Q462.80-10.44 462.72-10.90Q462.64-11.36 462.64-11.72L462.64-11.72Q462.64-12.44 463.16-12.90Q463.68-13.36 464.68-13.36L464.68-13.36Q465.32-13.36 466.20-12.36L466.20-12.36Q467.12-13.08 467.62-13.44Q468.12-13.80 468.46-13.96Q468.80-14.12 469.12-14.14Q469.44-14.16 469.96-14.16L469.96-14.16Q470.40-14.20 470.78-14.12Q471.16-14.04 471.60-13.96L471.60-13.96Z M500.68-2.52L500.68-2.28Q500.68-1.76 500.10-1.42Q499.52-1.08 498.84-1.08L498.84-1.08Q498.04-1.08 497.66-1.60Q497.28-2.12 497.12-2.94Q496.96-3.76 496.94-4.76Q496.92-5.76 496.88-6.68L496.88-6.68Q496.80-6.96 496.68-7.48Q496.56-8 496.48-8.80L496.48-8.80Q495.40-10 493.88-10L493.88-10Q493.32-10 492.76-9.90Q492.20-9.80 491.72-9.46Q491.24-9.12 490.84-8.44Q490.44-7.76 490.20-6.60L490.20-6.60Q490.24-6.40 490.24-5.88L490.24-5.88Q490.24-5.44 490.18-4.82Q490.12-4.20 490.04-3.40L490.04-3.40L490.04-3.20Q490.04-3.04 490.04-2.42Q490.04-1.80 489.88-1.14Q489.72-0.48 489.30 0.04Q488.88 0.56 488.08 0.56L488.08 0.56Q487.36 0.56 486.80 0.14Q486.24-0.28 486.24-0.88L486.24-0.88Q486.24-0.96 486.30-1.48Q486.36-2 486.46-2.66Q486.56-3.32 486.62-3.98Q486.68-4.64 486.68-5.04L486.68-5.04Q486.68-5.72 486.56-6.40L486.56-6.40L486.56-6.92Q486.56-8.96 485.76-10.76L485.76-10.76Q485.16-11.24 483.88-11.40L483.88-11.40Q483.64-11.32 483.28-11.16Q482.92-11 482.56-10.50Q482.20-10 481.92-9.08Q481.64-8.16 481.52-6.60L481.52-6.60L481.40-4.96Q481.64-3.76 481.64-2.88L481.64-2.88Q481.64-1.84 481.30-1.22Q480.96-0.60 479.80-0.60L479.80-0.60Q479.20-0.60 478.82-0.74Q478.44-0.88 478.22-1.38Q478-1.88 477.92-2.86Q477.84-3.84 477.84-5.48L477.84-5.48Q477.84-6.80 478-8.06Q478.16-9.32 478.48-11.32L478.48-11.32Q478.36-12 478.14-12.58Q477.92-13.16 477.92-13.48L477.92-13.48Q477.92-14.16 478.52-14.68Q479.12-15.20 479.92-15.20L479.92-15.20Q480.52-15.20 481-14.84L481-14.84L481.68-13.96Q482.16-14.36 482.52-14.58Q482.88-14.80 483.16-14.92Q483.44-15.04 483.72-15.06Q484-15.08 484.36-15.08L484.36-15.08Q484.88-15.08 485.18-15.08Q485.48-15.08 485.80-14.96Q486.12-14.84 486.54-14.58Q486.96-14.32 487.72-13.80L487.72-13.80Q488.20-13.48 489-11.72L489-11.72L489.24-12Q489.56-12.28 490.12-12.56Q490.68-12.84 491.34-13.06Q492-13.28 492.70-13.42Q493.40-13.56 493.96-13.56L493.96-13.56Q495.28-13.56 496.24-13.30Q497.20-13.04 497.88-12.54Q498.56-12.04 499.08-11.26Q499.60-10.48 500.08-9.48L500.08-9.48L500.08-9.20Q500.08-8.88 500.16-8.04Q500.24-7.20 500.32-6.36Q500.40-5.52 500.48-4.90Q500.56-4.28 500.56-4.36L500.56-4.36Q500.56-4.32 500.58-4.10Q500.60-3.88 500.62-3.58Q500.64-3.28 500.66-2.98Q500.68-2.68 500.68-2.52L500.68-2.52Z M545.28-15.08L545.28-15.08Q545.72-14.72 545.72-13.76L545.72-13.76Q545.72-12 544.40-12L544.40-12L544.24-12Q543.64-11.96 542.84-11.90Q542.04-11.84 541.04-11.72L541.04-11.72Q540.96-11.08 540.88-10.02Q540.80-8.96 540.80-7.48L540.80-7.48Q540.80-7.36 540.82-7.24Q540.84-7.12 540.84-6.96L540.84-6.96L540.84-5.12Q540.84-4.48 541.06-4.10Q541.28-3.72 541.60-3.56L541.60-3.56L542.72-3.20Q544.04-2.76 544.04-1.60L544.04-1.60Q544.04-0.92 543.50-0.40Q542.96 0.12 542.12 0.12L542.12 0.12Q541.88 0.12 541.30-0.02Q540.72-0.16 540.10-0.40Q539.48-0.64 538.94-1Q538.40-1.36 538.20-1.80L538.20-1.80Q537.76-2.72 537.48-3.74Q537.20-4.76 537.20-5.88L537.20-5.88Q537.20-7.12 537.24-7.64Q537.28-8.16 537.32-8.56Q537.36-8.96 537.40-9.52Q537.44-10.08 537.44-11.36L537.44-11.36Q536.68-11.28 535.20-10.88L535.20-10.88Q534.32-10.88 533.70-11.34Q533.08-11.80 533.08-12.56L533.08-12.56Q533.08-13.12 533.42-13.60Q533.76-14.08 534.84-14.44L534.84-14.44Q535.20-14.56 535.50-14.60Q535.80-14.64 536.10-14.68Q536.40-14.72 536.76-14.74Q537.12-14.76 537.64-14.84L537.64-14.84Q537.68-15.84 537.78-17.10Q537.88-18.36 538.14-19.44Q538.40-20.52 538.90-21.26Q539.40-22 540.24-22L540.24-22Q541.68-22 542.00-20.68L542.00-20.68Q542.00-20.64 541.90-20.14Q541.80-19.64 541.68-19.04Q541.56-18.44 541.46-17.88Q541.36-17.32 541.36-17.16L541.36-17.16L541.24-15.20Q541.52-15.24 541.76-15.26Q542.00-15.28 542.28-15.28L542.28-15.28L542.64-15.28Q542.92-15.28 543.16-15.30Q543.40-15.32 543.60-15.32L543.60-15.32Q544.80-15.32 545.28-15.08Z M555.72-18.84L555.72-18.84Q555.80-18.52 555.80-18.24L555.80-18.24Q555.80-16.96 555.04-16.08L555.04-16.08Q553.84-15.60 552.64-15.60L552.64-15.60Q551.88-16.08 551.38-16.70Q550.88-17.32 550.88-17.92L550.88-17.92Q550.88-18.44 552.08-20.48L552.08-20.48Q552.60-20.40 553.18-20.36Q553.76-20.32 554.26-20.16Q554.76-20 555.14-19.70Q555.52-19.40 555.72-18.84ZM554.44-12.16L554.44-12.16L554.44-11.64Q554.44-11.44 554.44-11.20Q554.44-10.96 554.36-10.76L554.36-10.76L554.04-8.96L554.04-8.60Q554.04-8.36 554.00-7.96Q553.96-7.56 553.90-7.16Q553.84-6.76 553.80-6.40Q553.76-6.04 553.76-5.80L553.76-5.80Q553.76-5.60 553.78-5.48Q553.80-5.36 553.80-5.16L553.80-5.16Q553.80-4.80 553.72-4.38Q553.64-3.96 553.64-3.44L553.64-3.44Q553.64-2.96 553.76-2.44L553.76-2.44Q553.32-0.64 551.92-0.64L551.92-0.64Q549.96-0.64 549.96-4.32L549.96-4.32Q549.96-5.56 550.08-6.78Q550.20-8 550.36-9.04Q550.52-10.08 550.70-10.86Q550.88-11.64 551.00-12.08L551.00-12.08Q551.60-12.96 552.68-12.96L552.68-12.96Q553.72-12.96 554.44-12.16Z M574.44-3.84L574.44-3.84Q573.68-2.24 571.96-1.30Q570.24-0.36 568.12-0.36L568.12-0.36Q567.84-0.36 567.20-0.44Q566.56-0.52 565.78-0.76Q565.00-1 564.18-1.42Q563.36-1.84 562.68-2.54Q562.00-3.24 561.56-4.24Q561.12-5.24 561.12-6.60L561.12-6.60Q561.08-8.40 561.62-9.88Q562.16-11.36 563.36-12.88L563.36-12.88L564.64-14.52Q566.88-16.04 569.68-16.04L569.68-16.04Q571.20-16.04 572.10-15.48Q573.00-14.92 573.00-13.88L573.00-13.88Q573.00-13.08 572.42-12.58Q571.84-12.08 570.92-12.08L570.92-12.08Q570.88-12.08 570.62-12.14Q570.36-12.20 570.04-12.28Q569.72-12.36 569.40-12.42Q569.08-12.48 568.88-12.48L568.88-12.48Q567.96-12.48 566.78-11.52Q565.60-10.56 564.92-8.48L564.92-8.48Q564.64-7.60 564.64-7.04L564.64-7.04Q564.64-5.92 565.26-5.28Q565.88-4.64 566.64-4.30Q567.40-3.96 568.04-3.86Q568.68-3.76 568.72-3.76L568.72-3.76Q569.28-3.76 569.84-4.08Q570.40-4.40 570.86-4.80Q571.32-5.20 571.60-5.50Q571.88-5.80 571.84-5.80L571.84-5.80Q572.24-6.16 572.76-6.16L572.76-6.16Q573.40-6.16 573.94-5.50Q574.48-4.84 574.48-4.16L574.48-4.16Q574.48-3.96 574.44-3.84Z M593.08-4.72L593.08-4.72Q593.80-4.24 593.80-3.56L593.80-3.56Q593.80-3.20 593.60-2.82Q593.40-2.44 593.08-2.14Q592.76-1.84 592.40-1.64Q592.04-1.44 591.68-1.44L591.68-1.44Q591.36-1.56 590.92-1.86Q590.48-2.16 590.04-2.54Q589.60-2.92 589.22-3.40Q588.84-3.88 588.64-4.36L588.64-4.36L588.36-3.68Q587.60-2.24 585.96-0.96L585.96-0.96Q583.96-0.60 583.64-0.60L583.64-0.60Q582.88-0.60 581.80-0.84L581.80-0.84L579.60-2.40Q578.16-3.76 578.16-6.12L578.16-6.12Q578.16-6.96 578.42-7.98Q578.68-9 579.18-10.04Q579.68-11.08 580.40-12.08Q581.12-13.08 582.08-13.88L582.08-13.88Q583.24-14.32 584.32-14.62Q585.40-14.92 585.96-15L585.96-15Q586.72-15.84 587.76-15.84L587.76-15.84Q588.36-15.84 588.82-15.26Q589.28-14.68 589.62-13.80Q589.96-12.92 590.16-11.86Q590.36-10.80 590.44-9.84L590.44-9.84L590.96-7.72Q591.20-6.72 591.74-6Q592.28-5.28 593.08-4.72ZM587.00-9.16L587.00-9.16Q586.92-9.20 586.40-11.68L586.40-11.68Q586.20-11.68 585.80-11.68Q585.40-11.68 584.86-11.46Q584.32-11.24 583.70-10.70Q583.08-10.16 582.52-9.08L582.52-9.08Q581.68-7.52 581.68-5.96L581.68-5.96Q582.36-4.64 583.80-3.88L583.80-3.88Q584.24-4 584.54-4.16Q584.84-4.32 585.08-4.60Q585.32-4.88 585.54-5.30Q585.76-5.72 586.04-6.36L586.04-6.36Q586.56-7.28 586.78-7.98Q587.00-8.68 587.00-9.16Z M608.00-4.60L608.00-4.60Q607.88-3.36 607.18-2.34Q606.48-1.32 605.76-0.28L605.76-0.28Q605.32 0.08 604.50 0.34Q603.68 0.60 602.88 0.76Q602.08 0.92 601.50 1Q600.92 1.08 601.00 1.08L601.00 1.08Q600.60 1.08 599.98 0.94Q599.36 0.80 598.78 0.66Q598.20 0.52 597.82 0.38Q597.44 0.24 597.48 0.24L597.48 0.24Q597.12 0.20 596.56-0.02Q596.00-0.24 595.50-0.54Q595.00-0.84 594.62-1.18Q594.24-1.52 594.24-1.84L594.24-1.84Q594.24-2.16 594.40-2.50Q594.56-2.84 594.84-3.14Q595.12-3.44 595.42-3.62Q595.72-3.80 596.04-3.80L596.04-3.80L598.80-2.76Q599.56-2.52 600.30-2.42Q601.04-2.32 601.76-2.32L601.76-2.32Q602.44-2.32 602.98-2.58Q603.52-2.84 603.80-3.20L603.80-3.20L604.40-4.40Q604.32-5.12 603.82-5.52Q603.32-5.92 602.58-6.20Q601.84-6.48 601.00-6.72Q600.16-6.96 599.44-7.36L599.44-7.36L597.72-8.44Q596.88-9.52 596.84-11.76L596.84-11.76Q597.08-13.16 598.04-14L598.04-14Q598.08-14.04 598.56-14.38Q599.04-14.72 600.04-15.36L600.04-15.36Q600.20-15.36 601.06-15.44Q601.92-15.52 603.44-15.68L603.44-15.68Q604.12-15.68 606.76-14.72L606.76-14.72Q607.28-14.20 607.28-13.28L607.28-13.28Q607.28-12.56 606.94-12.06Q606.60-11.56 605.96-11.56L605.96-11.56Q605.28-11.56 604.46-11.90Q603.64-12.24 602.92-12.24L602.92-12.24Q601.92-12.24 601.10-12.06Q600.28-11.88 600.28-11.24L600.28-11.24Q600.28-10.32 601.08-10.12L601.08-10.12Q607.20-8.76 608.00-4.60Z"/></g>
</svg>
</g><g opacity="1" transform="rotate(0 58.6018 341.2418)">
<svg width="376.106" height="50" x="58.6018" y="341.2418" version="1.1" preserveAspectRatio="none" viewBox="2.28 -32.84 251.84 33.480000000000004">
  <g transform="matrix(1 0 0 1 0 0)" class="companyName"><path id="id-D6z1nYkh12" d="M2.28 0L2.28-28L16.08-28Q20.76-28 24.34-26.30Q27.92-24.60 29.90-21.44Q31.88-18.28 31.88-14L31.88-14Q31.88-9.72 29.90-6.56Q27.92-3.40 24.34-1.70Q20.76 0 16.08 0L16.08 0L2.28 0ZM11.72-7.36L15.68-7.36Q18.72-7.36 20.54-9.10Q22.36-10.84 22.36-14L22.36-14Q22.36-17.16 20.54-18.90Q18.72-20.64 15.68-20.64L15.68-20.64L11.72-20.64L11.72-7.36Z M43.64-19.52Q46.04-22.28 50.72-22.28L50.72-22.28L50.72-14.28Q49.64-14.44 48.72-14.44L48.72-14.44Q44.08-14.44 44.08-9.72L44.08-9.72L44.08 0L35.04 0L35.04-21.88L43.64-21.88L43.64-19.52Z M56.96 0.40Q54.68 0.40 53.18-1.06Q51.68-2.52 51.68-4.80L51.68-4.80Q51.68-7.08 53.18-8.50Q54.68-9.92 56.96-9.92L56.96-9.92Q59.24-9.92 60.74-8.50Q62.24-7.08 62.24-4.80L62.24-4.80Q62.24-2.52 60.74-1.06Q59.24 0.40 56.96 0.40L56.96 0.40Z M87.76 0.64Q84.28 0.64 80.98-0.14Q77.68-0.92 75.56-2.24L75.56-2.24L78.60-9.12Q80.60-7.96 83.08-7.26Q85.56-6.56 87.84-6.56L87.84-6.56Q89.80-6.56 90.64-6.94Q91.48-7.32 91.48-8.08L91.48-8.08Q91.48-8.96 90.38-9.40Q89.28-9.84 86.76-10.36L86.76-10.36Q83.52-11.04 81.36-11.82Q79.20-12.60 77.60-14.38Q76-16.16 76-19.20L76-19.20Q76-21.84 77.48-24Q78.96-26.16 81.90-27.40Q84.84-28.64 89.04-28.64L89.04-28.64Q91.92-28.64 94.70-28.02Q97.48-27.40 99.60-26.20L99.60-26.20L96.76-19.36Q92.64-21.44 88.96-21.44L88.96-21.44Q85.32-21.44 85.32-19.68L85.32-19.68Q85.32-18.84 86.40-18.42Q87.48-18 89.96-17.52L89.96-17.52Q93.16-16.92 95.36-16.14Q97.56-15.36 99.18-13.60Q100.80-11.84 100.80-8.80L100.80-8.80Q100.80-6.16 99.32-4.02Q97.84-1.88 94.90-0.62Q91.96 0.64 87.76 0.64L87.76 0.64Z M114.88 0.40Q111.24 0.40 108.34-1.06Q105.44-2.52 103.80-5.10Q102.16-7.68 102.16-10.96L102.16-10.96Q102.16-14.24 103.80-16.82Q105.44-19.40 108.34-20.84Q111.24-22.28 114.88-22.28L114.88-22.28Q118.56-22.28 121.46-20.84Q124.36-19.40 125.98-16.82Q127.60-14.24 127.60-10.96L127.60-10.96Q127.60-7.68 125.98-5.10Q124.36-2.52 121.46-1.06Q118.56 0.40 114.88 0.40L114.88 0.40ZM114.88-6.64Q116.44-6.64 117.44-7.78Q118.44-8.92 118.44-10.96L118.44-10.96Q118.44-13 117.44-14.12Q116.44-15.24 114.88-15.24L114.88-15.24Q113.32-15.24 112.32-14.12Q111.32-13 111.32-10.96L111.32-10.96Q111.32-8.92 112.32-7.78Q113.32-6.64 114.88-6.64L114.88-6.64Z M130.44 0L130.44-29.68L139.48-29.68L139.48 0L130.44 0Z M158.36-21.88L167.40-21.88L167.40 0L158.80 0L158.80-2.08Q157.60-0.84 156-0.22Q154.40 0.40 152.60 0.40L152.60 0.40Q148.44 0.40 145.92-2.14Q143.40-4.68 143.40-9.80L143.40-9.80L143.40-21.88L152.44-21.88L152.44-11.36Q152.44-9.12 153.16-8.16Q153.88-7.20 155.28-7.20L155.28-7.20Q156.60-7.20 157.48-8.26Q158.36-9.32 158.36-11.60L158.36-11.60L158.36-21.88Z M185.36-7.04L187.52-0.76Q185.48 0.40 181.96 0.40L181.96 0.40Q177.36 0.40 174.88-1.82Q172.40-4.04 172.40-8.48L172.40-8.48L172.40-14.08L169.40-14.08L169.40-20.68L172.40-20.68L172.40-26.80L181.44-26.80L181.44-20.68L185.92-20.68L185.92-14.08L181.44-14.08L181.44-8.56Q181.44-7.56 181.96-7Q182.48-6.44 183.32-6.44L183.32-6.44Q184.48-6.44 185.36-7.04L185.36-7.04Z M189.80 0L189.80-21.88L198.84-21.88L198.84 0L189.80 0ZM194.32-23.64Q191.88-23.64 190.38-24.94Q188.88-26.24 188.88-28.24L188.88-28.24Q188.88-30.24 190.38-31.54Q191.88-32.84 194.32-32.84L194.32-32.84Q196.80-32.84 198.28-31.60Q199.76-30.36 199.76-28.40L199.76-28.40Q199.76-26.32 198.28-24.98Q196.80-23.64 194.32-23.64L194.32-23.64Z M214.40 0.40Q210.76 0.40 207.86-1.06Q204.96-2.52 203.32-5.10Q201.68-7.68 201.68-10.96L201.68-10.96Q201.68-14.24 203.32-16.82Q204.96-19.40 207.86-20.84Q210.76-22.28 214.40-22.28L214.40-22.28Q218.08-22.28 220.98-20.84Q223.88-19.40 225.50-16.82Q227.12-14.24 227.12-10.96L227.12-10.96Q227.12-7.68 225.50-5.10Q223.88-2.52 220.98-1.06Q218.08 0.40 214.40 0.40L214.40 0.40ZM214.40-6.64Q215.96-6.64 216.96-7.78Q217.96-8.92 217.96-10.96L217.96-10.96Q217.96-13 216.96-14.12Q215.96-15.24 214.40-15.24L214.40-15.24Q212.84-15.24 211.84-14.12Q210.84-13 210.84-10.96L210.84-10.96Q210.84-8.92 211.84-7.78Q212.84-6.64 214.40-6.64L214.40-6.64Z M245.16-22.28Q249.20-22.28 251.66-19.84Q254.12-17.40 254.12-12.48L254.12-12.48L254.12 0L245.08 0L245.08-10.92Q245.08-14.68 242.40-14.68L242.40-14.68Q240.88-14.68 239.94-13.62Q239.00-12.56 239.00-10.28L239.00-10.28L239.00 0L229.96 0L229.96-21.88L238.56-21.88L238.56-19.72Q239.84-21 241.52-21.64Q243.20-22.28 245.16-22.28L245.16-22.28Z"/></g>
</svg>
</g><g opacity="1" transform="rotate(0 152.6283 128.0703)">
<svg width="188.053" height="183.1715" x="152.6283" y="128.0703" version="1.1" preserveAspectRatio="none" viewBox="61.50125503540039 62.5 76.99874877929688 75">
  <g transform="matrix(1 0 0 1 0 0)" ><g><path d="M82.904 96.982c.158.783-1.556 1.223-2.444 1.273-4.628.26-9.221 3.921-11.922 7.502-1.359 1.802-2.394 3.837-2.89 6.049-.31 1.383-.402 2.819-.391 4.234.008 1.105.382 2.43.613 3.531.184.878 1.678 2.347.948 2.984-.608.53-1.835.557-2.324-.186-1.688-2.568-2.62-6.046-2.214-8.998a18.915 18.915 0 0 1 3.225-8.222c1.628-2.348 3.747-4.383 6.088-6.011 2.487-1.729 5.286-3.298 8.371-3.471.898-.05 2.747.359 2.94 1.315z" data-color="1" class="icon1"></path><path d="M65.699 123.39c-.105 0-.209-.007-.313-.022-.546-.075-.995-.343-1.265-.753-1.818-2.765-2.693-6.331-2.283-9.306.414-3.025 1.525-5.857 3.3-8.416 1.588-2.29 3.732-4.408 6.201-6.123 2.235-1.553 5.232-3.36 8.601-3.551 1.047-.048 3.142.388 3.402 1.673a.969.969 0 0 1-.198.8c-.568.738-2.113.98-2.659 1.011-4.676.263-9.165 4.11-11.588 7.324-1.41 1.869-2.355 3.846-2.81 5.877-.268 1.192-.392 2.544-.38 4.132.006.808.222 1.751.429 2.663.062.268.121.53.174.78.05.24.27.607.483.963.478.8 1.073 1.796.321 2.451-.365.317-.886.497-1.415.497zm14.435-27.28c-.049 0-.097.001-.143.004-3.144.177-6.001 1.906-8.14 3.392-2.381 1.656-4.448 3.695-5.977 5.898-1.693 2.442-2.752 5.143-3.149 8.027-.374 2.727.468 6.139 2.145 8.691.169.258.471.335.637.357.371.055.778-.054 1.017-.263.187-.163-.245-.884-.502-1.315-.262-.438-.51-.852-.591-1.239-.051-.245-.11-.502-.169-.764-.209-.914-.446-1.95-.453-2.856-.013-1.658.119-3.076.401-4.335.484-2.157 1.483-4.249 2.97-6.222 2.539-3.367 7.272-7.399 12.252-7.679.735-.041 1.748-.334 2.001-.663l.469-.163-.439.089c-.111-.554-1.448-.959-2.329-.959z" data-color="2" class="icon2"></path><path d="M69.331 123.206a3.693 3.693 0 0 1-3.691 3.694 3.693 3.693 0 0 1-3.691-3.694 3.693 3.693 0 0 1 3.691-3.694 3.693 3.693 0 0 1 3.691 3.694z" data-color="1" class="icon1"></path><path d="M65.647 127.349a4.148 4.148 0 0 1-4.133-4.473 4.144 4.144 0 0 1 4.458-3.799 4.148 4.148 0 0 1 3.795 4.46 4.117 4.117 0 0 1-1.442 2.823 4.109 4.109 0 0 1-2.678.989zm-.01-7.389a3.248 3.248 0 0 0-3.23 2.987 3.248 3.248 0 0 0 2.975 3.493 3.214 3.214 0 0 0 2.361-.764 3.248 3.248 0 0 0-2.106-5.716z" data-color="2" class="icon2"></path><path d="m68.966 135.58 6.306-3.455-8.583-7.3a.2.2 0 0 0-.324.201l2.601 10.554z" data-color="1" class="icon1"></path><path d="m68.671 136.253-2.742-11.12a.648.648 0 0 1 1.05-.65l9.079 7.722-7.387 4.048zm-1.689-10.589 2.278 9.243 5.224-2.862-7.502-6.381z" data-color="2" class="icon2"></path><path d="M75.676 132.108c.667 1.11-.33 2.934-2.226 4.073s-3.975 1.162-4.642.052c-.667-1.11.33-2.934 2.227-4.073s3.975-1.162 4.641-.052z" data-color="1" class="icon1"></path><path d="M70.632 137.5c-.981 0-1.793-.347-2.207-1.039-.805-1.344.243-3.404 2.383-4.689 2.137-1.283 4.448-1.241 5.255.104.407.68.356 1.558-.145 2.472-.459.838-1.253 1.625-2.238 2.217-1.04.625-2.12.935-3.048.935zm3.242-5.767c-.767 0-1.714.274-2.606.809-1.653.992-2.603 2.576-2.075 3.458.531.884 2.375.789 4.027-.204.849-.51 1.529-1.178 1.913-1.878.197-.361.482-1.047.162-1.58-.244-.406-.767-.605-1.421-.605z" data-color="2" class="icon2"></path><path d="M113.729 111.288a69.45 69.45 0 0 1-.045 2.889c-.21 5.505-4.216 10.546-9.484 12.056-1.133.325-2.31.488-3.488.488-3.767 0-7.372-1.723-9.802-4.593a13.544 13.544 0 0 1-2.69-5.068c-.749-2.66-.513-5.656-.513-8.405V89.802h26.002c0 4.066-.078 8.13-.119 12.196-.032 3.083.129 6.196.139 9.29z" data-color="3" class="icon3"></path><path d="M100.712 127.319c-3.933 0-7.672-1.751-10.258-4.804a14.216 14.216 0 0 1-2.809-5.292c-.628-2.235-.589-4.645-.552-6.975.009-.537.018-1.07.018-1.593v-19.45h27.196v.598c0 2.754-.036 5.507-.071 8.261l-.048 3.941c-.018 1.72.026 3.483.068 5.189.034 1.366.068 2.731.072 4.093v.001c.002.973-.009 1.945-.046 2.913-.218 5.721-4.389 11.024-9.917 12.608-1.185.337-2.413.51-3.653.51zM88.304 90.4v18.255c0 .53-.008 1.068-.018 1.612-.036 2.244-.074 4.565.507 6.631a12.984 12.984 0 0 0 2.57 4.843c2.324 2.743 5.818 4.381 9.347 4.381 1.129 0 2.247-.156 3.324-.465 5.046-1.446 8.853-6.285 9.051-11.504.036-.952.048-1.907.046-2.865-.005-1.353-.038-2.71-.071-4.067-.043-1.716-.086-3.489-.069-5.23l.048-3.945c.033-2.549.066-5.098.071-7.647H88.304z" data-color="2" class="icon2"></path><path d="m87.672 102.269.035 8.795 14.632 10.857 11.39-8.224-.014-7.876-.148-5.074-25.895 1.522z" data-color="2" class="icon2"></path><path d="M101.098 63.249 64.709 91.207l36.389 25.151 36.388-26.064-36.388-27.045z" data-color="3" class="icon3"></path><path d="M101.104 117.089 63.696 91.233 101.092 62.5 138.5 90.303l-37.396 26.786zm-35.38-25.908 35.369 24.446 35.38-25.342-35.369-26.288-35.38 27.184z" data-color="2" class="icon2"></path></g></g>
</svg>
</g></svg></svg>